<svg width="72" height="80" viewBox="0 0 72 80" fill="none" xmlns="http://www.w3.org/2000/svg">
<path d="M36.0052 41.542C47.4339 41.542 56.7762 32.1997 56.7762 20.771C56.7762 9.34236 47.4339 0 36.0052 0C24.5766 0 15.2344 9.34236 15.2344 20.771C15.2344 32.1997 24.5767 41.542 36.0052 41.542Z" fill="white"/>
<path d="M71.652 58.1406C71.1077 56.78 70.3822 55.5102 69.5658 54.331C65.3934 48.1632 58.9537 44.0816 51.6974 43.0838C50.7905 42.9932 49.7928 43.1744 49.0671 43.7187C45.2575 46.5305 40.7224 47.9817 36.0058 47.9817C31.2891 47.9817 26.754 46.5305 22.9445 43.7187C22.2188 43.1744 21.2211 42.9024 20.3141 43.0838C13.0579 44.0816 6.5273 48.1632 2.44571 54.331C1.62939 55.5102 0.903694 56.8708 0.359596 58.1406C0.0875478 58.6849 0.178173 59.3198 0.450221 59.864C1.17592 61.1338 2.08286 62.4038 2.89918 63.4921C4.16897 65.2156 5.52956 66.7574 7.07158 68.2086C8.34137 69.4784 9.79258 70.6576 11.244 71.8368C18.4094 77.1883 27.0263 80 35.9151 80C44.804 80 53.4209 77.1882 60.5863 71.8368C62.0375 70.7484 63.4888 69.4784 64.7587 68.2086C66.2099 66.7574 67.6612 65.2154 68.9311 63.4921C69.8381 62.313 70.6546 61.1338 71.3801 59.864C71.8334 59.3198 71.924 58.6847 71.652 58.1406Z" fill="white"/>
</svg>
