<svg width="511" height="134" viewBox="0 0 511 134" fill="none" xmlns="http://www.w3.org/2000/svg">
<path d="M65.1 76.88C70.6067 77.9067 75.1333 80.66 78.68 85.14C82.2267 89.62 84 94.7533 84 100.54C84 105.767 82.6933 110.387 80.08 114.4C77.56 118.32 73.8733 121.4 69.02 123.64C64.1667 125.88 58.4267 127 51.8 127H9.66V29.28H49.98C56.6067 29.28 62.3 30.3533 67.06 32.5C71.9133 34.6467 75.5533 37.6333 77.98 41.46C80.5 45.2867 81.76 49.6267 81.76 54.48C81.76 60.1733 80.22 64.9333 77.14 68.76C74.1533 72.5867 70.14 75.2933 65.1 76.88ZM29.26 69.6H47.18C51.8467 69.6 55.44 68.5733 57.96 66.52C60.48 64.3733 61.74 61.34 61.74 57.42C61.74 53.5 60.48 50.4667 57.96 48.32C55.44 46.1733 51.8467 45.1 47.18 45.1H29.26V69.6ZM49 111.04C53.76 111.04 57.4467 109.92 60.06 107.68C62.7667 105.44 64.12 102.267 64.12 98.16C64.12 93.96 62.72 90.6933 59.92 88.36C57.12 85.9333 53.34 84.72 48.58 84.72H29.26V111.04H49ZM171.721 86.54C171.721 89.34 171.534 91.86 171.161 94.1H114.461C114.928 99.7 116.888 104.087 120.341 107.26C123.794 110.433 128.041 112.02 133.081 112.02C140.361 112.02 145.541 108.893 148.621 102.64H169.761C167.521 110.107 163.228 116.267 156.881 121.12C150.534 125.88 142.741 128.26 133.501 128.26C126.034 128.26 119.314 126.627 113.341 123.36C107.461 120 102.841 115.287 99.4809 109.22C96.2143 103.153 94.5809 96.1533 94.5809 88.22C94.5809 80.1933 96.2143 73.1467 99.4809 67.08C102.748 61.0133 107.321 56.3467 113.201 53.08C119.081 49.8133 125.848 48.18 133.501 48.18C140.874 48.18 147.454 49.7667 153.241 52.94C159.121 56.1133 163.648 60.64 166.821 66.52C170.088 72.3067 171.721 78.98 171.721 86.54ZM151.421 80.94C151.328 75.9 149.508 71.8867 145.961 68.9C142.414 65.82 138.074 64.28 132.941 64.28C128.088 64.28 123.981 65.7733 120.621 68.76C117.354 71.6533 115.348 75.7133 114.601 80.94H151.421ZM205.627 23.4V127H186.027V23.4H205.627ZM336.057 86.54C336.057 89.34 335.87 91.86 335.497 94.1H278.797C279.264 99.7 281.224 104.087 284.677 107.26C288.13 110.433 292.377 112.02 297.417 112.02C304.697 112.02 309.877 108.893 312.957 102.64H334.097C331.857 110.107 327.564 116.267 321.217 121.12C314.87 125.88 307.077 128.26 297.837 128.26C290.37 128.26 283.65 126.627 277.677 123.36C271.797 120 267.177 115.287 263.817 109.22C260.55 103.153 258.917 96.1533 258.917 88.22C258.917 80.1933 260.55 73.1467 263.817 67.08C267.084 61.0133 271.657 56.3467 277.537 53.08C283.417 49.8133 290.184 48.18 297.837 48.18C305.21 48.18 311.79 49.7667 317.577 52.94C323.457 56.1133 327.984 60.64 331.157 66.52C334.424 72.3067 336.057 78.98 336.057 86.54ZM315.757 80.94C315.664 75.9 313.844 71.8867 310.297 68.9C306.75 65.82 302.41 64.28 297.277 64.28C292.424 64.28 288.317 65.7733 284.957 68.76C281.69 71.6533 279.684 75.7133 278.937 80.94H315.757ZM382.703 108.94L402.303 49.44H423.163L394.463 127H370.663L342.103 49.44H363.103L382.703 108.94ZM506.272 86.54C506.272 89.34 506.085 91.86 505.712 94.1H449.012C449.478 99.7 451.438 104.087 454.892 107.26C458.345 110.433 462.592 112.02 467.632 112.02C474.912 112.02 480.092 108.893 483.172 102.64H504.312C502.072 110.107 497.778 116.267 491.432 121.12C485.085 125.88 477.292 128.26 468.052 128.26C460.585 128.26 453.865 126.627 447.892 123.36C442.012 120 437.392 115.287 434.032 109.22C430.765 103.153 429.132 96.1533 429.132 88.22C429.132 80.1933 430.765 73.1467 434.032 67.08C437.298 61.0133 441.872 56.3467 447.752 53.08C453.632 49.8133 460.398 48.18 468.052 48.18C475.425 48.18 482.005 49.7667 487.792 52.94C493.672 56.1133 498.198 60.64 501.372 66.52C504.638 72.3067 506.272 78.98 506.272 86.54ZM485.972 80.94C485.878 75.9 484.058 71.8867 480.512 68.9C476.965 65.82 472.625 64.28 467.492 64.28C462.638 64.28 458.532 65.7733 455.172 68.76C451.905 71.6533 449.898 75.7133 449.152 80.94H485.972Z" fill="#747474"/>
<path d="M234.932 40.2C231.479 40.2 228.585 39.1267 226.252 36.98C224.012 34.74 222.892 31.9867 222.892 28.72C222.892 25.4533 224.012 22.7467 226.252 20.6C228.585 18.36 231.479 17.24 234.932 17.24C238.385 17.24 241.232 18.36 243.472 20.6C245.805 22.7467 246.972 25.4533 246.972 28.72C246.972 31.9867 245.805 34.74 243.472 36.98C241.232 39.1267 238.385 40.2 234.932 40.2ZM244.592 49.44V127H224.992V49.44H244.592Z" fill="#FF4974"/>
<g clip-path="url(#clip0_816_11050)">
<path d="M246.517 7.10223C240.222 6.79546 235.007 11.74 234.874 17.9358C234.873 17.9493 234.869 17.9493 234.868 17.9358C234.735 11.74 229.52 6.79556 223.225 7.10223C216.311 7.43919 211.723 14.2015 212.937 21.0162C214.979 32.4776 229.084 40.3691 233.531 42.5945C234.375 43.0168 235.367 43.0168 236.211 42.5945C240.658 40.3691 254.763 32.4776 256.805 21.0162C258.019 14.2015 253.431 7.43919 246.517 7.10223V7.10223Z" fill="url(#paint0_radial_816_11050)"/>
<path d="M213.068 21.6668C213.092 21.7788 213.118 21.8906 213.145 22.0019C213.159 22.0618 213.174 22.1215 213.189 22.1812C213.216 22.2867 213.244 22.3919 213.273 22.4968C213.289 22.5554 213.305 22.614 213.321 22.6723C213.354 22.7861 213.388 22.8992 213.422 23.0121C213.437 23.059 213.451 23.1061 213.465 23.1527C213.515 23.3098 213.567 23.4662 213.621 23.6218C213.633 23.6567 213.646 23.6912 213.658 23.7261C213.701 23.8476 213.745 23.9689 213.791 24.0896C213.813 24.1476 213.836 24.2054 213.858 24.2632C213.896 24.3607 213.935 24.458 213.975 24.5549C214 24.6173 214.026 24.6796 214.052 24.7418C214.092 24.8354 214.132 24.9287 214.173 25.0218C214.2 25.0825 214.226 25.1434 214.254 25.204C214.3 25.3066 214.348 25.4085 214.396 25.5104C214.419 25.5594 214.441 25.6087 214.465 25.6574C214.534 25.8009 214.605 25.9434 214.677 26.0854C214.708 26.145 214.739 26.2041 214.771 26.2635C214.816 26.3506 214.862 26.4376 214.908 26.5242C214.945 26.5926 214.983 26.6608 215.021 26.7289C215.063 26.8056 215.106 26.8821 215.15 26.9582C215.19 27.0291 215.231 27.0998 215.272 27.1703C215.314 27.2429 215.357 27.3152 215.401 27.3874C215.444 27.459 215.486 27.5307 215.53 27.6018C215.573 27.6716 215.616 27.7408 215.66 27.8102C215.75 27.9527 215.841 28.0944 215.933 28.2353C215.969 28.2901 216.005 28.3452 216.041 28.3997C216.096 28.4822 216.153 28.5641 216.209 28.6461C216.245 28.6994 216.282 28.7529 216.319 28.806C216.377 28.8893 216.435 28.9722 216.494 29.0549C216.529 29.1039 216.565 29.1527 216.6 29.2016C216.662 29.2877 216.725 29.3737 216.788 29.4592C216.817 29.4977 216.846 29.536 216.875 29.5744C217.124 29.9068 217.381 30.2342 217.645 30.556C217.646 30.5572 217.647 30.5586 217.648 30.5599C217.732 30.6632 217.818 30.7658 217.904 30.868L217.956 30.9292C218.041 31.03 218.127 31.1302 218.214 31.2299L218.256 31.2784C218.843 31.9511 219.457 32.5991 220.089 33.2212L220.105 33.2369C224.979 38.0265 230.92 41.2877 233.531 42.5945C234.375 43.0169 235.366 43.0169 236.21 42.5945C238.049 41.6744 241.539 39.785 245.144 37.076L229.402 21.3334C228.401 20.2308 227.014 19.4997 225.39 19.4206C222.67 19.288 220.322 20.9566 219.432 23.3364L217.49 21.4053C216.332 20.1253 214.635 19.3426 212.757 19.4194C212.762 19.5415 212.771 19.6638 212.78 19.7862C212.783 19.8216 212.786 19.857 212.789 19.8923C212.797 19.9798 212.805 20.0672 212.815 20.1548C212.819 20.1963 212.824 20.2377 212.829 20.2791C212.839 20.3651 212.85 20.4512 212.862 20.5371C212.867 20.5748 212.872 20.6124 212.878 20.6501C212.896 20.7721 212.915 20.894 212.937 21.0161C212.966 21.1814 212.999 21.3458 213.033 21.5096C213.044 21.5622 213.056 21.6144 213.068 21.6668V21.6668Z" fill="url(#paint1_linear_816_11050)"/>
<path d="M225.39 19.4206C221.962 19.2536 219.123 21.9458 219.05 25.3192C219.05 25.3266 219.047 25.3266 219.047 25.3192C218.975 21.9457 216.135 19.2536 212.708 19.4206C208.943 19.604 206.445 23.286 207.106 26.9965C208.218 33.237 215.898 37.5337 218.319 38.7454C218.779 38.9754 219.319 38.9754 219.778 38.7454C222.199 37.5337 229.88 33.237 230.992 26.9965C231.653 23.286 229.154 19.604 225.39 19.4206V19.4206Z" fill="url(#paint2_linear_816_11050)"/>
</g>
<defs>
<radialGradient id="paint0_radial_816_11050" cx="0" cy="0" r="1" gradientUnits="userSpaceOnUse" gradientTransform="translate(230.649 16.9135) scale(24.3361 24.3361)">
<stop stop-color="#FF4974"/>
<stop offset="0.4497" stop-color="#FE4773"/>
<stop offset="0.6292" stop-color="#FC406D"/>
<stop offset="0.7605" stop-color="#F73464"/>
<stop offset="0.8683" stop-color="#F12257"/>
<stop offset="0.9606" stop-color="#E80C46"/>
<stop offset="1" stop-color="#E4003D"/>
</radialGradient>
<linearGradient id="paint1_linear_816_11050" x1="236.146" y1="39.0412" x2="224.278" y2="26.076" gradientUnits="userSpaceOnUse">
<stop stop-color="#E4003D" stop-opacity="0"/>
<stop offset="1" stop-color="#E4003D"/>
</linearGradient>
<linearGradient id="paint2_linear_816_11050" x1="213.778" y1="19.9217" x2="224.948" y2="33.1861" gradientUnits="userSpaceOnUse">
<stop stop-color="#FFE548"/>
<stop offset="0.1758" stop-color="#FFDE50"/>
<stop offset="0.4446" stop-color="#FFCA65"/>
<stop offset="0.7709" stop-color="#FFAA87"/>
<stop offset="1" stop-color="#FF90A4"/>
</linearGradient>
<clipPath id="clip0_816_11050">
<rect width="50" height="50" fill="white" transform="translate(207)"/>
</clipPath>
</defs>
</svg>
