<svg width="80" height="80" viewBox="0 0 80 80" fill="none" xmlns="http://www.w3.org/2000/svg">
<g clip-path="url(#clip0_536_5012)">
<path d="M72.0125 67.5321V78.1123C72.0125 79.1548 71.1674 80 70.1248 80H9.87496C8.83245 80 7.98743 79.1548 7.98743 78.1123V67.5085C7.98743 66.5926 8.35056 65.7142 8.99731 65.0657L15.6408 58.4031H64.3357L71.0026 65.0893C71.6494 65.7377 72.0125 66.6163 72.0125 67.5321Z" fill="url(#paint0_linear_536_5012)"/>
<path d="M64.3356 58.4031H60.1306V80H70.1248C71.1673 80 72.0123 79.1548 72.0123 78.1125V67.5322C72.0123 66.6163 71.6492 65.7379 71.0025 65.0894L64.3356 58.4031Z" fill="url(#paint1_linear_536_5012)"/>
<path d="M15.6643 58.4031H19.8693V80H9.87496C8.83245 80 7.98743 79.1548 7.98743 78.1125V67.5322C7.98743 66.6163 8.35056 65.7379 8.99731 65.0894L15.6643 58.4031Z" fill="url(#paint2_linear_536_5012)"/>
<path d="M72.0125 78.1125V71.3726H7.98743V78.1125C7.98743 79.155 8.8326 80 9.87511 80H70.125C71.1674 80 72.0125 79.1548 72.0125 78.1125Z" fill="url(#paint3_linear_536_5012)"/>
<path d="M60.2618 80H19.7382C18.7132 80 17.8823 79.1691 17.8823 78.1441V56.6871L37.691 37.7184C38.9609 36.5023 41.039 36.5023 42.309 37.7184L62.1176 56.6871V78.1441C62.1176 79.1691 61.2867 80 60.2618 80Z" fill="url(#paint4_linear_536_5012)"/>
<path d="M42.309 37.7184C41.039 36.5023 38.9609 36.5023 37.691 37.7184L17.8823 56.6871V61.5818L36.3007 80H60.2619C61.2869 80 62.1178 79.1691 62.1178 78.1441V56.6871L42.309 37.7184Z" fill="url(#paint5_linear_536_5012)"/>
<path d="M17.8823 71.3726V78.1442C17.8823 79.1691 18.7132 80 19.7382 80H60.2618C61.2867 80 62.1176 79.1691 62.1176 78.1442V71.3726H17.8823Z" fill="url(#paint6_linear_536_5012)"/>
<path d="M45.704 4.4822H42.2409V0.830588C42.2409 0.371922 41.8692 0 41.4103 0H38.5893C38.1307 0 37.7587 0.371765 37.7587 0.830588V4.4822H34.2957C33.837 4.4822 33.4651 4.85396 33.4651 5.31278V8.1338C33.4651 8.59247 33.8369 8.96439 34.2957 8.96439H37.7587V17.0519C37.7587 17.5106 38.1305 17.8825 38.5893 17.8825H41.4103C41.869 17.8825 42.2409 17.5107 42.2409 17.0519V8.96424H45.704C46.1627 8.96424 46.5346 8.59247 46.5346 8.13365V5.31263C46.5346 4.85396 46.1628 4.4822 45.704 4.4822Z" fill="url(#paint7_linear_536_5012)"/>
<path d="M30.1813 21.5956H49.8186V39.1749H30.1813V21.5956Z" fill="url(#paint8_linear_536_5012)"/>
<path d="M30.1813 21.5956V25.8265L43.5297 39.1749H49.8186V21.5956H30.1813Z" fill="url(#paint9_linear_536_5012)"/>
<path d="M51.0342 24.6069L48.9018 26.7449C47.9618 27.6875 46.2906 27.6875 45.3505 26.7449L41.8579 23.2433L41.1086 22.4929C40.5232 21.9027 39.4771 21.9027 38.8918 22.4929L38.1425 23.2433L34.6502 26.7459C33.7102 27.6888 32.0385 27.6888 31.0984 26.7459L28.9657 24.6069C28.1873 23.8262 28.1873 22.6605 28.966 21.88L32.8744 17.9614L35.7202 15.1073C37.9869 12.8342 42.0159 12.8342 44.2803 15.1073L47.1262 17.9614L51.0342 21.8798C51.8127 22.6604 51.8127 23.8262 51.0342 24.6069Z" fill="url(#paint10_linear_536_5012)"/>
<path d="M49.7685 25.877L48.9019 26.7456C47.9616 27.6878 46.2907 27.6877 45.3508 26.7453L41.8579 23.2433L41.1086 22.4929C40.5232 21.9027 39.4771 21.9027 38.8918 22.4929L38.1425 23.2433L34.6503 26.7459C33.7102 27.6888 32.0385 27.6888 31.0984 26.7459L30.2321 25.8769L35.5001 20.5931L35.7202 20.3727C37.9869 18.0996 42.0159 18.0996 44.2804 20.3727L44.5004 20.5931L49.7685 25.877Z" fill="url(#paint11_linear_536_5012)"/>
<path d="M67.2365 58.9978L65.3826 60.8549C64.1968 62.0427 62.0902 62.0422 60.9052 60.8538L57.3369 57.2753L41.212 41.1059C40.5667 40.4565 39.4155 40.4565 38.7702 41.1059L22.658 57.2612L19.0922 60.837C17.9063 62.0262 15.7978 62.0257 14.6125 60.8359L12.7612 58.9773C11.7807 57.9928 11.7811 56.5238 12.7623 55.5398L16.8552 51.4353L35.2735 32.9663C37.7709 30.4612 42.2114 30.4612 44.7088 32.9663L63.1468 51.4557L67.2378 55.5581C68.2196 56.5429 68.2191 58.0135 67.2365 58.9978Z" fill="url(#paint12_linear_536_5012)"/>
<path d="M66.0571 60.1788L65.3825 60.8546C64.1968 62.0425 62.09 62.042 60.905 60.8536L57.3369 57.2753L41.212 41.1059C40.5667 40.4565 39.4155 40.4565 38.7701 41.1059L22.658 57.2612L19.0917 60.8375C17.906 62.0266 15.7978 62.0262 14.6125 60.8367L13.9413 60.1631L35.2735 38.7702C37.7709 36.2651 42.2114 36.2651 44.7088 38.7702L66.0571 60.1788Z" fill="url(#paint13_linear_536_5012)"/>
<path d="M41.2596 30.4314H38.7404C38.021 30.4314 37.438 29.8482 37.438 29.1289V26.6144C37.438 25.1994 38.5851 24.0524 40 24.0524C41.4151 24.0524 42.5621 25.1995 42.5621 26.6144V29.1289C42.5621 29.8482 41.979 30.4314 41.2596 30.4314Z" fill="url(#paint14_linear_536_5012)"/>
<path d="M31.4054 80H21.9608V66.317C21.9608 63.709 24.075 61.5947 26.6832 61.5947C29.2912 61.5947 31.4055 63.7089 31.4055 66.317V80H31.4054Z" fill="url(#paint15_linear_536_5012)"/>
<path d="M44.7224 80H35.2778V58.744C35.2778 56.136 37.392 54.0216 40.0002 54.0216C42.6082 54.0216 44.7225 56.1358 44.7225 58.744V80H44.7224Z" fill="url(#paint16_linear_536_5012)"/>
<path d="M58.0393 80H48.5947V66.317C48.5947 63.709 50.7089 61.5947 53.3171 61.5947C55.9251 61.5947 58.0394 63.7089 58.0394 66.317V80H58.0393Z" fill="url(#paint17_linear_536_5012)"/>
<path d="M39.9999 51.2941C41.7037 51.2941 43.085 49.9129 43.085 48.2091C43.085 46.5053 41.7037 45.1241 39.9999 45.1241C38.2961 45.1241 36.9149 46.5053 36.9149 48.2091C36.9149 49.9129 38.2961 51.2941 39.9999 51.2941Z" fill="url(#paint18_linear_536_5012)"/>
<path d="M21.9608 71.3726H31.4055V80H21.9608V71.3726Z" fill="url(#paint19_linear_536_5012)"/>
<path d="M35.2784 71.3726H44.7216V80H35.2784V71.3726Z" fill="url(#paint20_linear_536_5012)"/>
<path d="M48.5946 71.3726H58.0393V80H48.5946V71.3726Z" fill="url(#paint21_linear_536_5012)"/>
<path d="M26.6832 61.5948C24.284 61.5948 22.304 63.3845 22.0021 65.7015L31.4054 75.1048V66.3172C31.4054 63.709 29.2912 61.5948 26.6832 61.5948Z" fill="url(#paint22_linear_536_5012)"/>
<path d="M62.6929 41.3964C62.3664 41.3964 62.0394 41.3191 61.7473 41.1729C60.8643 40.731 59.1401 39.7835 57.5137 38.4022C55.3978 36.6053 54.1437 34.6766 53.7862 32.6695C53.5084 31.1104 53.905 29.5187 54.8742 28.3027C55.7718 27.1766 57.0436 26.5184 58.4555 26.4497C58.5385 26.4456 58.6228 26.4436 58.7054 26.4436C60.0282 26.4436 61.277 26.9534 62.2217 27.8791C62.3923 28.0463 62.5497 28.2237 62.6929 28.4099C62.8362 28.2237 62.9936 28.0461 63.1642 27.8789C64.1089 26.9533 65.3577 26.4435 66.6805 26.4435C66.7633 26.4435 66.8474 26.4455 66.9304 26.4496C68.3423 26.5184 69.6141 27.1765 70.5117 28.3027C71.4808 29.5187 71.8773 31.1103 71.5995 32.6695C71.242 34.6764 69.9879 36.6052 67.872 38.4022C66.2457 39.7834 64.5214 40.731 63.6384 41.1729C63.3462 41.3192 63.0193 41.3964 62.6929 41.3964Z" fill="url(#paint23_linear_536_5012)"/>
<path d="M18.9281 20.6433C18.6928 20.6433 18.4571 20.5876 18.2464 20.4822C17.6098 20.1636 16.3669 19.4805 15.1943 18.4847C13.669 17.1893 12.7648 15.7987 12.5069 14.3518C12.3068 13.2279 12.5926 12.0805 13.2913 11.2038C13.9383 10.3918 14.8552 9.91749 15.8731 9.86776C15.933 9.86478 15.9935 9.86337 16.0533 9.86337C17.007 9.86337 17.9073 10.2309 18.5882 10.8982C18.7112 11.0188 18.8246 11.1467 18.928 11.2809C19.0313 11.1467 19.1447 11.0187 19.2677 10.8982C19.9488 10.2309 20.8491 9.86337 21.8028 9.86337C21.8625 9.86337 21.9231 9.86478 21.983 9.86776C23.0009 9.91733 23.9179 10.3918 24.565 11.2038C25.2636 12.0805 25.5495 13.2279 25.3493 14.3518C25.0916 15.7987 24.1874 17.1892 22.6621 18.4847C21.4895 19.4805 20.2465 20.1636 19.61 20.4822C19.3992 20.5876 19.1634 20.6433 18.9281 20.6433Z" fill="url(#paint24_linear_536_5012)"/>
</g>
<defs>
<linearGradient id="paint0_linear_536_5012" x1="37.1724" y1="59.2654" x2="42.0874" y2="82.6902" gradientUnits="userSpaceOnUse">
<stop stop-color="#EDF5FF"/>
<stop offset="1" stop-color="#C7E9FF"/>
</linearGradient>
<linearGradient id="paint1_linear_536_5012" x1="71.3203" y1="69.2016" x2="61.2614" y2="69.2016" gradientUnits="userSpaceOnUse">
<stop stop-color="#7BACDF" stop-opacity="0"/>
<stop offset="1" stop-color="#7BACDF"/>
</linearGradient>
<linearGradient id="paint2_linear_536_5012" x1="8.67966" y1="69.2016" x2="18.7385" y2="69.2016" gradientUnits="userSpaceOnUse">
<stop stop-color="#7BACDF" stop-opacity="0"/>
<stop offset="1" stop-color="#7BACDF"/>
</linearGradient>
<linearGradient id="paint3_linear_536_5012" x1="40" y1="75.9738" x2="40" y2="79.901" gradientUnits="userSpaceOnUse">
<stop stop-color="#7BACDF" stop-opacity="0"/>
<stop offset="1" stop-color="#7BACDF"/>
</linearGradient>
<linearGradient id="paint4_linear_536_5012" x1="24.5251" y1="52.325" x2="49.4588" y2="77.2587" gradientUnits="userSpaceOnUse">
<stop stop-color="#EDF5FF"/>
<stop offset="1" stop-color="#C7E9FF"/>
</linearGradient>
<linearGradient id="paint5_linear_536_5012" x1="46.2174" y1="66.0031" x2="29.7468" y2="47.8071" gradientUnits="userSpaceOnUse">
<stop stop-color="#7BACDF" stop-opacity="0"/>
<stop offset="1" stop-color="#7BACDF"/>
</linearGradient>
<linearGradient id="paint6_linear_536_5012" x1="40" y1="75.9738" x2="40" y2="79.901" gradientUnits="userSpaceOnUse">
<stop stop-color="white" stop-opacity="0"/>
<stop offset="0.1764" stop-color="#EEF4FB" stop-opacity="0.176"/>
<stop offset="0.527" stop-color="#C1D8F0" stop-opacity="0.527"/>
<stop offset="1" stop-color="#7BACDF"/>
</linearGradient>
<linearGradient id="paint7_linear_536_5012" x1="35.5934" y1="8.94118" x2="47.1851" y2="8.94118" gradientUnits="userSpaceOnUse">
<stop stop-color="#FFE177"/>
<stop offset="1" stop-color="#FE9738"/>
</linearGradient>
<linearGradient id="paint8_linear_536_5012" x1="34.8588" y1="25.2441" x2="45.1347" y2="35.52" gradientUnits="userSpaceOnUse">
<stop stop-color="#EDF5FF"/>
<stop offset="1" stop-color="#C7E9FF"/>
</linearGradient>
<linearGradient id="paint9_linear_536_5012" x1="39.9999" y1="40.0392" x2="39.9999" y2="21.6861" gradientUnits="userSpaceOnUse">
<stop stop-color="white" stop-opacity="0"/>
<stop offset="0.1764" stop-color="#EEF4FB" stop-opacity="0.176"/>
<stop offset="0.527" stop-color="#C1D8F0" stop-opacity="0.527"/>
<stop offset="1" stop-color="#7BACDF"/>
</linearGradient>
<linearGradient id="paint10_linear_536_5012" x1="33.5037" y1="16.741" x2="47.5613" y2="30.7986" gradientUnits="userSpaceOnUse">
<stop stop-color="#F6A96C"/>
<stop offset="1" stop-color="#CA6E59"/>
</linearGradient>
<linearGradient id="paint11_linear_536_5012" x1="43.8993" y1="29.7694" x2="29.5561" y2="15.4262" gradientUnits="userSpaceOnUse">
<stop stop-color="#F6A96C"/>
<stop offset="1" stop-color="#CA6E59"/>
</linearGradient>
<linearGradient id="paint12_linear_536_5012" x1="24.8191" y1="42.0596" x2="57.6687" y2="74.909" gradientUnits="userSpaceOnUse">
<stop stop-color="#F6A96C"/>
<stop offset="1" stop-color="#CA6E59"/>
</linearGradient>
<linearGradient id="paint13_linear_536_5012" x1="50.4065" y1="70.5495" x2="12.1226" y2="32.2654" gradientUnits="userSpaceOnUse">
<stop stop-color="#F6A96C"/>
<stop offset="1" stop-color="#CA6E59"/>
</linearGradient>
<linearGradient id="paint14_linear_536_5012" x1="38.1751" y1="25.7857" x2="41.2207" y2="28.8315" gradientUnits="userSpaceOnUse">
<stop stop-color="#5A5A5A"/>
<stop offset="1" stop-color="#444444"/>
</linearGradient>
<linearGradient id="paint15_linear_536_5012" x1="20.8427" y1="66.3401" x2="30.2531" y2="75.7504" gradientUnits="userSpaceOnUse">
<stop stop-color="#5A5A5A"/>
<stop offset="1" stop-color="#444444"/>
</linearGradient>
<linearGradient id="paint16_linear_536_5012" x1="32.3963" y1="60.7901" x2="44.6477" y2="73.0417" gradientUnits="userSpaceOnUse">
<stop stop-color="#5A5A5A"/>
<stop offset="1" stop-color="#444444"/>
</linearGradient>
<linearGradient id="paint17_linear_536_5012" x1="47.4765" y1="66.3401" x2="56.8868" y2="75.7504" gradientUnits="userSpaceOnUse">
<stop stop-color="#5A5A5A"/>
<stop offset="1" stop-color="#444444"/>
</linearGradient>
<linearGradient id="paint18_linear_536_5012" x1="37.9683" y1="46.1774" x2="41.2418" y2="49.451" gradientUnits="userSpaceOnUse">
<stop stop-color="#5A5A5A"/>
<stop offset="1" stop-color="#444444"/>
</linearGradient>
<linearGradient id="paint19_linear_536_5012" x1="26.6832" y1="74.902" x2="26.6832" y2="79.7647" gradientUnits="userSpaceOnUse">
<stop stop-color="#444444" stop-opacity="0"/>
<stop offset="1" stop-color="#1A1A1A"/>
</linearGradient>
<linearGradient id="paint20_linear_536_5012" x1="40" y1="74.902" x2="40" y2="79.7647" gradientUnits="userSpaceOnUse">
<stop stop-color="#444444" stop-opacity="0"/>
<stop offset="1" stop-color="#1A1A1A"/>
</linearGradient>
<linearGradient id="paint21_linear_536_5012" x1="53.317" y1="74.902" x2="53.317" y2="79.7647" gradientUnits="userSpaceOnUse">
<stop stop-color="#444444" stop-opacity="0"/>
<stop offset="1" stop-color="#1A1A1A"/>
</linearGradient>
<linearGradient id="paint22_linear_536_5012" x1="35.15" y1="73.4775" x2="19.761" y2="58.0885" gradientUnits="userSpaceOnUse">
<stop stop-color="#444444" stop-opacity="0"/>
<stop offset="1" stop-color="#1A1A1A"/>
</linearGradient>
<linearGradient id="paint23_linear_536_5012" x1="61.2091" y1="30.074" x2="67.4965" y2="37.9244" gradientUnits="userSpaceOnUse">
<stop stop-color="#FE646F"/>
<stop offset="1" stop-color="#FB2B3A"/>
</linearGradient>
<linearGradient id="paint24_linear_536_5012" x1="17.8585" y1="12.4806" x2="22.3912" y2="18.1402" gradientUnits="userSpaceOnUse">
<stop stop-color="#FE646F"/>
<stop offset="1" stop-color="#FB2B3A"/>
</linearGradient>
<clipPath id="clip0_536_5012">
<rect width="80" height="80" fill="white"/>
</clipPath>
</defs>
</svg>
