<svg width="80" height="80" viewBox="0 0 80 80" fill="none" xmlns="http://www.w3.org/2000/svg">
<g clip-path="url(#clip0_1448_12226)">
<path d="M20.3933 73.2188L20.8617 72.7504C22.1552 71.4569 22.1552 69.36 20.8617 68.0665L17.0721 64.2769L14.2617 67.0872L10.0889 71.2601L18.2644 79.4356C19.0169 80.1881 20.2371 80.1881 20.9896 79.4356L22.4373 77.9879C23.1897 77.2354 23.1897 76.0152 22.4373 75.2627L20.3933 73.2188Z" fill="url(#paint0_linear_1448_12226)"/>
<path d="M17.6254 76.7529L14.1338 73.2613C13.5459 72.6734 13.5459 71.7201 14.1338 71.1322C14.7217 70.5443 15.675 70.5443 16.2629 71.1322L19.7545 74.6238C20.3424 75.2118 20.3424 76.165 19.7545 76.7529C19.1666 77.3409 18.2133 77.3409 17.6254 76.7529Z" fill="url(#paint1_linear_1448_12226)"/>
<path d="M26.4821 64.3193L21.7557 59.5929L18.9453 62.4033L23.6717 67.1297C24.4477 67.9057 25.7061 67.9057 26.4821 67.1297C27.2583 66.3537 27.2583 65.0955 26.4821 64.3193Z" fill="url(#paint2_linear_1448_12226)"/>
<path d="M4.63327 72.2018C2.67563 70.2442 2.67563 67.0702 4.63327 65.1124L35.0025 34.7432L42.0919 41.8326L11.7225 72.2018C9.76488 74.1595 6.59092 74.1595 4.63327 72.2018Z" fill="url(#paint3_linear_1448_12226)"/>
<path d="M34.47 42.365C33.8102 41.7052 33.3054 40.888 33.0103 40.0019C32.1189 37.324 30.5489 31.9236 30.0533 25.8439C29.4086 17.935 30.7722 11.5015 34.1063 6.72185C36.6963 3.00906 40.715 0.593535 45.1319 0.0943978C49.2224 -0.36772 53.1234 0.872908 56.1165 3.58757C56.2925 3.74726 56.4667 3.91306 56.634 4.08044C59.3079 6.75432 60.8016 10.3088 60.8398 14.0894C60.8467 14.7724 60.8061 15.4489 60.7194 16.1149C61.3856 16.0284 62.0623 15.9876 62.7451 15.9945C66.5255 16.0329 70.0802 17.5267 72.754 20.2006C72.9214 20.368 73.0874 20.5422 73.2469 20.7181C75.9617 23.711 77.2023 27.6122 76.7401 31.7029C76.2411 36.1197 73.8254 40.1383 70.1125 42.7281C65.3332 46.0622 58.8994 47.4259 50.9906 46.7811C44.9112 46.2856 39.5107 44.7157 36.8326 43.8241C35.947 43.5295 35.1299 43.0249 34.47 42.365Z" fill="url(#paint4_linear_1448_12226)"/>
<path d="M35.5176 41.3173C35.0197 40.8194 34.6389 40.2028 34.4161 39.5338C33.5455 36.9188 32.013 31.6475 31.53 25.7236C30.914 18.167 32.1896 12.0592 35.3214 7.56951C37.6677 4.2059 41.3043 2.01798 45.2982 1.56669C48.9595 1.15304 52.448 2.26065 55.1209 4.68512C55.279 4.82849 55.4357 4.97767 55.5862 5.12826C57.9841 7.52622 59.3237 10.7141 59.3581 14.1046C59.3642 14.7135 59.3278 15.3256 59.25 15.9239L59.0014 17.8329L60.9104 17.5844C61.5095 17.5066 62.1217 17.4701 62.73 17.4763C66.1203 17.5107 69.308 18.8505 71.7063 21.2486C71.8567 21.399 72.0059 21.5557 72.1495 21.7138C74.5741 24.3869 75.6815 27.8754 75.2679 31.5369C74.8167 35.5306 72.6288 39.167 69.2651 41.5132C64.7755 44.645 58.6677 45.9206 51.1112 45.3046C45.1866 44.8218 39.9157 43.289 37.301 42.4185C36.6323 42.1962 36.0155 41.8153 35.5176 41.3173Z" fill="url(#paint5_linear_1448_12226)"/>
<path d="M71.0521 22.7095C66.7001 17.9117 59.3174 17.7156 54.7177 22.1211C54.7076 22.1308 54.7042 22.1274 54.7139 22.1173C59.1194 17.5175 58.9233 10.1349 54.1255 5.7829C48.8562 1.00329 40.6069 2.58274 36.5368 8.41756C29.6913 18.2307 34.2076 34.2169 35.822 39.0659C36.1283 39.9862 36.8488 40.7067 37.7691 41.013C42.6181 42.6275 58.6043 47.1437 68.4174 40.2982C74.2523 36.2279 75.8317 27.9788 71.0521 22.7095Z" fill="url(#paint6_linear_1448_12226)"/>
<path d="M32.4437 44.3915C33.1257 45.0736 33.1257 46.1793 32.4437 46.8612L10.4719 68.833C9.78986 69.515 8.68413 69.515 8.00225 68.833C7.32021 68.1509 7.32021 67.0452 8.00225 66.3633L29.974 44.3915C30.6559 43.7097 31.7616 43.7097 32.4437 44.3915Z" fill="url(#paint7_linear_1448_12226)"/>
</g>
<defs>
<linearGradient id="paint0_linear_1448_12226" x1="13.4876" y1="67.6464" x2="23.4649" y2="77.6237" gradientUnits="userSpaceOnUse">
<stop stop-color="#FFD945"/>
<stop offset="0.3043" stop-color="#FFCD3E"/>
<stop offset="0.8558" stop-color="#FFAD2B"/>
<stop offset="1" stop-color="#FFA325"/>
</linearGradient>
<linearGradient id="paint1_linear_1448_12226" x1="15.4613" y1="75.4102" x2="18.556" y2="72.3155" gradientUnits="userSpaceOnUse">
<stop stop-color="#FFD945"/>
<stop offset="0.3043" stop-color="#FFCD3E"/>
<stop offset="0.8558" stop-color="#FFAD2B"/>
<stop offset="1" stop-color="#FFA325"/>
</linearGradient>
<linearGradient id="paint2_linear_1448_12226" x1="24.9126" y1="62.5527" x2="21.4972" y2="65.9682" gradientUnits="userSpaceOnUse">
<stop stop-color="#FFD945"/>
<stop offset="0.3043" stop-color="#FFCD3E"/>
<stop offset="0.8558" stop-color="#FFAD2B"/>
<stop offset="1" stop-color="#FFA325"/>
</linearGradient>
<linearGradient id="paint3_linear_1448_12226" x1="17.9779" y1="51.6063" x2="25.3937" y2="59.022" gradientUnits="userSpaceOnUse">
<stop stop-color="#FFD945"/>
<stop offset="0.3043" stop-color="#FFCD3E"/>
<stop offset="0.8558" stop-color="#FFAD2B"/>
<stop offset="1" stop-color="#FFA325"/>
</linearGradient>
<linearGradient id="paint4_linear_1448_12226" x1="54.3587" y1="16.466" x2="51.2" y2="45.0383" gradientUnits="userSpaceOnUse">
<stop stop-color="#FFD945"/>
<stop offset="0.3043" stop-color="#FFCD3E"/>
<stop offset="0.8558" stop-color="#FFAD2B"/>
<stop offset="1" stop-color="#FFA325"/>
</linearGradient>
<linearGradient id="paint5_linear_1448_12226" x1="53.3678" y1="52.7317" x2="53.3678" y2="-1.08926" gradientUnits="userSpaceOnUse">
<stop stop-color="#FFD945"/>
<stop offset="0.3043" stop-color="#FFCD3E"/>
<stop offset="0.8558" stop-color="#FFAD2B"/>
<stop offset="1" stop-color="#FFA325"/>
</linearGradient>
<linearGradient id="paint6_linear_1448_12226" x1="54.2552" y1="17.4178" x2="51.5025" y2="42.318" gradientUnits="userSpaceOnUse">
<stop stop-color="#FF7044"/>
<stop offset="1" stop-color="#F82814"/>
</linearGradient>
<linearGradient id="paint7_linear_1448_12226" x1="21.5043" y1="57.8916" x2="18.9209" y2="55.3082" gradientUnits="userSpaceOnUse">
<stop stop-color="#FFD945"/>
<stop offset="0.3043" stop-color="#FFCD3E"/>
<stop offset="0.8558" stop-color="#FFAD2B"/>
<stop offset="1" stop-color="#FFA325"/>
</linearGradient>
<clipPath id="clip0_1448_12226">
<rect width="80" height="80" fill="white"/>
</clipPath>
</defs>
</svg>
