<svg width="80" height="80" viewBox="0 0 80 80" fill="none" xmlns="http://www.w3.org/2000/svg">
<g clip-path="url(#clip0_1448_12238)">
<path d="M76.7188 80H3.2816C1.87611 80 0.736816 78.8607 0.736816 77.4552V29.7735C0.736816 27.8902 1.65211 26.1244 3.19093 25.0386L37.5985 0.762C39.0385 -0.254 40.9618 -0.254 42.4018 0.762L76.8094 25.0387C78.3483 26.1245 79.2636 27.8903 79.2636 29.7736V77.4553C79.2636 78.8607 78.1243 80 76.7188 80Z" fill="url(#paint0_linear_1448_12238)"/>
<path d="M73.6824 70.2696H6.31836V14.8013C6.31836 11.6565 8.86769 9.10706 12.0126 9.10706H67.9882C71.1329 9.10706 73.6824 11.6564 73.6824 14.8013V70.2696Z" fill="url(#paint1_linear_1448_12238)"/>
<path d="M63.5706 21.7421H16.4293C15.6372 21.7421 14.9951 21.0999 14.9951 20.3079V18.1636C14.9951 17.3714 15.6373 16.7294 16.4293 16.7294H63.5706C64.3628 16.7294 65.0048 17.3716 65.0048 18.1636V20.3079C65.0048 21.1 64.3628 21.7421 63.5706 21.7421Z" fill="#E3CEEF"/>
<path d="M63.5706 33.2086H16.4293C15.6372 33.2086 14.9951 32.5664 14.9951 31.7744V29.6301C14.9951 28.838 15.6373 28.1959 16.4293 28.1959H63.5706C64.3628 28.1959 65.0048 28.8381 65.0048 29.6301V31.7744C65.0048 32.5666 64.3628 33.2086 63.5706 33.2086Z" fill="#E3CEEF"/>
<path d="M63.5706 44.6753H16.4293C15.6372 44.6753 14.9951 44.0331 14.9951 43.2411V41.0968C14.9951 40.3046 15.6373 39.6626 16.4293 39.6626H63.5706C64.3628 39.6626 65.0048 40.3048 65.0048 41.0968V43.2411C65.0048 44.0331 64.3628 44.6753 63.5706 44.6753Z" fill="#E3CEEF"/>
<path d="M3.2816 80C1.87611 80 0.736816 78.8607 0.736816 77.4552V29.315C0.736816 29.2648 0.738228 29.2149 0.741209 29.1655C0.842856 27.4118 2.88756 26.4911 4.32129 27.5062L38.166 51.4664C39.6312 52.5037 39.6229 54.6805 38.15 55.7068L3.2816 80Z" fill="url(#paint2_linear_1448_12238)"/>
<path d="M76.719 80C78.1244 80 79.2637 78.8607 79.2637 77.4552V29.315C79.2637 29.2648 79.2623 29.2149 79.2593 29.1655C79.1577 27.4118 77.113 26.4911 75.6793 27.5062L41.8346 51.4664C40.3693 52.5037 40.3776 54.6805 41.8506 55.7068L76.719 80Z" fill="url(#paint3_linear_1448_12238)"/>
<path d="M76.7188 80H3.2816C1.87611 80 0.736816 78.8607 0.736816 77.4552L37.5094 51.6062C39.0038 50.5557 40.9967 50.5557 42.4912 51.6062L79.2636 77.455C79.2636 78.8607 78.1243 80 76.7188 80Z" fill="url(#paint4_linear_1448_12238)"/>
<path d="M50.5945 44.9623C49.3674 43.6654 47.7457 42.9102 45.9644 42.8235C45.8475 42.8178 45.7291 42.8149 45.6126 42.8149C43.7506 42.8149 41.9931 43.5323 40.6635 44.8351C40.4375 45.0566 40.2287 45.2912 40.0367 45.5366C39.9991 45.498 39.4088 44.9055 39.337 44.8351C38.0074 43.5322 36.2497 42.8147 34.3879 42.8147C34.2714 42.8147 34.153 42.8175 34.0361 42.8233C32.049 42.9201 30.2588 43.8464 28.9956 45.4315C27.6315 47.143 27.0734 49.383 27.4643 51.5775C27.8957 53.9989 29.2552 56.3392 31.5101 58.5512L52.9589 80H76.7189C78.1244 80 79.2637 78.8607 79.2637 77.4552V73.6315L50.5945 44.9623Z" fill="url(#paint5_linear_1448_12238)"/>
<path d="M40 63.8601C39.5406 63.8601 39.0803 63.7513 38.6692 63.5456C37.4265 62.9236 34.9997 61.5902 32.7106 59.646C29.7327 57.1169 27.9675 54.4024 27.4643 51.5776C27.0734 49.3833 27.6315 47.1431 28.9956 45.4317C30.2588 43.8468 32.049 42.9205 34.0361 42.8236C34.153 42.8179 34.2714 42.8149 34.3879 42.8149C36.2497 42.8149 38.0072 43.5324 39.337 44.8353C39.5771 45.0706 39.7986 45.3203 40.0002 45.5825C40.2019 45.3203 40.4234 45.0706 40.6635 44.8352C41.9931 43.5324 43.7508 42.8149 45.6126 42.8149C45.7291 42.8149 45.8475 42.8178 45.9644 42.8236C47.9515 42.9204 49.7417 43.8466 51.005 45.4319C52.3691 47.1434 52.9271 49.3834 52.5362 51.5778C52.033 54.4025 50.2679 57.1171 47.2899 59.6462C45.0008 61.5902 42.5741 62.9238 41.3313 63.5458C40.9197 63.7514 40.4595 63.8601 40 63.8601Z" fill="url(#paint6_linear_1448_12238)"/>
<path d="M51.0046 45.4318C50.5311 44.8376 49.9836 44.3361 49.3794 43.9359C50.4825 45.5739 50.9101 47.6041 50.5551 49.5969C50.0519 52.4217 48.2868 55.1362 45.3088 57.6653C43.0197 59.6093 40.593 60.943 39.3502 61.5649C38.9391 61.7707 38.4788 61.8794 38.0194 61.8794C37.5599 61.8794 37.0997 61.7707 36.6886 61.5649C35.4459 60.943 33.0191 59.6095 30.73 57.6653C30.6319 57.582 30.5353 57.4986 30.4399 57.4148C31.0956 58.1728 31.8525 58.9171 32.7107 59.646C34.9999 61.5902 37.4266 62.9237 38.6693 63.5456C39.0804 63.7514 39.5406 63.8601 40.0001 63.8601C40.4596 63.8601 40.9198 63.7514 41.3309 63.5456C42.5737 62.9237 45.0004 61.59 47.2895 59.646C50.2674 57.1169 52.0326 54.4023 52.5358 51.5776C52.9267 49.3833 52.3687 47.1431 51.0046 45.4318Z" fill="url(#paint7_linear_1448_12238)"/>
<path d="M45.9641 42.8234C45.8472 42.8178 45.7288 42.8148 45.6122 42.8148C43.7504 42.8148 41.9928 43.5323 40.6632 44.8351C40.4231 45.0703 40.2017 45.3201 40 45.5822V63.86C40.4595 63.86 40.9197 63.7513 41.3308 63.5455C42.5736 62.9235 45.0003 61.5899 47.2894 59.6459C50.2673 57.1168 52.0325 54.4023 52.5357 51.5775C52.9266 49.3831 52.3686 47.1431 51.0045 45.4316C49.7415 43.8465 47.9512 42.9202 45.9641 42.8234Z" fill="url(#paint8_linear_1448_12238)"/>
</g>
<defs>
<linearGradient id="paint0_linear_1448_12238" x1="40.0002" y1="19.6571" x2="40.0002" y2="43.2177" gradientUnits="userSpaceOnUse">
<stop stop-color="#FFD945"/>
<stop offset="0.3043" stop-color="#FFCD3E"/>
<stop offset="0.8558" stop-color="#FFAD2B"/>
<stop offset="1" stop-color="#FFA325"/>
</linearGradient>
<linearGradient id="paint1_linear_1448_12238" x1="15.2856" y1="16.6412" x2="52.8749" y2="54.2305" gradientUnits="userSpaceOnUse">
<stop stop-color="#F8F6FB"/>
<stop offset="1" stop-color="#EFDCFB"/>
</linearGradient>
<linearGradient id="paint2_linear_1448_12238" x1="14.7822" y1="52.8627" x2="22.5938" y2="71.806" gradientUnits="userSpaceOnUse">
<stop stop-color="#FFD945"/>
<stop offset="0.3043" stop-color="#FFCD3E"/>
<stop offset="0.8558" stop-color="#FFAD2B"/>
<stop offset="1" stop-color="#FFA325"/>
</linearGradient>
<linearGradient id="paint3_linear_1448_12238" x1="65.0121" y1="46.3859" x2="58.5713" y2="70.9777" gradientUnits="userSpaceOnUse">
<stop stop-color="#FFD945"/>
<stop offset="0.3043" stop-color="#FFCD3E"/>
<stop offset="0.8558" stop-color="#FFAD2B"/>
<stop offset="1" stop-color="#FFA325"/>
</linearGradient>
<linearGradient id="paint4_linear_1448_12238" x1="35.3136" y1="56.5876" x2="41.0002" y2="82.0795" gradientUnits="userSpaceOnUse">
<stop stop-color="#FFD945"/>
<stop offset="0.3043" stop-color="#FFCD3E"/>
<stop offset="0.8558" stop-color="#FFAD2B"/>
<stop offset="1" stop-color="#FFA325"/>
</linearGradient>
<linearGradient id="paint5_linear_1448_12238" x1="54.088" y1="64.5038" x2="29.3952" y2="28.9121" gradientUnits="userSpaceOnUse">
<stop stop-color="#F82814" stop-opacity="0"/>
<stop offset="1" stop-color="#C0272D"/>
</linearGradient>
<linearGradient id="paint6_linear_1448_12238" x1="37.9119" y1="47.9244" x2="46.761" y2="58.9734" gradientUnits="userSpaceOnUse">
<stop stop-color="#FF819C"/>
<stop offset="0.2594" stop-color="#FF7E9A"/>
<stop offset="0.4757" stop-color="#FE7396"/>
<stop offset="0.6765" stop-color="#FC628E"/>
<stop offset="0.8668" stop-color="#FA4A83"/>
<stop offset="1" stop-color="#F83479"/>
</linearGradient>
<linearGradient id="paint7_linear_1448_12238" x1="43.3005" y1="57.0827" x2="48.2531" y2="68.6005" gradientUnits="userSpaceOnUse">
<stop stop-color="#F82814" stop-opacity="0"/>
<stop offset="1" stop-color="#C0272D"/>
</linearGradient>
<linearGradient id="paint8_linear_1448_12238" x1="42.0932" y1="51.142" x2="30.4456" y2="39.2661" gradientUnits="userSpaceOnUse">
<stop stop-color="#F82814" stop-opacity="0"/>
<stop offset="1" stop-color="#C0272D"/>
</linearGradient>
<clipPath id="clip0_1448_12238">
<rect width="80" height="80" fill="white"/>
</clipPath>
</defs>
</svg>
