<svg width="80" height="80" viewBox="0 0 80 80" fill="none" xmlns="http://www.w3.org/2000/svg">
<g clip-path="url(#clip0_1448_12201)">
<path d="M20.5742 58.3642C14.4665 57.3876 8.22694 58.9837 3.33816 62.773L1.8111 63.9567C-0.413998 65.6814 -0.621214 68.9669 1.36937 70.9576C3.1951 72.7833 6.15526 72.7833 7.98098 70.9576L20.5742 58.3642Z" fill="url(#paint0_linear_1448_12201)"/>
<path d="M1.34824 70.9362C1.28455 70.8718 1.22322 70.806 1.16424 70.7391C-0.508076 68.8424 -0.00407545 65.8644 2.13726 64.5196C6.7073 61.6493 12.1868 60.514 17.5647 61.3739L8.06651 70.8721C6.2364 72.702 3.16691 72.7776 1.34824 70.9362Z" fill="url(#paint1_linear_1448_12201)"/>
<path d="M1.41262 71.0001C1.39176 70.9797 1.37105 70.9591 1.35066 70.9384C-0.119612 69.4517 0.458741 66.9381 2.41027 66.1874C6.05294 64.7861 10.0349 64.3464 13.9638 64.9747L8.05749 70.881C6.23568 72.7028 3.25717 72.7987 1.41262 71.0001Z" fill="url(#paint2_linear_1448_12201)"/>
<path d="M1.42198 71.0089C1.40566 70.9931 1.38966 70.9772 1.37366 70.9614C0.569429 70.159 0.983232 68.7836 2.08896 68.5229C4.89398 67.8616 7.82825 67.74 10.7341 68.2048L8.05727 70.8815C6.23908 72.6997 3.26778 72.7993 1.42198 71.0089Z" fill="url(#paint3_linear_1448_12201)"/>
<path d="M21.636 59.4259C22.6127 65.5337 21.0166 71.7732 17.2273 76.662L16.0436 78.189C14.3189 80.4141 11.0334 80.6214 9.04263 78.6308C7.21691 76.805 7.21691 73.8449 9.04263 72.0192L21.636 59.4259Z" fill="url(#paint4_linear_1448_12201)"/>
<path d="M9.06393 78.6518C9.12841 78.7155 9.19413 78.7768 9.26111 78.8358C11.1577 80.5081 14.1358 80.0041 15.4806 77.8628C18.3508 73.2927 19.4862 67.8132 18.6263 62.4353L9.12809 71.9335C7.29813 73.7636 7.22252 76.8331 9.06393 78.6518Z" fill="url(#paint5_linear_1448_12201)"/>
<path d="M9 78.5875C9.02039 78.6083 9.04094 78.629 9.06164 78.6494C10.5484 80.1197 13.062 79.5414 13.8127 77.5898C15.214 73.9472 15.6536 69.9652 15.0254 66.0363L9.11906 71.9426C7.29725 73.7644 7.20141 76.7429 9 78.5875Z" fill="url(#paint6_linear_1448_12201)"/>
<path d="M8.99157 78.5784C9.00741 78.5947 9.02326 78.6109 9.0391 78.6267C9.84145 79.4309 11.2168 79.0171 11.4775 77.9114C12.1389 75.1064 12.2604 72.1721 11.7956 69.2662L9.11894 71.9431C7.30075 73.7613 7.20114 76.7326 8.99157 78.5784Z" fill="url(#paint7_linear_1448_12201)"/>
<path d="M25.6265 54.3736C25.1108 53.8579 24.2744 53.8579 23.7586 54.3736L7.93321 70.1991C7.41745 70.7148 7.41745 71.5512 7.93321 72.067C8.44898 72.5827 9.28537 72.5827 9.80113 72.067L25.6265 56.2416C26.1423 55.7256 26.1423 54.8894 25.6265 54.3736Z" fill="url(#paint8_linear_1448_12201)"/>
<path d="M58.6945 11.2764C48.5962 10.7843 40.2315 18.716 40.0172 28.6549C40.0167 28.6767 40.0092 28.6767 40.0089 28.6549C39.7945 18.7159 31.4298 10.7843 21.3314 11.2764C10.2404 11.8169 2.87948 22.6646 4.82693 33.5965C8.10254 51.9822 30.7305 64.6414 37.8639 68.2113C39.2178 68.8888 40.8081 68.8888 42.162 68.2113C49.2955 64.6414 71.9234 51.9822 75.199 33.5965C77.1465 22.6646 69.7854 11.8168 58.6945 11.2764Z" fill="url(#paint9_linear_1448_12201)"/>
<path d="M53.5887 32.7361C56.9486 32.7361 59.6724 30.0123 59.6724 26.6524C59.6724 23.2924 56.9486 20.5686 53.5887 20.5686C50.2287 20.5686 47.5049 23.2924 47.5049 26.6524C47.5049 30.0123 50.2287 32.7361 53.5887 32.7361Z" fill="url(#paint10_linear_1448_12201)"/>
<path d="M75.1989 33.5965C76.7509 24.8852 72.3916 16.2271 64.9444 12.7959L49.1833 28.5568C48.5593 29.1808 48.5593 30.1924 49.1833 30.8165L67.4911 49.0891C71.2456 44.5562 74.1725 39.3576 75.1989 33.5965Z" fill="url(#paint11_linear_1448_12201)"/>
<path d="M72.4721 7.52818C71.8481 6.90418 70.8365 6.90418 70.2125 7.52818L49.1868 28.5539C48.5628 29.1779 48.5628 30.1895 49.1868 30.8135C49.8108 31.4375 50.8224 31.4375 51.4464 30.8135L72.4721 9.78779C73.0961 9.16379 73.0961 8.15218 72.4721 7.52818Z" fill="url(#paint12_linear_1448_12201)"/>
<path d="M73.0311 16.1366L72.1359 13.3657C71.2925 10.7547 69.2457 8.70793 66.6347 7.86448L63.8638 6.96926C62.9613 6.67766 63.0961 5.37005 64.0379 5.25805C68.9364 4.67546 73.6319 2.96048 77.7527 0.248791C79.0623 -0.613013 80.6134 0.93789 79.7516 2.24769C77.0399 6.36848 75.3249 11.0642 74.7423 15.9625C74.6303 16.9043 73.3227 17.0391 73.0311 16.1366Z" fill="url(#paint13_linear_1448_12201)"/>
<path d="M79.7517 2.24773C77.04 6.36851 75.325 11.0642 74.7425 15.9626C74.6305 16.9044 73.3229 17.0391 73.0312 16.1367L72.136 13.3657C71.7142 12.0603 70.9917 10.8957 70.0483 9.95236L79.5666 0.434082C80.0104 0.87769 80.1826 1.59283 79.7517 2.24773Z" fill="url(#paint14_linear_1448_12201)"/>
</g>
<defs>
<linearGradient id="paint0_linear_1448_12201" x1="6.00751" y1="59.6947" x2="12.6186" y2="66.3058" gradientUnits="userSpaceOnUse">
<stop stop-color="#FFD945"/>
<stop offset="0.3043" stop-color="#FFCD3E"/>
<stop offset="0.8558" stop-color="#FFAD2B"/>
<stop offset="1" stop-color="#FFA325"/>
</linearGradient>
<linearGradient id="paint1_linear_1448_12201" x1="8.17087" y1="65.8881" x2="15.7194" y2="48.3783" gradientUnits="userSpaceOnUse">
<stop stop-color="#E87264" stop-opacity="0"/>
<stop offset="0.6519" stop-color="#F67150" stop-opacity="0.652"/>
<stop offset="1" stop-color="#FF7044"/>
</linearGradient>
<linearGradient id="paint2_linear_1448_12201" x1="6.45639" y1="68.0307" x2="14.2384" y2="53.556" gradientUnits="userSpaceOnUse">
<stop stop-color="#E87264" stop-opacity="0"/>
<stop offset="1" stop-color="#FF7044"/>
</linearGradient>
<linearGradient id="paint3_linear_1448_12201" x1="5.03067" y1="70.1237" x2="13.1241" y2="57.439" gradientUnits="userSpaceOnUse">
<stop stop-color="#E87264" stop-opacity="0"/>
<stop offset="1" stop-color="#FF7044"/>
</linearGradient>
<linearGradient id="paint4_linear_1448_12201" x1="20.3168" y1="74.0037" x2="13.7057" y2="67.3926" gradientUnits="userSpaceOnUse">
<stop stop-color="#FFD945"/>
<stop offset="0.3043" stop-color="#FFCD3E"/>
<stop offset="0.8558" stop-color="#FFAD2B"/>
<stop offset="1" stop-color="#FFA325"/>
</linearGradient>
<linearGradient id="paint5_linear_1448_12201" x1="14.1233" y1="71.8402" x2="31.6331" y2="64.2917" gradientUnits="userSpaceOnUse">
<stop stop-color="#E87264" stop-opacity="0"/>
<stop offset="0.6519" stop-color="#F67150" stop-opacity="0.652"/>
<stop offset="1" stop-color="#FF7044"/>
</linearGradient>
<linearGradient id="paint6_linear_1448_12201" x1="11.9806" y1="73.5548" x2="26.4553" y2="65.7728" gradientUnits="userSpaceOnUse">
<stop stop-color="#E87264" stop-opacity="0"/>
<stop offset="1" stop-color="#FF7044"/>
</linearGradient>
<linearGradient id="paint7_linear_1448_12201" x1="9.88802" y1="74.9808" x2="22.5728" y2="66.8874" gradientUnits="userSpaceOnUse">
<stop stop-color="#E87264" stop-opacity="0"/>
<stop offset="1" stop-color="#FF7044"/>
</linearGradient>
<linearGradient id="paint8_linear_1448_12201" x1="15.8393" y1="62.279" x2="17.7068" y2="64.1466" gradientUnits="userSpaceOnUse">
<stop stop-color="#FFD945"/>
<stop offset="0.3043" stop-color="#FFCD3E"/>
<stop offset="0.8558" stop-color="#FFAD2B"/>
<stop offset="1" stop-color="#FFA325"/>
</linearGradient>
<linearGradient id="paint9_linear_1448_12201" x1="34.3297" y1="23.9915" x2="58.7771" y2="54.5162" gradientUnits="userSpaceOnUse">
<stop stop-color="#FF819C"/>
<stop offset="0.2594" stop-color="#FF7E9A"/>
<stop offset="0.4757" stop-color="#FE7396"/>
<stop offset="0.6765" stop-color="#FC628E"/>
<stop offset="0.8668" stop-color="#FA4A83"/>
<stop offset="1" stop-color="#F83479"/>
</linearGradient>
<linearGradient id="paint10_linear_1448_12201" x1="52.5145" y1="28.0166" x2="46.8221" y2="35.2448" gradientUnits="userSpaceOnUse">
<stop stop-color="#F82814" stop-opacity="0"/>
<stop offset="1" stop-color="#C0272D"/>
</linearGradient>
<linearGradient id="paint11_linear_1448_12201" x1="67.2705" y1="39.498" x2="57.1918" y2="16.8699" gradientUnits="userSpaceOnUse">
<stop stop-color="#F82814" stop-opacity="0"/>
<stop offset="1" stop-color="#C0272D"/>
</linearGradient>
<linearGradient id="paint12_linear_1448_12201" x1="59.6714" y1="18.0553" x2="61.9306" y2="20.3146" gradientUnits="userSpaceOnUse">
<stop stop-color="#FFD945"/>
<stop offset="0.3043" stop-color="#FFCD3E"/>
<stop offset="0.8558" stop-color="#FFAD2B"/>
<stop offset="1" stop-color="#FFA325"/>
</linearGradient>
<linearGradient id="paint13_linear_1448_12201" x1="70.5511" y1="2.65684" x2="76.3425" y2="8.44825" gradientUnits="userSpaceOnUse">
<stop stop-color="#FFD945"/>
<stop offset="0.3043" stop-color="#FFCD3E"/>
<stop offset="0.8558" stop-color="#FFAD2B"/>
<stop offset="1" stop-color="#FFA325"/>
</linearGradient>
<linearGradient id="paint14_linear_1448_12201" x1="75.861" y1="7.38618" x2="73.0367" y2="1.61218" gradientUnits="userSpaceOnUse">
<stop stop-color="#E87264" stop-opacity="0"/>
<stop offset="0.6519" stop-color="#F67150" stop-opacity="0.652"/>
<stop offset="1" stop-color="#FF7044"/>
</linearGradient>
<clipPath id="clip0_1448_12201">
<rect width="80" height="80" fill="white"/>
</clipPath>
</defs>
</svg>
