<svg width="50" height="50" viewBox="0 0 50 50" fill="none" xmlns="http://www.w3.org/2000/svg">
<path d="M40.208 13.125C42.2913 15.4167 43.5413 17.9167 43.5413 22.0834C43.5413 29.375 38.333 35.8334 31.0413 39.1667L29.1663 36.4584C36.0413 32.7084 37.4997 27.9167 37.9163 24.7917C36.8747 25.4167 35.4163 25.625 33.958 25.4167C30.208 25 27.2913 22.0834 27.2913 18.125C27.2913 16.25 28.1247 14.375 29.3747 12.9167C30.833 11.4584 32.4997 10.8334 34.583 10.8334C36.8747 10.8334 38.958 11.875 40.208 13.125ZM19.3747 13.125C21.458 15.4167 22.708 17.9167 22.708 22.0834C22.708 29.375 17.4997 35.8334 10.208 39.1667L8.33301 36.4584C15.208 32.7084 16.6663 27.9167 17.083 24.7917C16.0413 25.4167 14.583 25.625 13.1247 25.4167C9.37468 25 6.45801 21.875 6.45801 18.125C6.45801 16.25 7.29134 14.375 8.54134 12.9167C9.99967 11.4584 11.6663 10.8334 13.7497 10.8334C16.0413 10.8334 18.1247 11.875 19.3747 13.125Z" fill="#CBD5EA"/>
</svg>
