<svg width="80" height="80" viewBox="0 0 80 80" fill="none" xmlns="http://www.w3.org/2000/svg">
<g clip-path="url(#clip0_536_5071)">
<path d="M77.9715 40.9597H59.9055C49.5908 40.9597 41.2291 32.598 41.2291 22.2833C41.2291 15.4157 35.6617 9.84831 28.7941 9.84831C21.9265 9.84831 16.3591 15.4157 16.3591 22.2833V38.7567C16.3591 56.0954 30.415 70.1512 47.7536 70.1512C60.2109 70.1512 71.4898 62.7857 76.4986 51.3798L79.8267 43.8008C80.4148 42.4616 79.434 40.9597 77.9715 40.9597Z" fill="url(#paint0_linear_536_5071)"/>
<path d="M18.0493 48.9412C22.2791 61.2806 33.98 70.151 47.7536 70.151C60.2109 70.151 71.4898 62.7856 76.4986 51.3796L77.5695 48.9412H18.0493Z" fill="url(#paint1_linear_536_5071)"/>
<path d="M28.2039 25.3338C30.3753 25.3338 32.1356 23.5735 32.1356 21.402C32.1356 19.2306 30.3753 17.4703 28.2039 17.4703C26.0324 17.4703 24.2721 19.2306 24.2721 21.402C24.2721 23.5735 26.0324 25.3338 28.2039 25.3338Z" fill="url(#paint2_linear_536_5071)"/>
<path d="M76.4986 51.3796L79.8267 43.8006C80.4148 42.4615 79.4339 40.9595 77.9713 40.9595H59.9055C52.009 40.9595 45.2571 36.059 42.5252 29.1332L41.5952 30.0632C35.4901 36.1683 35.4901 46.0667 41.5952 52.1718L57.9015 68.4662C66.076 65.6728 72.9029 59.5675 76.4986 51.3796Z" fill="url(#paint3_linear_536_5071)"/>
<path d="M71.0202 35.5225C69.4122 33.9145 66.8051 33.9145 65.1971 35.5225L69.1548 31.5649C71.6169 29.1027 71.6169 25.1109 69.1548 22.6488C67.5469 21.0409 64.94 21.0408 63.332 22.6486L66.0105 19.9702C68.4726 17.5081 68.4726 13.5162 66.0105 11.0541C64.4025 9.44611 61.7954 9.44611 60.1874 11.0541L41.3869 29.8547C35.2818 35.9598 35.2818 45.8582 41.3869 51.9633C47.492 58.0684 57.3904 58.0684 63.4955 51.9633L71.0202 44.4386C73.4823 41.9765 73.4823 37.9846 71.0202 35.5225Z" fill="url(#paint4_linear_536_5071)"/>
<path d="M69.1548 22.6489C67.5469 21.0411 64.94 21.0409 63.332 22.6488L38.3336 47.6471C39.0789 49.2074 40.0946 50.6709 41.387 51.9633C42.6793 53.2557 44.1429 54.2714 45.7032 55.0166L69.1551 31.5647C71.6169 29.1026 71.6169 25.1109 69.1548 22.6489Z" fill="url(#paint5_linear_536_5071)"/>
<path d="M63.4954 51.9634L71.0201 44.4387C73.4823 41.9766 73.4823 37.9848 71.0201 35.5227C69.4121 33.9147 66.8051 33.9147 65.1971 35.5227L45.7031 55.0166C51.5138 57.7918 58.6827 56.7761 63.4954 51.9634Z" fill="url(#paint6_linear_536_5071)"/>
<path d="M66.0105 11.0541C64.4025 9.44611 61.7954 9.44611 60.1874 11.0541L54.0483 17.1933L41.3868 29.8547C36.5741 34.6674 35.5584 41.8364 38.3336 47.6471L66.011 19.9697C68.4726 17.5076 68.4725 13.5161 66.0105 11.0541Z" fill="url(#paint7_linear_536_5071)"/>
<path d="M62.2604 66.5989C59.0761 68.2585 55.5938 69.3801 51.9545 69.8695C50.5742 70.0562 49.1718 70.1518 47.7538 70.1518C30.4142 70.1518 16.3593 56.0954 16.3593 38.7573V23.4914C16.9491 23.3801 17.5436 23.3471 18.1271 23.3879C19.1169 23.4585 19.9169 23.9934 20.3969 24.7354L62.2604 66.5989Z" fill="url(#paint8_linear_536_5071)"/>
<path d="M6.05322 44.2275C5.6802 44.0637 5.3453 43.8115 5.08475 43.4977C4.29745 42.55 2.80239 40.6025 1.63659 38.2085C0.120041 35.094 -0.345685 32.2612 0.252276 29.7885C0.716904 27.8678 1.9682 26.248 3.68553 25.3446C5.27596 24.5079 7.05933 24.3939 8.70718 25.0234C8.80412 25.0604 8.90122 25.1002 8.99581 25.1418C10.5073 25.8053 11.6786 27.0141 12.2938 28.5456C12.4049 28.8223 12.4957 29.1038 12.5662 29.3886C12.8234 29.2477 13.0921 29.1238 13.371 29.0184C14.9147 28.4344 16.5974 28.4783 18.1089 29.1418C18.2035 29.1834 18.2987 29.2279 18.3914 29.2742C19.9702 30.061 21.0935 31.4508 21.5544 33.1879C22.052 35.0635 21.7067 37.0809 20.6074 38.7231C19.1924 40.837 16.7919 42.4119 13.473 43.4041C10.9218 44.1666 8.47628 44.3846 7.24569 44.4466C6.83863 44.4668 6.42624 44.3912 6.05322 44.2275Z" fill="url(#paint9_linear_536_5071)"/>
<path d="M0.298359 29.6185C0.283143 29.6751 0.266359 29.7313 0.252398 29.7886C-0.345563 32.2612 0.120163 35.0941 1.63671 38.2085C2.80252 40.6025 4.29757 42.5501 5.08487 43.4977C5.34542 43.8113 5.68032 44.0637 6.05334 44.2275C6.42636 44.3912 6.83875 44.4668 7.24597 44.4463C8.47656 44.3842 10.922 44.1663 13.4733 43.4038C16.7922 42.4118 19.1926 40.8369 20.6077 38.7228C20.6405 38.6739 20.6704 38.6235 20.7018 38.574L0.298359 29.6185Z" fill="url(#paint10_linear_536_5071)"/>
<path d="M18.1268 23.2318C17.0617 23.1564 15.9631 23.3263 14.9136 23.7749C12.9533 24.6125 11.5774 26.245 11 28.1357C10.709 29.0885 11.6725 29.9238 12.5873 29.5294C12.5944 29.5263 12.6016 29.5233 12.6086 29.5203C14.0918 28.8864 15.6722 28.8099 17.1181 29.1956C18.4549 29.5522 19.8582 28.9098 20.5043 27.6864L20.5349 27.6285C21.541 25.7233 20.2755 23.384 18.1268 23.2318Z" fill="url(#paint11_linear_536_5071)"/>
</g>
<defs>
<linearGradient id="paint0_linear_536_5071" x1="28.4769" y1="17.2391" x2="54.7406" y2="54.8976" gradientUnits="userSpaceOnUse">
<stop stop-color="#EDF5FF"/>
<stop offset="1" stop-color="#C7E9FF"/>
</linearGradient>
<linearGradient id="paint1_linear_536_5071" x1="47.8093" y1="52.3802" x2="47.8093" y2="69.4961" gradientUnits="userSpaceOnUse">
<stop stop-color="white" stop-opacity="0"/>
<stop offset="0.1764" stop-color="#EEF4FB" stop-opacity="0.176"/>
<stop offset="0.527" stop-color="#C1D8F0" stop-opacity="0.527"/>
<stop offset="1" stop-color="#7BACDF"/>
</linearGradient>
<linearGradient id="paint2_linear_536_5071" x1="20.5245" y1="13.7227" x2="57.8371" y2="51.0355" gradientUnits="userSpaceOnUse">
<stop stop-color="#5A5A5A"/>
<stop offset="1" stop-color="#444444"/>
</linearGradient>
<linearGradient id="paint3_linear_536_5071" x1="70.0918" y1="60.0781" x2="60.9204" y2="47.5716" gradientUnits="userSpaceOnUse">
<stop stop-color="#7BACDF" stop-opacity="0"/>
<stop offset="1" stop-color="#7BACDF"/>
</linearGradient>
<linearGradient id="paint4_linear_536_5071" x1="49.5203" y1="25.7694" x2="66.4862" y2="49.5217" gradientUnits="userSpaceOnUse">
<stop stop-color="#EDF5FF"/>
<stop offset="1" stop-color="#C7E9FF"/>
</linearGradient>
<linearGradient id="paint5_linear_536_5071" x1="56.109" y1="38.0118" x2="64.7942" y2="43.1534" gradientUnits="userSpaceOnUse">
<stop stop-color="white" stop-opacity="0"/>
<stop offset="0.1764" stop-color="#EEF4FB" stop-opacity="0.176"/>
<stop offset="0.527" stop-color="#C1D8F0" stop-opacity="0.527"/>
<stop offset="1" stop-color="#7BACDF"/>
</linearGradient>
<linearGradient id="paint6_linear_536_5071" x1="58.132" y1="45.0398" x2="66.4407" y2="53.3487" gradientUnits="userSpaceOnUse">
<stop stop-color="white" stop-opacity="0"/>
<stop offset="0.1764" stop-color="#EEF4FB" stop-opacity="0.176"/>
<stop offset="0.527" stop-color="#C1D8F0" stop-opacity="0.527"/>
<stop offset="1" stop-color="#7BACDF"/>
</linearGradient>
<linearGradient id="paint7_linear_536_5071" x1="49.8571" y1="27.9816" x2="60.0707" y2="33.6096" gradientUnits="userSpaceOnUse">
<stop stop-color="white" stop-opacity="0"/>
<stop offset="0.1764" stop-color="#EEF4FB" stop-opacity="0.176"/>
<stop offset="0.527" stop-color="#C1D8F0" stop-opacity="0.527"/>
<stop offset="1" stop-color="#7BACDF"/>
</linearGradient>
<linearGradient id="paint8_linear_536_5071" x1="31.6876" y1="47.0729" x2="-4.31055" y2="36.0146" gradientUnits="userSpaceOnUse">
<stop stop-color="#7BACDF" stop-opacity="0"/>
<stop offset="1" stop-color="#7BACDF"/>
</linearGradient>
<linearGradient id="paint9_linear_536_5071" x1="8.72001" y1="28.3719" x2="12.9916" y2="39.3251" gradientUnits="userSpaceOnUse">
<stop stop-color="#FE646F"/>
<stop offset="1" stop-color="#FB2B3A"/>
</linearGradient>
<linearGradient id="paint10_linear_536_5071" x1="10.0313" y1="35.1764" x2="6.38164" y2="43.4925" gradientUnits="userSpaceOnUse">
<stop stop-color="#F82814" stop-opacity="0"/>
<stop offset="0.4045" stop-color="#DA2721" stop-opacity="0.405"/>
<stop offset="0.7556" stop-color="#C7272A" stop-opacity="0.756"/>
<stop offset="1" stop-color="#C0272D"/>
</linearGradient>
<linearGradient id="paint11_linear_536_5071" x1="14.651" y1="25.693" x2="18.7562" y2="29.7983" gradientUnits="userSpaceOnUse">
<stop stop-color="#FFE177"/>
<stop offset="1" stop-color="#FE9738"/>
</linearGradient>
<clipPath id="clip0_536_5071">
<rect width="80" height="80" fill="white"/>
</clipPath>
</defs>
</svg>
