<svg width="50" height="50" viewBox="0 0 50 50" fill="none" xmlns="http://www.w3.org/2000/svg">
<g clip-path="url(#clip0_536_5094)">
<path d="M39.5167 7.10223C33.2215 6.79546 28.0072 11.74 27.8736 17.9358C27.8733 17.9493 27.8686 17.9493 27.8684 17.9358C27.7348 11.74 22.5204 6.79556 16.2252 7.10223C9.31132 7.43919 4.7226 14.2015 5.93662 21.0162C7.97858 32.4776 22.0845 40.3691 26.5313 42.5945C27.3753 43.0168 28.3666 43.0168 29.2106 42.5945C33.6575 40.3691 47.7634 32.4776 49.8052 21.0162C51.0194 14.2015 46.4305 7.43919 39.5167 7.10223Z" fill="url(#paint0_radial_536_5094)"/>
<path d="M6.06777 21.6668C6.09247 21.7788 6.11787 21.8906 6.14473 22.0019C6.15924 22.0618 6.17424 22.1215 6.18934 22.1812C6.2161 22.2867 6.24394 22.3919 6.27267 22.4968C6.28875 22.5554 6.30463 22.614 6.3213 22.6723C6.35375 22.7861 6.38777 22.8992 6.42247 23.0121C6.43689 23.059 6.45051 23.1061 6.46532 23.1527C6.51502 23.3098 6.56679 23.4662 6.62081 23.6218C6.63296 23.6567 6.646 23.6912 6.65836 23.7261C6.7014 23.8476 6.74542 23.9689 6.7911 24.0896C6.81306 24.1476 6.83591 24.2054 6.85845 24.2632C6.89649 24.3607 6.93502 24.458 6.97463 24.5549C7.00012 24.6173 7.026 24.6796 7.05228 24.7418C7.09169 24.8354 7.13218 24.9287 7.17306 25.0218C7.19983 25.0825 7.2263 25.1434 7.25365 25.204C7.30002 25.3066 7.34777 25.4085 7.39581 25.5104C7.41894 25.5594 7.4413 25.6087 7.46483 25.6574C7.53394 25.8009 7.60493 25.9434 7.67738 26.0854C7.70787 26.145 7.73944 26.2041 7.77051 26.2635C7.816 26.3506 7.86169 26.4376 7.90845 26.5242C7.94542 26.5926 7.98316 26.6608 8.021 26.7289C8.06345 26.8056 8.1063 26.8821 8.14973 26.9582C8.19012 27.0291 8.23071 27.0998 8.27189 27.1703C8.31434 27.2429 8.35747 27.3152 8.40071 27.3874C8.44355 27.459 8.4862 27.5307 8.52983 27.6018C8.57267 27.6716 8.61649 27.7408 8.66012 27.8102C8.74963 27.9527 8.84061 28.0944 8.93316 28.2353C8.96914 28.2901 9.00463 28.3452 9.0411 28.3997C9.0963 28.4822 9.15257 28.5641 9.20865 28.6461C9.24522 28.6994 9.28169 28.7529 9.31865 28.806C9.37669 28.8893 9.43542 28.9722 9.49444 29.0549C9.52944 29.1039 9.56453 29.1527 9.59983 29.2016C9.66228 29.2877 9.72493 29.3737 9.78836 29.4592C9.81698 29.4977 9.84591 29.536 9.87473 29.5744C10.124 29.9068 10.3807 30.2342 10.6445 30.556C10.6456 30.5572 10.6467 30.5586 10.6478 30.5599C10.7325 30.6632 10.8183 30.7658 10.9043 30.868L10.9558 30.9292C11.0411 31.03 11.1271 31.1302 11.2137 31.2299L11.256 31.2784C11.8427 31.9511 12.4568 32.5991 13.0891 33.2212L13.1048 33.2369C17.9788 38.0265 23.9198 41.2877 26.531 42.5945C27.375 43.0169 28.3663 43.0169 29.2103 42.5945C31.0488 41.6744 34.5386 39.785 38.1439 37.076L22.4017 21.3334C21.4009 20.2308 20.0136 19.4997 18.3897 19.4206C15.6699 19.288 13.3224 20.9566 12.4317 23.3364L10.4898 21.4053C9.33247 20.1253 7.63532 19.3426 5.75659 19.4194C5.76247 19.5415 5.77061 19.6638 5.78012 19.7862C5.78287 19.8216 5.7863 19.857 5.78934 19.8923C5.79689 19.9798 5.80522 20.0672 5.81463 20.1548C5.81904 20.1963 5.82375 20.2377 5.82865 20.2791C5.83875 20.3651 5.84993 20.4512 5.86189 20.5371C5.86708 20.5748 5.87198 20.6124 5.87757 20.6501C5.89561 20.7721 5.91493 20.894 5.93669 21.0161C5.9661 21.1814 5.99875 21.3458 6.03316 21.5096C6.04414 21.5622 6.0563 21.6144 6.06777 21.6668Z" fill="url(#paint1_linear_536_5094)"/>
<path d="M18.3897 19.4206C14.9621 19.2536 12.123 21.9458 12.0502 25.3192C12.0501 25.3266 12.0474 25.3266 12.0473 25.3192C11.9746 21.9457 9.13548 19.2536 5.70783 19.4206C1.94332 19.604 -0.555114 23.286 0.105867 26.9965C1.21763 33.2369 8.89802 37.5337 11.3193 38.7454C11.7788 38.9754 12.3186 38.9754 12.7781 38.7454C15.1994 37.5337 22.8798 33.2369 23.9916 26.9965C24.6526 23.286 22.1542 19.604 18.3897 19.4206Z" fill="url(#paint2_linear_536_5094)"/>
</g>
<defs>
<radialGradient id="paint0_radial_536_5094" cx="0" cy="0" r="1" gradientUnits="userSpaceOnUse" gradientTransform="translate(23.649 16.9135) scale(24.3361 24.3361)">
<stop stop-color="#FF4974"/>
<stop offset="0.4497" stop-color="#FE4773"/>
<stop offset="0.6292" stop-color="#FC406D"/>
<stop offset="0.7605" stop-color="#F73464"/>
<stop offset="0.8683" stop-color="#F12257"/>
<stop offset="0.9606" stop-color="#E80C46"/>
<stop offset="1" stop-color="#E4003D"/>
</radialGradient>
<linearGradient id="paint1_linear_536_5094" x1="29.1463" y1="39.0412" x2="17.2782" y2="26.076" gradientUnits="userSpaceOnUse">
<stop stop-color="#E4003D" stop-opacity="0"/>
<stop offset="1" stop-color="#E4003D"/>
</linearGradient>
<linearGradient id="paint2_linear_536_5094" x1="6.77773" y1="19.9217" x2="17.9477" y2="33.1861" gradientUnits="userSpaceOnUse">
<stop stop-color="#FFE548"/>
<stop offset="0.1758" stop-color="#FFDE50"/>
<stop offset="0.4446" stop-color="#FFCA65"/>
<stop offset="0.7709" stop-color="#FFAA87"/>
<stop offset="1" stop-color="#FF90A4"/>
</linearGradient>
<clipPath id="clip0_536_5094">
<rect width="50" height="50" fill="white"/>
</clipPath>
</defs>
</svg>
