<svg width="80" height="80" viewBox="0 0 80 80" fill="none" xmlns="http://www.w3.org/2000/svg">
<g clip-path="url(#clip0_536_5046)">
<path d="M70.7639 11.9796C70.7639 12.6824 70.4972 13.3851 69.9607 13.9216L58.1286 25.7537L54.2462 21.8714L66.0784 10.0392C67.1513 8.96784 68.8894 8.96784 69.9607 10.0392C70.4972 10.5757 70.7639 11.2769 70.7639 11.9796Z" fill="url(#paint0_linear_536_5046)"/>
<path d="M70.7639 11.9796C70.7639 12.6824 70.4972 13.3851 69.9607 13.9216L58.1286 25.7537L54.2462 21.8714L66.0784 10.0392C67.1513 8.96784 68.8894 8.96784 69.9607 10.0392C70.4972 10.5757 70.7639 11.2769 70.7639 11.9796Z" fill="url(#paint1_linear_536_5046)"/>
<path d="M39.9999 75.0549C38.6475 75.0549 37.2925 74.7346 36.082 74.1288C32.4236 72.298 25.2796 68.3722 18.5406 62.6491C9.77389 55.2041 4.57765 47.2129 3.09608 38.8974C1.94534 32.4376 3.58832 25.8433 7.60385 20.805C11.3227 16.1391 16.5924 13.4124 22.4424 13.1272C22.7864 13.1104 23.135 13.102 23.478 13.102C28.959 13.102 34.1329 15.2141 38.0471 19.0496C38.7541 19.7424 39.406 20.4775 39.9998 21.2491C40.5937 20.4775 41.2456 19.7423 41.9526 19.0494C45.8666 15.2141 51.0407 13.1021 56.5218 13.1021C56.8649 13.1021 57.2136 13.1106 57.5574 13.1274C63.4075 13.4125 68.6773 16.1393 72.3962 20.8055C76.4117 25.8436 78.0545 32.438 76.9035 38.8976C75.4222 47.2129 70.2258 55.2042 61.4592 62.6493C54.7204 68.3721 47.5765 72.298 43.9179 74.1289C42.7074 74.7348 41.3526 75.0549 39.9999 75.0549Z" fill="url(#paint2_linear_536_5046)"/>
<path d="M6.35132 48.157C9.00653 53.1638 13.0809 58.0124 18.5407 62.6491C25.2796 68.3721 32.4236 72.298 36.082 74.1288C37.2925 74.7346 38.6475 75.0549 40 75.0549C41.3524 75.0549 42.7074 74.7347 43.9179 74.1288C47.5766 72.2979 54.7204 68.3719 61.4593 62.6491C66.919 58.0124 70.9934 53.1638 73.6486 48.157H6.35132Z" fill="url(#paint3_linear_536_5046)"/>
<path d="M43.745 36.2551L17.9017 62.0984C18.1132 62.2822 18.3249 62.466 18.5406 62.6493C25.2796 68.3722 32.4238 72.2982 36.082 74.129C37.2925 74.7348 38.6473 75.0549 39.9999 75.0549C41.3526 75.0549 42.7074 74.7348 43.9179 74.129C47.5766 72.298 54.7204 68.3721 61.4592 62.6493C63.0802 61.2726 64.5784 59.8772 65.9543 58.4646L43.745 36.2551Z" fill="url(#paint4_linear_536_5046)"/>
<path d="M13.8373 78.739L12.1785 67.8215L26.6789 53.3211L28.1399 62.9365C28.5411 65.5776 27.6629 68.2521 25.7739 70.141L16.3507 79.5642C15.4913 80.4237 14.0199 79.9404 13.8373 78.739Z" fill="url(#paint5_linear_536_5046)"/>
<path d="M12.1785 67.8215L13.8373 78.739C14.0199 79.9406 15.4913 80.4237 16.3507 79.5644L24.9319 70.9831L22.8327 57.1672L12.1785 67.8215Z" fill="url(#paint6_linear_536_5046)"/>
<path d="M12.1785 67.8215L13.8373 78.739C14.0199 79.9405 15.4913 80.4237 16.3507 79.5644L21.3444 74.5707L19.2453 60.7548L12.1785 67.8215Z" fill="url(#paint7_linear_536_5046)"/>
<path d="M12.1785 67.8215L13.8373 78.739C14.0199 79.9406 15.4913 80.4237 16.3507 79.5644L17.6309 78.2843L15.5317 64.4684L12.1785 67.8215Z" fill="url(#paint8_linear_536_5046)"/>
<path d="M1.26118 66.1627L12.1787 67.8215L26.6791 53.3211L17.0637 51.8601C14.4226 51.4588 11.7481 52.3371 9.85914 54.226L0.435765 63.6493C-0.423529 64.5087 0.0597647 65.9801 1.26118 66.1627Z" fill="url(#paint9_linear_536_5046)"/>
<path d="M12.1785 67.8215L1.26097 66.1627C0.0594008 65.9801 -0.423736 64.5087 0.435558 63.6493L9.01689 55.0679L22.8327 57.1671L12.1785 67.8215Z" fill="url(#paint10_linear_536_5046)"/>
<path d="M12.1785 67.8215L1.26097 66.1627C0.0594008 65.9801 -0.423736 64.5087 0.435558 63.6492L5.42928 58.6555L19.2451 60.7547L12.1785 67.8215Z" fill="url(#paint11_linear_536_5046)"/>
<path d="M12.1785 67.8215L1.26097 66.1627C0.0594008 65.9801 -0.423736 64.5087 0.435558 63.6493L1.71571 62.3691L15.5316 64.4682L12.1785 67.8215Z" fill="url(#paint12_linear_536_5046)"/>
<path d="M28.0282 62.2071L13.5279 76.7075L12.1788 67.8212L26.6792 53.3208L28.0282 62.2071Z" fill="url(#paint13_linear_536_5046)"/>
<path d="M10.0391 69.9608C8.96711 68.8888 8.96711 67.1507 10.0391 66.0787L39.8628 36.255C40.9348 35.183 42.673 35.183 43.745 36.255C44.817 37.327 44.817 39.0651 43.745 40.1371L13.9213 69.9608C12.8491 71.0328 11.1111 71.0328 10.0391 69.9608Z" fill="url(#paint14_linear_536_5046)"/>
<path d="M78.3388 1.66118C78.5785 1.90087 78.7618 2.19781 78.8691 2.51969C79.1931 3.49255 79.7634 5.45459 79.9435 7.66338C80.1777 10.5366 79.6823 12.874 78.4712 14.6105C77.5302 15.9594 76.0702 16.837 74.4655 17.0182C72.9794 17.186 71.5622 16.7354 70.4748 15.749C70.4108 15.691 70.3476 15.6308 70.2867 15.5699C69.3152 14.5984 68.7727 13.3071 68.7587 11.9335C68.7562 11.6853 68.7709 11.4395 68.8025 11.1977C68.5604 11.2292 68.3146 11.2439 68.0665 11.2414C66.693 11.2275 65.4015 10.6847 64.4301 9.71326C64.3692 9.6524 64.309 9.58918 64.2509 9.52518C63.2646 8.43781 62.8139 7.02055 62.9818 5.53428C63.1631 3.92957 64.0406 2.46965 65.3894 1.52879C67.1258 0.317494 69.4632 -0.177879 72.3364 0.056474C74.5451 0.236552 76.5071 0.806905 77.4801 1.13083C77.8023 1.23796 78.0991 1.42134 78.3388 1.66118Z" fill="url(#paint15_linear_536_5046)"/>
</g>
<defs>
<linearGradient id="paint0_linear_536_5046" x1="61.3486" y1="15.2005" x2="64.6966" y2="18.5484" gradientUnits="userSpaceOnUse">
<stop stop-color="#FFE177"/>
<stop offset="1" stop-color="#FE9738"/>
</linearGradient>
<linearGradient id="paint1_linear_536_5046" x1="63.7908" y1="16.2091" x2="68.3402" y2="11.6598" gradientUnits="userSpaceOnUse">
<stop stop-color="#FE9738" stop-opacity="0"/>
<stop offset="1" stop-color="#FE7701"/>
</linearGradient>
<linearGradient id="paint2_linear_536_5046" x1="34.0748" y1="30.3958" x2="57.1698" y2="53.4908" gradientUnits="userSpaceOnUse">
<stop stop-color="#FE646F"/>
<stop offset="1" stop-color="#FB2B3A"/>
</linearGradient>
<linearGradient id="paint3_linear_536_5046" x1="40" y1="55.5725" x2="40" y2="75.1487" gradientUnits="userSpaceOnUse">
<stop stop-color="#F82814" stop-opacity="0"/>
<stop offset="0.0222" stop-color="#F62815" stop-opacity="0.022"/>
<stop offset="0.4169" stop-color="#D92722" stop-opacity="0.417"/>
<stop offset="0.7566" stop-color="#C6272A" stop-opacity="0.757"/>
<stop offset="1" stop-color="#C0272D"/>
</linearGradient>
<linearGradient id="paint4_linear_536_5046" x1="51.4762" y1="69.8295" x2="32.3783" y2="50.7316" gradientUnits="userSpaceOnUse">
<stop stop-color="#F82814" stop-opacity="0"/>
<stop offset="1" stop-color="#C0272D"/>
</linearGradient>
<linearGradient id="paint5_linear_536_5046" x1="20.2189" y1="64.1158" x2="20.2189" y2="76.6074" gradientUnits="userSpaceOnUse">
<stop stop-color="#EDF5FF"/>
<stop offset="1" stop-color="#C7E9FF"/>
</linearGradient>
<linearGradient id="paint6_linear_536_5046" x1="18.5675" y1="69.9505" x2="18.5675" y2="54.8332" gradientUnits="userSpaceOnUse">
<stop stop-color="white" stop-opacity="0"/>
<stop offset="0.3432" stop-color="#CDE0F3" stop-opacity="0.343"/>
<stop offset="0.7872" stop-color="#92BAE4" stop-opacity="0.787"/>
<stop offset="1" stop-color="#7BACDF"/>
</linearGradient>
<linearGradient id="paint7_linear_536_5046" x1="16.774" y1="71.5233" x2="16.774" y2="58.7813" gradientUnits="userSpaceOnUse">
<stop stop-color="white" stop-opacity="0"/>
<stop offset="0.3432" stop-color="#CDE0F3" stop-opacity="0.343"/>
<stop offset="0.7872" stop-color="#92BAE4" stop-opacity="0.787"/>
<stop offset="1" stop-color="#7BACDF"/>
</linearGradient>
<linearGradient id="paint8_linear_536_5046" x1="14.9176" y1="73.1515" x2="14.9176" y2="62.8682" gradientUnits="userSpaceOnUse">
<stop stop-color="white" stop-opacity="0"/>
<stop offset="0.3432" stop-color="#CDE0F3" stop-opacity="0.343"/>
<stop offset="0.7872" stop-color="#92BAE4" stop-opacity="0.787"/>
<stop offset="1" stop-color="#7BACDF"/>
</linearGradient>
<linearGradient id="paint9_linear_536_5046" x1="13.3527" y1="53.3747" x2="13.3526" y2="65.5197" gradientUnits="userSpaceOnUse">
<stop stop-color="#EDF5FF"/>
<stop offset="1" stop-color="#C7E9FF"/>
</linearGradient>
<linearGradient id="paint10_linear_536_5046" x1="10.0835" y1="61.4667" x2="25.2008" y2="61.4667" gradientUnits="userSpaceOnUse">
<stop stop-color="#7BACDF" stop-opacity="0"/>
<stop offset="1" stop-color="#7BACDF"/>
</linearGradient>
<linearGradient id="paint11_linear_536_5046" x1="8.51059" y1="63.2601" x2="21.2526" y2="63.2601" gradientUnits="userSpaceOnUse">
<stop stop-color="#7BACDF" stop-opacity="0"/>
<stop offset="1" stop-color="#7BACDF"/>
</linearGradient>
<linearGradient id="paint12_linear_536_5046" x1="6.88255" y1="65.1166" x2="17.1658" y2="65.1166" gradientUnits="userSpaceOnUse">
<stop stop-color="#7BACDF" stop-opacity="0"/>
<stop offset="1" stop-color="#7BACDF"/>
</linearGradient>
<linearGradient id="paint13_linear_536_5046" x1="22.3029" y1="67.2135" x2="17.9029" y2="62.8135" gradientUnits="userSpaceOnUse">
<stop stop-color="white" stop-opacity="0"/>
<stop offset="0.077" stop-color="#EDF4FB" stop-opacity="0.077"/>
<stop offset="0.278" stop-color="#C5DAF1" stop-opacity="0.278"/>
<stop offset="0.4752" stop-color="#A5C6E9" stop-opacity="0.475"/>
<stop offset="0.6648" stop-color="#8EB7E3" stop-opacity="0.665"/>
<stop offset="0.8435" stop-color="#80AFE0" stop-opacity="0.844"/>
<stop offset="1" stop-color="#7BACDF"/>
</linearGradient>
<linearGradient id="paint14_linear_536_5046" x1="25.1142" y1="51.3302" x2="28.1996" y2="54.4155" gradientUnits="userSpaceOnUse">
<stop stop-color="#FFE177"/>
<stop offset="1" stop-color="#FE9738"/>
</linearGradient>
<linearGradient id="paint15_linear_536_5046" x1="67.2812" y1="1.58385" x2="76.8415" y2="11.1443" gradientUnits="userSpaceOnUse">
<stop stop-color="#FFE177"/>
<stop offset="1" stop-color="#FE9738"/>
</linearGradient>
<clipPath id="clip0_536_5046">
<rect width="80" height="80" fill="white"/>
</clipPath>
</defs>
</svg>
