<svg width="140" height="140" viewBox="0 0 140 140" fill="none" xmlns="http://www.w3.org/2000/svg">
<g clip-path="url(#clip0_1695_12493)">
<path d="M69.9999 128.192C67.459 128.192 64.9141 127.59 62.6398 126.452C55.7674 123.013 42.3472 115.638 29.6876 104.887C13.2192 90.9006 3.45791 75.8885 0.674926 60.267C-1.48684 48.132 1.59948 35.7439 9.14273 26.2788C16.129 17.5134 26.0281 12.3911 37.0176 11.8555C37.6638 11.824 38.3185 11.808 38.963 11.808C49.259 11.808 58.9786 15.7761 66.3316 22.9811C67.6597 24.2826 68.8843 25.6636 69.9996 27.1131C71.1155 25.6636 72.3398 24.2823 73.6679 22.9809C81.0204 15.7761 90.7405 11.8083 101.037 11.8083C101.681 11.8083 102.336 11.8242 102.982 11.8558C113.972 12.3914 123.871 17.5137 130.857 26.2796C138.401 35.7445 141.487 48.1323 139.325 60.2673C136.542 75.8882 126.781 90.9006 110.312 104.887C97.6529 115.638 84.233 123.013 77.3598 126.452C75.086 127.591 72.5408 128.192 69.9999 128.192Z" fill="url(#paint0_linear_1695_12493)"/>
<path d="M130.857 26.2794C128.238 22.9935 125.21 20.2198 121.869 18.0076C127.969 27.0661 130.334 38.2938 128.37 49.3135C125.588 64.9347 115.826 79.9469 99.3578 93.9331C86.6988 104.684 73.2788 112.059 66.4056 115.499C64.1316 116.637 61.5863 117.238 59.0455 117.238C56.5046 117.238 53.9596 116.637 51.6853 115.499C44.8129 112.059 31.3927 104.684 18.7331 93.9331C18.1907 93.4725 17.6568 93.0108 17.1289 92.548C20.7546 96.7395 24.9404 100.856 29.6866 104.887C42.3462 115.638 55.7664 123.013 62.6388 126.452C64.9128 127.591 67.4581 128.192 69.9989 128.192C72.5398 128.192 75.0848 127.591 77.3588 126.452C84.232 123.013 97.6517 115.638 110.311 104.887C126.78 90.9009 136.541 75.8885 139.324 60.2673C141.486 48.1323 138.4 35.7442 130.857 26.2794Z" fill="url(#paint1_linear_1695_12493)"/>
<path d="M102.982 11.8555C102.336 11.824 101.681 11.808 101.037 11.808C90.7406 11.808 81.0205 15.7758 73.668 22.9806C72.3399 24.282 71.1156 25.6631 70 27.1125V128.192C72.5409 128.192 75.0858 127.591 77.3599 126.452C84.2331 123.013 97.6527 115.638 110.312 104.887C126.781 90.9009 136.542 75.8885 139.325 60.2673C141.487 48.1323 138.401 35.7442 130.857 26.2796C123.871 17.5134 113.972 12.3911 102.982 11.8555Z" fill="url(#paint2_linear_1695_12493)"/>
<path d="M131.081 81.3897L88.9255 39.234C87.1031 37.4116 84.1482 37.4116 82.3258 39.234L70 51.5598L57.6742 39.234C55.8518 37.4116 52.8969 37.4116 51.0745 39.234L39.234 51.0747C37.4116 52.8972 37.4116 55.852 39.234 57.6745L51.5598 70L39.234 82.3258C37.4116 84.1482 37.4116 87.1031 39.234 88.9255L76.9509 126.642C77.0873 126.579 77.2257 126.52 77.3602 126.452C84.2333 123.013 97.653 115.638 110.312 104.887C119.208 97.3321 126.142 89.4776 131.081 81.3897Z" fill="url(#paint3_linear_1695_12493)"/>
<path d="M82.326 100.766L70.0003 88.4402L57.6745 100.766C55.852 102.588 52.8972 102.588 51.0747 100.766L39.234 88.9253C37.4116 87.1028 37.4116 84.148 39.234 82.3255L51.5601 70L39.2343 57.6742C37.4118 55.8518 37.4118 52.8969 39.2343 51.0745L51.075 39.2338C52.8975 37.4113 55.8523 37.4113 57.6748 39.2338L70.0003 51.5598L82.326 39.234C84.1485 37.4116 87.1033 37.4116 88.9258 39.234L100.767 51.0747C102.589 52.8972 102.589 55.852 100.767 57.6745L88.4405 70L100.766 82.3258C102.589 84.1482 102.589 87.1031 100.766 88.9255L88.9255 100.766C87.1033 102.588 84.1485 102.588 82.326 100.766Z" fill="url(#paint4_linear_1695_12493)"/>
<path d="M51.0747 100.766L45.1543 94.8459L94.8461 45.1541L100.766 51.0745C102.589 52.8969 102.589 55.8518 100.766 57.6742L57.6744 100.766C55.8519 102.588 52.8971 102.588 51.0747 100.766Z" fill="url(#paint5_linear_1695_12493)"/>
<path d="M100.766 88.9255L94.8461 94.8459L45.1543 45.1541L51.0747 39.2338C52.8971 37.4113 55.8519 37.4113 57.6744 39.2338L100.766 82.3258C102.589 84.1482 102.589 87.1031 100.766 88.9255Z" fill="url(#paint6_linear_1695_12493)"/>
</g>
<defs>
<linearGradient id="paint0_linear_1695_12493" x1="58.4518" y1="40.0644" x2="107.389" y2="101.167" gradientUnits="userSpaceOnUse">
<stop stop-color="#FF7044"/>
<stop offset="1" stop-color="#F82814"/>
</linearGradient>
<linearGradient id="paint1_linear_1695_12493" x1="86.5563" y1="84.9149" x2="106.821" y2="128.225" gradientUnits="userSpaceOnUse">
<stop stop-color="#F82814" stop-opacity="0"/>
<stop offset="1" stop-color="#C0272D"/>
</linearGradient>
<linearGradient id="paint2_linear_1695_12493" x1="81.5755" y1="57.859" x2="17.1626" y2="-7.81695" gradientUnits="userSpaceOnUse">
<stop stop-color="#F82814" stop-opacity="0"/>
<stop offset="1" stop-color="#C0272D"/>
</linearGradient>
<linearGradient id="paint3_linear_1695_12493" x1="116.255" y1="116.255" x2="79.4451" y2="79.4451" gradientUnits="userSpaceOnUse">
<stop stop-color="#F82814" stop-opacity="0"/>
<stop offset="1" stop-color="#C0272D"/>
</linearGradient>
<linearGradient id="paint4_linear_1695_12493" x1="45.1278" y1="45.1956" x2="94.8118" y2="94.8797" gradientUnits="userSpaceOnUse">
<stop stop-color="#FFD945"/>
<stop offset="0.2567" stop-color="#FFD442"/>
<stop offset="0.5511" stop-color="#FFC63A"/>
<stop offset="0.8628" stop-color="#FFB02C"/>
<stop offset="1" stop-color="#FFA325"/>
</linearGradient>
<linearGradient id="paint5_linear_1695_12493" x1="74.6476" y1="73.806" x2="0.121465" y2="51.2929" gradientUnits="userSpaceOnUse">
<stop stop-color="#F35227" stop-opacity="0"/>
<stop offset="1" stop-color="#F35227"/>
</linearGradient>
<linearGradient id="paint6_linear_1695_12493" x1="73.7842" y1="65.3746" x2="51.2712" y2="139.901" gradientUnits="userSpaceOnUse">
<stop stop-color="#F35227" stop-opacity="0"/>
<stop offset="1" stop-color="#F35227"/>
</linearGradient>
<clipPath id="clip0_1695_12493">
<rect width="140" height="140" fill="white"/>
</clipPath>
</defs>
</svg>
