<svg width="65" height="65" viewBox="0 0 65 65" fill="none" xmlns="http://www.w3.org/2000/svg">
<circle cx="32.5" cy="32.5" r="32.5" fill="#F05255"/>
<g clip-path="url(#clip0_2202_15408)">
<path d="M32.9989 44.4309C36.3924 44.4309 39.154 41.6694 39.154 38.2758C39.154 34.8823 36.3924 32.1207 32.9989 32.1207C29.6053 32.1207 26.8438 34.8823 26.8438 38.2758C26.8438 41.6694 29.6053 44.4309 32.9989 44.4309ZM30.6185 37.1389L31.8619 35.8955L32.9989 37.0324L34.1358 35.8955L35.3792 37.1389L34.2422 38.2758L35.3792 39.4128L34.1358 40.6562L32.9989 39.5192L31.8619 40.6561L30.6185 39.4127L31.7555 38.2758L30.6185 37.1389Z" fill="white"/>
<path d="M47.4866 26.7195C44.3567 23.5904 38.5996 21.5691 33 21.5691C27.4004 21.5691 21.6433 23.5904 18.5125 26.7204C17.829 27.4056 17.829 28.5211 18.5134 29.2072L21.0002 31.694L25.9746 29.2072L26.5954 26.0987L26.5971 26.0978C27.9006 25.5388 30.8893 25.2048 32.9124 25.2048C34.9354 25.2048 37.8655 25.5388 39.1699 26.0987L39.7916 29.2072L44.9998 31.694L47.4874 29.2063C48.171 28.5211 48.171 27.4056 47.4866 26.7195Z" fill="white"/>
</g>
<defs>
<clipPath id="clip0_2202_15408">
<rect width="30" height="30" fill="white" transform="translate(18 18)"/>
</clipPath>
</defs>
</svg>
