<svg width="40" height="40" viewBox="0 0 40 40" fill="none" xmlns="http://www.w3.org/2000/svg">
<g clip-path="url(#clip0_856_10711)">
<path d="M3.32921 2.3881C5.53586 1.58982 7.9108 2.73602 8.69695 4.89035L6.19403 10.2579C4.02531 11.0483 1.53638 9.91754 0.748961 7.7551C-0.0377359 5.59019 1.14061 3.18375 3.32921 2.3881ZM8.69699 4.89043C9.48542 7.05964 8.3793 9.46065 6.19417 10.2579L8.69699 4.89043Z" fill="#CBD5EA" stroke="#CBD5EA"/>
<path d="M33.8758 10.2578L33.8761 10.2579C36.0538 11.0532 38.4596 9.90302 39.2418 7.75504C40.0332 5.57712 38.9152 3.17875 36.7394 2.38795L33.8758 10.2578ZM33.8758 10.2578C31.702 9.46559 30.5787 7.07277 31.3717 4.89062M33.8758 10.2578L31.3717 4.89062M31.3717 4.89062C32.1615 2.72573 34.546 1.59276 36.7393 2.38792L31.3717 4.89062Z" fill="#CBD5EA" stroke="#CBD5EA"/>
<path d="M10.0827 24.2855L10.0839 24.2838C10.3036 23.9891 10.7253 23.9266 11.0244 24.1504C11.0244 24.1504 11.0244 24.1505 11.0245 24.1505L15.8187 27.7462C16.7609 29.0299 18.2767 29.875 19.9954 29.875C21.7053 29.875 23.2999 29.0371 24.2498 27.7464L29.0432 24.1525C29.0434 24.1524 29.0436 24.1523 29.0438 24.1521C29.3434 23.9296 29.7643 23.9913 29.9862 24.2855C30.2076 24.5797 30.1504 25.0016 29.8526 25.2247L29.8523 25.2249L23.2193 30.1999C23.2191 30.2001 23.2189 30.2002 23.2188 30.2003C22.9093 30.4312 22.6921 30.7605 22.5992 31.1334L22.5958 31.1471L22.5932 31.161L21.0107 39.5H18.9837L17.4765 31.1652L17.4736 31.1492L17.4696 31.1334C17.3768 30.7605 17.1596 30.4313 16.8502 30.2004C16.85 30.2003 16.8498 30.2001 16.8496 30.1999L10.2166 25.2238L10.2166 25.2238L10.2151 25.2226C9.92013 25.0031 9.86027 24.5811 10.0827 24.2855Z" fill="#CBD5EA" stroke="#CBD5EA"/>
<path d="M18.1514 24.6875C18.1514 23.6716 18.9792 22.8438 19.9951 22.8438C21.0324 22.8438 21.917 23.6926 21.917 24.6875C21.917 25.6824 21.0324 26.5312 19.9951 26.5312C18.9792 26.5312 18.1514 25.7034 18.1514 24.6875Z" fill="#CBD5EA" stroke="#CBD5EA"/>
<path d="M32.7612 13.6124L32.7611 13.6123C30.3317 12.7281 27.6348 12.9157 25.3514 14.1202L32.7612 13.6124ZM32.7612 13.6124C35.1802 14.4919 37.1347 16.4441 38.1109 18.8427C39.0842 21.234 38.9995 23.9398 37.8797 26.2662L37.8793 26.2672L31.7286 39.1193C31.7286 39.1195 31.7285 39.1196 31.7284 39.1198C31.616 39.3526 31.3805 39.5 31.1228 39.5H24.4249M32.7612 13.6124L24.4249 39.5M24.4249 39.5L25.7128 32.5085L31.8575 27.9005L31.8577 27.9004C33.6344 26.5671 33.9916 24.0516 32.6602 22.2772C31.3338 20.5086 28.8107 20.1501 27.0397 21.4754L27.0393 21.4757L24.9735 23.0251C24.35 21.2238 22.7283 19.8796 20.8082 19.5779C21.5317 17.2677 23.2067 15.2538 25.3513 14.1202L24.4249 39.5Z" fill="#CBD5EA" stroke="#CBD5EA"/>
<path d="M15.6439 39.5H8.94611C8.68822 39.5 8.45255 39.3523 8.34019 39.1192L8.33972 39.1182L2.11101 26.2662C2.1109 26.266 2.11079 26.2658 2.11067 26.2655C0.991195 23.9393 0.906658 21.2338 1.87984 18.8427C2.85327 16.4509 4.88191 14.4943 7.30766 13.6123L7.30778 13.6122C9.73502 12.729 12.4365 12.9156 14.7172 14.12L15.6439 39.5ZM15.6439 39.5L14.356 32.5084L8.21155 27.8995L15.6439 39.5ZM19.1834 19.5779C17.2682 19.8803 15.7036 21.2287 15.0935 23.0231L13.0311 21.4759C11.2625 20.1469 8.7407 20.5071 7.4091 22.2765L7.40868 22.277C6.06546 24.0671 6.45104 26.5808 8.21124 27.8992L19.1834 19.5779ZM19.1834 19.5779C18.4663 17.2608 16.8557 15.2503 14.7174 14.1201L19.1834 19.5779Z" fill="#CBD5EA" stroke="#CBD5EA"/>
<path d="M19.6234 1.66186L19.9948 2.07486L20.3666 1.66216C20.9466 1.01838 21.8927 0.5 23.0258 0.5C25.0098 0.5 26.6045 2.1486 26.6045 4.32812C26.6045 5.72063 25.8716 7.02969 24.6996 8.34951C23.723 9.44923 22.4944 10.5003 21.2396 11.5739C20.9867 11.7902 20.7328 12.0075 20.4796 12.2262L20.4784 12.2272C20.3663 12.3247 20.1722 12.3906 19.9951 12.3906C19.8584 12.3906 19.7425 12.3505 19.5993 12.2267C19.4379 12.0867 19.278 11.9484 19.1199 11.8116C17.5961 10.4934 16.235 9.31597 15.2187 8.14211C14.1008 6.85092 13.4639 5.63391 13.4639 4.32812C13.4639 2.1486 15.0586 0.5 17.0425 0.5C18.1656 0.5 19.037 1.00993 19.6234 1.66186Z" fill="#CBD5EA" stroke="#CBD5EA"/>
</g>
<defs>
<clipPath id="clip0_856_10711">
<rect width="40" height="40" fill="white"/>
</clipPath>
</defs>
</svg>
