<svg width="16" height="16" viewBox="0 0 16 16" fill="none" xmlns="http://www.w3.org/2000/svg">
<path d="M0.5 8C0.5 6.64033 0.83333 5.38597 1.5 4.23685C2.17544 3.08772 3.08772 2.17983 4.23685 1.51316C5.39474 0.837717 6.6491 0.5 8 0.5C9.35968 0.5 10.6141 0.837717 11.7631 1.51316C12.9123 2.17983 13.8202 3.09211 14.4868 4.25C15.1623 5.39912 15.5 6.6491 15.5 8C15.5 9.3509 15.1623 10.6053 14.4868 11.7631C13.8202 12.9123 12.9079 13.8246 11.75 14.5C10.6009 15.1667 9.3509 15.5 8 15.5C6.6491 15.5 5.39474 15.1667 4.23685 14.5C3.08772 13.8246 2.17544 12.9123 1.5 11.7631C0.83333 10.6053 0.5 9.3509 0.5 8ZM7.00003 11.5C7.00003 11.7719 7.09648 12.0088 7.28945 12.2105C7.4912 12.4035 7.72805 12.5 8 12.5C8.27195 12.5 8.50438 12.4035 8.69735 12.2105C8.8991 12.0088 8.99998 11.7719 8.99998 11.5C8.99998 11.2281 8.8991 10.9957 8.69735 10.8026C8.50438 10.6009 8.27195 10.5 8 10.5C7.72805 10.5 7.4912 10.6009 7.28945 10.8026C7.09648 10.9957 7.00003 11.2281 7.00003 11.5ZM7.25 8.99998C7.25 9.20173 7.32455 9.37723 7.47365 9.52633C7.62283 9.67543 7.79825 9.74998 8 9.74998C8.21053 9.74998 8.38595 9.67543 8.52635 9.52633C8.67545 9.37723 8.75 9.20173 8.75 8.99998V4.25C8.75 4.03948 8.67545 3.86404 8.52635 3.72369C8.38595 3.57457 8.21053 3.5 8 3.5C7.79825 3.5 7.62283 3.57457 7.47365 3.72369C7.32455 3.86404 7.25 4.03948 7.25 4.25V8.99998Z" fill="#DF7466"/>
</svg>
