<svg width="40" height="40" viewBox="0 0 40 40" fill="none" xmlns="http://www.w3.org/2000/svg">
<path d="M12.8906 12.9673C5.78898 12.9673 0 18.7563 0 25.8579C0 32.9594 5.78898 38.7485 12.8906 38.7485C19.9923 38.7485 25.7812 32.9594 25.7812 25.8579C25.7812 18.7563 19.9923 12.9673 12.8906 12.9673ZM12.8906 34.061C8.36719 34.061 4.6875 30.3813 4.6875 25.8579C4.6875 21.3345 8.36719 17.6548 12.8906 17.6548C17.4141 17.6548 21.0938 21.3345 21.0938 25.8579C21.0938 30.3813 17.4141 34.061 12.8906 34.061Z" fill="#CBD5EA"/>
<path d="M19.9221 12.0792L15.0927 7.24985C13.7217 5.87883 13.7217 3.64954 15.0927 2.27852C16.4191 0.955551 18.5443 0.910942 19.9221 2.14344C21.3022 0.910942 23.4297 0.955551 24.7515 2.27852C26.1225 3.64954 26.1225 5.87883 24.7515 7.24985L19.9221 12.0792Z" fill="#CBD5EA"/>
<path d="M15.3658 31.1671C17.3627 30.2324 18.75 28.2046 18.75 25.8579C18.75 23.5113 17.3627 21.4835 15.3657 20.5487C14.6294 22.1691 14.2188 23.9669 14.2188 25.8579C14.2188 27.7489 14.6294 29.5468 15.3658 31.1671Z" fill="#CBD5EA"/>
<path d="M27.1088 12.9673C25.415 12.9673 23.7963 13.2973 22.3125 13.8952C23.6797 14.9743 24.8576 16.2828 25.7891 17.7615C26.2189 17.6917 26.6596 17.6549 27.1088 17.6549C31.6323 17.6549 35.312 21.3345 35.312 25.858C35.312 30.3814 31.6323 34.0611 27.1088 34.0611C26.6596 34.0611 26.2188 34.0242 25.7891 33.9545C24.8576 35.4331 23.6797 36.7416 22.3125 37.8208C23.7963 38.4187 25.415 38.7487 27.1088 38.7487C34.2105 38.7487 39.9995 32.9596 39.9995 25.8581C39.9995 18.7563 34.2105 12.9673 27.1088 12.9673Z" fill="#CBD5EA"/>
</svg>
