<svg width="140" height="140" viewBox="0 0 140 140" fill="none" xmlns="http://www.w3.org/2000/svg">
<g clip-path="url(#clip0_1695_12442)">
<path d="M87.3177 47.9574C83.0911 42.6542 77.1021 39.5552 70.4538 39.231C70.0629 39.2121 69.6668 39.2022 69.2767 39.2022C63.0475 39.2022 57.1669 41.6028 52.7188 45.9615C51.9153 46.7487 51.1744 47.5846 50.4994 48.4614C49.8246 47.5846 49.0837 46.749 48.2802 45.9617C43.8318 41.6028 37.9515 39.2022 31.7226 39.2022C31.3326 39.2022 30.9364 39.2118 30.5455 39.231C23.8972 39.5549 17.9082 42.6542 13.6816 47.9569C9.11812 53.6829 7.25091 61.1775 8.55867 68.519C10.2425 77.9698 16.1478 87.052 26.1111 95.5132C30.8291 99.52 35.7203 102.751 39.7534 105.128C42.4068 106.692 44.0426 109.534 44.0426 112.614H33.7812C31.4555 112.614 29.5699 114.499 29.5699 116.825V121.316C29.5699 123.642 31.4553 125.527 33.7812 125.527H44.0426V135.789C44.0426 138.114 45.928 140 48.2539 140H52.7451C55.0708 140 56.9564 138.115 56.9564 135.789V125.527H67.2179C69.5435 125.527 71.4291 123.642 71.4291 121.316V116.825C71.4291 114.499 69.5438 112.614 67.2179 112.614H56.9564C56.9564 109.534 58.5922 106.692 61.2456 105.128C65.2787 102.751 70.1699 99.5197 74.8879 95.513C84.8513 87.0515 90.7565 77.9693 92.4401 68.5187C93.7481 61.1778 91.8812 53.6834 87.3177 47.9574ZM80.8635 66.4569C79.6718 73.1453 75.1007 79.9057 67.276 86.5508C61.7362 91.2556 55.8795 94.7633 51.9299 96.8828C51.036 97.3623 49.9641 97.3623 49.0703 96.8828C45.1201 94.763 39.2631 91.2553 33.7235 86.5508C25.8992 79.9057 21.3275 73.1451 20.1361 66.4569C19.421 62.4417 20.4202 58.3698 22.8779 55.286C24.998 52.626 27.8477 51.1357 31.1187 50.9765C31.3197 50.9666 31.5231 50.9616 31.7229 50.9616C34.8559 50.9616 37.8132 52.1689 40.0504 54.3612C40.3554 54.6601 46.0649 59.9068 48.9116 62.5218C49.809 63.3459 51.187 63.3462 52.0844 62.5221C54.9322 59.9071 60.6442 54.6596 60.9491 54.3604C63.1856 52.1687 66.1434 50.9616 69.2764 50.9616C69.4765 50.9616 69.6799 50.9666 69.8811 50.9765C73.1522 51.136 76.0016 52.6263 78.1214 55.2863C80.5796 58.3701 81.5786 62.4414 80.8635 66.4569Z" fill="url(#paint0_linear_1695_12442)"/>
<path d="M82.4638 53.0358C78.7945 48.7507 73.5947 46.2469 67.8226 45.985C67.4833 45.9697 67.1393 45.9617 66.8008 45.9617C61.3927 45.9617 56.2874 47.9014 52.4256 51.4231C51.7281 52.0594 51.0849 52.7344 50.4988 53.4432C49.913 52.7347 49.2698 52.0597 48.5723 51.4234C44.7102 47.9014 39.6052 45.9617 34.1973 45.9617C33.8588 45.9617 33.5149 45.9694 33.1756 45.985C27.4035 46.2469 22.204 48.7507 18.5346 53.0356C14.5726 57.6621 12.9514 63.7178 14.087 69.6497C15.5488 77.286 20.6758 84.6242 29.3259 91.4609C35.975 96.7164 43.0239 100.322 46.6337 102.003C47.8281 102.559 49.165 102.853 50.4996 102.853C51.834 102.853 53.1709 102.559 54.3653 102.003C57.9754 100.321 65.0239 96.7161 71.6731 91.4609C80.3229 84.6242 85.4502 77.2858 86.9117 69.6497C88.0468 63.7181 86.4258 57.6624 82.4638 53.0358ZM76.8603 67.9834C75.8259 73.3877 71.857 78.8499 65.0637 84.2191C60.2541 88.0205 55.1696 90.8548 51.7404 92.5672C50.9644 92.9548 50.0338 92.9548 49.2577 92.5672C45.828 90.8545 40.7433 88.0202 35.9339 84.2188C29.1408 78.8496 25.1717 73.3872 24.1374 67.9832C23.5164 64.7387 24.3841 61.4487 26.5176 58.957C28.3582 56.8079 30.8324 55.6036 33.6722 55.4749C33.8468 55.4669 34.0233 55.4628 34.1968 55.4628C36.9166 55.4628 39.4844 56.4381 41.4268 58.2095C41.6917 58.4511 46.6485 62.6903 49.1199 64.8032C49.899 65.4692 51.0956 65.4692 51.8747 64.8035C54.3469 62.6906 59.3059 58.4505 59.5711 58.209C61.5127 56.4381 64.0807 55.4628 66.8008 55.4628C66.9746 55.4628 67.1511 55.4669 67.326 55.4749C70.1658 55.6036 72.6397 56.8079 74.4803 58.957C76.6137 61.4493 77.4812 64.739 76.8603 67.9834Z" fill="url(#paint1_linear_1695_12442)"/>
<path d="M70.4541 39.231C70.0632 39.2121 69.6671 39.2022 69.277 39.2022C63.0478 39.2022 57.1673 41.6028 52.7191 45.9615C51.9156 46.7487 51.175 47.5844 50.5 48.4611V63.1395C51.0682 63.1392 51.6365 62.9333 52.0847 62.5215C54.9325 59.9066 60.6445 54.659 60.9495 54.3598C63.1859 52.1681 66.1438 50.9611 69.2767 50.9611C69.4769 50.9611 69.6803 50.966 69.8815 50.9759C73.1525 51.1354 76.002 52.6257 78.1217 55.2857C80.5797 58.3698 81.5786 62.4411 80.8635 66.4566C79.6719 73.1451 75.1007 79.9054 67.2761 86.5505C61.7362 91.2553 55.8796 94.763 51.9299 96.8825C51.483 97.1224 50.9914 97.2421 50.5 97.2421V140H52.7458C55.0714 140 56.9567 138.115 56.9567 135.789V125.527H67.2182C69.5438 125.527 71.4295 123.642 71.4295 121.316V116.825C71.4295 114.499 69.5441 112.614 67.2182 112.614H56.9567C56.9567 109.534 58.5925 106.692 61.246 105.128C65.2791 102.751 70.1703 99.5197 74.8883 95.513C84.8516 87.0515 90.7569 77.9693 92.4404 68.5187C93.7485 61.1773 91.8815 53.6826 87.3178 47.9566C83.0917 42.6542 77.1027 39.5549 70.4541 39.231Z" fill="url(#paint2_linear_1695_12442)"/>
<path d="M51.9531 46.7512V64.7377C54.4495 62.6039 59.3094 58.4486 59.5716 58.2095C60.2576 57.5839 61.0232 57.0596 61.8448 56.6404L51.9542 46.7498C51.9537 46.7504 51.9534 46.7507 51.9531 46.7512Z" fill="url(#paint3_linear_1695_12442)"/>
<path d="M108.88 36.7003C108.274 34.457 108.923 32.0562 110.567 30.4124L119.809 21.1735L110.675 12.0427L101.436 21.2816C99.7925 22.9254 97.3947 23.5743 95.1483 22.9688C90.4548 21.7019 84.2533 20.3609 77.5451 19.8138C64.518 18.7509 53.9194 20.9972 46.0462 26.4913C39.9282 30.7555 35.9514 37.3773 35.1295 44.654C35.0801 45.0959 35.04 45.5376 35.015 45.9765C34.8141 49.3725 35.3302 52.6664 36.5106 55.7068C37.5054 58.2653 38.9732 60.6444 40.8827 62.7488C41.1454 63.0362 41.4204 63.3236 41.6955 63.5984C46.0986 68.0046 51.9539 70.4642 58.1834 70.5293C59.3081 70.5386 60.4204 70.4735 61.5206 70.3283C61.3754 71.4283 61.3106 72.5406 61.3197 73.6655C61.3597 77.6391 62.3765 81.4613 64.252 84.851C64.5237 84.644 64.7958 84.4337 65.0645 84.2207C66.4766 83.1054 67.7682 81.9837 68.9332 80.8621C70.6698 79.1903 72.1345 77.5125 73.324 75.8347C73.1694 75.0869 73.086 74.3238 73.0799 73.548C73.0739 73.1217 72.7461 65.372 72.5825 61.5097C72.5301 60.2922 71.5567 59.3158 70.3392 59.2664C67.0267 59.1242 60.8623 58.8648 58.9004 58.7907C58.5729 58.7783 58.3626 58.769 58.3009 58.769C55.1706 58.738 52.226 57.4991 50.0107 55.2835C49.8685 55.1446 49.7296 54.9961 49.5934 54.8479C48.3513 53.4792 47.5047 51.9032 47.0751 50.182C46.7352 48.8564 46.6457 47.4444 46.8124 45.9735C47.2574 42.0555 49.4295 38.4682 52.7728 36.1351C58.344 32.248 66.3591 30.6998 76.5901 31.5343C83.8328 32.1245 90.4548 33.7869 94.7465 35.0815C95.7166 35.372 96.477 36.1321 96.7704 37.1025C98.062 41.3944 99.7244 48.0162 100.315 55.2588C101.149 65.4928 99.6009 73.5049 95.7138 79.0761C93.381 82.4194 89.7965 84.5949 85.8754 85.0366C85.5323 85.0766 85.1957 85.1013 84.8589 85.1077C83.8114 86.5104 82.6557 87.9011 81.3981 89.2761C79.6152 91.2289 77.6253 93.1541 75.4314 95.0482C79.0527 96.5995 83.0666 97.1864 87.198 96.72C94.4717 95.8981 101.093 91.9213 105.358 85.8033C110.851 77.93 113.098 67.3315 112.035 54.3044C111.488 47.5984 110.147 41.3939 108.88 36.7003Z" fill="url(#paint4_linear_1695_12442)"/>
<path d="M106.896 54.897C105.91 46.48 103.475 38.9469 102.113 35.2048C101.661 33.9656 100.923 32.8132 99.9804 31.8676C99.035 30.9252 97.8823 30.1867 96.6432 29.7354C92.9044 28.3728 85.371 25.9379 76.9509 24.9521C66.0002 23.6699 57.1876 25.2332 50.7545 29.5993C45.7548 32.992 42.6218 38.4179 42.1491 44.4928C42.072 45.4816 42.0687 46.4641 42.1338 47.4375C42.4459 51.9952 44.306 56.3149 47.5163 59.8313C47.748 60.0817 47.986 60.332 48.224 60.5698C49.596 61.9418 51.1193 63.1128 52.7477 64.0552C55.6553 65.7424 58.9027 66.7188 62.2493 66.8733C63.1947 66.9167 64.1247 66.895 65.0427 66.8053C64.9562 67.7229 64.9315 68.653 64.9746 69.5987C65.1599 73.6373 66.5443 77.5367 68.9328 80.8615C70.6693 79.1898 72.1341 77.512 73.3236 75.8342C74.1054 74.7312 74.7667 73.6279 75.3105 72.5216C75.0294 71.6594 74.8655 70.7604 74.8254 69.852C74.81 69.4935 74.3033 62.9893 74.0466 59.7479C73.9662 58.7251 73.1196 57.8785 72.1001 57.798C68.8587 57.5447 62.3544 57.0379 61.9959 57.0225C61.7519 57.0102 61.5109 56.9915 61.2698 56.9608C58.9123 56.6827 56.6874 55.5951 54.9416 53.8522C54.8211 53.7287 54.6975 53.6019 54.58 53.4723C52.8465 51.5719 51.9442 49.2608 51.9535 46.7487C51.9535 46.483 51.9629 46.2203 51.9845 45.9516C52.2379 42.6794 53.9498 39.7408 56.6811 37.8837C61.2358 34.7969 67.9036 33.74 76.5029 34.7474C82.5932 35.4581 88.1921 37.0495 91.8291 38.2639C92.651 38.539 93.3092 39.197 93.584 40.0191C94.7985 43.6558 96.3898 49.255 97.1005 55.3453C98.108 63.9446 97.0541 70.6127 93.9642 75.1671C92.6386 77.1169 90.7599 78.5507 88.6033 79.2985C87.5498 81.2574 86.3013 83.1949 84.8585 85.1077C83.8109 86.5104 82.6552 87.9011 81.3977 89.2761C83.3289 89.7087 85.3312 89.8569 87.3551 89.6994C93.43 89.2297 98.856 86.0934 102.249 81.094C106.615 74.6601 108.178 65.8475 106.896 54.897Z" fill="url(#paint5_linear_1695_12442)"/>
<path d="M120.818 35.5847L117.756 28.8274C114.87 22.4601 109.388 16.9784 103.021 14.0931L96.2641 11.0309C94.0633 10.0336 93.9131 7.04227 96.0623 7.11557C107.241 7.49713 117.546 5.17478 126.163 0.332703C128.901 -1.2062 133.055 2.94796 131.516 5.68647C126.674 14.3031 124.352 24.6087 124.733 35.7867C124.807 37.9356 121.815 37.7854 120.818 35.5847Z" fill="url(#paint6_linear_1695_12442)"/>
<path d="M131.517 5.68619C126.675 14.3028 124.353 24.6084 124.734 35.7867C124.808 37.9359 121.816 37.7857 120.819 35.585L117.757 28.8276C116.314 25.6442 114.222 22.6816 111.695 20.1548L130.445 1.40549C131.633 2.59357 132.287 4.31666 131.517 5.68619Z" fill="url(#paint7_linear_1695_12442)"/>
<path d="M100.425 91.1208L88.602 79.2979C87.5485 81.2568 86.3 83.1943 84.8572 85.1071C83.8096 86.5098 82.654 87.9005 81.3964 89.2755C79.6135 91.2284 77.6236 93.1535 75.4297 95.0476C79.051 96.5989 83.0649 97.1858 87.1963 96.7194C92.0699 96.1685 96.6496 94.1994 100.425 91.1208Z" fill="url(#paint8_linear_1695_12442)"/>
</g>
<defs>
<linearGradient id="paint0_linear_1695_12442" x1="43.0324" y1="66.1335" x2="81.1182" y2="113.687" gradientUnits="userSpaceOnUse">
<stop stop-color="#FF819C"/>
<stop offset="0.2594" stop-color="#FF7E9A"/>
<stop offset="0.4757" stop-color="#FE7396"/>
<stop offset="0.6765" stop-color="#FC628E"/>
<stop offset="0.8668" stop-color="#FA4A83"/>
<stop offset="1" stop-color="#F83479"/>
</linearGradient>
<linearGradient id="paint1_linear_1695_12442" x1="76.5652" y1="93.1826" x2="22.5353" y2="39.1528" gradientUnits="userSpaceOnUse">
<stop stop-color="#FF819C"/>
<stop offset="0.2594" stop-color="#FF7E9A"/>
<stop offset="0.4757" stop-color="#FE7396"/>
<stop offset="0.6765" stop-color="#FC628E"/>
<stop offset="0.8668" stop-color="#FA4A83"/>
<stop offset="1" stop-color="#F83479"/>
</linearGradient>
<linearGradient id="paint2_linear_1695_12442" x1="47.2698" y1="103.803" x2="15.1689" y2="146.486" gradientUnits="userSpaceOnUse">
<stop stop-color="#F82814" stop-opacity="0"/>
<stop offset="1" stop-color="#C0272D"/>
</linearGradient>
<linearGradient id="paint3_linear_1695_12442" x1="57.9907" y1="61.7809" x2="46.4069" y2="50.1969" gradientUnits="userSpaceOnUse">
<stop stop-color="#F82814" stop-opacity="0"/>
<stop offset="1" stop-color="#C0272D"/>
</linearGradient>
<linearGradient id="paint4_linear_1695_12442" x1="44.5773" y1="10.6996" x2="129.705" y2="85.9394" gradientUnits="userSpaceOnUse">
<stop stop-color="#65E0DB"/>
<stop offset="0.199" stop-color="#60DCD6"/>
<stop offset="0.4277" stop-color="#53D0C8"/>
<stop offset="0.671" stop-color="#3CBCB1"/>
<stop offset="0.9229" stop-color="#1CA191"/>
<stop offset="1" stop-color="#119786"/>
</linearGradient>
<linearGradient id="paint5_linear_1695_12442" x1="111.548" y1="57.125" x2="35.1481" y2="57.125" gradientUnits="userSpaceOnUse">
<stop stop-color="#65E0DB"/>
<stop offset="0.199" stop-color="#60DCD6"/>
<stop offset="0.4277" stop-color="#53D0C8"/>
<stop offset="0.671" stop-color="#3CBCB1"/>
<stop offset="0.9229" stop-color="#1CA191"/>
<stop offset="1" stop-color="#119786"/>
</linearGradient>
<linearGradient id="paint6_linear_1695_12442" x1="110.499" y1="3.49191" x2="126.021" y2="19.0147" gradientUnits="userSpaceOnUse">
<stop stop-color="#65E0DB"/>
<stop offset="0.199" stop-color="#60DCD6"/>
<stop offset="0.4277" stop-color="#53D0C8"/>
<stop offset="0.671" stop-color="#3CBCB1"/>
<stop offset="0.9229" stop-color="#1CA191"/>
<stop offset="1" stop-color="#119786"/>
</linearGradient>
<linearGradient id="paint7_linear_1695_12442" x1="124.624" y1="24.7949" x2="126.579" y2="0.327378" gradientUnits="userSpaceOnUse">
<stop stop-color="#65E0DB" stop-opacity="0"/>
<stop offset="1" stop-color="#119786"/>
</linearGradient>
<linearGradient id="paint8_linear_1695_12442" x1="91.432" y1="96.5887" x2="82.3808" y2="87.5376" gradientUnits="userSpaceOnUse">
<stop stop-color="#65E0DB" stop-opacity="0"/>
<stop offset="1" stop-color="#119786"/>
</linearGradient>
<clipPath id="clip0_1695_12442">
<rect width="140" height="140" fill="white"/>
</clipPath>
</defs>
</svg>
