<svg width="11" height="11" viewBox="0 0 11 11" fill="none" xmlns="http://www.w3.org/2000/svg">
<path d="M10.1689 8.60863L8.22449 6.66418C7.83786 7.30113 7.30345 7.83554 6.6665 8.22217L8.61095 10.1666C8.71241 10.2708 8.83372 10.3537 8.96773 10.4102C9.10173 10.4668 9.24571 10.4959 9.39116 10.4959C9.53661 10.4959 9.68058 10.4668 9.81459 10.4102C9.94859 10.3537 10.0699 10.2708 10.1714 10.1666C10.3772 9.95946 10.4925 9.67915 10.4921 9.38712C10.4916 9.09509 10.3754 8.81514 10.1689 8.60863V8.60863Z" fill="white"/>
<path d="M4.28478 8.4166C6.56679 8.4166 8.41672 6.56666 8.41672 4.28465C8.41672 2.00264 6.56679 0.15271 4.28478 0.15271C2.00277 0.15271 0.152832 2.00264 0.152832 4.28465C0.152832 6.56666 2.00277 8.4166 4.28478 8.4166Z" fill="white"/>
</svg>
