<svg width="50" height="50" viewBox="0 0 50 50" fill="none" xmlns="http://www.w3.org/2000/svg">
<g clip-path="url(#clip0_160_2088)">
<path d="M50.2637 24.7368C50.2637 10.9473 39.0531 -0.263184 25.2637 -0.263184C11.4742 -0.263184 0.263672 10.9473 0.263672 24.7368C0.263672 38.5263 11.4742 49.7368 25.2637 49.7368C39.0531 49.7368 50.2637 38.5263 50.2637 24.7368ZM35.9479 24.421H30.4216V37.2105C30.4216 37.8947 29.8426 38.4737 29.1584 38.4737H21.3689C20.6847 38.4737 20.1058 37.8947 20.1058 37.2105V24.421H14.5795C13.4742 24.421 12.9479 23.1579 13.6321 22.3158L24.3163 10.5789C24.79 10.0526 25.6847 10.0526 26.1584 10.5789L36.8426 22.3158C37.5795 23.1579 37.0531 24.421 35.9479 24.421Z" fill="white"/>
</g>
<defs>
<clipPath id="clip0_160_2088">
<rect width="50" height="50" fill="white"/>
</clipPath>
</defs>
</svg>
