<svg width="18" height="18" viewBox="0 0 18 18" fill="none" xmlns="http://www.w3.org/2000/svg">
<g clip-path="url(#clip0_158_3230)">
<path d="M17.4837 10.9563C17.2231 10.9563 17.0119 11.1674 17.0119 11.428V15.6171C17.011 16.3983 16.3779 17.0315 15.5966 17.0324H2.3589C1.57751 17.0315 0.94448 16.3983 0.943559 15.6171V3.32301C0.94448 2.54162 1.57751 1.90859 2.3589 1.90767H6.54778C6.80837 1.90767 7.01956 1.69648 7.01956 1.43589C7.01956 1.17531 6.80837 0.964111 6.54778 0.964111H2.3589C1.05671 0.965586 0.00147431 2.02082 0 3.32301V15.6171C0.00147431 16.9193 1.05671 17.9745 2.3589 17.976H15.5966C16.8987 17.9745 17.954 16.9193 17.9554 15.6171V11.4282C17.9554 11.1676 17.7443 10.9563 17.4837 10.9563Z" fill="#878787"/>
<path d="M7.37695 8.47368L14.2655 1.58496L16.4871 3.80656L9.59856 10.6953L7.37695 8.47368Z" fill="#878787"/>
<path d="M6.25391 11.8192L8.709 11.1392L6.93393 9.36414L6.25391 11.8192Z" fill="#878787"/>
<path d="M17.1019 0.417299C16.641 -0.0425014 15.8948 -0.0425014 15.4339 0.417299L14.9336 0.917643L17.1552 3.13925L17.6555 2.6389C18.1155 2.17799 18.1155 1.43181 17.6555 0.970903L17.1019 0.417299Z" fill="#878787"/>
</g>
<defs>
<clipPath id="clip0_158_3230">
<rect width="18" height="18" fill="white"/>
</clipPath>
</defs>
</svg>
