<svg width="40" height="40" viewBox="0 0 40 40" fill="none" xmlns="http://www.w3.org/2000/svg">
<circle cx="20" cy="20" r="20" fill="#F5F6F8"/>
<path d="M26.2065 15.587H24.6413L23.7772 14.2826C23.4511 13.7935 22.8804 13.5 22.2935 13.5H18.7065C18.1196 13.5 17.5489 13.7935 17.2228 14.2826L16.3587 15.587H14.7935C13.7989 15.587 13 16.3859 13 17.3804V23.7065C13 24.7011 13.7989 25.5 14.7935 25.5H26.2065C27.2011 25.5 28 24.7011 28 23.7065V17.3804C28 16.3859 27.2011 15.587 26.2065 15.587ZM20.5 24.0326C18.2663 24.0326 16.4565 22.2228 16.4565 19.9891C16.4565 17.7554 18.2663 15.962 20.5 15.962C22.7337 15.962 24.5435 17.7717 24.5435 20.0054C24.5435 22.2228 22.7337 24.0326 20.5 24.0326ZM25.9783 18.1141C25.962 18.1141 25.9457 18.1141 25.913 18.1141H25.2609C24.9674 18.0978 24.7391 17.8533 24.7554 17.5598C24.7717 17.2826 24.9837 17.0707 25.2609 17.0543H25.913C26.2065 17.038 26.4511 17.2663 26.4674 17.5598C26.4837 17.8533 26.2717 18.0978 25.9783 18.1141Z" fill="#878787"/>
<path d="M20.5 17.7555C19.2609 17.7555 18.25 18.7664 18.25 20.0055C18.25 21.2446 19.2609 22.2392 20.5 22.2392C21.7391 22.2392 22.75 21.2283 22.75 19.9892C22.75 18.7501 21.7391 17.7555 20.5 17.7555Z" fill="#878787"/>
</svg>
