<svg width="30" height="30" viewBox="0 0 30 30" fill="none" xmlns="http://www.w3.org/2000/svg">
<circle cx="15" cy="15" r="15" fill="url(#paint0_linear_1209_9188)"/>
<path d="M13.6628 19.1539C13.5537 19.2636 13.405 19.3248 13.2504 19.3248C13.0958 19.3248 12.947 19.2636 12.838 19.1539L9.54446 15.8598C9.20263 15.518 9.20263 14.9638 9.54446 14.6226L9.95688 14.2102C10.2987 13.8683 10.8523 13.8683 11.1941 14.2102L13.2504 16.2664L18.8066 10.7102C19.1485 10.3683 19.7026 10.3683 20.0439 10.7102L20.4563 11.1226C20.7981 11.4644 20.7981 12.0186 20.4563 12.3598L13.6628 19.1539Z" fill="white"/>
<defs>
<linearGradient id="paint0_linear_1209_9188" x1="-4.47035e-07" y1="30" x2="32.3531" y2="27.2013" gradientUnits="userSpaceOnUse">
<stop stop-color="#FCC500"/>
<stop offset="1" stop-color="#E89570"/>
</linearGradient>
</defs>
</svg>
