<svg width="40" height="40" viewBox="0 0 40 40" fill="none" xmlns="http://www.w3.org/2000/svg">
<path d="M31.7188 35.3125H28.2031V32.8125H29.7695C30.4167 32.8125 30.9414 32.2878 30.9414 31.6406C30.9414 30.9934 30.4167 30.4688 29.7695 30.4688H28.2031V28.125H31.332C31.9792 28.125 32.5039 27.6003 32.5039 26.9531C32.5039 26.3059 31.9792 25.7812 31.332 25.7812H28.2031V23.4375H29.7695C30.4167 23.4375 30.9414 22.9128 30.9414 22.2656C30.9414 21.6184 30.4167 21.0938 29.7695 21.0938H28.2031V18.75H31.332C31.9792 18.75 32.5039 18.2253 32.5039 17.5781C32.5039 16.9309 31.9792 16.4062 31.332 16.4062H28.2031V14.0625H29.7695C30.4167 14.0625 30.9414 13.5378 30.9414 12.8906C30.9414 12.2434 30.4167 11.7188 29.7695 11.7188H28.2031V9.375H31.332C31.9792 9.375 32.5039 8.85031 32.5039 8.20312C32.5039 7.55594 31.9792 7.03125 31.332 7.03125H28.2031V4.6875H29.7695C30.4167 4.6875 30.9414 4.16281 30.9414 3.51562C30.9414 2.86844 30.4167 2.34375 29.7695 2.34375H28.2031V1.17188C28.2031 0.524687 27.6784 0 27.0312 0C26.3841 0 25.8594 0.524687 25.8594 1.17188V35.3125H21.6283L22.1263 27.3438H13.194L13.692 35.3125H8.28125C7.63406 35.3125 7.10938 35.8372 7.10938 36.4844V38.8281C7.10938 39.4753 7.63406 40 8.28125 40C8.92844 40 9.45312 39.4753 9.45312 38.8281V37.6562H30.5469V38.8281C30.5469 39.4753 31.0716 40 31.7188 40C32.3659 40 32.8906 39.4753 32.8906 38.8281V36.4844C32.8906 35.8372 32.3659 35.3125 31.7188 35.3125Z" fill="#CBD5EA"/>
<path d="M17.6641 10.9375C19.6057 10.9375 21.1797 9.3635 21.1797 7.42188C21.1797 5.48025 19.6057 3.90625 17.6641 3.90625C15.7224 3.90625 14.1484 5.48025 14.1484 7.42188C14.1484 9.3635 15.7224 10.9375 17.6641 10.9375Z" fill="#CBD5EA"/>
<path d="M12.9766 25H22.3477C22.9948 25 23.5195 24.4753 23.5195 23.8281V16.0137C23.5195 14.3188 22.7952 12.7905 21.6408 11.7201C19.3913 13.8029 15.9336 13.8016 13.6854 11.7182C12.5298 12.7888 11.8047 14.3179 11.8047 16.0137V23.8281C11.8047 24.4753 12.3293 25 12.9766 25Z" fill="#CBD5EA"/>
</svg>
