<svg width="20" height="20" viewBox="0 0 20 20" fill="none" xmlns="http://www.w3.org/2000/svg">
<path d="M16.1213 2.21211L13.8183 5.51514C13.6668 5.72726 13.3941 5.69696 13.2425 5.51514L11.3637 2.72726L11.0001 2.18181C10.8486 1.93938 11.0001 1.63635 11.2728 1.63635H15.8183C16.1213 1.66666 16.2728 1.96969 16.1213 2.21211ZM12.2425 6.21211H7.75769C7.48496 6.21211 7.33345 5.90908 7.48496 5.66666L7.54557 5.57575L9.72738 2.33332C9.8486 2.1212 10.1516 2.1212 10.3031 2.33332L12.5456 5.66666C12.6971 5.90908 12.5153 6.21211 12.2425 6.21211ZM8.69708 1.66666C8.96981 1.66666 9.12132 1.96969 8.96981 2.21211L8.9092 2.30302L6.72739 5.54544C6.60617 5.75756 6.30314 5.75756 6.15163 5.54544L3.9092 2.21211C3.75769 1.96969 3.9092 1.66666 4.18193 1.66666H8.69708ZM2.60617 2.36363C2.72738 2.1515 3.03041 2.1515 3.18193 2.36363L3.54557 2.87878L5.45466 5.69696C5.60617 5.93938 5.45466 6.24241 5.18193 6.24241H0.636475C0.363748 6.24241 0.212233 5.93938 0.363748 5.69696L2.60617 2.36363ZM0.757687 6.90908H5.9092C6.06072 6.90908 6.21223 6.99999 6.24254 7.1515L9.03041 17.8788C9.09102 18.0606 8.8486 18.1818 8.72738 18.0303L0.48496 7.45453C0.303142 7.24241 0.48496 6.90908 0.757687 6.90908ZM9.81829 18.2121L7.00011 7.33332C6.93951 7.1212 7.12132 6.90908 7.33345 6.90908H12.6668C12.8789 6.90908 13.0607 7.1212 13.0001 7.33332L10.1819 18.2121C10.1213 18.3939 9.8789 18.3939 9.81829 18.2121ZM10.9698 17.8788L13.7577 7.1515C13.788 6.99999 13.9395 6.90908 14.091 6.90908H19.2425C19.5153 6.90908 19.6971 7.24241 19.5153 7.45453L11.2728 18.0303C11.1516 18.1818 10.9092 18.0606 10.9698 17.8788ZM14.5153 5.66666L16.8183 2.36363C16.9698 2.1515 17.2425 2.18181 17.3941 2.36363L19.6365 5.66666C19.788 5.90908 19.6365 6.21211 19.3637 6.21211H14.8183C14.5153 6.21211 14.3637 5.90908 14.5153 5.66666Z" fill="url(#paint0_linear_133_1063)"/>
<defs>
<linearGradient id="paint0_linear_133_1063" x1="0.303711" y1="18.3485" x2="21.1639" y2="16.2545" gradientUnits="userSpaceOnUse">
<stop stop-color="#F08763"/>
<stop offset="1" stop-color="#DF7466"/>
</linearGradient>
</defs>
</svg>
