<svg width="40" height="40" viewBox="0 0 40 40" fill="none" xmlns="http://www.w3.org/2000/svg">
<path d="M29.1002 2.7196C26.8431 2.7196 24.6775 3.40367 22.8373 4.69789C21.7059 5.49359 20.748 6.48179 20 7.61562C19.252 6.48179 18.2941 5.49359 17.1627 4.69796C15.3225 3.40374 13.1568 2.71968 10.8998 2.71968C4.88953 2.7196 0 7.60921 0 13.6194C0 18.3835 4.13258 23.7487 7.59945 27.4106C11.7703 31.8162 16.5386 35.4632 19.4141 37.1233C19.5954 37.228 19.7977 37.2803 20 37.2803C20.2023 37.2803 20.4047 37.228 20.5859 37.1233C22.5749 35.9749 27.3487 32.323 31.7345 27.7995C34.1374 25.3212 36.0541 22.9612 37.4311 20.7853C39.1356 18.0919 40 15.681 40 13.6194C40 7.60921 35.1104 2.7196 29.1002 2.7196ZM23.9036 20.153H21.1719V28.9687C21.1719 29.6159 20.6472 30.1405 20 30.1405C19.3528 30.1405 18.8281 29.6159 18.8281 28.9687V20.153H16.0963C15.4491 20.153 14.9245 19.6283 14.9245 18.9811C14.9245 18.3339 15.4491 17.8092 16.0963 17.8092H18.8281V15.8594C18.8281 15.2122 19.3528 14.6875 20 14.6875C20.6472 14.6875 21.1719 15.2122 21.1719 15.8594V17.8092H23.9037C24.5509 17.8092 25.0755 18.3339 25.0755 18.9811C25.0755 19.6283 24.5508 20.153 23.9036 20.153Z" fill="#CBD5EA"/>
</svg>
