<svg width="70" height="70" viewBox="0 0 70 70" fill="none" xmlns="http://www.w3.org/2000/svg">
<circle cx="35" cy="35" r="35" fill="#F5F6F8"/>
<path d="M42.0312 21.7578C40.4033 21.7578 38.9108 22.2737 37.5953 23.2911C36.3341 24.2665 35.4944 25.5089 35 26.4123C34.5056 25.5088 33.6659 24.2665 32.4047 23.2911C31.0892 22.2737 29.5967 21.7578 27.9688 21.7578C23.4259 21.7578 20 25.4737 20 30.4012C20 35.7247 24.274 39.3669 30.7443 44.8808C31.843 45.8172 33.0884 46.8785 34.3829 48.0105C34.5535 48.1599 34.7727 48.2422 35 48.2422C35.2273 48.2422 35.4465 48.1599 35.6171 48.0106C36.9117 46.8784 38.157 45.8171 39.2564 44.8802C45.726 39.3669 50 35.7247 50 30.4012C50 25.4737 46.5741 21.7578 42.0312 21.7578Z" fill="#D83C56"/>
</svg>
