<svg width="7" height="13" viewBox="0 0 7 13" fill="none" xmlns="http://www.w3.org/2000/svg">
<path d="M5.92281 11.0743L5.7598 11.7406C5.27077 11.9337 4.88012 12.0806 4.58923 12.1816C4.29803 12.2829 3.95967 12.3333 3.57415 12.3333C2.98212 12.3333 2.52163 12.1883 2.1932 11.9002C1.86478 11.611 1.70051 11.2445 1.70051 10.7999C1.70051 10.6278 1.71243 10.4508 1.73721 10.2704C1.7622 10.0898 1.80194 9.88645 1.85631 9.65913L2.46747 7.49596C2.52184 7.28882 2.56806 7.09256 2.60507 6.90697C2.64261 6.72252 2.6607 6.55282 2.6607 6.40005C2.6607 6.1238 2.6035 5.93057 2.48964 5.82193C2.37577 5.7136 2.15849 5.6586 1.83592 5.6586C1.67793 5.6586 1.51554 5.68391 1.35002 5.73284C1.18377 5.78199 1.04167 5.82946 0.922363 5.87358L1.08579 5.20669C1.48616 5.04368 1.86885 4.90409 2.23492 4.78823C2.60099 4.67207 2.94688 4.61393 3.27406 4.61393C3.86201 4.61393 4.3157 4.75603 4.6343 5.04023C4.9529 5.32463 5.11215 5.69332 5.11215 6.14764C5.11215 6.24164 5.10169 6.40727 5.07921 6.64399C5.05725 6.88124 5.01637 7.09863 4.95677 7.29635L4.34822 9.45084C4.29834 9.62389 4.25349 9.82172 4.21448 10.0443C4.17423 10.2655 4.15499 10.4345 4.15499 10.5478C4.15499 10.8339 4.21877 11.0292 4.34665 11.133C4.47547 11.2369 4.69735 11.2885 5.0125 11.2885C5.16045 11.2885 5.3288 11.2623 5.51586 11.2107C5.7024 11.1592 5.83843 11.1139 5.92281 11.0743ZM6.07714 2.02906C6.07714 2.40444 5.93567 2.72503 5.65137 2.98862C5.3678 3.25317 5.02609 3.38554 4.62635 3.38554C4.22536 3.38554 3.88282 3.25317 3.596 2.98862C3.30971 2.72492 3.16625 2.40444 3.16625 2.02906C3.16625 1.65442 3.30971 1.33331 3.596 1.06636C3.88229 0.799837 4.22546 0.666626 4.62635 0.666626C5.02599 0.666626 5.3678 0.800151 5.65137 1.06636C5.93588 1.33331 6.07714 1.65452 6.07714 2.02906Z" fill="white"/>
</svg>
