<svg width="15" height="15" viewBox="0 0 15 15" fill="none" xmlns="http://www.w3.org/2000/svg">
<path d="M13.9803 11.1775C13.5899 10.7871 12.359 9.87823 11.1369 9.17456C11.1237 9.19441 11.1105 9.21426 11.0972 9.23632C12.4759 7.015 12.2045 4.05691 10.2744 2.12676C8.0244 -0.12103 4.37808 -0.12103 2.12808 2.12676C-0.121921 4.37897 -0.119715 8.02309 2.12808 10.2731C4.04058 12.1834 6.95896 12.4724 9.17367 11.1356C9.81117 12.243 10.7398 13.5422 11.1788 13.9812C11.9509 14.7533 13.2082 14.751 13.9803 13.979C14.7524 13.2047 14.7524 11.9518 13.9803 11.1775V11.1775ZM8.75678 8.75544C7.34501 10.165 5.05972 10.165 3.64795 8.75323C2.2384 7.34368 2.23619 5.05838 3.64795 3.64662C5.05751 2.23706 7.34501 2.23706 8.75457 3.64662C10.1663 5.05838 10.1663 7.34588 8.75678 8.75544V8.75544Z" fill="#DE7063"/>
</svg>
