<svg width="140" height="140" viewBox="0 0 140 140" fill="none" xmlns="http://www.w3.org/2000/svg">
<g clip-path="url(#clip0_1341_11581)">
<path d="M90.1882 3.85164C117.347 3.40858 139.889 22.5147 139.999 46.0943C140.046 56.0552 136.137 65.2213 129.56 72.4791C124.309 78.2721 127.436 86.8607 135.568 88.9823C135.642 89.0018 135.717 89.0211 135.792 89.0403C137.329 89.4312 137.499 91.2792 136.054 91.8798C132.599 93.3171 128.729 94.1239 124.641 94.1239C117.599 94.1239 111.202 91.7346 106.459 87.8423C105.737 87.2505 104.708 87.044 103.748 87.2661C99.2363 88.3109 94.4681 88.8113 89.5415 88.6757C63.2585 87.9518 42.2207 69.0491 42.25 46.2222C42.2794 23.0846 63.6459 4.28454 90.1882 3.85164Z" fill="url(#paint0_linear_1341_11581)"/>
<path d="M53.1402 46.0383C49.4478 49.9918 46.5599 54.5338 44.6875 59.4761C50.9471 75.9533 68.5748 88.0984 89.5405 88.676C94.4671 88.8116 99.2353 88.3114 103.747 87.2664C104.707 87.0443 105.736 87.2505 106.458 87.8426C111.201 91.7346 117.597 94.1242 124.64 94.1242C124.654 94.1242 124.668 94.1236 124.682 94.1236L84.0733 58.8725C76.1073 51.6949 65.2565 46.9483 53.1402 46.0383Z" fill="url(#paint1_linear_1341_11581)"/>
<path d="M49.811 45.8835C22.6524 45.4404 0.110766 64.5466 0.000413229 88.1262C-0.0462534 98.087 3.86222 107.253 10.44 114.511C15.6903 120.304 12.5636 128.893 4.43183 131.014C4.35716 131.034 4.28222 131.053 4.20728 131.072C2.6703 131.463 2.50092 133.311 3.94512 133.912C7.40092 135.349 11.2704 136.156 15.3587 136.156C22.401 136.156 28.7973 133.766 33.5408 129.874C34.2623 129.282 35.2919 129.076 36.2511 129.298C40.7632 130.343 45.5314 130.843 50.4581 130.708C76.741 129.984 97.7789 111.081 97.7495 88.2541C97.7199 65.1162 76.3534 46.3164 49.811 45.8835Z" fill="url(#paint2_radial_1341_11581)"/>
<path d="M49.1143 126.075C73.4866 126.075 93.2442 108.924 93.2442 87.7676C93.2442 66.6108 73.4866 49.4598 49.1143 49.4598C24.742 49.4598 4.98438 66.6108 4.98438 87.7676C4.98438 108.924 24.742 126.075 49.1143 126.075Z" fill="url(#paint3_linear_1341_11581)"/>
<path d="M97.4867 92.6948L75.375 70.5831C72.3337 67.3686 68.3143 65.4972 63.8993 65.282C63.6097 65.268 63.3163 65.2609 63.0275 65.2609C58.413 65.2609 54.0568 67.0391 50.7616 70.2679C50.2013 70.8169 49.6839 71.3986 49.2079 72.0067C49.1145 71.9111 49.0223 71.8151 48.9268 71.7215C48.8592 71.6553 48.7887 71.5938 48.7206 71.5287C48.551 71.3478 48.3783 71.1694 48.2004 70.9948C48.1329 70.9287 48.0623 70.8669 47.994 70.8021C47.8243 70.6215 47.6519 70.4428 47.4738 70.2682C44.1783 67.0391 39.8224 65.2609 35.2081 65.2609C34.9193 65.2609 34.6259 65.268 34.3363 65.282C29.4113 65.5222 24.9747 67.8176 21.8436 71.7462C18.463 75.9882 17.0798 81.5399 18.0485 86.9787C19.1177 92.98 22.4871 98.7804 28.0758 104.263L54.2838 130.471C77.064 128.283 95.124 112.394 97.4867 92.6948Z" fill="url(#paint4_linear_1341_11581)"/>
<path d="M49.1139 117.42C47.9752 117.42 46.8347 117.151 45.8154 116.641C42.7354 115.099 36.7209 111.794 31.0473 106.976C23.6666 100.707 19.292 93.9795 18.0446 86.9784C17.0759 81.5398 18.4591 75.9879 21.8397 71.7462C24.9708 67.8176 29.4071 65.5222 34.3324 65.282C34.622 65.268 34.9154 65.2606 35.2042 65.2606C39.8185 65.2606 44.1747 67.0389 47.4699 70.2679C48.065 70.8513 48.6138 71.47 49.1136 72.1198C49.6138 71.4703 50.1625 70.851 50.7577 70.2679C54.0529 67.0389 58.4091 65.2606 63.0236 65.2606C63.3124 65.2606 63.6058 65.2677 63.8954 65.282C68.8204 65.5219 73.2573 67.8176 76.3881 71.7464C79.7687 75.9882 81.152 81.5401 80.1829 86.9787C78.9358 93.9795 74.561 100.708 67.1802 106.976C61.5069 111.794 55.4924 115.099 52.4121 116.641C51.3934 117.151 50.2529 117.42 49.1139 117.42Z" fill="url(#paint5_linear_1341_11581)"/>
<path d="M76.387 71.7464C75.2135 70.274 73.8563 69.0307 72.3589 68.0392C75.0927 72.0989 76.1526 77.1309 75.2728 82.0696C74.0257 89.0705 69.6508 95.7987 62.2701 102.067C56.5968 106.885 50.5823 110.19 47.502 111.732C46.4828 112.242 45.3422 112.511 44.2035 112.511C43.0648 112.511 41.9242 112.242 40.905 111.732C37.825 110.19 31.8105 106.885 26.1369 102.067C25.894 101.86 25.6546 101.653 25.418 101.446C27.0428 103.324 28.9188 105.169 31.046 106.976C36.7195 111.794 42.734 115.099 45.814 116.641C46.8333 117.151 47.9739 117.42 49.1126 117.42C50.2512 117.42 51.3918 117.151 52.4111 116.641C55.4913 115.099 61.5059 111.794 67.1791 106.976C74.5599 100.708 78.9345 93.9798 80.1816 86.9787C81.1509 81.5401 79.7679 75.9882 76.387 71.7464Z" fill="url(#paint6_linear_1341_11581)"/>
<path d="M63.8951 65.282C63.6055 65.268 63.312 65.2606 63.0232 65.2606C58.4087 65.2606 54.0525 67.0389 50.7573 70.2679C50.1622 70.8513 49.6134 71.4703 49.1133 72.1198V117.42C50.2519 117.42 51.3925 117.151 52.4118 116.641C55.4921 115.099 61.5066 111.794 67.1799 106.976C74.5606 100.708 78.9352 93.9798 80.1826 86.9787C81.1516 81.5401 79.7686 75.9882 76.3878 71.7464C73.257 67.8176 68.8201 65.5219 63.8951 65.282Z" fill="url(#paint7_linear_1341_11581)"/>
</g>
<defs>
<linearGradient id="paint0_linear_1341_11581" x1="62.2083" y1="17.363" x2="127.11" y2="82.2648" gradientUnits="userSpaceOnUse">
<stop stop-color="#FF819C"/>
<stop offset="0.2594" stop-color="#FF7E9A"/>
<stop offset="0.4757" stop-color="#FE7396"/>
<stop offset="0.6765" stop-color="#FC628E"/>
<stop offset="0.8668" stop-color="#FA4A83"/>
<stop offset="1" stop-color="#F83479"/>
</linearGradient>
<linearGradient id="paint1_linear_1341_11581" x1="115.285" y1="97.7796" x2="51.324" y2="54.6815" gradientUnits="userSpaceOnUse">
<stop stop-color="#F82814" stop-opacity="0"/>
<stop offset="1" stop-color="#C0272D"/>
</linearGradient>
<radialGradient id="paint2_radial_1341_11581" cx="0" cy="0" r="1" gradientUnits="userSpaceOnUse" gradientTransform="translate(31.9476 78.418) scale(61.4054 53.2999)">
<stop stop-color="#F8F6FB"/>
<stop offset="0.3915" stop-color="#F6F0FB"/>
<stop offset="0.8982" stop-color="#F0E0FB"/>
<stop offset="1" stop-color="#EFDCFB"/>
</radialGradient>
<linearGradient id="paint3_linear_1341_11581" x1="48.1436" y1="85.4922" x2="22.7902" y2="26.0565" gradientUnits="userSpaceOnUse">
<stop stop-color="white" stop-opacity="0"/>
<stop offset="1" stop-color="white"/>
</linearGradient>
<linearGradient id="paint4_linear_1341_11581" x1="85.2666" y1="120.961" x2="47.2144" y2="82.9088" gradientUnits="userSpaceOnUse">
<stop stop-color="#EFDCFB" stop-opacity="0"/>
<stop offset="0.4856" stop-color="#BAAAD6" stop-opacity="0.486"/>
<stop offset="1" stop-color="#8679B2"/>
</linearGradient>
<linearGradient id="paint5_linear_1341_11581" x1="43.9386" y1="77.9243" x2="65.8705" y2="105.309" gradientUnits="userSpaceOnUse">
<stop stop-color="#FF7044"/>
<stop offset="1" stop-color="#F82814"/>
</linearGradient>
<linearGradient id="paint6_linear_1341_11581" x1="56.5331" y1="98.025" x2="65.6147" y2="117.435" gradientUnits="userSpaceOnUse">
<stop stop-color="#F82814" stop-opacity="0"/>
<stop offset="1" stop-color="#C0272D"/>
</linearGradient>
<linearGradient id="paint7_linear_1341_11581" x1="54.3012" y1="85.8993" x2="25.4332" y2="56.4653" gradientUnits="userSpaceOnUse">
<stop stop-color="#F82814" stop-opacity="0"/>
<stop offset="1" stop-color="#C0272D"/>
</linearGradient>
<clipPath id="clip0_1341_11581">
<rect width="140" height="140" fill="white"/>
</clipPath>
</defs>
</svg>
