<svg width="55" height="55" viewBox="0 0 55 55" fill="none" xmlns="http://www.w3.org/2000/svg">
<circle cx="27.5" cy="27.5" r="27.5" fill="#F5F6F8"/>
<g clip-path="url(#clip0_102_4897)">
<path d="M39.0804 34.2345L32.0956 27.2486L38.5772 20.7671C39.8035 19.5424 39.8035 17.556 38.5772 16.3303C37.352 15.1051 35.3656 15.1056 34.1415 16.3303L27.6589 22.8119L20.8593 16.0118C19.6336 14.7866 17.6472 14.7866 16.4225 16.0118C15.1979 17.2375 15.1979 19.2228 16.4225 20.4486L23.2226 27.2486L15.9193 34.5514C14.6936 35.7777 14.6936 37.763 15.9193 38.9887C17.1445 40.2134 19.1303 40.2134 20.355 38.9887L27.6589 31.6854L34.6447 38.6713C35.8699 39.8965 37.8558 39.8965 39.0804 38.6713C40.3067 37.4451 40.3062 35.4586 39.0804 34.2345Z" fill="#D83C56"/>
</g>
<defs>
<clipPath id="clip0_102_4897">
<rect width="25" height="25" fill="white" transform="translate(15 15)"/>
</clipPath>
</defs>
</svg>
