<svg width="70" height="70" viewBox="0 0 70 70" fill="none" xmlns="http://www.w3.org/2000/svg">
<circle cx="35" cy="35" r="35" fill="#F5F6F8"/>
<path d="M46.25 21.875H23.75C22.1994 21.875 20.9375 23.1369 20.9375 24.6875V39.6875C20.9375 41.2381 22.1994 42.5 23.75 42.5H26.5625V47.1875C26.5625 47.5484 26.7697 47.8756 27.0931 48.0322C27.2234 48.0941 27.3622 48.125 27.5 48.125C27.7091 48.125 27.9163 48.0556 28.0859 47.9197L34.8603 42.5H46.25C47.8006 42.5 49.0625 41.2381 49.0625 39.6875V24.6875C49.0625 23.1369 47.8006 21.875 46.25 21.875ZM35 35H27.5C26.9816 35 26.5625 34.58 26.5625 34.0625C26.5625 33.545 26.9816 33.125 27.5 33.125H35C35.5184 33.125 35.9375 33.545 35.9375 34.0625C35.9375 34.58 35.5184 35 35 35ZM42.5 31.25H27.5C26.9816 31.25 26.5625 30.83 26.5625 30.3125C26.5625 29.795 26.9816 29.375 27.5 29.375H42.5C43.0184 29.375 43.4375 29.795 43.4375 30.3125C43.4375 30.83 43.0184 31.25 42.5 31.25Z" fill="#D83C56"/>
</svg>
