<svg width="18" height="18" viewBox="0 0 18 18" fill="none" xmlns="http://www.w3.org/2000/svg">
<path fill-rule="evenodd" clip-rule="evenodd" d="M8.71973 1.1261C6.54679 1.1261 4.78223 2.89066 4.78223 5.0636C4.78223 7.2371 6.54679 9.0011 8.71973 9.0011C10.8927 9.0011 12.6572 7.2371 12.6572 5.0636C12.6572 2.89066 10.8927 1.1261 8.71973 1.1261ZM8.71973 2.2511C10.2722 2.2511 11.5322 3.51166 11.5322 5.0636C11.5322 6.6161 10.2722 7.8761 8.71973 7.8761C7.16723 7.8761 5.90723 6.6161 5.90723 5.0636C5.90723 3.51166 7.16723 2.2511 8.71973 2.2511Z" fill="#FE7A7A"/>
<path fill-rule="evenodd" clip-rule="evenodd" d="M1.96973 15.7511H9.00041C9.31091 15.7511 9.56291 16.0031 9.56291 16.3136C9.56291 16.6241 9.31091 16.8761 9.00041 16.8761H1.40723C1.09673 16.8761 0.844727 16.6241 0.844727 16.3136C0.844727 16.3136 0.844727 15.8501 0.844727 15.1886C0.844727 12.393 3.11104 10.1261 5.90723 10.1261H9.00041C9.31091 10.1261 9.56291 10.3781 9.56291 10.6886C9.56291 10.9991 9.31091 11.2511 9.00041 11.2511H5.90723C3.7326 11.2511 1.96973 13.014 1.96973 15.1886V15.7511Z" fill="#FE7A7A"/>
<path fill-rule="evenodd" clip-rule="evenodd" d="M13.5014 10.1261C11.4837 10.1261 9.8457 11.7641 9.8457 13.7818C9.8457 15.7995 11.4837 17.4375 13.5014 17.4375C15.5191 17.4375 17.1571 15.7995 17.1571 13.7818C17.1571 11.7641 15.5191 10.1261 13.5014 10.1261ZM13.5014 11.2511C14.8981 11.2511 16.0321 12.3851 16.0321 13.7818C16.0321 15.1785 14.8981 16.3125 13.5014 16.3125C12.1047 16.3125 10.9707 15.1785 10.9707 13.7818C10.9707 12.3851 12.1047 11.2511 13.5014 11.2511Z" fill="#FE7A7A"/>
<path fill-rule="evenodd" clip-rule="evenodd" d="M15.287 11.1943L10.9136 15.5678C10.6942 15.7871 10.6942 16.1438 10.9136 16.3631C11.1329 16.5831 11.4896 16.5831 11.7089 16.3631L16.0824 11.9897C16.3023 11.7703 16.3023 11.4137 16.0824 11.1943C15.863 10.9749 15.5064 10.9749 15.287 11.1943Z" fill="#FE7A7A"/>
</svg>
