<svg width="70" height="70" viewBox="0 0 70 70" fill="none" xmlns="http://www.w3.org/2000/svg">
<circle cx="35" cy="35" r="35" fill="#F5F6F8"/>
<path fill-rule="evenodd" clip-rule="evenodd" d="M36.3203 23.3213L38.8521 30.3529C38.93 30.5692 39.1219 30.7086 39.3517 30.7158L46.8215 30.9508C47.4241 30.9697 47.9258 31.3464 48.1121 31.9198C48.2984 32.4931 48.1139 33.0927 47.6376 33.4623L41.7324 38.0431C41.5507 38.184 41.4774 38.4095 41.5416 38.6303L43.6265 45.8071C43.7947 46.386 43.5914 46.9796 43.1037 47.3339C42.616 47.6882 41.9887 47.6981 41.4901 47.3593L35.3088 43.1586C35.1186 43.0294 34.8814 43.0294 34.6912 43.1586L28.5098 47.3593C28.0112 47.6981 27.3839 47.6883 26.8962 47.3339C26.4085 46.9795 26.2053 46.386 26.3734 45.8071L28.4583 38.6302C28.5225 38.4094 28.4492 38.1839 28.2675 38.0429L22.3624 33.4623C21.886 33.0927 21.7016 32.4932 21.8879 31.9198C22.0742 31.3464 22.5759 30.9697 23.1784 30.9508L30.6483 30.7158C30.8781 30.7086 31.07 30.5692 31.1479 30.3529L33.6797 23.3213C33.8839 22.754 34.3971 22.3933 35 22.3933C35.6028 22.3933 36.1161 22.754 36.3203 23.3213Z" fill="#E89570"/>
</svg>
