<svg width="13" height="11" viewBox="0 0 13 11" fill="none" xmlns="http://www.w3.org/2000/svg">
<path d="M6.5 10.9054C6.43677 10.9054 6.37356 10.8891 6.31692 10.8564C6.2554 10.8209 4.79371 9.97222 3.31104 8.69346C2.43229 7.93558 1.73082 7.18387 1.22618 6.45926C0.573158 5.52162 0.244765 4.61972 0.250063 3.77858C0.256264 2.79982 0.606825 1.87937 1.23724 1.18674C1.87831 0.482446 2.73382 0.0946045 3.64625 0.0946045C4.81561 0.0946045 5.88472 0.749632 6.50003 1.78728C7.11533 0.749657 8.18445 0.0946045 9.3538 0.0946045C10.2158 0.0946045 11.0382 0.444555 11.6697 1.08C12.3627 1.77734 12.7564 2.76264 12.7499 3.78322C12.7446 4.62289 12.4101 5.52343 11.7556 6.45978C11.2494 7.18402 10.5489 7.93538 9.6736 8.69305C8.19636 9.97168 6.74517 10.8203 6.68411 10.8558C6.6272 10.8889 6.56358 10.9054 6.5 10.9054V10.9054Z" fill="white"/>
</svg>
