<svg width="45" height="45" viewBox="0 0 45 45" fill="none" xmlns="http://www.w3.org/2000/svg">
<rect width="45" height="45" rx="10" fill="#73CD9D"/>
<g clip-path="url(#clip0_1402_11423)">
<path d="M20.293 26.6766V30.5416C20.293 30.8116 20.4663 31.0508 20.723 31.1358C20.7871 31.1566 20.853 31.1666 20.918 31.1666C21.113 31.1666 21.3013 31.075 21.4213 30.9116L23.6821 27.835L20.293 26.6766Z" fill="white"/>
<path d="M32.7375 12.1158C32.5459 11.98 32.2942 11.9617 32.0859 12.0708L13.3359 21.8625C13.1142 21.9783 12.9834 22.215 13.0017 22.4642C13.0209 22.7142 13.1867 22.9275 13.4225 23.0083L18.635 24.79L29.7359 15.2983L21.1459 25.6475L29.8817 28.6333C29.9467 28.655 30.015 28.6667 30.0834 28.6667C30.1967 28.6667 30.3092 28.6358 30.4084 28.5758C30.5667 28.4792 30.6742 28.3167 30.7017 28.1342L32.9934 12.7175C33.0275 12.4842 32.9292 12.2525 32.7375 12.1158Z" fill="white"/>
</g>
<defs>
<clipPath id="clip0_1402_11423">
<rect width="20" height="20" fill="white" transform="translate(13 12)"/>
</clipPath>
</defs>
</svg>
