<svg width="48" height="49" viewBox="0 0 48 49" fill="none" xmlns="http://www.w3.org/2000/svg">
<path d="M47.7363 24.8682C47.7363 11.703 37.0333 1 23.8682 1C10.703 1 0 11.703 0 24.8682C0 38.0333 10.703 48.7363 23.8682 48.7363C37.0333 48.7363 47.7363 38.0333 47.7363 24.8682ZM34.0687 24.5667H28.7925V36.7771C28.7925 37.4304 28.2398 37.9831 27.5866 37.9831H20.1498C19.4965 37.9831 18.9438 37.4304 18.9438 36.7771V24.5667H13.6677C12.6124 24.5667 12.11 23.3607 12.7632 22.5567L22.9637 11.3512C23.4159 10.8488 24.2702 10.8488 24.7224 11.3512L34.9229 22.5567C35.6264 23.3607 35.1239 24.5667 34.0687 24.5667Z" fill="#3B7FE7"/>
</svg>
