<svg width="40" height="40" viewBox="0 0 40 40" fill="none" xmlns="http://www.w3.org/2000/svg">
<g clip-path="url(#clip0_158_3181)">
<path d="M24.7074 9.75507H15.2887C13.523 9.7572 12.092 11.1882 12.0898 12.954V24.5744C12.0898 25.1968 12.5943 25.7012 13.2166 25.7012C13.8389 25.7012 14.3433 25.1967 14.3433 24.5744V15.0576C14.3433 14.712 14.6236 14.4317 14.9692 14.4317C15.3149 14.4317 15.5951 14.712 15.5951 15.0576V37.8304C15.6311 38.8727 16.5054 39.6885 17.5477 39.6525C18.5395 39.6182 19.3356 38.8222 19.3699 37.8304V24.8246C19.3699 24.4789 19.6501 24.1987 19.9958 24.1987C20.3414 24.1987 20.6216 24.4789 20.6216 24.8246V37.8304C20.6577 38.8728 21.5319 39.6885 22.5742 39.6526C23.566 39.6183 24.3621 38.8222 24.3964 37.8304V15.0576C24.3964 14.712 24.6766 14.4317 25.0223 14.4317C25.3679 14.4317 25.6482 14.712 25.6482 15.0576V24.5744C25.6482 25.1967 26.1527 25.7011 26.7749 25.7011C27.3972 25.7011 27.9017 25.1966 27.9017 24.5744V12.9545C27.9 11.1902 26.4717 9.75974 24.7074 9.75507Z" fill="#CBD5EA"/>
<path d="M22.5128 40C21.3151 39.9987 20.3444 39.0281 20.3431 37.8304V24.8246C20.3431 24.6343 20.1889 24.4801 19.9986 24.4801C19.8083 24.4801 19.6541 24.6343 19.6541 24.8246V37.8304C19.6267 39.0284 18.6335 39.9773 17.4356 39.95C16.276 39.9236 15.3423 38.9899 15.316 37.8304V15.0576C15.316 14.8675 15.1619 14.7134 14.9718 14.7134C14.7816 14.7134 14.6275 14.8675 14.6275 15.0576V24.5744C14.6275 25.3522 13.997 25.9829 13.219 25.9829C12.4411 25.9829 11.8105 25.3523 11.8105 24.5744V12.9545C11.8127 11.0331 13.3698 9.47609 15.2912 9.47388H24.7082C26.6296 9.47601 28.1867 11.0331 28.1889 12.9545V24.5744C28.1889 25.3523 27.5583 25.9829 26.7804 25.9829C26.0024 25.9829 25.3719 25.3524 25.3719 24.5744V15.0576C25.3719 14.8675 25.2178 14.7134 25.0277 14.7134C24.8375 14.7134 24.6834 14.8675 24.6834 15.0576V37.8304C24.682 39.0285 23.7109 39.999 22.5128 40ZM19.9989 23.917C20.4999 23.9176 20.9059 24.3236 20.9066 24.8246V37.8304C20.9301 38.7173 21.6679 39.417 22.5547 39.3936C23.4085 39.3709 24.0952 38.6842 24.1179 37.8304V15.0576C24.1179 14.5564 24.5243 14.15 25.0255 14.15C25.5268 14.15 25.9332 14.5564 25.9332 15.0576V24.5744C25.9332 25.0411 26.3115 25.4194 26.7782 25.4194C27.245 25.4194 27.6233 25.0411 27.6233 24.5744V12.9545C27.6214 11.3442 26.3164 10.0392 24.7061 10.0373H15.2896C13.6793 10.0392 12.3743 11.3442 12.3724 12.9545V24.5744C12.3724 25.0412 12.7507 25.4195 13.2175 25.4195C13.6842 25.4195 14.0625 25.0412 14.0625 24.5744V15.0576C14.0625 14.5564 14.4689 14.15 14.9702 14.15C15.4714 14.15 15.8778 14.5564 15.8778 15.0576V37.8304C15.9013 38.7172 16.6392 39.4169 17.526 39.3935C18.3797 39.3709 19.0665 38.6841 19.0891 37.8304V24.8246C19.0897 24.3227 19.497 23.9163 19.9989 23.917Z" fill="#CBD5EA"/>
<path d="M19.9986 7.62201C22.0257 7.62201 23.669 5.97869 23.669 3.95155C23.669 1.92442 22.0257 0.281097 19.9986 0.281097C17.9714 0.281097 16.3281 1.92442 16.3281 3.95155C16.3281 5.97869 17.9714 7.62201 19.9986 7.62201Z" fill="#CBD5EA"/>
<path d="M19.9991 7.90431C17.8164 7.90431 16.0469 6.13489 16.0469 3.95211C16.0469 1.76941 17.8163 -9.15527e-05 19.9991 -9.15527e-05C22.1816 -9.15527e-05 23.951 1.76902 23.9513 3.95148C23.9491 6.13354 22.1811 7.90186 19.9991 7.90431ZM19.9991 0.562846C18.1275 0.562846 16.6103 2.08006 16.6103 3.95164C16.6103 5.82321 18.1275 7.34043 19.9991 7.34043C21.8707 7.34043 23.3879 5.82321 23.3879 3.95164C23.3857 2.08093 21.8698 0.564984 19.9991 0.562846Z" fill="#CBD5EA"/>
</g>
<defs>
<clipPath id="clip0_158_3181">
<rect width="40" height="40" fill="white"/>
</clipPath>
</defs>
</svg>
