<svg width="15" height="15" viewBox="0 0 15 15" fill="none" xmlns="http://www.w3.org/2000/svg">
<g clip-path="url(#clip0_866_10964)">
<path d="M7.38583 5.12448L9.53307 7.27172L9.5433 7.15925C9.5433 6.03108 8.62647 5.11426 7.49831 5.11426L7.38583 5.12448Z" fill="#CBD5EA"/>
<path d="M7.49831 3.75078C9.3797 3.75078 10.9066 5.27771 10.9066 7.15911C10.9066 7.59878 10.818 8.018 10.6647 8.40313L12.6585 10.397C13.6878 9.5381 14.499 8.427 15 7.15911C13.8174 4.16661 10.9101 2.04663 7.49834 2.04663C6.544 2.04663 5.63059 2.21704 4.78192 2.52378L6.25431 3.99276C6.63941 3.8428 7.05863 3.75078 7.49831 3.75078Z" fill="#CBD5EA"/>
<path d="M0.681653 1.89329L2.23584 3.44748L2.54601 3.75765C1.42127 4.637 0.531697 5.80606 0 7.15914C1.17929 10.1516 4.08998 12.2716 7.49831 12.2716C8.5549 12.2716 9.56375 12.0671 10.4874 11.6956L10.7771 11.9853L12.7642 13.9758L13.6333 13.1101L1.55077 1.02417L0.681653 1.89329ZM4.45127 5.65949L5.50444 6.71266C5.47377 6.85923 5.45332 7.00576 5.45332 7.15914C5.45332 8.2873 6.37014 9.20413 7.49831 9.20413C7.65168 9.20413 7.79825 9.18368 7.9414 9.153L8.99457 10.2062C8.54125 10.4311 8.03684 10.5675 7.49831 10.5675C5.61692 10.5675 4.08998 9.04053 4.08998 7.15914C4.08998 6.62064 4.22632 6.11619 4.45127 5.65949Z" fill="#CBD5EA"/>
</g>
<defs>
<clipPath id="clip0_866_10964">
<rect width="15" height="15" fill="white"/>
</clipPath>
</defs>
</svg>
