<svg width="40" height="40" viewBox="0 0 40 40" fill="none" xmlns="http://www.w3.org/2000/svg">
<path d="M20.0013 1.66666C16.3753 1.66666 12.8308 2.74189 9.81586 4.75638C6.80095 6.77087 4.45113 9.63415 3.06352 12.9841C1.67591 16.3341 1.31285 20.0203 2.02025 23.5766C2.72764 27.133 4.47372 30.3997 7.03769 32.9636C9.60165 35.5276 12.8683 37.2737 16.4247 37.9811C19.981 38.6884 23.6672 38.3254 27.0172 36.9378C30.3672 35.5502 33.2304 33.2003 35.2449 30.1854C37.2594 27.1705 38.3346 23.626 38.3346 20C38.3346 15.1377 36.4031 10.4745 32.9649 7.03637C29.5268 3.5982 24.8636 1.66666 20.0013 1.66666ZM12.5488 5.10832L13.543 5.79832C13.7629 5.95152 13.941 6.15718 14.0613 6.39666L14.3113 6.89666C14.4439 7.16239 14.648 7.38589 14.9006 7.54208C15.1532 7.69826 15.4443 7.78094 15.7413 7.78082H17.5188C17.9429 7.78082 18.3497 7.94931 18.6496 8.24921C18.9495 8.54911 19.118 8.95586 19.118 9.37999V9.41166C19.1182 9.70866 19.0355 9.99984 18.8794 10.2525C18.7232 10.5051 18.4996 10.7091 18.2338 10.8417L13.9696 12.975C13.91 13.0041 13.8523 13.0372 13.7971 13.0742L11.6146 14.5292C11.383 14.6839 11.1955 14.8961 11.0705 15.145L10.7463 15.7967C10.6343 16.0182 10.5759 16.263 10.5759 16.5112C10.5759 16.7595 10.6343 17.0043 10.7463 17.2258C10.8962 17.5263 10.9478 17.8663 10.8938 18.1977C10.8398 18.5291 10.683 18.8351 10.4455 19.0725L10.398 19.1208C10.1458 19.373 9.81658 19.5336 9.46263 19.5771C9.10867 19.6206 8.75034 19.5445 8.44464 19.3608L5.65548 17.6858C5.3283 17.4892 5.08213 17.1821 4.96131 16.82L4.27548 14.7617C4.24381 14.7617 4.22131 14.7517 4.19214 14.7508C5.59086 10.5568 8.59624 7.08902 12.5488 5.10832ZM21.7355 25.9358C21.7356 26.0517 21.717 26.1667 21.6805 26.2767L20.943 28.4883C20.8903 28.6472 20.8013 28.7916 20.683 28.91L19.3496 30.2433C19.1988 30.3939 19.0961 30.5859 19.0546 30.795L18.3488 34.3217C18.3162 34.4822 18.2473 34.6332 18.1476 34.7632C18.0478 34.8932 17.9197 34.9987 17.773 35.0717L17.1946 35.3617C16.9919 35.4623 16.7626 35.4969 16.5392 35.4606C16.3157 35.4243 16.1093 35.3189 15.9488 35.1592L14.8771 34.0875C14.7953 34.0051 14.7269 33.9104 14.6746 33.8067L13.9938 32.445C13.9195 32.295 13.8807 32.1299 13.8805 31.9625V28.5242C13.8801 28.3237 13.8241 28.1273 13.7188 27.9568C13.6135 27.7863 13.4629 27.6484 13.2838 27.5583L12.3905 27.1125C12.2219 27.0288 12.0782 26.9024 11.9738 26.7458L10.568 24.6367C10.4496 24.4596 10.3864 24.2513 10.3863 24.0383V23.2883C10.3868 23.088 10.4429 22.8918 10.5482 22.7215C10.6535 22.5511 10.804 22.4133 10.983 22.3233L11.8105 21.9067C12.0195 21.8026 12.1889 21.6332 12.293 21.4242L12.7096 20.5967C12.7994 20.4181 12.9369 20.2679 13.1067 20.1625C13.2766 20.0572 13.4723 20.001 13.6721 20H15.1771C15.3189 19.9999 15.4593 20.0277 15.5903 20.0819C15.7212 20.1361 15.8402 20.2156 15.9405 20.3158L16.1813 20.5567C16.3839 20.7589 16.6584 20.8728 16.9446 20.8733H17.168C17.4546 20.8744 17.7291 20.989 17.9313 21.1921C18.1336 21.3951 18.2471 21.6701 18.2471 21.9567C18.2476 22.1569 18.3035 22.353 18.4087 22.5234C18.5139 22.6937 18.6642 22.8316 18.843 22.9217L21.143 24.0708C21.3219 24.161 21.4723 24.299 21.5775 24.4695C21.6827 24.64 21.7385 24.8363 21.7388 25.0367L21.7355 25.9358ZM26.1271 10.095C26.2015 9.91497 26.3105 9.75131 26.448 9.61332L27.9405 8.12166C28.0529 8.00929 28.1826 7.91561 28.3246 7.84416L29.8913 7.06082C30.0282 6.99554 30.1744 6.95196 30.3246 6.93166C32.1242 8.35043 33.6128 10.1241 34.698 12.1425H33.9613C33.5685 12.1425 33.1918 11.9867 32.9138 11.7092L32.7338 11.5292C32.4559 11.2514 32.0792 11.0953 31.6863 11.095H30.5546C30.3232 11.0943 30.0949 11.148 29.888 11.2517L28.4196 11.9867C28.2126 12.09 27.9843 12.1433 27.753 12.1425H27.4888C27.2453 12.1423 27.0057 12.0822 26.791 11.9673C26.5763 11.8525 26.3932 11.6865 26.2579 11.4841C26.1227 11.2817 26.0394 11.049 26.0154 10.8067C25.9914 10.5645 26.0275 10.32 26.1205 10.095H26.1271ZM32.4096 31.0992L32.3013 30.8333C32.2422 30.6551 32.2121 30.4686 32.2121 30.2808V28.3567C32.212 28.0856 32.149 27.8183 32.028 27.5758L30.6496 24.8208C30.5286 24.5783 30.4656 24.311 30.4655 24.04V23.785C30.4654 23.4875 30.3894 23.1949 30.2445 22.9351C30.0996 22.6753 29.8908 22.4567 29.6377 22.3003C29.3847 22.1438 29.0959 22.0547 28.7987 22.0412C28.5015 22.0277 28.2058 22.0904 27.9396 22.2233L27.3421 22.5225C27.0999 22.6434 26.8329 22.7064 26.5621 22.7067H26.4863C26.1198 22.706 25.7628 22.5904 25.4655 22.376C25.1683 22.1615 24.9459 21.8592 24.8296 21.5117L24.4446 20.3558C24.3852 20.1777 24.3548 19.9911 24.3546 19.8033V18.4025C24.3546 18.1151 24.4255 17.8321 24.5612 17.5787C24.6968 17.3253 24.893 17.1093 25.1321 16.95L26.7221 15.89C26.8886 15.7789 27.073 15.6975 27.2671 15.6492L29.9721 14.9725C30.2947 14.892 30.6334 14.905 30.9488 15.01L32.8155 15.6325C32.9939 15.6919 33.1807 15.7223 33.3688 15.7225H36.093C36.8162 18.3889 36.858 21.1943 36.2144 23.8811C35.5708 26.5678 34.2625 29.0498 32.4096 31.0992Z" fill="#CBD5EA"/>
</svg>
