<svg width="40" height="40" viewBox="0 0 40 40" fill="none" xmlns="http://www.w3.org/2000/svg">
<path d="M20 17.6562C20.1186 17.6563 20.2358 17.6814 20.344 17.7299C20.4523 17.7784 20.5491 17.8491 20.6281 17.9375C20.7514 18.0752 20.9007 18.1872 21.0673 18.2672C21.2339 18.3472 21.4147 18.3936 21.5992 18.4038C21.7838 18.414 21.9685 18.3877 22.1429 18.3264C22.3173 18.2652 22.4779 18.1702 22.6156 18.0469C22.7533 17.9235 22.8654 17.7743 22.9454 17.6077C23.0254 17.4411 23.0718 17.2603 23.0819 17.0758C23.0921 16.8912 23.0658 16.7065 23.0046 16.5321C22.9433 16.3577 22.8483 16.197 22.725 16.0594C22.2307 15.5083 21.5809 15.1202 20.8614 14.9463C20.1418 14.7724 19.3865 14.8208 18.6951 15.0853C18.0037 15.3497 17.4088 15.8177 16.989 16.4274C16.5691 17.037 16.3442 17.7597 16.3438 18.5V21.5C16.3437 21.9801 16.4383 22.4556 16.6221 22.8992C16.8058 23.3428 17.0751 23.7458 17.4146 24.0853C17.7542 24.4249 18.1572 24.6942 18.6008 24.8779C19.0444 25.0617 19.5199 25.1562 20 25.1562C20.4801 25.1562 20.9556 25.0617 21.3992 24.8779C21.8428 24.6942 22.2458 24.4249 22.5854 24.0853C22.9249 23.7458 23.1942 23.3428 23.3779 22.8992C23.5617 22.4556 23.6562 21.9801 23.6562 21.5V20.4687C23.6562 19.9715 23.4587 19.4945 23.1071 19.1429C22.7554 18.7913 22.2785 18.5937 21.7812 18.5937H20.75C20.377 18.5937 20.0194 18.7419 19.7556 19.0056C19.4919 19.2693 19.3438 19.627 19.3438 20C19.3438 20.3729 19.4919 20.7306 19.7556 20.9944C20.0194 21.2581 20.377 21.4062 20.75 21.4062H20.8437C20.8552 21.5243 20.842 21.6435 20.805 21.7562C20.7679 21.8689 20.7077 21.9726 20.6284 22.0608C20.549 22.149 20.4521 22.2197 20.344 22.2684C20.2358 22.3171 20.1186 22.3428 20 22.3437C19.8892 22.3437 19.7795 22.3219 19.6771 22.2795C19.5747 22.2371 19.4817 22.175 19.4034 22.0966C19.325 22.0183 19.2629 21.9252 19.2205 21.8229C19.1781 21.7205 19.1562 21.6108 19.1562 21.5V18.5C19.1562 18.3892 19.1781 18.2795 19.2205 18.1771C19.2629 18.0747 19.325 17.9817 19.4034 17.9034C19.4817 17.825 19.5747 17.7629 19.6771 17.7205C19.7795 17.6781 19.8892 17.6562 20 17.6562V17.6562Z" fill="#CBD5EA"/>
<path d="M13.8125 25.1562C14.1853 25.1557 14.5426 25.0073 14.8062 24.7437C15.0698 24.4801 15.2182 24.1228 15.2188 23.75V18.5C15.2188 17.5303 14.8335 16.6003 14.1479 15.9146C13.4622 15.229 12.5322 14.8438 11.5625 14.8438C10.5928 14.8438 9.66282 15.229 8.97714 15.9146C8.29146 16.6003 7.90625 17.5303 7.90625 18.5V23.75C7.90625 24.123 8.05441 24.4806 8.31813 24.7444C8.58185 25.0081 8.93954 25.1562 9.3125 25.1562C9.68546 25.1562 10.0431 25.0081 10.3069 24.7444C10.5706 24.4806 10.7188 24.123 10.7188 23.75V22.1563H12.4063V23.75C12.4068 24.1228 12.5552 24.4801 12.8188 24.7437C13.0824 25.0073 13.4397 25.1557 13.8125 25.1562V25.1562ZM10.7188 19.3438V18.5C10.7188 18.2762 10.8076 18.0616 10.9659 17.9034C11.1241 17.7451 11.3387 17.6562 11.5625 17.6562C11.7863 17.6562 12.0009 17.7451 12.1591 17.9034C12.3174 18.0616 12.4063 18.2762 12.4063 18.5V19.3438H10.7188Z" fill="#CBD5EA"/>
<path d="M24.7812 17.75V22.25C24.7819 23.0206 25.0883 23.7594 25.6332 24.3043C26.1781 24.8492 26.9169 25.1556 27.6875 25.1562H30.6875C31.0605 25.1562 31.4181 25.0081 31.6819 24.7444C31.9456 24.4806 32.0937 24.123 32.0937 23.75C32.0937 23.377 31.9456 23.0194 31.6819 22.7556C31.4181 22.4919 31.0605 22.3438 30.6875 22.3438H27.6875C27.6628 22.3431 27.6394 22.333 27.6219 22.3156C27.6045 22.2981 27.5944 22.2747 27.5938 22.25V21.4062H30.6875C31.0605 21.4062 31.4181 21.2581 31.6819 20.9944C31.9456 20.7306 32.0937 20.373 32.0937 20C32.0937 19.627 31.9456 19.2694 31.6819 19.0056C31.4181 18.7419 31.0605 18.5938 30.6875 18.5938H27.5938V17.75C27.5944 17.7253 27.6045 17.7019 27.6219 17.6844C27.6394 17.667 27.6628 17.6569 27.6875 17.6562H30.6875C31.0605 17.6562 31.4181 17.5081 31.6819 17.2444C31.9456 16.9806 32.0937 16.623 32.0937 16.25C32.0937 15.877 31.9456 15.5194 31.6819 15.2556C31.4181 14.9919 31.0605 14.8438 30.6875 14.8438H27.6875C26.9169 14.8444 26.1781 15.1508 25.6332 15.6957C25.0883 16.2406 24.7819 16.9794 24.7812 17.75V17.75Z" fill="#CBD5EA"/>
<path d="M20.0241 40C30.421 40.0406 39.2648 31.7937 39.9491 21.425C40.1278 18.9515 39.8438 16.4663 39.1116 14.0969C39.0538 13.9156 38.96 13.7478 38.836 13.6035C38.7119 13.4592 38.56 13.3414 38.3893 13.2571C38.2187 13.1728 38.0329 13.1238 37.8429 13.1129C37.6529 13.102 37.4627 13.1295 37.2835 13.1937L35.7898 13.7375C35.4523 13.8616 35.175 14.11 35.0147 14.4318C34.8543 14.7536 34.8231 15.1246 34.9273 15.4687C35.3843 16.977 35.6097 18.5459 35.596 20.1219C35.5335 28.45 28.7085 35.2969 20.3866 35.5937C11.6023 35.9062 3.94915 28.1125 4.41477 19.3312C4.86165 10.9906 11.8616 4.28436 20.2179 4.40311C21.7982 4.42431 23.3661 4.68563 24.8679 5.17811C25.2125 5.29311 25.5883 5.26972 25.916 5.11288C26.2437 4.95603 26.4976 4.67801 26.6241 4.33749L27.1804 2.84999C27.246 2.6731 27.2756 2.48485 27.2672 2.29635C27.2589 2.10786 27.2129 1.92295 27.1319 1.75254C27.0509 1.58212 26.9366 1.42967 26.7957 1.30417C26.6549 1.17867 26.4903 1.08268 26.3116 1.02186C23.5624 0.10908 20.6477 -0.195539 17.7691 0.129076C14.8906 0.45369 12.1169 1.39979 9.64 2.90192C7.1631 4.40405 5.04209 6.42636 3.42372 8.82892C1.80535 11.2315 0.728249 13.957 0.266934 16.8168C-0.194382 19.6766 -0.0288985 22.6026 0.751935 25.3921C1.53277 28.1817 2.91031 30.7684 4.78926 32.9731C6.66821 35.1779 9.00372 36.9482 11.6342 38.1614C14.2647 39.3747 17.1273 40.002 20.0241 40V40Z" fill="#CBD5EA"/>
<path d="M29.6875 9.0625H30.9375V10.3125C30.9381 10.6853 31.0864 11.0426 31.35 11.3062C31.6136 11.5698 31.971 11.7182 32.3438 11.7188H33.2812C33.654 11.7182 34.0114 11.5698 34.275 11.3062C34.5386 11.0426 34.6869 10.6853 34.6875 10.3125V9.0625H35.9375C36.3103 9.06192 36.6676 8.91358 36.9312 8.64998C37.1948 8.38638 37.3432 8.02903 37.3438 7.65625V6.71875C37.3432 6.34597 37.1948 5.98862 36.9312 5.72502C36.6676 5.46142 36.3103 5.31308 35.9375 5.3125H34.6875V4.0625C34.6869 3.68972 34.5386 3.33237 34.275 3.06877C34.0114 2.80517 33.654 2.65683 33.2812 2.65625H32.3438C31.971 2.65683 31.6136 2.80517 31.35 3.06877C31.0864 3.33237 30.9381 3.68972 30.9375 4.0625V5.3125H29.6875C29.3147 5.31308 28.9574 5.46142 28.6938 5.72502C28.4302 5.98862 28.2818 6.34597 28.2812 6.71875V7.65625C28.2818 8.02903 28.4302 8.38638 28.6938 8.64998C28.9574 8.91358 29.3147 9.06192 29.6875 9.0625V9.0625Z" fill="#CBD5EA"/>
</svg>
