<svg width="140" height="140" viewBox="0 0 140 140" fill="none" xmlns="http://www.w3.org/2000/svg">
<g clip-path="url(#clip0_1685_12068)">
<path d="M16.207 87.3092C16.2608 87.3042 16.3144 87.3018 16.3657 87.3018C16.3119 87.3042 16.2584 87.3067 16.207 87.3116V87.3092Z" fill="url(#paint0_linear_1685_12068)"/>
<path d="M48.5215 68.6079H45.24C45.24 68.6079 11.7314 65.4966 11.9296 71.8021C12.0869 76.8116 11.769 81.8431 11.0037 86.8293C10.8393 87.9013 10.7539 88.9993 10.7539 90.1174V106.815V107.404L10.775 107.449C10.8758 109.376 11.4308 111.255 12.4062 112.927L14.4535 116.438C16.274 119.56 17.2332 123.109 17.2332 126.723V136.47C17.2332 138.419 18.8132 139.999 20.7625 139.999H59.9897C61.939 139.999 63.5191 138.419 63.5191 136.47V126.725C63.5191 123.137 64.6528 119.64 66.7586 116.735C68.8643 113.83 69.9981 110.334 69.9981 106.746V90.0844C69.9978 78.2232 60.3825 68.6079 48.5215 68.6079Z" fill="url(#paint1_linear_1685_12068)"/>
<path d="M69.9988 90.0836V106.745C69.9988 108.541 69.7152 110.311 69.1681 111.996C68.621 113.683 67.8104 115.284 66.7593 116.736C64.6541 119.64 63.5198 123.135 63.5198 126.724V136.468C63.5198 138.419 61.9386 140 59.991 140H20.7616C18.814 140 17.2328 138.419 17.2328 136.468V126.721C17.2328 123.118 16.2789 119.58 14.4688 116.464L17.2328 121.204H27.1404C30.6722 121.204 33.8686 119.772 36.183 117.458C38.4974 115.143 39.9295 111.947 39.9295 108.415C39.9295 105.024 38.5833 101.77 36.183 99.3697L30.7236 93.9133C29.4606 92.6473 29.6266 90.5506 31.0758 89.4995L41.2612 82.1209C43.5267 80.4796 44.7785 77.8874 44.7785 75.2266C44.7785 74.5005 44.6851 73.7689 44.4938 73.0495C44.3766 72.6083 45.3484 68.6071 45.3484 68.6071H48.5222C60.3833 68.6073 69.9988 78.2226 69.9988 90.0836Z" fill="url(#paint2_linear_1685_12068)"/>
<path d="M19.7624 57.7563C22.9393 57.7856 25.6696 59.8222 27.0175 62.7795C27.5937 64.042 27.9184 65.4755 27.9184 66.9894C27.9184 67.0773 27.9184 67.1629 27.9159 67.2507L27.7548 73.8414L26.7611 74.3641L17.235 79.38C14.8737 80.6229 13.0372 82.5791 11.9312 84.9061L11.3841 67.4267C11.218 62.1226 15.0373 57.7148 19.7624 57.7563Z" fill="url(#paint3_linear_1685_12068)"/>
<path d="M35.1131 54.6337C39.5259 54.685 43.03 58.1134 43.03 62.2379C43.03 62.421 43.0226 62.6041 43.008 62.7897L42.4903 69.7488C40.8737 68.452 38.5733 68.1467 36.6076 69.1822L27.7554 73.8414L26.7617 74.3641L27.0181 62.7795L27.05 62.0329C27.1523 57.8814 30.7446 54.5849 35.1131 54.6337Z" fill="url(#paint4_linear_1685_12068)"/>
<path d="M17.2329 121.204L12.4059 112.927C11.3241 111.072 10.7539 108.962 10.7539 106.814V90.1171C10.7539 85.6124 13.2495 81.4786 17.2356 79.3802L36.6072 69.183C39.3578 67.7352 42.7593 68.9088 44.0319 71.7447C45.6825 75.4229 44.5255 79.7547 41.2607 82.1201L31.0748 89.4998C29.6254 90.5498 29.4587 92.6473 30.7245 93.9128L36.1831 99.3714C38.5815 101.77 39.9291 105.023 39.9291 108.415C39.9291 115.478 34.2031 121.204 27.1397 121.204H17.2329Z" fill="url(#paint5_linear_1685_12068)"/>
<path d="M123.791 87.3092C123.738 87.3042 123.684 87.3018 123.633 87.3018C123.687 87.3042 123.74 87.3067 123.791 87.3116V87.3092Z" fill="url(#paint6_linear_1685_12068)"/>
<path d="M91.4763 68.6079H94.7578C94.7578 68.6079 128.266 65.4966 128.068 71.8021C127.911 76.8116 128.229 81.8431 128.994 86.8293C129.159 87.9013 129.244 88.9993 129.244 90.1174V106.815V107.404L129.223 107.449C129.122 109.376 128.567 111.255 127.592 112.927L125.544 116.438C123.724 119.56 122.765 123.109 122.765 126.723V136.47C122.765 138.419 121.185 139.999 119.235 139.999H80.0084C78.0591 139.999 76.479 138.419 76.479 136.47V126.725C76.479 123.137 75.3453 119.64 73.2395 116.735C71.1337 113.83 70 110.334 70 106.746V90.0844C70 78.2232 79.6153 68.6079 91.4763 68.6079Z" fill="url(#paint7_linear_1685_12068)"/>
<path d="M70 90.0836V106.745C70 108.541 70.2836 110.311 70.8307 111.996C71.3778 113.683 72.1884 115.284 73.2395 116.736C75.3447 119.64 76.479 123.135 76.479 126.724V136.468C76.479 138.419 78.0602 140 80.0078 140H119.237C121.185 140 122.766 138.419 122.766 136.468V126.721C122.766 123.118 123.72 119.58 125.53 116.464L122.766 121.204H112.858C109.327 121.204 106.13 119.772 103.816 117.458C101.501 115.143 100.069 111.947 100.069 108.415C100.069 105.024 101.415 101.77 103.816 99.3697L109.275 93.9133C110.538 92.6473 110.372 90.5506 108.923 89.4995L98.7376 82.1209C96.4721 80.4796 95.2203 77.8874 95.2203 75.2266C95.2203 74.5005 95.3137 73.7689 95.505 73.0495C95.6222 72.6083 94.6504 68.6071 94.6504 68.6071H91.4766C79.6155 68.6073 70 78.2226 70 90.0836Z" fill="url(#paint8_linear_1685_12068)"/>
<path d="M122.766 121.205H112.858C109.327 121.205 106.13 119.772 103.816 117.458C101.501 115.144 100.069 111.947 100.069 108.415C100.069 105.024 101.415 101.77 103.816 99.3701L109.275 93.9137C110.538 92.6476 110.372 90.5509 108.923 89.4998L98.7376 82.1213C96.4721 80.48 95.2203 77.8878 95.2203 75.2269C95.2203 74.5009 95.3137 73.7693 95.505 73.0498C95.6222 72.6087 94.6504 68.6074 94.6504 68.6074H91.4765C79.6155 68.6074 70 78.2229 70 90.084V106.746C70 108.541 70.2836 110.312 70.8307 111.996C70.9827 112.464 71.1571 112.926 71.3492 113.379L97.9698 140H119.237C121.185 140 122.766 138.419 122.766 136.468V126.721C122.766 123.118 123.72 119.58 125.53 116.464L122.766 121.205Z" fill="url(#paint9_linear_1685_12068)"/>
<path d="M120.234 57.7563C117.057 57.7856 114.327 59.8222 112.979 62.7795C112.403 64.042 112.078 65.4755 112.078 66.9894C112.078 67.0773 112.078 67.1629 112.081 67.2507L112.242 73.8414L113.235 74.3641L122.761 79.38C125.123 80.6229 126.959 82.5791 128.065 84.9061L128.612 67.4267C128.778 62.1226 124.959 57.7148 120.234 57.7563Z" fill="url(#paint10_linear_1685_12068)"/>
<path d="M104.886 54.6337C100.473 54.685 96.9688 58.1134 96.9688 62.2379C96.9688 62.421 96.9762 62.6041 96.9907 62.7897L97.5084 69.7488C99.125 68.452 101.425 68.1467 103.391 69.1822L112.243 73.8414L113.237 74.3641L112.981 62.7795L112.949 62.0329C112.846 57.8814 109.254 54.5849 104.886 54.6337Z" fill="url(#paint11_linear_1685_12068)"/>
<path d="M122.764 121.204L127.591 112.927C128.673 111.072 129.243 108.962 129.243 106.814V90.1171C129.243 85.6124 126.748 81.4786 122.762 79.3802L103.39 69.183C100.639 67.7352 97.238 68.9088 95.9654 71.7447C94.3148 75.4229 95.4718 79.7547 98.7366 82.1201L108.923 89.4998C110.372 90.5498 110.539 92.6473 109.273 93.9128L103.814 99.3714C101.416 101.77 100.068 105.023 100.068 108.415C100.068 115.478 105.794 121.204 112.858 121.204H122.764Z" fill="url(#paint12_linear_1685_12068)"/>
<path d="M30.7852 90.5443L63.8167 123.576C64.2792 121.119 65.2776 118.781 66.7599 116.736C67.811 115.284 68.6217 113.683 69.1688 111.996C69.7159 110.311 69.9994 108.541 69.9994 106.745V90.5443H30.7852Z" fill="url(#paint13_linear_1685_12068)"/>
<path d="M70 113.215C67.5283 113.215 65.0525 112.629 62.8405 111.522C56.1554 108.177 43.1005 101.003 30.7858 90.544C14.7656 76.9388 5.27007 62.3354 2.56285 47.1394C0.459834 35.3346 3.46215 23.2839 10.8001 14.0769C17.5958 5.55004 27.2256 0.567137 37.9159 0.0461176C38.5445 0.0153725 39.1814 0 39.8083 0C49.8241 0 59.2791 3.85988 66.4317 10.8687C67.7235 12.1347 68.9149 13.4782 69.9998 14.888C71.0852 13.4782 72.2763 12.1344 73.5684 10.8681C80.7205 3.85988 90.1759 0 100.192 0C100.819 0 101.456 0.0156471 102.084 0.0461176C112.775 0.567137 122.405 5.55004 129.201 14.0774C136.538 23.2845 139.541 35.3352 137.437 47.1397C134.73 62.3354 125.235 76.9391 109.215 90.5443C96.9001 101.002 83.8458 108.177 77.1598 111.523C74.9475 112.63 72.4717 113.215 70 113.215Z" fill="url(#paint14_linear_1685_12068)"/>
<path d="M129.201 14.0775C126.654 10.8811 123.708 8.18292 120.458 6.03076C126.392 14.8425 128.692 25.7647 126.782 36.4843C124.075 51.6801 114.58 66.2837 98.5597 79.889C86.2452 90.347 73.1909 97.5216 66.5049 100.867C64.2927 101.974 61.8169 102.56 59.3452 102.56C56.8735 102.56 54.3977 101.974 52.1857 100.867C45.5005 97.5216 32.4457 90.3475 20.1309 79.889C19.6033 79.441 19.0839 78.9916 18.5703 78.5414C22.0972 82.6187 26.169 86.6233 30.7863 90.5444C43.1011 101.003 56.1559 108.177 62.8411 111.523C65.0533 112.63 67.5291 113.215 70.0005 113.215C72.4722 113.215 74.948 112.63 77.16 111.523C83.846 108.177 96.9003 101.002 109.215 90.5444C125.235 76.9391 134.731 62.3355 137.437 47.1397C139.541 35.3352 136.539 23.2845 129.201 14.0775Z" fill="url(#paint15_linear_1685_12068)"/>
<path d="M102.084 0.0461176C101.456 0.0156471 100.819 0 100.192 0C90.1756 0 80.7204 3.85988 73.5681 10.8684C72.2762 12.1344 71.0851 13.4779 70 14.8878V113.215C72.4717 113.215 74.9475 112.63 77.1595 111.522C83.8455 108.177 96.8998 101.002 109.214 90.544C125.234 76.9388 134.73 62.3351 137.437 47.1394C139.54 35.3349 136.538 23.2842 129.2 14.0771C122.404 5.55004 112.774 0.567137 102.084 0.0461176Z" fill="url(#paint16_linear_1685_12068)"/>
<path d="M122.764 121.204L127.591 112.927C128.673 111.072 129.243 108.962 129.243 106.814V90.1171C129.243 85.6124 126.748 81.4786 122.762 79.3802L103.39 69.183C100.639 67.7352 97.238 68.9088 95.9654 71.7447C94.3148 75.4229 95.4718 79.7547 98.7366 82.1201L108.923 89.4998C110.372 90.5498 110.539 92.6473 109.273 93.9128L103.814 99.3714C101.416 101.77 100.068 105.023 100.068 108.415C100.068 115.478 105.794 121.204 112.858 121.204H122.764Z" fill="url(#paint17_linear_1685_12068)"/>
<path d="M17.2329 121.204L12.4059 112.927C11.3241 111.072 10.7539 108.962 10.7539 106.814V90.1171C10.7539 85.6124 13.2495 81.4786 17.2356 79.3802L36.6072 69.183C39.3578 67.7352 42.7593 68.9088 44.0319 71.7447C45.6825 75.4229 44.5255 79.7547 41.2607 82.1201L31.0748 89.4998C29.6254 90.5498 29.4587 92.6473 30.7245 93.9128L36.1831 99.3714C38.5815 101.77 39.9291 105.023 39.9291 108.415C39.9291 115.478 34.2031 121.204 27.1397 121.204H17.2329Z" fill="url(#paint18_linear_1685_12068)"/>
<path d="M17.2329 121.204L12.4059 112.927C11.3241 111.072 10.7539 108.962 10.7539 106.814V90.1171C10.7539 85.6124 13.2495 81.4786 17.2356 79.3802L36.6072 69.183C39.3578 67.7352 42.7593 68.9088 44.0319 71.7447C45.6825 75.4229 44.5255 79.7547 41.2607 82.1201L31.0748 89.4998C29.6254 90.5498 29.4587 92.6473 30.7245 93.9128L36.1831 99.3714C38.5815 101.77 39.9291 105.023 39.9291 108.415C39.9291 115.478 34.2031 121.204 27.1397 121.204H17.2329Z" fill="url(#paint19_linear_1685_12068)"/>
<path d="M122.764 121.204L127.591 112.927C128.673 111.072 129.243 108.962 129.243 106.814V90.1171C129.243 85.6124 126.748 81.4786 122.762 79.3802L103.39 69.183C100.639 67.7352 97.238 68.9088 95.9654 71.7447C94.3148 75.4229 95.4718 79.7547 98.7366 82.1201L108.923 89.4998C110.372 90.5498 110.539 92.6473 109.273 93.9128L103.814 99.3714C101.416 101.77 100.068 105.023 100.068 108.415C100.068 115.478 105.794 121.204 112.858 121.204H122.764Z" fill="url(#paint20_linear_1685_12068)"/>
</g>
<defs>
<linearGradient id="paint0_linear_1685_12068" x1="16.2287" y1="87.2952" x2="16.3978" y2="87.3292" gradientUnits="userSpaceOnUse">
<stop stop-color="#FCB37E"/>
<stop offset="1" stop-color="#8C6239"/>
</linearGradient>
<linearGradient id="paint1_linear_1685_12068" x1="2.48485" y1="76.0592" x2="83.6643" y2="141.003" gradientUnits="userSpaceOnUse">
<stop stop-color="#FFDECF"/>
<stop offset="1" stop-color="#FAA68E"/>
</linearGradient>
<linearGradient id="paint2_linear_1685_12068" x1="58.4216" y1="116.974" x2="37.7469" y2="104.681" gradientUnits="userSpaceOnUse">
<stop stop-color="#FAA68E" stop-opacity="0"/>
<stop offset="1" stop-color="#FAA68E"/>
</linearGradient>
<linearGradient id="paint3_linear_1685_12068" x1="13.4803" y1="70.3774" x2="32.5269" y2="76.5885" gradientUnits="userSpaceOnUse">
<stop stop-color="#FFDECF"/>
<stop offset="1" stop-color="#FAA68E"/>
</linearGradient>
<linearGradient id="paint4_linear_1685_12068" x1="27.9223" y1="63.8147" x2="52.3477" y2="68.7408" gradientUnits="userSpaceOnUse">
<stop stop-color="#FFDECF"/>
<stop offset="1" stop-color="#FAA68E"/>
</linearGradient>
<linearGradient id="paint5_linear_1685_12068" x1="22.6792" y1="75.1135" x2="32.9417" y2="107.767" gradientUnits="userSpaceOnUse">
<stop stop-color="#FFDECF"/>
<stop offset="1" stop-color="#FAA68E" stop-opacity="0"/>
</linearGradient>
<linearGradient id="paint6_linear_1685_12068" x1="123.77" y1="87.2952" x2="123.601" y2="87.3292" gradientUnits="userSpaceOnUse">
<stop stop-color="#FCB37E"/>
<stop offset="1" stop-color="#8C6239"/>
</linearGradient>
<linearGradient id="paint7_linear_1685_12068" x1="137.513" y1="76.0592" x2="56.3335" y2="141.003" gradientUnits="userSpaceOnUse">
<stop stop-color="#FFDECF"/>
<stop offset="1" stop-color="#FAA68E"/>
</linearGradient>
<linearGradient id="paint8_linear_1685_12068" x1="103.042" y1="120.747" x2="78.6328" y2="96.3375" gradientUnits="userSpaceOnUse">
<stop stop-color="#FAA68E" stop-opacity="0"/>
<stop offset="1" stop-color="#B74B52"/>
</linearGradient>
<linearGradient id="paint9_linear_1685_12068" x1="107.898" y1="115.891" x2="83.4883" y2="91.482" gradientUnits="userSpaceOnUse">
<stop stop-color="#FAA68E" stop-opacity="0"/>
<stop offset="1" stop-color="#B74B52"/>
</linearGradient>
<linearGradient id="paint10_linear_1685_12068" x1="126.516" y1="70.3774" x2="107.47" y2="76.5885" gradientUnits="userSpaceOnUse">
<stop stop-color="#FFDECF"/>
<stop offset="1" stop-color="#FAA68E"/>
</linearGradient>
<linearGradient id="paint11_linear_1685_12068" x1="112.076" y1="63.8147" x2="87.6511" y2="68.7408" gradientUnits="userSpaceOnUse">
<stop stop-color="#FFDECF"/>
<stop offset="1" stop-color="#FAA68E"/>
</linearGradient>
<linearGradient id="paint12_linear_1685_12068" x1="117.318" y1="75.1135" x2="107.056" y2="107.767" gradientUnits="userSpaceOnUse">
<stop stop-color="#FFDECF"/>
<stop offset="1" stop-color="#FAA68E" stop-opacity="0"/>
</linearGradient>
<linearGradient id="paint13_linear_1685_12068" x1="63.9822" y1="125.514" x2="51.3141" y2="92.9161" gradientUnits="userSpaceOnUse">
<stop stop-color="#FAA68E" stop-opacity="0"/>
<stop offset="1" stop-color="#B74B52"/>
</linearGradient>
<linearGradient id="paint14_linear_1685_12068" x1="58.7663" y1="27.4872" x2="106.371" y2="86.9257" gradientUnits="userSpaceOnUse">
<stop stop-color="#FF7044"/>
<stop offset="1" stop-color="#F82814"/>
</linearGradient>
<linearGradient id="paint15_linear_1685_12068" x1="86.1069" y1="71.1165" x2="105.819" y2="113.247" gradientUnits="userSpaceOnUse">
<stop stop-color="#F82814" stop-opacity="0"/>
<stop offset="1" stop-color="#C0272D"/>
</linearGradient>
<linearGradient id="paint16_linear_1685_12068" x1="81.2601" y1="44.797" x2="18.6013" y2="-19.0905" gradientUnits="userSpaceOnUse">
<stop stop-color="#F82814" stop-opacity="0"/>
<stop offset="1" stop-color="#C0272D"/>
</linearGradient>
<linearGradient id="paint17_linear_1685_12068" x1="68.3143" y1="31.1851" x2="192.216" y2="213.484" gradientUnits="userSpaceOnUse">
<stop stop-color="#FFDECF"/>
<stop offset="1" stop-color="#FAA68E"/>
</linearGradient>
<linearGradient id="paint18_linear_1685_12068" x1="22.6792" y1="75.1135" x2="32.9417" y2="107.767" gradientUnits="userSpaceOnUse">
<stop stop-color="#FFDECF"/>
<stop offset="1" stop-color="#FAA68E"/>
</linearGradient>
<linearGradient id="paint19_linear_1685_12068" x1="22.6792" y1="75.1135" x2="32.9417" y2="107.767" gradientUnits="userSpaceOnUse">
<stop stop-color="#FFDECF"/>
<stop offset="1" stop-color="#FAA68E" stop-opacity="0"/>
</linearGradient>
<linearGradient id="paint20_linear_1685_12068" x1="117.318" y1="75.1135" x2="107.056" y2="107.767" gradientUnits="userSpaceOnUse">
<stop stop-color="#FFDECF"/>
<stop offset="1" stop-color="#FAA68E" stop-opacity="0"/>
</linearGradient>
<clipPath id="clip0_1685_12068">
<rect width="140" height="140" fill="white"/>
</clipPath>
</defs>
</svg>
