<svg width="60" height="60" viewBox="0 0 60 60" fill="none" xmlns="http://www.w3.org/2000/svg">
<path d="M51.4416 27.7931C50.7211 23.2741 48.3856 19.1699 44.8684 16.2424C41.3512 13.3149 36.8914 11.7628 32.3166 11.8744C28.079 11.8062 23.9383 13.1444 20.542 15.6796C17.1458 18.2148 14.6855 21.8042 13.546 25.8863C10.7263 26.2349 8.14579 27.6457 6.33025 29.831C4.5147 32.0164 3.60083 34.8118 3.77489 37.6476C3.94894 40.4833 5.19782 43.146 7.26698 45.0929C9.33615 47.0398 12.0699 48.1244 14.911 48.1256H45.0985C47.4772 48.1269 49.794 47.3677 51.7108 45.9591C53.6275 44.5504 55.0439 42.566 55.7531 40.2955C56.4622 38.0249 56.4271 35.5871 55.6528 33.338C54.8785 31.0888 53.4056 29.146 51.4491 27.7931H51.4416ZM39.7847 30.8025C39.6065 30.9724 39.3965 31.1056 39.1668 31.1944C38.937 31.2831 38.6921 31.3258 38.4459 31.3198C38.1997 31.3139 37.9571 31.2596 37.7319 31.1599C37.5067 31.0602 37.3033 30.9171 37.1335 30.7388L33.751 27.1875V41.25C33.751 41.7473 33.5534 42.2242 33.2018 42.5758C32.8502 42.9275 32.3732 43.125 31.876 43.125C31.3787 43.125 30.9018 42.9275 30.5501 42.5758C30.1985 42.2242 30.001 41.7473 30.001 41.25V27.1875L26.626 30.7388C26.4561 30.917 26.2527 31.0601 26.0275 31.1598C25.8024 31.2595 25.5597 31.3138 25.3135 31.3197C25.0674 31.3257 24.8224 31.283 24.5927 31.1943C24.363 31.1055 24.153 30.9724 23.9747 30.8025C23.7964 30.6326 23.6534 30.4293 23.5537 30.2041C23.454 29.9789 23.3997 29.7363 23.3938 29.4901C23.3818 28.9929 23.5678 28.5113 23.911 28.1513L30.526 21.2138L30.5447 21.2006C30.7183 21.021 30.9264 20.8781 31.1564 20.7806C31.3864 20.683 31.6336 20.6327 31.8835 20.6327C32.1333 20.6327 32.3806 20.683 32.6106 20.7806C32.8406 20.8781 33.0486 21.021 33.2222 21.2006L33.241 21.2138L39.856 28.1513C40.0254 28.33 40.158 28.5404 40.2461 28.7704C40.3343 29.0004 40.3762 29.2454 40.3696 29.4917C40.363 29.7379 40.3079 29.9804 40.2076 30.2053C40.1072 30.4302 39.9635 30.6331 39.7847 30.8025Z" fill="#7BACDF"/>
</svg>
