<svg width="20" height="20" viewBox="0 0 20 20" fill="none" xmlns="http://www.w3.org/2000/svg">
<path d="M2.5 5.625H5C5 6.31437 5.56063 6.875 6.25 6.875H7.5C8.18937 6.875 8.75 6.31437 8.75 5.625H17.5C17.845 5.625 18.125 5.34562 18.125 5C18.125 4.65438 17.845 4.375 17.5 4.375H8.75C8.75 3.68562 8.18937 3.125 7.5 3.125H6.25C5.56063 3.125 5 3.68562 5 4.375H2.5C2.155 4.375 1.875 4.65438 1.875 5C1.875 5.34562 2.155 5.625 2.5 5.625Z" fill="#E89570"/>
<path d="M17.5 9.375H13.75C13.75 8.68562 13.1894 8.125 12.5 8.125H11.25C10.5606 8.125 10 8.68562 10 9.375H2.5C2.155 9.375 1.875 9.65438 1.875 10C1.875 10.3456 2.155 10.625 2.5 10.625H10C10 11.3144 10.5606 11.875 11.25 11.875H12.5C13.1894 11.875 13.75 11.3144 13.75 10.625H17.5C17.845 10.625 18.125 10.3456 18.125 10C18.125 9.65438 17.845 9.375 17.5 9.375Z" fill="#E89570"/>
<path d="M17.5 14.375H8.75C8.75 13.6856 8.18937 13.125 7.5 13.125H6.25C5.56063 13.125 5 13.6856 5 14.375H2.5C2.155 14.375 1.875 14.6544 1.875 15C1.875 15.3456 2.155 15.625 2.5 15.625H5C5 16.3144 5.56063 16.875 6.25 16.875H7.5C8.18937 16.875 8.75 16.3144 8.75 15.625H17.5C17.845 15.625 18.125 15.3456 18.125 15C18.125 14.6544 17.845 14.375 17.5 14.375Z" fill="#E89570"/>
</svg>
