<svg width="20" height="20" viewBox="0 0 20 20" fill="none" xmlns="http://www.w3.org/2000/svg">
<g clip-path="url(#clip0_259_5772)">
<path d="M9.99609 20.0124C8.6472 20.0124 7.33762 19.7477 6.1042 19.2281C4.91256 18.7257 3.84376 18.0075 2.92484 17.0909C2.00592 16.1742 1.28602 15.108 0.782335 13.9193C0.26145 12.6889 -0.00390625 11.3825 -0.00390625 10.037C-0.00390625 8.69136 0.26145 7.38499 0.782335 6.1546C1.28602 4.96587 2.00592 3.8997 2.92484 2.98303C3.84376 2.06636 4.91256 1.34823 6.1042 0.845776C7.33762 0.326168 8.6472 0.0614624 9.99609 0.0614624C11.345 0.0614624 12.6546 0.326168 13.888 0.845776C15.0796 1.34823 16.1484 2.06636 17.0673 2.98303C17.9863 3.8997 18.7062 4.96587 19.2099 6.1546C19.7307 7.38499 19.9961 8.69136 19.9961 10.037C19.9961 11.3825 19.7307 12.6889 19.2099 13.9193C18.7062 15.108 17.9863 16.1742 17.0673 17.0909C16.1484 18.0075 15.0796 18.7257 13.888 19.2281C12.6546 19.7477 11.345 20.0124 9.99609 20.0124ZM9.99609 0.796756C4.88799 0.796756 0.733195 4.94136 0.733195 10.037C0.733195 15.1325 4.88799 19.2771 9.99609 19.2771C15.1042 19.2771 19.259 15.1325 19.259 10.037C19.259 4.94136 15.1042 0.796756 9.99609 0.796756Z" fill="#363636"/>
<path d="M6.48807 8.54924C5.7436 8.54924 5.13672 7.94385 5.13672 7.2012C5.13672 6.45855 5.7436 5.85315 6.48807 5.85315C7.23254 5.85315 7.83942 6.45855 7.83942 7.2012C7.83942 7.94385 7.23254 8.54924 6.48807 8.54924ZM6.48807 6.58845C6.149 6.58845 5.87382 6.86296 5.87382 7.2012C5.87382 7.53943 6.149 7.81395 6.48807 7.81395C6.82714 7.81395 7.10232 7.53943 7.10232 7.2012C7.10232 6.86296 6.82714 6.58845 6.48807 6.58845Z" fill="#363636"/>
<path d="M13.5076 8.59549C12.7631 8.59549 12.1562 7.9901 12.1562 7.24745C12.1562 6.50481 12.7631 5.89941 13.5076 5.89941C14.2521 5.89941 14.859 6.50481 14.859 7.24745C14.859 7.9901 14.2521 8.59549 13.5076 8.59549ZM13.5076 6.63471C13.1685 6.63471 12.8934 6.90922 12.8934 7.24745C12.8934 7.58569 13.1685 7.8602 13.5076 7.8602C13.8467 7.8602 14.1219 7.58569 14.1219 7.24745C14.1219 6.90922 13.8467 6.63471 13.5076 6.63471Z" fill="#363636"/>
<path d="M9.99705 15.7574C8.4737 15.7574 7.03881 15.1642 5.96264 14.0907C5.54495 13.6765 5.19605 13.201 4.92578 12.6789L5.57935 12.3407C5.81522 12.7941 6.11743 13.2083 6.48107 13.5711C7.41965 14.5074 8.66781 15.0245 9.99459 15.0245C11.3214 15.0245 12.5695 14.5098 13.5081 13.5735C13.8718 13.2108 14.174 12.799 14.4098 12.3431L15.0634 12.6814C14.7931 13.2034 14.4442 13.6789 14.0265 14.0931C12.9553 15.1642 11.5204 15.7574 9.99705 15.7574Z" fill="#363636"/>
</g>
<defs>
<clipPath id="clip0_259_5772">
<rect width="20" height="20" fill="white"/>
</clipPath>
</defs>
</svg>
