<svg width="40" height="40" viewBox="0 0 40 40" fill="none" xmlns="http://www.w3.org/2000/svg">
<g clip-path="url(#clip0_856_10748)">
<path d="M31.6621 26.2357L31.6633 26.2366C32.7745 27.0904 33.6632 27.7828 34.198 28.7144C34.713 29.6116 34.928 30.7927 34.5038 32.6771L34.5038 32.6772C33.7581 35.9933 30.9984 38.6699 27.6445 39.326C25.8422 39.6746 24.0339 39.4937 22.3996 38.8005L22.3993 38.8002L22.3128 38.7624C20.8439 38.1207 19.1561 38.1207 17.6873 38.7624C16.5672 39.2516 15.3638 39.4988 14.1371 39.4988C13.5465 39.4988 12.9515 39.4423 12.3575 39.3262L12.3574 39.3262C9.002 38.6703 6.24193 35.9935 5.49591 32.6771L5.4959 32.6771C5.07176 30.7925 5.28677 29.6114 5.80174 28.7143C6.33648 27.7827 7.22525 27.0905 8.33644 26.2366L8.33764 26.2357L8.71168 25.9465C8.71171 25.9464 8.71174 25.9464 8.71176 25.9464C8.71177 25.9464 8.71178 25.9464 8.71178 25.9464C9.48621 25.3478 10.023 24.562 10.2438 23.6692L10.2439 23.6688C11.2543 19.5691 14.8367 17.0625 19.9999 17.0625C25.163 17.0625 28.7454 19.5691 29.7558 23.6688L29.7559 23.6692C29.9767 24.562 30.5135 25.3478 31.2879 25.9464C31.288 25.9464 31.288 25.9464 31.288 25.9465L31.6621 26.2357ZM19.9999 16.5625C14.6648 16.5625 10.8367 19.1742 9.75847 23.5492L31.5938 25.5508C30.8992 25.014 30.4323 24.3216 30.2413 23.5492C29.1631 19.1742 25.3349 16.5625 19.9999 16.5625Z" fill="#CBD5EA" stroke="#CBD5EA"/>
<path d="M18.3281 5.85938C18.3281 8.92376 16.3512 11.2188 14.1406 11.2188C11.93 11.2188 9.95312 8.92376 9.95312 5.85938C9.95312 2.79499 11.93 0.5 14.1406 0.5C16.3512 0.5 18.3281 2.79499 18.3281 5.85938Z" fill="#CBD5EA" stroke="#CBD5EA"/>
<path d="M30.0469 5.85938C30.0469 8.92376 28.07 11.2188 25.8594 11.2188C23.6488 11.2188 21.6719 8.92376 21.6719 5.85938C21.6719 2.79499 23.6488 0.5 25.8594 0.5C28.07 0.5 30.0469 2.79499 30.0469 5.85938Z" fill="#CBD5EA" stroke="#CBD5EA"/>
<path d="M4.6875 9.95312C6.89811 9.95312 8.875 12.2481 8.875 15.3125C8.875 18.3769 6.89811 20.6719 4.6875 20.6719C2.47689 20.6719 0.5 18.3769 0.5 15.3125C0.5 12.2481 2.47689 9.95312 4.6875 9.95312Z" fill="#CBD5EA" stroke="#CBD5EA"/>
<path d="M31.125 15.3125C31.125 12.2481 33.1019 9.95312 35.3125 9.95312C37.5231 9.95312 39.5 12.2481 39.5 15.3125C39.5 18.3769 37.5231 20.6719 35.3125 20.6719C33.1019 20.6719 31.125 18.3769 31.125 15.3125Z" fill="#CBD5EA" stroke="#CBD5EA"/>
</g>
<defs>
<clipPath id="clip0_856_10748">
<rect width="40" height="40" fill="white"/>
</clipPath>
</defs>
</svg>
