<svg width="18" height="18" viewBox="0 0 18 18" fill="none" xmlns="http://www.w3.org/2000/svg">
<g clip-path="url(#clip0_102_5031)">
<path d="M17.3571 3.00003H12.7993C12.6484 2.16141 12.1839 1.39986 11.4883 0.850622C10.7927 0.301382 9.91111 0 9 0C8.08889 0 7.20727 0.301382 6.51171 0.850622C5.81614 1.39986 5.35165 2.16141 5.20071 3.00003H0.642857C0.472361 3.00003 0.308848 3.06324 0.188288 3.17577C0.0677294 3.28829 0 3.4409 0 3.60003C0 3.75916 0.0677294 3.91177 0.188288 4.02429C0.308848 4.13682 0.472361 4.20003 0.642857 4.20003H1.92857V16.2C1.93006 16.677 2.13373 17.134 2.49509 17.4713C2.85644 17.8085 3.34611 17.9986 3.85714 18H14.1429C14.6539 17.9986 15.1436 17.8085 15.5049 17.4713C15.8663 17.134 16.0699 16.677 16.0714 16.2V4.20003H17.3571C17.5276 4.20003 17.6912 4.13682 17.8117 4.02429C17.9323 3.91177 18 3.75916 18 3.60003C18 3.4409 17.9323 3.28829 17.8117 3.17577C17.6912 3.06324 17.5276 3.00003 17.3571 3.00003ZM9 1.20003C9.56864 1.20175 10.1206 1.37935 10.5696 1.70504C11.0186 2.03073 11.3393 2.48615 11.4814 3.00003H6.51857C6.66073 2.48615 6.98139 2.03073 7.43037 1.70504C7.87936 1.37935 8.43136 1.20175 9 1.20003ZM14.7857 16.2C14.7852 16.359 14.7173 16.5114 14.5969 16.6238C14.4764 16.7362 14.3132 16.7996 14.1429 16.8H3.85714C3.6868 16.7996 3.52357 16.7362 3.40312 16.6238C3.28266 16.5114 3.21478 16.359 3.21429 16.2V4.20003H14.7857V16.2Z" fill="#363636"/>
<path d="M9.00028 6.59998C8.82978 6.59998 8.66627 6.66319 8.54571 6.77571C8.42515 6.88823 8.35742 7.04085 8.35742 7.19998V13.8C8.35742 13.9591 8.42515 14.1117 8.54571 14.2242C8.66627 14.3368 8.82978 14.4 9.00028 14.4C9.17078 14.4 9.33429 14.3368 9.45485 14.2242C9.57541 14.1117 9.64314 13.9591 9.64314 13.8V7.19998C9.64314 7.04085 9.57541 6.88823 9.45485 6.77571C9.33429 6.66319 9.17078 6.59998 9.00028 6.59998Z" fill="#363636"/>
<path d="M11.5713 7.19998V13.8C11.5713 13.9591 11.639 14.1117 11.7596 14.2242C11.8801 14.3368 12.0436 14.4 12.2141 14.4C12.3846 14.4 12.5482 14.3368 12.6687 14.2242C12.7893 14.1117 12.857 13.9591 12.857 13.8V7.19998C12.857 7.04085 12.7893 6.88823 12.6687 6.77571C12.5482 6.66319 12.3846 6.59998 12.2141 6.59998C12.0436 6.59998 11.8801 6.66319 11.7596 6.77571C11.639 6.88823 11.5713 7.04085 11.5713 7.19998Z" fill="#363636"/>
<path d="M5.78544 6.59998C5.61494 6.59998 5.45143 6.66319 5.33087 6.77571C5.21031 6.88823 5.14258 7.04085 5.14258 7.19998V13.8C5.14258 13.9591 5.21031 14.1117 5.33087 14.2242C5.45143 14.3368 5.61494 14.4 5.78544 14.4C5.95593 14.4 6.11944 14.3368 6.24 14.2242C6.36056 14.1117 6.42829 13.9591 6.42829 13.8V7.19998C6.42829 7.04085 6.36056 6.88823 6.24 6.77571C6.11944 6.66319 5.95593 6.59998 5.78544 6.59998Z" fill="#363636"/>
</g>
<defs>
<clipPath id="clip0_102_5031">
<rect width="18" height="18" fill="white"/>
</clipPath>
</defs>
</svg>
