<svg width="20" height="20" viewBox="0 0 20 20" fill="none" xmlns="http://www.w3.org/2000/svg">
<g clip-path="url(#clip0_1201_4461)">
<path d="M15.7933 2.53457C15.1061 2.53457 14.4477 2.69715 13.8609 3.00082C14.7996 3.96949 15.3784 5.2889 15.3784 6.74113C15.3784 7.87094 15.2458 11.65 10.8545 16.0238C11.5312 16.6221 12.1396 17.079 12.5716 17.367C12.67 17.4326 12.7833 17.4654 12.8966 17.4654C13.0099 17.4654 13.1232 17.4326 13.2216 17.367C14.8538 16.2791 19.9999 12.0489 19.9999 6.74117C19.9999 4.42164 18.1128 2.53457 15.7933 2.53457V2.53457Z" fill="white"/>
<path d="M10 2.53457C8.90305 2.53457 7.87938 2.94875 7.10332 3.68992C6.32723 2.94875 5.30352 2.53457 4.2066 2.53457C1.88707 2.53457 0 4.42164 0 6.74117C0 11.9398 4.95648 16.1527 6.77828 17.367C6.87672 17.4326 6.99 17.4654 7.10328 17.4654C7.21656 17.4654 7.32992 17.4326 7.42828 17.367C9.06043 16.2791 14.2065 12.049 14.2065 6.74117C14.2066 4.42164 12.3195 2.53457 10 2.53457V2.53457Z" fill="white"/>
</g>
<defs>
<clipPath id="clip0_1201_4461">
<rect width="20" height="20" fill="white"/>
</clipPath>
</defs>
</svg>
