<svg width="70" height="70" viewBox="0 0 70 70" fill="none" xmlns="http://www.w3.org/2000/svg">
<circle cx="35" cy="35" r="35" fill="#F5F6F8"/>
<path d="M38.1037 26.7098C39.4908 27.5795 40.4635 29.0512 40.6406 30.7596C41.2063 31.0239 41.8341 31.1759 42.4998 31.1759C44.93 31.1759 46.8997 29.2062 46.8997 26.7764C46.8997 24.3463 44.93 22.3766 42.4998 22.3766C40.0928 22.3773 38.1404 24.3118 38.1037 26.7098ZM35.2213 35.7184C37.6514 35.7184 39.6211 33.7484 39.6211 31.3186C39.6211 28.8888 37.6511 26.9191 35.2213 26.9191C32.7915 26.9191 30.8207 28.8891 30.8207 31.3189C30.8207 33.7487 32.7915 35.7184 35.2213 35.7184ZM37.0876 36.0183H33.3542C30.2478 36.0183 27.7207 38.5458 27.7207 41.6521V46.2178L27.7323 46.2894L28.0468 46.3878C31.0112 47.3141 33.5867 47.6229 35.7065 47.6229C39.8469 47.6229 42.2467 46.4425 42.3946 46.3672L42.6885 46.2186H42.72V41.6521C42.7211 38.5458 40.1939 36.0183 37.0876 36.0183ZM44.3669 31.4762H40.6623C40.6222 32.9584 39.9895 34.2931 38.9888 35.253C41.7499 36.0741 43.7701 38.6345 43.7701 41.6589V43.0658C47.4279 42.9318 49.5358 41.8951 49.6747 41.8255L49.9686 41.6765H50V37.1093C50 34.0033 47.4729 31.4762 44.3669 31.4762ZM27.5009 31.1767C28.3617 31.1767 29.1625 30.9254 29.8409 30.4975C30.0565 29.0909 30.8106 27.8618 31.8877 27.0247C31.8922 26.9423 31.9 26.8607 31.9 26.7776C31.9 24.3474 29.93 22.3777 27.5009 22.3777C25.0704 22.3777 23.1011 24.3474 23.1011 26.7776C23.1011 29.2066 25.0704 31.1767 27.5009 31.1767ZM31.4523 35.253C30.4564 34.298 29.8259 32.9704 29.7799 31.4971C29.6425 31.487 29.5066 31.4762 29.3665 31.4762H25.6335C22.5271 31.4762 20 34.0033 20 37.1093V41.6757L20.0116 41.7461L20.3261 41.8453C22.7042 42.5877 24.8267 42.9299 26.6702 43.0378V41.6589C26.6709 38.6345 28.6904 36.0748 31.4523 35.253Z" fill="#D83C56"/>
</svg>
