<svg width="55" height="55" viewBox="0 0 55 55" fill="none" xmlns="http://www.w3.org/2000/svg">
<circle cx="27.5" cy="27.5" r="27.5" fill="#F5F6F8"/>
<path d="M38.4375 22.0313V32.9688C38.4375 33.5904 38.1906 34.1865 37.751 34.626C37.3115 35.0656 36.7154 35.3125 36.0938 35.3125H18.9062C18.2846 35.3125 17.6885 35.0656 17.249 34.626C16.8094 34.1865 16.5625 33.5904 16.5625 32.9688V22.0313C16.565 21.7641 16.6153 21.4995 16.7109 21.25L26.2031 27.5781C26.5875 27.8334 27.0386 27.9696 27.5 27.9696C27.9614 27.9696 28.4125 27.8334 28.7969 27.5781L38.2891 21.25C38.3847 21.4995 38.435 21.7641 38.4375 22.0313V22.0313ZM27.9297 26.2734L37.3047 20.0234C36.9391 19.8033 36.5205 19.6872 36.0938 19.6875H18.9062C18.4815 19.6909 18.0656 19.8098 17.7031 20.0313L27.0781 26.2813C27.2056 26.3625 27.3539 26.405 27.5051 26.4036C27.6562 26.4022 27.8037 26.357 27.9297 26.2734V26.2734Z" fill="#D83C56"/>
</svg>
