<svg width="17" height="17" viewBox="0 0 17 17" fill="none" xmlns="http://www.w3.org/2000/svg">
<g clip-path="url(#clip0_192_6382)">
<path d="M13.2812 6.375H12.75V4.25C12.75 1.90612 10.8439 0 8.5 0C6.15613 0 4.25 1.90612 4.25 4.25V6.375H3.71875C2.84042 6.375 2.125 7.08971 2.125 7.96875V15.4062C2.125 16.2853 2.84042 17 3.71875 17H13.2812C14.1596 17 14.875 16.2853 14.875 15.4062V7.96875C14.875 7.08971 14.1596 6.375 13.2812 6.375ZM5.66667 4.25C5.66667 2.68742 6.93742 1.41667 8.5 1.41667C10.0626 1.41667 11.3333 2.68742 11.3333 4.25V6.375H5.66667V4.25ZM9.20833 11.8447V13.4583C9.20833 13.8493 8.89171 14.1667 8.5 14.1667C8.10829 14.1667 7.79167 13.8493 7.79167 13.4583V11.8447C7.37021 11.599 7.08333 11.147 7.08333 10.625C7.08333 9.84371 7.71871 9.20833 8.5 9.20833C9.28129 9.20833 9.91667 9.84371 9.91667 10.625C9.91667 11.147 9.62979 11.599 9.20833 11.8447Z" fill="#73CD9D"/>
</g>
<defs>
<clipPath id="clip0_192_6382">
<rect width="17" height="17" fill="white"/>
</clipPath>
</defs>
</svg>
