<svg width="11" height="11" viewBox="0 0 11 11" fill="none" xmlns="http://www.w3.org/2000/svg">
<path d="M9.51042 5.13542H8.78125V3.3125C8.78125 3.02242 8.66602 2.74422 8.4609 2.5391C8.25578 2.33398 7.97758 2.21875 7.6875 2.21875H5.86458V1.48958C5.86458 1.10281 5.71094 0.731877 5.43745 0.458386C5.16396 0.184895 4.79302 0.03125 4.40625 0.03125C4.01948 0.03125 3.64854 0.184895 3.37505 0.458386C3.10156 0.731877 2.94792 1.10281 2.94792 1.48958V2.21875H1.125C0.834919 2.21875 0.55672 2.33398 0.351602 2.5391C0.146484 2.74422 0.03125 3.02242 0.03125 3.3125V5.5C0.03125 5.59669 0.0696613 5.68943 0.138034 5.7578C0.206407 5.82617 0.29914 5.86458 0.395833 5.86458H1.48958C1.68297 5.86458 1.86844 5.94141 2.00518 6.07815C2.14193 6.2149 2.21875 6.40036 2.21875 6.59375C2.21875 6.78714 2.14193 6.9726 2.00518 7.10935C1.86844 7.24609 1.68297 7.32292 1.48958 7.32292H0.395833C0.29914 7.32292 0.206407 7.36133 0.138034 7.4297C0.0696613 7.49807 0.03125 7.59081 0.03125 7.6875V9.875C0.03125 10.1651 0.146484 10.4433 0.351602 10.6484C0.55672 10.8535 0.834919 10.9688 1.125 10.9688H3.3125C3.40919 10.9688 3.50193 10.9303 3.5703 10.862C3.63867 10.7936 3.67708 10.7009 3.67708 10.6042V9.51042C3.67708 9.31703 3.75391 9.13156 3.89065 8.99482C4.0274 8.85807 4.21286 8.78125 4.40625 8.78125C4.59964 8.78125 4.7851 8.85807 4.92185 8.99482C5.05859 9.13156 5.13542 9.31703 5.13542 9.51042V10.6042C5.13542 10.7009 5.17383 10.7936 5.2422 10.862C5.31057 10.9303 5.40331 10.9688 5.5 10.9688H7.6875C7.97758 10.9688 8.25578 10.8535 8.4609 10.6484C8.66602 10.4433 8.78125 10.1651 8.78125 9.875V8.05208H9.51042C9.89719 8.05208 10.2681 7.89844 10.5416 7.62495C10.8151 7.35146 10.9688 6.98052 10.9688 6.59375C10.9688 6.20698 10.8151 5.83604 10.5416 5.56255C10.2681 5.28906 9.89719 5.13542 9.51042 5.13542V5.13542Z" fill="white"/>
</svg>
