<svg width="40" height="40" viewBox="0 0 40 40" fill="none" xmlns="http://www.w3.org/2000/svg">
<g clip-path="url(#clip0_856_10799)">
<path d="M23.1451 33.923C22.12 33.4629 21.0704 32.9015 20.0208 32.2574C19.8208 32.5083 19.6063 32.7493 19.3773 32.9784L23.1451 33.923ZM23.1451 33.923C22.6828 34.6287 22.1487 35.2882 21.5505 35.8866C19.2204 38.2174 16.1249 39.4999 12.8298 39.4999C9.53453 39.4999 6.43907 38.2174 4.109 35.8866C-0.699094 31.0769 -0.699094 23.2498 4.109 18.4401M23.1451 33.923L19.3773 32.9784C17.727 34.6292 15.5303 35.5393 13.1964 35.5393C10.8625 35.5393 8.66585 34.6292 7.0156 32.9784C3.60761 29.5693 3.60758 24.0234 7.01558 20.6144C7.24555 20.3843 7.48591 20.1689 7.7356 19.9684C7.0914 18.9177 6.52984 17.867 6.06972 16.841C5.37052 17.3002 4.71552 17.8334 4.109 18.4401M4.109 18.4401L3.75539 18.0866L4.109 18.4401Z" fill="#CBD5EA" stroke="#CBD5EA"/>
<path d="M26.4663 23.2596L26.467 23.2589L26.5179 23.2077C27.6693 22.056 29.1894 21.2987 30.863 21.0372C31.7652 22.5759 32.4429 24.0722 32.8442 25.4185C33.8327 28.7339 32.9761 30.3415 32.2213 31.0966C31.5311 31.7869 30.5392 32.1597 29.2493 32.1597C28.0116 32.1598 26.5206 31.8148 24.8275 31.0946C21.7833 29.7998 18.3709 27.4026 15.4807 24.5115L15.1271 24.865L15.4807 24.5115C12.5905 21.6205 10.1941 18.2069 8.89965 15.1618C7.40825 11.6532 7.55404 9.11022 8.89771 7.76615C9.65119 7.01246 11.2546 6.15672 14.559 7.13827C15.9038 7.53774 17.3995 8.21404 18.9382 9.11534C18.6614 10.6845 17.9396 12.1026 16.8656 13.1771C16.8655 13.1772 16.8655 13.1772 16.8655 13.1772L16.6223 13.4204L16.6222 13.4205C15.1091 14.9341 15.109 17.3957 16.6221 18.9095L16.6221 18.9096L20.9729 23.2617C20.9729 23.2617 20.9729 23.2618 20.9729 23.2618C21.7055 23.9947 22.6821 24.3994 23.7185 24.3994H23.7185H23.7185H23.7185H23.7185H23.7186H23.7186H23.7186H23.7186H23.7186H23.7186H23.7186H23.7187H23.7187H23.7187H23.7187H23.7187H23.7187H23.7188H23.7188H23.7188H23.7188H23.7188H23.7188H23.7188H23.7189H23.7189H23.7189H23.7189H23.7189H23.7189H23.719H23.719H23.719H23.719H23.719H23.719H23.719H23.7191H23.7191H23.7191H23.7191H23.7192C24.7556 24.3992 25.7321 23.9942 26.4663 23.2596Z" fill="#CBD5EA" stroke="#CBD5EA"/>
<path d="M30.7349 0.501501L30.7349 0.501503C28.4114 0.543709 26.2578 1.48454 24.665 3.15075L24.665 3.15076C23.2827 4.59679 22.4435 6.49304 22.3027 8.48895C22.1139 11.1669 21.0063 13.6535 19.1746 15.4861L19.1745 15.4861L18.9315 15.7292L18.9315 15.7292C18.6908 15.9699 18.6908 16.3601 18.9314 16.6007C18.9314 16.6007 18.9314 16.6007 18.9314 16.6008L23.2824 20.9531L23.2824 20.9531C23.398 21.0687 23.5547 21.1337 23.7184 21.1337L30.7349 0.501501ZM30.7349 0.501501C33.0562 0.459003 35.2388 1.31994 36.8882 2.9245L37.2369 2.56612M30.7349 0.501501L37.2369 2.56612M37.2369 2.56612L36.8882 2.92451C38.5548 4.54581 39.4802 6.71543 39.4963 9.03872C39.5125 11.3626 38.6179 13.5444 36.9754 15.1875C35.4921 16.6713 33.5235 17.5606 31.4321 17.692C28.6723 17.8654 26.1053 19.0013 24.2083 20.899L24.208 20.8992L24.1544 20.9529M37.2369 2.56612L24.1544 20.9529M24.1544 20.9529C24.0387 21.0686 23.882 21.1336 23.7185 21.1337L24.1544 20.9529Z" fill="#CBD5EA" stroke="#CBD5EA"/>
</g>
<defs>
<clipPath id="clip0_856_10799">
<rect width="40" height="40" fill="white"/>
</clipPath>
</defs>
</svg>
