<svg width="70" height="70" viewBox="0 0 70 70" fill="none" xmlns="http://www.w3.org/2000/svg">
<circle cx="35" cy="35" r="35" fill="#F5F6F8"/>
<g clip-path="url(#clip0_140_1596)">
<path d="M49.347 24.905C49.202 24.8493 49.0625 24.8213 48.9284 24.8213C48.627 24.8213 48.3762 24.9275 48.1751 25.1395L41.4284 31.8695V29.1073C41.4284 27.779 40.9568 26.6435 40.0137 25.7004C39.0706 24.7573 37.9353 24.2858 36.6068 24.2858H24.8213C23.4933 24.2858 22.3577 24.7573 21.4144 25.7004C20.4716 26.6435 20 27.779 20 29.1073V40.893C20 42.2211 20.4716 43.3565 21.4145 44.2996C22.3577 45.2427 23.4934 45.7143 24.8214 45.7143H36.607C37.9353 45.7143 39.0707 45.2427 40.0139 44.2996C40.957 43.3565 41.4285 42.2212 41.4285 40.893V38.1138L48.1752 44.8605C48.3763 45.0724 48.6271 45.1786 48.9285 45.1786C49.0626 45.1786 49.2021 45.1507 49.3471 45.0951C49.7826 44.9053 50.0001 44.5762 50.0001 44.1074V25.8929C49.9999 25.424 49.7825 25.0948 49.347 24.905Z" fill="#E89570"/>
</g>
<defs>
<clipPath id="clip0_140_1596">
<rect width="29.9999" height="30" fill="white" transform="translate(20 20)"/>
</clipPath>
</defs>
</svg>
