<svg width="40" height="40" viewBox="0 0 40 40" fill="none" xmlns="http://www.w3.org/2000/svg">
<path d="M14.5007 6.66663V7.16663H15.0007H25.0007H25.5007V6.66663V3.33329V2.83329H25.0007H15.0007H14.5007V3.33329V6.66663ZM25.834 7.83329H14.1673C14.0789 7.83329 13.9941 7.79817 13.9316 7.73566C13.8691 7.67315 13.834 7.58837 13.834 7.49996V2.49996C13.834 2.41155 13.8691 2.32677 13.9316 2.26426C13.9941 2.20175 14.0789 2.16663 14.1673 2.16663H25.834C25.9224 2.16663 26.0072 2.20175 26.0697 2.26426C26.1322 2.32677 26.1673 2.41155 26.1673 2.49996V7.49996C26.1673 7.58837 26.1322 7.67315 26.0697 7.73566C26.0072 7.79817 25.9224 7.83329 25.834 7.83329Z" fill="#CBD5EA" stroke="#CBD5EA"/>
<path d="M27.167 21.3333H27.8337V25.3333H27.167V21.3333Z" fill="#CBD5EA" stroke="#CBD5EA"/>
<path d="M34.1673 24.6666L34.1679 24.6666C34.8494 24.6659 35.5246 24.5543 36.1673 24.3379V35.8327C36.1667 36.3631 35.9558 36.8717 35.5807 37.2467C35.2057 37.6217 34.6972 37.8327 34.1668 37.8333H5.83453C5.30413 37.8327 4.79562 37.6217 4.42057 37.2467C4.04559 36.8717 3.83463 36.3633 3.83398 35.833V24.3379C4.4767 24.5543 5.15186 24.6659 5.83343 24.6666H5.83398H9.50065V26.6666C9.50065 27.0202 9.64113 27.3594 9.89118 27.6094C10.1412 27.8595 10.4804 28 10.834 28H14.1673C14.5209 28 14.8601 27.8595 15.1101 27.6094C15.3602 27.3594 15.5007 27.0202 15.5007 26.6666V24.6666H24.5007V26.6666C24.5007 27.0202 24.6411 27.3594 24.8912 27.6094C25.1412 27.8595 25.4804 28 25.834 28H29.1673C29.5209 28 29.8601 27.8595 30.1101 27.6094C30.3602 27.3594 30.5007 27.0202 30.5007 26.6666V24.6666L34.1673 24.6666Z" fill="#CBD5EA" stroke="#CBD5EA"/>
<path d="M12.167 21.3333H12.8337V25.3333H12.167V21.3333Z" fill="#CBD5EA" stroke="#CBD5EA"/>
<path d="M2.50033 7.16663H37.5003C37.5887 7.16663 37.6735 7.20175 37.736 7.26426C37.7985 7.32677 37.8337 7.41155 37.8337 7.49996V18.3327C37.8325 19.305 37.4458 20.2371 36.7583 20.9246C36.0708 21.6121 35.1387 21.9988 34.1664 22H30.5003V20C30.5003 19.6463 30.3599 19.3072 30.1098 19.0571C29.8598 18.8071 29.5206 18.6666 29.167 18.6666H25.8337C25.48 18.6666 25.1409 18.8071 24.8909 19.0571C24.6408 19.3072 24.5003 19.6463 24.5003 20V22H15.5003V20C15.5003 19.6463 15.3599 19.3072 15.1098 19.0572C14.8598 18.8071 14.5206 18.6666 14.167 18.6666H10.8337C10.48 18.6666 10.1409 18.8071 9.89085 19.0571C9.6408 19.3072 9.50033 19.6463 9.50033 20V22H5.83425C4.86198 21.9988 3.92987 21.6121 3.24237 20.9246L2.88882 21.2781L3.24237 20.9246C2.55494 20.2372 2.16821 19.3052 2.16699 18.333V7.49996C2.16699 7.41155 2.20211 7.32677 2.26462 7.26426C2.32714 7.20174 2.41192 7.16663 2.50033 7.16663Z" fill="#CBD5EA" stroke="#CBD5EA"/>
</svg>
