<svg width="4" height="13" viewBox="0 0 4 13" fill="none" xmlns="http://www.w3.org/2000/svg">
<path d="M3.42723 0.884999L3.08223 8.04H0.577227L0.232227 0.884999H3.42723ZM1.83723 12.12C1.31723 12.12 0.897227 11.98 0.577227 11.7C0.267227 11.41 0.112227 11.045 0.112227 10.605C0.112227 10.165 0.267227 9.8 0.577227 9.51C0.897227 9.22 1.31723 9.075 1.83723 9.075C2.34723 9.075 2.75723 9.22 3.06723 9.51C3.38723 9.8 3.54723 10.165 3.54723 10.605C3.54723 11.035 3.38723 11.395 3.06723 11.685C2.75723 11.975 2.34723 12.12 1.83723 12.12Z" fill="#FE7A7A"/>
</svg>
