<svg width="80" height="80" viewBox="0 0 80 80" fill="none" xmlns="http://www.w3.org/2000/svg">
<g clip-path="url(#clip0_827_10335)">
<path d="M76.13 74.1233H3.86996C1.73271 74.1233 0 72.3906 0 70.2531V28.0033C0 25.8658 1.73271 24.1333 3.86996 24.1333H76.1299C78.2673 24.1333 79.9998 25.866 79.9998 28.0033V70.2531C80 72.3906 78.2673 74.1233 76.13 74.1233Z" fill="url(#paint0_linear_827_10335)"/>
<path d="M76.1299 74.1233H3.86981C2.55107 74.1233 1.38714 73.4632 0.688477 72.456L34.7465 40.5417C37.7015 37.7727 42.2984 37.7727 45.2533 40.5417L79.3112 72.456C78.6124 73.4632 77.4485 74.1233 76.1299 74.1233Z" fill="url(#paint1_linear_827_10335)"/>
<path d="M76.1299 24.1333H3.86981C2.55106 24.1333 1.38714 24.7934 0.688477 25.8006L49.0111 74.1233H76.1297C78.2671 74.1233 79.9997 72.3906 79.9997 70.2531V28.0033C79.9998 25.866 78.2671 24.1333 76.1299 24.1333Z" fill="url(#paint2_linear_827_10335)"/>
<path d="M76.1299 24.1333H3.86981C2.55107 24.1333 1.38714 24.7934 0.688477 25.8006L34.7465 60.54C37.7015 63.309 42.2984 63.309 45.2533 60.54L79.3112 25.8006C78.6124 24.7934 77.4485 24.1333 76.1299 24.1333Z" fill="url(#paint3_linear_827_10335)"/>
<path d="M0 61.0072V70.2533C0 72.3907 1.73271 74.1234 3.86996 74.1234H76.1299C78.2673 74.1234 79.9998 72.3907 79.9998 70.2533V61.0072H0Z" fill="url(#paint4_linear_827_10335)"/>
<path d="M79.9999 28.0041V70.2535C79.9999 72.39 78.2666 74.1233 76.1301 74.1233H63.1591L27.3003 38.2629C23.6203 34.8511 21.6299 29.9758 21.6299 24.5609C21.6299 24.4182 21.6315 24.2754 21.6346 24.1327H76.1301C78.2666 24.1327 79.9999 25.866 79.9999 28.0041Z" fill="url(#paint5_linear_827_10335)"/>
<path d="M39.9997 43.2452C50.3187 43.2452 58.6839 34.88 58.6839 24.5609C58.6839 14.2419 50.3187 5.87671 39.9997 5.87671C29.6806 5.87671 21.3154 14.2419 21.3154 24.5609C21.3154 34.88 29.6806 43.2452 39.9997 43.2452Z" fill="url(#paint6_linear_827_10335)"/>
<path d="M58.5907 26.4427L42.5091 10.3611C41.9747 9.64784 41.031 9.57458 39.9797 9.57458C38.2774 9.57458 37.2627 10.1741 37.2627 11.7934C37.2627 16.7343 37.844 23.8345 37.844 28.7754C37.844 29.4212 37.8127 29.8787 38.2618 30.1744L49.0163 40.9289C54.2607 38.0339 57.9658 32.6924 58.5907 26.4427Z" fill="url(#paint7_linear_827_10335)"/>
<path d="M48.839 41.0254L42.3441 34.5305C41.7607 33.8818 40.9273 33.624 40.0206 33.624C38.1936 33.624 36.9805 34.9203 36.9805 36.6642C36.9805 37.5939 37.2341 38.4595 37.9025 39.0557L41.9866 43.1398C44.4443 42.8802 46.7598 42.1442 48.839 41.0254Z" fill="url(#paint8_linear_827_10335)"/>
<path d="M43.176 36.6643C43.176 38.3667 41.7229 39.8614 40.0204 39.8614C38.1934 39.8614 36.8232 38.3667 36.8232 36.6643C36.8232 34.9204 38.1934 33.4671 40.0204 33.4671C41.7229 33.4671 43.176 34.9204 43.176 36.6643ZM42.3872 28.7753C42.3872 30.0625 40.9754 30.6023 39.9789 30.6023C38.6502 30.6023 37.5291 30.0625 37.5291 28.7753C37.5291 23.8345 36.9478 16.7342 36.9478 11.7934C36.9478 10.1741 38.2764 9.2605 39.9789 9.2605C41.5981 9.2605 42.9683 10.1739 42.9683 11.7934C42.9685 16.7342 42.3872 23.8343 42.3872 28.7753Z" fill="url(#paint9_linear_827_10335)"/>
</g>
<defs>
<linearGradient id="paint0_linear_827_10335" x1="40" y1="51.4812" x2="40" y2="69.6942" gradientUnits="userSpaceOnUse">
<stop stop-color="#FFDA2D"/>
<stop offset="1" stop-color="#FDBF00"/>
</linearGradient>
<linearGradient id="paint1_linear_827_10335" x1="39.9999" y1="48.6039" x2="39.9999" y2="65.5589" gradientUnits="userSpaceOnUse">
<stop stop-color="#FFDA2D"/>
<stop offset="1" stop-color="#FDBF00"/>
</linearGradient>
<linearGradient id="paint2_linear_827_10335" x1="65.7686" y1="58.0036" x2="51.3373" y2="39.9644" gradientUnits="userSpaceOnUse">
<stop stop-color="#FF9100" stop-opacity="0"/>
<stop offset="1" stop-color="#FF9100"/>
</linearGradient>
<linearGradient id="paint3_linear_827_10335" x1="39.2995" y1="24.1662" x2="50.2132" y2="49.6315" gradientUnits="userSpaceOnUse">
<stop stop-color="#FFDA2D"/>
<stop offset="1" stop-color="#FDBF00"/>
</linearGradient>
<linearGradient id="paint4_linear_827_10335" x1="40" y1="67.0107" x2="40" y2="81.442" gradientUnits="userSpaceOnUse">
<stop stop-color="#FF9100" stop-opacity="0"/>
<stop offset="1" stop-color="#FF9100"/>
</linearGradient>
<linearGradient id="paint5_linear_827_10335" x1="63.1028" y1="52.1906" x2="42.4395" y2="11.9595" gradientUnits="userSpaceOnUse">
<stop stop-color="#FF9100" stop-opacity="0"/>
<stop offset="1" stop-color="#FF9100"/>
</linearGradient>
<linearGradient id="paint6_linear_827_10335" x1="31.3093" y1="15.8706" x2="49.3184" y2="33.8797" gradientUnits="userSpaceOnUse">
<stop stop-color="#FF637B"/>
<stop offset="1" stop-color="#E63950"/>
</linearGradient>
<linearGradient id="paint7_linear_827_10335" x1="51.6771" y1="29.5489" x2="32.3876" y2="16.6372" gradientUnits="userSpaceOnUse">
<stop stop-color="#E63950" stop-opacity="0"/>
<stop offset="0.0467" stop-color="#E4354B" stop-opacity="0.047"/>
<stop offset="0.4669" stop-color="#D31822" stop-opacity="0.467"/>
<stop offset="0.7991" stop-color="#C90709" stop-opacity="0.799"/>
<stop offset="1" stop-color="#C50000"/>
</linearGradient>
<linearGradient id="paint8_linear_827_10335" x1="47.2238" y1="42.2863" x2="37.4296" y2="35.5236" gradientUnits="userSpaceOnUse">
<stop stop-color="#E63950" stop-opacity="0"/>
<stop offset="0.0467" stop-color="#E4354B" stop-opacity="0.047"/>
<stop offset="0.4669" stop-color="#D31822" stop-opacity="0.467"/>
<stop offset="0.7991" stop-color="#C90709" stop-opacity="0.799"/>
<stop offset="1" stop-color="#C50000"/>
</linearGradient>
<linearGradient id="paint9_linear_827_10335" x1="36.8234" y1="24.5609" x2="43.176" y2="24.5609" gradientUnits="userSpaceOnUse">
<stop stop-color="#EDF5FF"/>
<stop offset="1" stop-color="#D5E8FE"/>
</linearGradient>
<clipPath id="clip0_827_10335">
<rect width="80" height="80" fill="white"/>
</clipPath>
</defs>
</svg>
