<svg width="65" height="65" viewBox="0 0 65 65" fill="none" xmlns="http://www.w3.org/2000/svg">
<circle cx="32.5" cy="32.5" r="32.5" fill="#73CD9D"/>
<path d="M25.6804 40.319C23.6271 38.2414 22.1087 35.6964 21.2556 32.9026C20.4026 30.1089 20.2403 27.1498 20.7827 24.2795C20.8791 23.7072 21.1294 23.1718 21.5066 22.7306C21.8839 22.2895 22.374 21.9592 22.9244 21.775L26.4744 20.5833C26.6719 20.5164 26.8807 20.4893 27.0887 20.5034C27.2968 20.5175 27.5 20.5726 27.6866 20.6656C27.8733 20.7585 28.0397 20.8874 28.1763 21.0449C28.313 21.2024 28.4171 21.3854 28.4828 21.5833L29.9057 25.8845C29.998 26.1653 30.0106 26.4661 29.9421 26.7536C29.8735 27.041 29.7264 27.3038 29.5173 27.5125L26.7693 30.5198C26.7693 30.5198 25.6987 33.5735 29.0619 36.9375C32.4252 40.3015 35.4793 39.2305 35.4793 39.2305L38.4869 36.4822C38.6957 36.273 38.9585 36.1259 39.246 36.0573C39.5334 35.9887 39.8343 36.0014 40.115 36.0938L44.4162 37.517C44.6141 37.5827 44.797 37.6869 44.9546 37.8235C45.1121 37.9602 45.241 38.1266 45.3339 38.3133C45.4269 38.5 45.482 38.7032 45.4961 38.9112C45.5102 39.1193 45.483 39.328 45.4162 39.5255L44.2244 43.075C44.0402 43.6254 43.7099 44.1154 43.2688 44.4926C42.8277 44.8698 42.2924 45.1201 41.72 45.2165C38.8498 45.7591 35.8907 45.5969 33.0969 44.7439C30.3031 43.8908 27.7581 42.3724 25.6804 40.319ZM37.7528 28.246C37.9286 28.4218 38.1671 28.5206 38.4157 28.5206C38.6643 28.5206 38.9027 28.4218 39.0785 28.246L44.9119 22.4125C45.0775 22.2348 45.1677 21.9998 45.1634 21.7569C45.1591 21.514 45.0607 21.2823 44.889 21.1105C44.7172 20.9388 44.4855 20.8404 44.2426 20.8361C43.9997 20.8318 43.7646 20.9219 43.5869 21.0875L38.4157 26.2575L36.1619 24.004C35.9846 23.8358 35.7486 23.7435 35.5042 23.7468C35.2598 23.75 35.0264 23.8486 34.8536 24.0215C34.6808 24.1943 34.5824 24.4278 34.5793 24.6722C34.5762 24.9166 34.6686 25.1526 34.8369 25.3298L37.7528 28.246Z" fill="white"/>
</svg>
