<svg width="15" height="15" viewBox="0 0 15 15" fill="none" xmlns="http://www.w3.org/2000/svg">
<path d="M7.50004 9.81045C8.77542 9.81045 9.80932 8.77655 9.80932 7.50117C9.80932 6.22579 8.77542 5.19189 7.50004 5.19189C6.22466 5.19189 5.19077 6.22579 5.19077 7.50117C5.19077 8.77655 6.22466 9.81045 7.50004 9.81045Z" fill="#CBD5EA"/>
<path d="M14.7699 7.20981C12.9948 5.06478 10.3079 3 7.50003 3C4.69166 3 2.00403 5.06623 0.230134 7.20981C-0.0767113 7.58045 -0.0767113 8.11851 0.230134 8.48915C0.676113 9.02808 1.61108 10.0684 2.85982 10.9774C6.00474 13.2668 8.98839 13.2719 12.1402 10.9774C13.389 10.0684 14.3239 9.02808 14.7699 8.48915C15.0759 8.11924 15.0775 7.58166 14.7699 7.20981ZM7.50003 4.61649C9.28279 4.61649 10.733 6.06672 10.733 7.84948C10.733 9.63225 9.28279 11.0825 7.50003 11.0825C5.71727 11.0825 4.26704 9.63225 4.26704 7.84948C4.26704 6.06672 5.71727 4.61649 7.50003 4.61649Z" fill="#CBD5EA"/>
</svg>
