<svg width="30" height="30" viewBox="0 0 30 30" fill="none" xmlns="http://www.w3.org/2000/svg">
<path d="M15 0C6.70951 0 0 6.70875 0 15C0 23.2904 6.70875 30 15 30C23.2905 30 30 23.2912 30 15C30 6.70963 23.2912 0 15 0ZM15 27.907C7.88309 27.907 2.09303 22.117 2.09303 15C2.09303 7.88303 7.88309 2.09303 15 2.09303C22.1169 2.09303 27.907 7.88303 27.907 15C27.907 22.117 22.1169 27.907 15 27.907Z" fill="#D83C56"/>
<path d="M15.0008 12.5038C14.1123 12.5038 13.4805 12.879 13.4805 13.4318V20.9545C13.4805 21.4284 14.1123 21.9022 15.0008 21.9022C15.8498 21.9022 16.5408 21.4284 16.5408 20.9545V13.4317C16.5408 12.879 15.8498 12.5038 15.0008 12.5038Z" fill="#D83C56"/>
<path d="M15.0018 7.86377C14.0936 7.86377 13.3828 8.51533 13.3828 9.26563C13.3828 10.016 14.0936 10.6873 15.0018 10.6873C15.8903 10.6873 16.6012 10.016 16.6012 9.26563C16.6012 8.51533 15.8903 7.86377 15.0018 7.86377Z" fill="#D83C56"/>
</svg>
