<svg width="40" height="40" viewBox="0 0 40 40" fill="none" xmlns="http://www.w3.org/2000/svg">
<g clip-path="url(#clip0_158_3108)">
<path d="M2.35352 34.3691V37.6489C2.35352 38.296 2.8782 38.8207 3.52539 38.8207H7.06055V30.8503L3.36805 33.8043C3.06258 34.0487 2.71859 34.2387 2.35352 34.3691Z" fill="#CBD5EA"/>
<path d="M32.9395 30.8503V38.8208H36.4746C37.1218 38.8208 37.6465 38.2961 37.6465 37.6489V34.3692C37.2813 34.2388 36.9373 34.0487 36.6319 33.8044L32.9395 30.8503Z" fill="#CBD5EA"/>
<path d="M0.256886 31.7911C0.488292 32.0804 0.828917 32.2311 1.17267 32.2311C1.42946 32.2311 1.6879 32.1471 1.904 31.9742L7.06056 27.8489V24.8474L0.439855 30.144C-0.0655359 30.5483 -0.147489 31.2858 0.256886 31.7911Z" fill="#CBD5EA"/>
<path d="M39.5602 30.144L32.9395 24.8474V27.8489L38.096 31.9742C38.3121 32.1471 38.5705 32.2311 38.8273 32.2311C39.171 32.2311 39.5117 32.0804 39.7431 31.7911C40.1476 31.2858 40.0656 30.5483 39.5602 30.144Z" fill="#CBD5EA"/>
<path d="M20 22.356C20.6526 22.356 21.1816 21.8269 21.1816 21.1743C21.1816 20.5217 20.6526 19.9927 20 19.9927C19.3474 19.9927 18.8184 20.5217 18.8184 21.1743C18.8184 21.8269 19.3474 22.356 20 22.356Z" fill="#CBD5EA"/>
<path d="M21.1719 29.6072V38.8256H23.5352V32.9419C23.5352 31.4032 22.5467 30.0918 21.1719 29.6072Z" fill="#CBD5EA"/>
<path d="M9.4043 22.3855V38.8257H14.1211V32.9419C14.1211 29.7003 16.7584 27.063 20 27.063C23.2416 27.063 25.8789 29.7003 25.8789 32.9419V38.8257H30.5957V22.3855L20 13.909L9.4043 22.3855ZM23.5254 21.1744C23.5254 23.1183 21.9439 24.6997 20 24.6997C18.0561 24.6997 16.4746 23.1183 16.4746 21.1744C16.4746 19.2305 18.0561 17.649 20 17.649C21.9439 17.649 23.5254 19.2305 23.5254 21.1744Z" fill="#CBD5EA"/>
<path d="M16.4648 32.9419V38.8256H18.8281V29.6072C17.4532 30.0918 16.4648 31.4032 16.4648 32.9419Z" fill="#CBD5EA"/>
<path d="M6.02314 22.0895L20.0006 10.9075L33.978 22.0895C34.1941 22.2623 34.4526 22.3463 34.7093 22.3463C35.0531 22.3463 35.3937 22.1957 35.6252 21.9064C36.0295 21.401 35.9475 20.6636 35.4422 20.2593L32.5003 17.9058L21.1724 8.84352V5.87164H22.3541C23.0013 5.87164 23.5259 5.34696 23.5259 4.69977C23.5259 4.05258 23.0013 3.52789 22.3541 3.52789H21.1724V2.34625C21.1724 1.69906 20.6477 1.17438 20.0006 1.17438C19.3534 1.17438 18.8287 1.69906 18.8287 2.34625V3.52789H17.647C16.9999 3.52789 16.4752 4.05258 16.4752 4.69977C16.4752 5.34696 16.9999 5.87164 17.647 5.87164H18.8287V8.8436L7.50087 17.9058L4.559 20.2593C4.0536 20.6636 3.97165 21.401 4.37603 21.9064C4.78032 22.412 5.51775 22.4939 6.02314 22.0895Z" fill="#CBD5EA"/>
</g>
<defs>
<clipPath id="clip0_158_3108">
<rect width="40" height="40" fill="white"/>
</clipPath>
</defs>
</svg>
