<svg width="70" height="70" viewBox="0 0 70 70" fill="none" xmlns="http://www.w3.org/2000/svg">
<circle cx="35" cy="35" r="35" fill="#F5F6F8"/>
<path d="M46.25 22.875H23.75C22.1994 22.875 20.9375 24.1369 20.9375 25.6875V40.6875C20.9375 42.2381 22.1994 43.5 23.75 43.5H26.5625V48.1875C26.5625 48.5484 26.7697 48.8756 27.0931 49.0322C27.2234 49.0941 27.3622 49.125 27.5 49.125C27.7091 49.125 27.9163 49.0556 28.0859 48.9197L34.8603 43.5H46.25C47.8006 43.5 49.0625 42.2381 49.0625 40.6875V25.6875C49.0625 24.1369 47.8006 22.875 46.25 22.875ZM35 36H27.5C26.9816 36 26.5625 35.58 26.5625 35.0625C26.5625 34.545 26.9816 34.125 27.5 34.125H35C35.5184 34.125 35.9375 34.545 35.9375 35.0625C35.9375 35.58 35.5184 36 35 36ZM42.5 32.25H27.5C26.9816 32.25 26.5625 31.83 26.5625 31.3125C26.5625 30.795 26.9816 30.375 27.5 30.375H42.5C43.0184 30.375 43.4375 30.795 43.4375 31.3125C43.4375 31.83 43.0184 32.25 42.5 32.25Z" fill="#E89570"/>
</svg>
