<svg width="13" height="13" viewBox="0 0 13 13" fill="none" xmlns="http://www.w3.org/2000/svg">
<g clip-path="url(#clip0_1101_489)">
<path d="M6.50079 0.666626C4.83411 0.666626 3.47168 2.02905 3.47168 3.69573C3.47168 5.36241 4.83411 6.72484 6.50079 6.72484C8.16746 6.72484 9.52989 5.36241 9.52989 3.69573C9.52989 2.02905 8.16746 0.666626 6.50079 0.666626Z" fill="white"/>
<path d="M11.6991 9.14547C11.6197 8.94705 11.5139 8.76187 11.3949 8.58991C10.7864 7.69043 9.84725 7.0952 8.78905 6.94969C8.65679 6.93648 8.51128 6.96291 8.40545 7.04228C7.84989 7.45234 7.18853 7.66397 6.50068 7.66397C5.81283 7.66397 5.15147 7.45234 4.59591 7.04228C4.49008 6.96291 4.34457 6.92323 4.21231 6.94969C3.15411 7.0952 2.20174 7.69043 1.6065 8.58991C1.48746 8.76187 1.38163 8.96029 1.30228 9.14547C1.2626 9.22485 1.27582 9.31743 1.31549 9.39681C1.42132 9.58198 1.55359 9.76719 1.67263 9.92591C1.85781 10.1772 2.05623 10.4021 2.28111 10.6137C2.46629 10.7989 2.67792 10.9709 2.88958 11.1428C3.93454 11.9233 5.19117 12.3333 6.48746 12.3333C7.78376 12.3333 9.04038 11.9232 10.0853 11.1428C10.297 10.9841 10.5086 10.7989 10.6938 10.6137C10.9055 10.4021 11.1171 10.1772 11.3023 9.92591C11.4346 9.75395 11.5536 9.58198 11.6594 9.39681C11.7255 9.31743 11.7388 9.22482 11.6991 9.14547Z" fill="white"/>
</g>
<defs>
<clipPath id="clip0_1101_489">
<rect width="11.6667" height="11.6667" fill="white" transform="translate(0.666504 0.666626)"/>
</clipPath>
</defs>
</svg>
