<svg width="18" height="18" viewBox="0 0 18 18" fill="none" xmlns="http://www.w3.org/2000/svg">
<path d="M8.99998 0C4.02943 0 0 4.02943 0 8.99998C0 13.9705 4.02943 18 8.99998 18C13.9705 18 18 13.9705 18 8.99998C17.9947 4.03165 13.9683 0.0053111 8.99998 0ZM4.00118 3.11652C5.3971 1.93185 7.16916 1.28284 8.99998 1.28574C10.8233 1.28517 12.5873 1.9335 13.9763 3.11468L3.11208 13.9789C0.358029 10.7338 0.756097 5.87057 4.00118 3.11652ZM13.9988 14.8835C12.6029 16.0682 10.8308 16.7172 9.00002 16.7143C7.17669 16.7148 5.41269 16.0665 4.02367 14.8853L14.888 4.02103C17.642 7.26615 17.2439 12.1294 13.9988 14.8835Z" fill="#363636"/>
</svg>
