<svg width="21" height="20" viewBox="0 0 21 20" fill="none" xmlns="http://www.w3.org/2000/svg">
<path d="M3 5.625H5.5C5.5 6.31437 6.06063 6.875 6.75 6.875H8C8.68937 6.875 9.25 6.31437 9.25 5.625H18C18.345 5.625 18.625 5.34562 18.625 5C18.625 4.65438 18.345 4.375 18 4.375H9.25C9.25 3.68562 8.68937 3.125 8 3.125H6.75C6.06063 3.125 5.5 3.68562 5.5 4.375H3C2.655 4.375 2.375 4.65438 2.375 5C2.375 5.34562 2.655 5.625 3 5.625Z" fill="#878787"/>
<path d="M18 9.375H14.25C14.25 8.68562 13.6894 8.125 13 8.125H11.75C11.0606 8.125 10.5 8.68562 10.5 9.375H3C2.655 9.375 2.375 9.65438 2.375 10C2.375 10.3456 2.655 10.625 3 10.625H10.5C10.5 11.3144 11.0606 11.875 11.75 11.875H13C13.6894 11.875 14.25 11.3144 14.25 10.625H18C18.345 10.625 18.625 10.3456 18.625 10C18.625 9.65438 18.345 9.375 18 9.375Z" fill="#878787"/>
<path d="M18 14.375H9.25C9.25 13.6856 8.68937 13.125 8 13.125H6.75C6.06063 13.125 5.5 13.6856 5.5 14.375H3C2.655 14.375 2.375 14.6544 2.375 15C2.375 15.3456 2.655 15.625 3 15.625H5.5C5.5 16.3144 6.06063 16.875 6.75 16.875H8C8.68937 16.875 9.25 16.3144 9.25 15.625H18C18.345 15.625 18.625 15.3456 18.625 15C18.625 14.6544 18.345 14.375 18 14.375Z" fill="#878787"/>
</svg>
