<svg width="140" height="140" viewBox="0 0 140 140" fill="none" xmlns="http://www.w3.org/2000/svg">
<path d="M103.026 108.089C102.551 108.562 101.976 108.919 101.305 109.164L100.627 109.367C100.627 109.367 9.31053 146.211 2.21006 139.085C-4.89041 131.958 32.2859 40.7765 32.2859 40.7765L32.4918 40.1001C32.7388 39.4297 33.0982 38.8557 33.5731 38.3825C39.2535 32.7226 59.4075 43.7376 78.5861 62.9862C97.7647 82.2348 108.706 102.429 103.026 108.089Z" fill="url(#paint0_linear_788_11821)"/>
<path d="M97.3445 110.676C92.5387 112.582 82.916 116.354 71.5535 120.576C64.604 123.16 57.0031 125.911 49.4555 128.505C42.8598 130.771 36.3037 132.921 30.2626 134.733C26.112 131.245 21.9872 127.461 17.9461 123.406C13.9051 119.35 10.1372 115.211 6.66406 111.048C8.49751 105.014 10.6714 98.4651 12.9621 91.8779C15.5829 84.3396 18.3623 76.7489 20.971 69.809C25.2346 58.4618 29.0418 48.8532 30.9648 44.0542C43.2172 50.6984 56.31 60.5245 68.6382 72.8978C80.9667 85.2713 90.745 98.3997 97.3445 110.676Z" fill="url(#paint1_linear_788_11821)"/>
<path d="M103.024 108.088C102.55 108.563 101.974 108.918 101.303 109.164L100.626 109.366C100.626 109.366 99.4458 109.842 97.3436 110.676C92.5378 112.582 82.9151 116.354 71.5526 120.576C64.6031 123.159 57.0022 125.911 49.4545 128.504C42.8943 123.557 36.319 117.841 29.9479 111.446C23.5768 105.052 17.8851 98.4557 12.9609 91.8776C15.5817 84.3393 18.3611 76.7485 20.9698 69.8087C25.2334 58.4615 29.0406 48.8529 30.9636 44.0539C31.8049 41.9547 32.2856 40.776 32.2856 40.776L32.4898 40.1001C32.7388 39.43 33.096 38.8547 33.5725 38.3825C39.2532 32.7224 59.4053 43.7382 78.5853 62.9852C97.7628 82.2357 108.705 102.428 103.024 108.088Z" fill="url(#paint2_linear_788_11821)"/>
<path d="M103.023 108.088C102.549 108.563 101.972 108.918 101.302 109.164L100.625 109.366C100.625 109.366 99.4445 109.842 97.3423 110.676C92.5365 112.582 82.9138 116.354 71.5513 120.576C62.3028 114.485 52.8289 106.766 43.7695 97.6739C34.7102 88.5813 27.0258 79.0794 20.9688 69.8089C25.2324 58.4618 29.0396 48.8531 30.9626 44.0541C31.8039 41.955 32.2846 40.7762 32.2846 40.7762L32.4888 40.1004C32.7378 39.4303 33.0949 38.8549 33.5715 38.3828C39.2522 32.7226 59.4042 43.7384 78.5842 62.9854C97.7615 82.2357 108.704 102.428 103.023 108.088Z" fill="url(#paint3_linear_788_11821)"/>
<path d="M103.024 108.09C97.3429 113.75 77.1892 102.736 58.0106 83.4866C38.8319 64.2377 27.89 44.0445 33.5715 38.3833C39.253 32.7221 59.4067 43.7373 78.5853 62.9862C97.764 82.2351 108.706 102.429 103.024 108.09Z" fill="url(#paint4_linear_788_11821)"/>
<path d="M99.4847 102.901C95.2875 107.083 78.2885 96.8273 61.5167 79.9943C44.745 63.1614 34.5514 46.1253 38.7486 41.9431C42.9459 37.761 59.9449 48.0167 76.7166 64.8496C93.4883 81.6826 103.682 98.7186 99.4847 102.901Z" fill="url(#paint5_linear_788_11821)"/>
<path d="M103.024 108.089C108.705 102.429 97.7633 82.2352 78.5844 62.9865C67.3386 51.6998 55.7589 43.2463 46.957 39.3232C47.3007 39.9557 47.6842 40.5827 48.1127 41.2009C48.8092 42.2056 49.6244 43.1214 50.5424 43.9471L55.4125 48.8509C54.8511 49.1057 54.3353 49.3072 53.9016 49.4601C53.125 49.7338 52.6704 50.537 52.8329 51.344L54.5563 59.9043C54.7086 60.6612 55.2395 61.236 55.903 61.4872L102.659 108.413C102.786 108.312 102.908 108.204 103.024 108.089Z" fill="url(#paint6_linear_788_11821)"/>
<path d="M71.9357 81.4926L76.7182 87.2098L98.9966 109.569C100.699 109.521 102.068 109.043 103.024 108.09C107.989 103.143 100.259 87.0989 85.4326 70.2852C80.8123 72.2147 76.4078 74.7405 72.3404 77.846C71.1913 78.7228 71.0082 80.3838 71.9357 81.4926Z" fill="url(#paint7_linear_788_11821)"/>
<path d="M76.7183 87.2098L71.9357 81.4926C71.0082 80.3838 71.1913 78.7231 72.3401 77.8457C87.1617 66.5299 106.441 62.8545 124.446 68.0331C128.978 69.3362 133.317 71.1636 137.379 73.4769C138.635 74.1925 139.038 75.8152 138.266 77.0378L134.287 83.3409C133.566 84.4836 132.078 84.857 130.899 84.1965C127.781 82.4501 124.457 81.0641 120.986 80.066C106.905 76.0161 91.8341 78.8419 80.1897 87.607C79.1103 88.4193 77.5849 88.2458 76.7183 87.2098Z" fill="url(#paint8_linear_788_11821)"/>
<path d="M35.3913 27.855L31.0489 23.3868C29.0806 21.3615 28.488 18.1014 29.6373 15.6226C30.9717 12.7444 34.1742 11.9008 36.7535 13.748C38.9751 15.339 40.0654 18.4679 39.3503 21.2001L37.773 27.2278C37.4944 28.2929 36.1589 28.6448 35.3913 27.855Z" fill="url(#paint9_linear_788_11821)"/>
<path d="M27.7129 32.7073L21.5469 31.8113C18.7521 31.4053 16.2952 29.1818 15.6957 26.516C14.9995 23.4206 17.0243 20.8002 20.1949 20.6928C22.9257 20.6003 25.6972 22.4162 26.7955 25.0183L29.2186 30.7586C29.6471 31.7729 28.8024 32.8657 27.7129 32.7073Z" fill="url(#paint10_linear_788_11821)"/>
<path d="M110.269 104.382L116.474 103.82C119.287 103.566 122.193 105.157 123.396 107.611C124.792 110.459 123.432 113.479 120.373 114.32C117.738 115.045 114.621 113.923 112.948 111.648L109.257 106.628C108.605 105.74 109.172 104.481 110.269 104.382Z" fill="url(#paint11_linear_788_11821)"/>
<path d="M111.33 95.3593L115.908 91.1321C117.982 89.216 121.257 88.7068 123.705 89.9188C126.549 91.3262 127.311 94.5489 125.398 97.0804C123.751 99.2609 120.595 100.271 117.882 99.4868L111.897 97.7563C110.839 97.4505 110.522 96.1062 111.33 95.3593Z" fill="url(#paint12_linear_788_11821)"/>
<path d="M57.3073 61.5243C56.0931 61.9157 54.8101 61.1553 54.5583 59.9047L52.835 51.3444C52.6724 50.537 53.127 49.7341 53.9036 49.4604C54.8112 49.1406 56.0723 48.6144 57.3759 47.8128C53.4386 46.513 50.2348 44.2593 48.115 41.2012C44.1187 35.4357 43.8055 28.9369 47.2767 23.8171C50.7116 18.7507 57.0586 16.279 63.0717 17.6672C69.6454 19.1847 74.2629 24.9365 75.4235 33.0538C75.4719 33.3917 75.5147 33.728 75.5517 34.0629C77.1645 33.118 78.4676 31.9524 79.2837 30.6477C81.3497 27.3456 81.5457 22.4176 79.7839 18.0933C78.6655 15.3487 76.9391 13.2498 74.992 12.194C74.1235 11.7233 73.6606 10.7463 73.8934 9.78632L75.8677 1.64518C76.1702 0.398359 77.4983 -0.31921 78.6965 0.139771C84.2221 2.25597 88.7686 6.96244 91.3789 13.3684C94.6593 21.4192 94.0921 30.5846 89.8985 37.2881C86.5805 42.5916 80.4611 46.5476 73.3853 48.2199C71.7959 51.5431 69.4173 54.4625 66.2975 56.8543C62.966 59.4078 59.5146 60.8127 57.3073 61.5243ZM59.7614 29.8121C58.9425 29.8107 58.0633 30.2184 57.64 30.8431C57.0075 31.7759 57.8481 33.2646 58.4053 34.0686C59.1695 35.1713 60.9489 35.994 63.1903 36.3624C63.1579 35.8634 63.1041 35.3514 63.0289 34.826C62.6289 32.0293 61.5921 30.1755 60.2552 29.867C60.0963 29.8302 59.9302 29.8124 59.7614 29.8121Z" fill="url(#paint13_radial_788_11821)"/>
<path d="M84.5243 43.0697L75.5495 34.0623C75.5495 34.0623 76.1227 42.7598 73.3828 48.2196C77.5556 47.2335 81.3952 45.4525 84.5243 43.0697Z" fill="url(#paint14_linear_788_11821)"/>
<path d="M58.4043 34.0685C57.9961 33.4794 57.4383 32.5239 57.4163 31.6877L44.8789 31.6649C44.8984 34.8385 45.9813 38.1241 48.114 41.2011C50.2338 44.2594 53.4373 46.5132 57.3749 47.8127C57.3749 47.8127 63.8006 45.8634 63.1895 36.3623C60.9479 35.9939 59.1685 35.1712 58.4043 34.0685Z" fill="url(#paint15_linear_788_11821)"/>
<path d="M84.9915 62.5825C82.0812 64.479 79.5977 66.9774 77.7173 69.8998C77.2943 70.557 76.3184 70.5553 75.8979 69.8965C74.0279 66.9672 71.554 64.4598 68.6503 62.5525C68.0057 62.1292 68.0076 61.1665 68.6535 60.7457C71.5639 58.8491 74.0471 56.3508 75.9278 53.4284C76.3505 52.7712 77.3267 52.7728 77.7472 53.4317C79.6172 56.361 82.0913 58.8683 84.9948 60.7756C85.6394 61.1989 85.6375 62.1616 84.9915 62.5825Z" fill="url(#paint16_linear_788_11821)"/>
<path d="M138.206 58.7558C135.296 60.6524 132.813 63.1507 130.932 66.0731C130.509 66.7303 129.533 66.7287 129.113 66.0698C127.243 63.1405 124.769 60.6332 121.865 58.7259C121.221 58.3026 121.222 57.3399 121.868 56.9191C124.779 55.0225 127.262 52.5242 129.143 49.6017C129.565 48.9445 130.542 48.9462 130.962 49.605C132.832 52.5343 135.306 55.0417 138.21 56.949C138.854 57.372 138.852 58.3347 138.206 58.7558Z" fill="url(#paint17_linear_788_11821)"/>
<path d="M113.285 16.2521C110.374 18.1487 107.891 20.647 106.01 23.5695C105.587 24.2266 104.611 24.225 104.191 23.5662C102.321 20.6369 99.847 18.1295 96.9432 16.2222C96.2987 15.7989 96.3006 14.8362 96.9465 14.4154C99.8569 12.5188 102.34 10.0205 104.221 7.09806C104.643 6.44088 105.62 6.44253 106.04 7.10135C107.91 10.0306 110.384 12.538 113.288 14.4453C113.932 14.8686 113.93 15.8313 113.285 16.2521Z" fill="url(#paint18_linear_788_11821)"/>
<path d="M110.588 45.5615C108.466 46.9442 106.656 48.7653 105.285 50.8955C104.977 51.3745 104.265 51.3732 103.959 50.893C102.596 48.7576 100.793 46.9299 98.6758 45.5396C98.2061 45.231 98.2072 44.5294 98.6782 44.2225C100.8 42.8397 102.61 41.0186 103.981 38.8885C104.289 38.4094 105.001 38.4105 105.307 38.8909C106.67 41.0263 108.474 42.854 110.59 44.2444C111.06 44.553 111.059 45.2546 110.588 45.5615Z" fill="url(#paint19_linear_788_11821)"/>
<path d="M119.228 29.0939C117.107 30.4766 115.297 32.2977 113.926 34.4279C113.617 34.9069 112.906 34.9055 112.6 34.4254C111.237 32.29 109.433 30.4623 107.316 29.0719C106.847 28.7634 106.848 28.0617 107.319 27.7548C109.441 26.3721 111.251 24.551 112.622 22.4208C112.93 21.9418 113.641 21.9429 113.948 22.4233C115.311 24.5587 117.114 26.3864 119.231 27.7768C119.701 28.0853 119.699 28.787 119.228 29.0939Z" fill="url(#paint20_linear_788_11821)"/>
<defs>
<linearGradient id="paint0_linear_788_11821" x1="19.35" y1="68.4849" x2="59.9847" y2="126.963" gradientUnits="userSpaceOnUse">
<stop stop-color="#FFE548"/>
<stop offset="0.1758" stop-color="#FFDE50"/>
<stop offset="0.4446" stop-color="#FFCA65"/>
<stop offset="0.7709" stop-color="#FFAA87"/>
<stop offset="1" stop-color="#FF90A4"/>
</linearGradient>
<linearGradient id="paint1_linear_788_11821" x1="51.0026" y1="114.328" x2="43.157" y2="141.951" gradientUnits="userSpaceOnUse">
<stop stop-color="#FBA5C2" stop-opacity="0"/>
<stop offset="0.3857" stop-color="#FCA0BA" stop-opacity="0.386"/>
<stop offset="0.9737" stop-color="#FF91A5" stop-opacity="0.974"/>
<stop offset="1" stop-color="#FF90A4"/>
</linearGradient>
<linearGradient id="paint2_linear_788_11821" x1="58.8834" y1="97.8535" x2="49.1682" y2="132.706" gradientUnits="userSpaceOnUse">
<stop stop-color="#FBA5C2" stop-opacity="0"/>
<stop offset="0.3857" stop-color="#FCA0BA" stop-opacity="0.386"/>
<stop offset="0.9737" stop-color="#FF91A5" stop-opacity="0.974"/>
<stop offset="1" stop-color="#FF90A4"/>
</linearGradient>
<linearGradient id="paint3_linear_788_11821" x1="65.3334" y1="78.9246" x2="53.1972" y2="118.595" gradientUnits="userSpaceOnUse">
<stop stop-color="#FBA5C2" stop-opacity="0"/>
<stop offset="0.3857" stop-color="#FCA0BA" stop-opacity="0.386"/>
<stop offset="0.9737" stop-color="#FF91A5" stop-opacity="0.974"/>
<stop offset="1" stop-color="#FF90A4"/>
</linearGradient>
<linearGradient id="paint4_linear_788_11821" x1="72.2393" y1="64.3561" x2="59.3827" y2="93.2671" gradientUnits="userSpaceOnUse">
<stop stop-color="#FFE548"/>
<stop offset="0.1758" stop-color="#FFDE50"/>
<stop offset="0.4446" stop-color="#FFCA65"/>
<stop offset="0.7709" stop-color="#FFAA87"/>
<stop offset="1" stop-color="#FF90A4"/>
</linearGradient>
<linearGradient id="paint5_linear_788_11821" x1="60.1148" y1="86.2032" x2="78.2557" y2="58.4162" gradientUnits="userSpaceOnUse">
<stop stop-color="#FFD00D" stop-opacity="0"/>
<stop offset="1" stop-color="#DB722B"/>
</linearGradient>
<linearGradient id="paint6_linear_788_11821" x1="76.9184" y1="74.0181" x2="65.5804" y2="39.216" gradientUnits="userSpaceOnUse">
<stop stop-color="#FFD00D" stop-opacity="0"/>
<stop offset="1" stop-color="#DB722B"/>
</linearGradient>
<linearGradient id="paint7_linear_788_11821" x1="90.3941" y1="93.2155" x2="81.2424" y2="78.1723" gradientUnits="userSpaceOnUse">
<stop stop-color="#A34A9E" stop-opacity="0"/>
<stop offset="1" stop-color="#343168"/>
</linearGradient>
<linearGradient id="paint8_linear_788_11821" x1="104.802" y1="88.5124" x2="105.219" y2="65.5778" gradientUnits="userSpaceOnUse">
<stop stop-color="#A34A9E"/>
<stop offset="1" stop-color="#343168"/>
</linearGradient>
<linearGradient id="paint9_linear_788_11821" x1="33.1769" y1="19.5464" x2="38.2185" y2="21.7402" gradientUnits="userSpaceOnUse">
<stop stop-color="#3FA9F5"/>
<stop offset="1" stop-color="#666AD6"/>
</linearGradient>
<linearGradient id="paint10_linear_788_11821" x1="21.0112" y1="27.4194" x2="26.3425" y2="26.0875" gradientUnits="userSpaceOnUse">
<stop stop-color="#A34A9E"/>
<stop offset="1" stop-color="#343168"/>
</linearGradient>
<linearGradient id="paint11_linear_788_11821" x1="117.623" y1="108.009" x2="104.438" y2="115.959" gradientUnits="userSpaceOnUse">
<stop stop-color="#FF4974"/>
<stop offset="0.4497" stop-color="#FE4773"/>
<stop offset="0.6292" stop-color="#FC406D"/>
<stop offset="0.7605" stop-color="#F73464"/>
<stop offset="0.8683" stop-color="#F12257"/>
<stop offset="0.9606" stop-color="#E80C46"/>
<stop offset="1" stop-color="#E4003D"/>
</linearGradient>
<linearGradient id="paint12_linear_788_11821" x1="119.996" y1="91.6711" x2="113.84" y2="109.28" gradientUnits="userSpaceOnUse">
<stop stop-color="#C4F8B6"/>
<stop offset="1" stop-color="#3B8EAC"/>
</linearGradient>
<radialGradient id="paint13_radial_788_11821" cx="0" cy="0" r="1" gradientUnits="userSpaceOnUse" gradientTransform="translate(46.7947 10.2398) rotate(0.114591) scale(55.1102 55.1102)">
<stop stop-color="#FF4974"/>
<stop offset="0.4497" stop-color="#FE4773"/>
<stop offset="0.6292" stop-color="#FC406D"/>
<stop offset="0.7605" stop-color="#F73464"/>
<stop offset="0.8683" stop-color="#F12257"/>
<stop offset="0.9606" stop-color="#E80C46"/>
<stop offset="1" stop-color="#E4003D"/>
</radialGradient>
<linearGradient id="paint14_linear_788_11821" x1="86.0395" y1="49.5313" x2="66.1744" y2="35.1624" gradientUnits="userSpaceOnUse">
<stop stop-color="#E4003D" stop-opacity="0"/>
<stop offset="0.3434" stop-color="#CD0E2D" stop-opacity="0.343"/>
<stop offset="1" stop-color="#972E07"/>
</linearGradient>
<linearGradient id="paint15_linear_788_11821" x1="55.8922" y1="39.2704" x2="61.4467" y2="44.4289" gradientUnits="userSpaceOnUse">
<stop stop-color="#E4003D" stop-opacity="0"/>
<stop offset="0.3434" stop-color="#CD0E2D" stop-opacity="0.343"/>
<stop offset="1" stop-color="#972E07"/>
</linearGradient>
<linearGradient id="paint16_linear_788_11821" x1="73.9904" y1="57.9012" x2="83.1477" y2="70.1619" gradientUnits="userSpaceOnUse">
<stop stop-color="#3FA9F5"/>
<stop offset="1" stop-color="#666AD6"/>
</linearGradient>
<linearGradient id="paint17_linear_788_11821" x1="127.206" y1="54.0838" x2="136.363" y2="66.3444" gradientUnits="userSpaceOnUse">
<stop stop-color="#3FA9F5"/>
<stop offset="1" stop-color="#666AD6"/>
</linearGradient>
<linearGradient id="paint18_linear_788_11821" x1="102.292" y1="11.5759" x2="111.449" y2="23.8366" gradientUnits="userSpaceOnUse">
<stop stop-color="#A34A9E"/>
<stop offset="1" stop-color="#343168"/>
</linearGradient>
<linearGradient id="paint19_linear_788_11821" x1="102.569" y1="42.1578" x2="109.244" y2="51.0955" gradientUnits="userSpaceOnUse">
<stop stop-color="#C4F8B6"/>
<stop offset="1" stop-color="#3B8EAC"/>
</linearGradient>
<linearGradient id="paint20_linear_788_11821" x1="111.212" y1="25.6914" x2="117.887" y2="34.6291" gradientUnits="userSpaceOnUse">
<stop stop-color="#FFE548"/>
<stop offset="0.1758" stop-color="#FFDE50"/>
<stop offset="0.4446" stop-color="#FFCA65"/>
<stop offset="0.7709" stop-color="#FFAA87"/>
<stop offset="1" stop-color="#FF90A4"/>
</linearGradient>
</defs>
</svg>
