<svg width="45" height="45" viewBox="0 0 45 45" fill="none" xmlns="http://www.w3.org/2000/svg">
<rect width="45" height="45" rx="10" fill="#E89570"/>
<g clip-path="url(#clip0_304_3858)">
<path d="M32.5647 15.27C32.468 15.2328 32.375 15.2142 32.2857 15.2142C32.0847 15.2142 31.9175 15.285 31.7834 15.4263L27.2856 19.913V18.0715C27.2856 17.186 26.9713 16.429 26.3425 15.8002C25.7137 15.1715 24.9569 14.8572 24.0713 14.8572H16.2142C15.3289 14.8572 14.5718 15.1715 13.943 15.8002C13.3144 16.429 13 17.186 13 18.0715V25.9287C13 26.8141 13.3144 27.571 13.943 28.1998C14.5718 28.8285 15.3289 29.1429 16.2143 29.1429H24.0713C24.9569 29.1429 25.7138 28.8285 26.3426 28.1998C26.9713 27.571 27.2857 26.8142 27.2857 25.9287V24.0759L31.7835 28.5737C31.9176 28.715 32.0848 28.7858 32.2857 28.7858C32.3751 28.7858 32.4681 28.7671 32.5648 28.7301C32.8551 28.6035 33.0001 28.3841 33.0001 28.0716V15.9286C33 15.616 32.855 15.3965 32.5647 15.27Z" fill="white"/>
</g>
<defs>
<clipPath id="clip0_304_3858">
<rect width="20" height="20" fill="white" transform="translate(13 12)"/>
</clipPath>
</defs>
</svg>
