<svg width="16" height="15" viewBox="0 0 16 15" fill="none" xmlns="http://www.w3.org/2000/svg">
<path d="M15.4771 13.6152L12.494 10.6688C13.5085 9.28744 13.9508 7.57568 13.7306 5.88312C13.5103 4.19056 12.6442 2.6449 11.3091 1.56184C9.97395 0.478786 8.27056 -0.0599454 6.54684 0.0556843C4.82312 0.171314 3.20912 0.932581 2.0345 2.18399C0.85989 3.43541 0.213288 5.08254 0.226769 6.78898C0.24025 8.49541 0.912797 10.1324 2.10704 11.3655C3.30128 12.5987 4.92711 13.335 6.65245 13.424C8.37779 13.5131 10.0725 12.9482 11.3903 11.8447L14.3273 14.7509C14.4017 14.8299 14.4916 14.8932 14.5914 14.9371C14.6912 14.981 14.7989 15.0046 14.9081 15.0065C15.0174 15.0084 15.1259 14.9886 15.2272 14.9482C15.3285 14.9078 15.4205 14.8476 15.4977 14.7713C15.575 14.695 15.6359 14.6041 15.6768 14.504C15.7177 14.404 15.7378 14.2968 15.7359 14.1889C15.734 14.081 15.7101 13.9746 15.6656 13.876C15.6211 13.7775 15.557 13.6888 15.4771 13.6152ZM11.0025 10.4839C10.5003 10.9978 9.9 11.4082 9.23623 11.6914C8.57245 11.9746 7.85841 12.125 7.1354 12.1339H7.05133C5.78137 12.133 4.55079 11.6985 3.56811 10.9039C2.58544 10.1093 1.91111 9.0036 1.65942 7.77411C1.40772 6.54463 1.59413 5.267 2.18705 4.15774C2.77998 3.04848 3.74296 2.17582 4.91279 1.68763C6.08263 1.19945 7.38737 1.12578 8.60591 1.47909C9.82445 1.83241 10.8818 2.59099 11.5989 3.62627C12.3159 4.66156 12.6486 5.90988 12.5404 7.15969C12.4322 8.4095 11.8898 9.58392 11.0052 10.4839H11.0025Z" fill="#7BACDF"/>
</svg>
