<svg width="40" height="40" viewBox="0 0 40 40" fill="none" xmlns="http://www.w3.org/2000/svg">
<g clip-path="url(#clip0_856_10758)">
<path d="M17.1715 28.1562L5.55175 21.0297C5.55169 21.0296 5.55162 21.0296 5.55155 21.0295C5.54925 21.0282 5.544 21.0253 5.53627 21.0214C5.52043 21.0132 5.49641 21.0018 5.46769 20.9908C5.40874 20.9684 5.36197 20.96 5.33464 20.96C5.31332 20.9953 5.26074 21.1166 5.26074 21.4151V21.4248V21.4346V21.4445V21.4545V21.4645V21.4746V21.4848V21.495V21.5054V21.5158V21.5262V21.5368V21.5474V21.5581V21.5688V21.5796V21.5905V21.6015V21.6125V21.6236V21.6348V21.646V21.6573V21.6687V21.6801V21.6916V21.7032V21.7148V21.7265V21.7383V21.7501V21.762V21.774V21.786V21.7981V21.8102V21.8224V21.8347V21.8471V21.8595V21.8719V21.8844V21.897V21.9096V21.9223V21.9351V21.9479V21.9608V21.9737V21.9867V21.9997V22.0128V22.026V22.0392V22.0525V22.0658V22.0792V22.0926V22.1061V22.1197V22.1333V22.1469V22.1606V22.1744V22.1882V22.202V22.216V22.2299V22.2439V22.258V22.2721V22.2863V22.3005V22.3147V22.329V22.3434V22.3578V22.3723V22.3868V22.4013V22.4159V22.4305V22.4452V22.4599V22.4747V22.4895V22.5044V22.5193V22.5342V22.5492V22.5643V22.5793V22.5944V22.6096V22.6248V22.64V22.6553V22.6706V22.686V22.7014V22.7168V22.7323V22.7478V22.7634V22.779V22.7946V22.8102V22.8259V22.8417V22.8574V22.8732V22.8891V22.905V22.9209V22.9368V22.9528V22.9688V22.9848V23.0009V23.017V23.0331V23.0493V23.0655V23.0817V23.098V23.1142V23.1306V23.1469V23.1633V23.1797V23.1961V23.2126V23.229V23.2455V23.2621V23.2786V23.2952V23.3118V23.3285V23.3451V23.3618V23.3785V23.3952V23.412V23.4288V23.4456V23.4624V23.4792V23.4961V23.513V23.5299V23.5468V23.5637V23.5807V23.5977V23.6147V23.6317V23.6487V23.6658V23.6828V23.6999V23.717V23.7341V23.7513V23.7684V23.7856V23.8028V23.8199V23.8372V23.8544V23.8716V23.8888V23.9061V23.9234V23.9406V23.9579V23.9752V23.9925V24.0099V24.0272V24.0445V24.0619V24.0792V24.0966V24.114V24.1313V24.1487V24.1661V24.1835V24.2009V24.2183V24.2357V24.2532V24.2706V24.288V24.3054V24.3229V24.3403V24.3578V24.3752V24.3926V24.4101V24.4275V24.445V24.4624V24.4799V24.4973V24.5148V24.5322V24.5497V24.5671V24.5845V24.602V24.6194V24.6368V24.6543V24.6717V24.6891V24.7065V24.7239V24.7413V24.7587V24.7761V24.7935V24.8109V24.8282V24.8456V24.8629V24.8803V24.8976V24.9149V24.9323V24.9496V24.9669V24.9841V25.0014V25.0187V25.0359V25.0532V25.0704V25.0876V25.1048V25.122V25.1392V25.1563V25.1735V25.1906V25.2077V25.2248V25.2419V25.2589V25.276V25.293V25.31V25.327V25.344V25.3609V25.3779V25.3948V25.4117V25.4285V25.4454V25.4622V25.479V25.4958V25.5126V25.5293V25.546V25.5627V25.5794V25.5961V25.6127V25.6293V25.6459V25.6624V25.6789V25.6954V25.7119V25.7283V25.7448V25.7612V25.7775V25.7938V25.8101V25.8264V25.8427V25.8589V25.8751V25.8912V25.9073V25.9234V25.9395V25.9555V25.9715V25.9875V26.0034V26.0193V26.0351V26.051V26.0667V26.0825V26.0982V26.1139V26.1295V26.1452V26.1607V26.1763V26.1918V26.2072V26.2226V26.238V26.2534V26.2687V26.2839V26.2992V26.3143V26.3295V26.3446V26.3596V26.3746V26.3896V26.4045V26.4194V26.4343V26.4491V26.4638V26.4785V26.4932V26.5078V26.5224V26.5369V26.5514V26.5658V26.5802V26.5946V26.6088V26.6231V26.6373V26.6514V26.6655V26.6796V26.6935V26.7075V26.7214V26.7352V26.749V26.7627V26.7764V26.7901V26.8036V26.8171V26.8306V26.844V26.8574V26.8707V26.8839V26.8971V26.9103V26.9234V26.9364V26.9493V26.9622V26.9751V26.9879V27.0006V27.0133V27.0259V27.0385V27.051V27.0634V27.0758V27.0881V27.1003V27.1125V27.1246V27.1367V27.1487V27.1606V27.1725V27.1843V27.196V27.2077V27.2193V27.2309V27.2423V27.2537V27.2651V27.2764V27.2876V27.2987V27.3098V27.3208V27.3317V27.3426V27.3534V27.3641V27.3748V27.3853V27.3958V27.4063V27.4167V27.4269V27.4372V27.4473V27.4574V27.4674V27.4773V27.4872V27.4969V27.5066V27.5163V27.5258V27.5353V27.5447V27.554V27.5632V27.5724V27.5815V27.5905V27.5994V27.6083V27.617V27.6257V27.6343V27.6428V27.6513V27.6596V27.6679V27.6761V27.6842V27.6923V27.7002V27.7081V27.7158V27.7235V27.7311V27.7387V27.7461V27.7535V27.7607V27.7679V27.775V27.782V27.7889V27.7957V27.8025V27.8091V27.8157V27.8221V27.8285V27.8348V27.841V27.8471V27.8531V27.859V27.8649V27.8706V27.8762V27.8818V27.8872V27.8926V27.8979V27.903V27.9081V27.9131V27.918V27.9227V27.9274V27.932V27.9365V27.9409V27.9452V27.9494V27.9535V27.9575V27.9614V27.9652V27.9689V27.9725V27.976V27.9794V27.9827V27.9859V27.989V27.9919V27.9948V27.9976V28.0003V28.0028V28.0053V28.0077V28.0099V28.0121V28.0141V28.016V28.0178V28.0196V28.0212V28.0227V28.0241V28.0253V28.0265V28.0276V28.0285V28.0294V28.0301V28.0307V28.0312V28.0316V28.0319V28.0321L4.76074 28.0321H5.26074V28.0325V28.0329V28.0333V28.0337V28.0342V28.0346V28.035V28.0354V28.0359V28.0363V28.0368V28.0372V28.0377V28.0382V28.0386V28.0391V28.0396V28.0401V28.0406V28.0411V28.0416V28.0421V28.0426V28.0431V28.0437V28.0442V28.0448V28.0453V28.0459V28.0464V28.047V28.0475V28.0481V28.0487V28.0493V28.0499V28.0505V28.0511V28.0517V28.0523V28.0529V28.0535V28.0541V28.0548V28.0554V28.0561V28.0567V28.0574V28.058V28.0587V28.0593V28.06V28.0607V28.0614V28.0621V28.0627V28.0634V28.0641V28.0648V28.0656V28.0663V28.067V28.0677V28.0685V28.0692V28.0699V28.0707V28.0714V28.0722V28.0729V28.0737V28.0745V28.0752V28.076V28.0768V28.0776V28.0784V28.0791V28.0799V28.0807V28.0816V28.0824V28.0832V28.084V28.0848V28.0856V28.0865V28.0873V28.0882V28.089V28.0898V28.0907V28.0916V28.0924V28.0933V28.0941V28.095V28.0959V28.0968V28.0977V28.0985V28.0994V28.1003V28.1012V28.1021V28.103V28.104V28.1049V28.1058V28.1067V28.1076V28.1086V28.1095V28.1104V28.1114V28.1123V28.1133V28.1142V28.1152V28.1161V28.1171V28.118V28.119V28.12V28.121V28.1219V28.1229V28.1239V28.1249V28.1259V28.1269V28.1279V28.1289V28.1299V28.1309V28.1319V28.1329V28.1339V28.1349V28.136V28.137V28.138V28.139V28.1401V28.1411V28.1421V28.1432V28.1442V28.1453V28.1463V28.1474V28.1484V28.1495V28.1506V28.1516V28.1527V28.1538V28.1548V28.1559V28.157V28.1581V28.1591V28.1602V28.1613V28.1624V28.1635V28.1646V28.1657V28.1668V28.1679V28.169V28.1701V28.1712V28.1723V28.1734V28.1746V28.1757V28.1768V28.1779V28.179V28.1802V28.1813V28.1824V28.1835V28.1847V28.1858V28.187V28.1881V28.1892V28.1904V28.1915V28.1927V28.1938V28.195V28.1961V28.1973V28.1984V28.1996V28.2008V28.2019V28.2031V28.2043V28.2054V28.2066V28.2078V28.2089V28.2101V28.2113V28.2125V28.2136V28.2148V28.216V28.2172V28.2184V28.2195V28.2207V28.2219V28.2231V28.2243V28.2255V28.2267V28.2279V28.2291V28.2303V28.2314V28.2326V28.2338V28.235V28.2362V28.2374V28.2387V28.2399V28.2411V28.2423V28.2435V28.2447V28.2459V28.2471V28.2483V28.2495V28.2507V28.2519V28.2532V28.2544V28.2556V28.2568V28.258V28.2592V28.2604V28.2617V28.2629V28.2641V28.2653V28.2665V28.2678V28.269V28.2702V28.2714V28.2726V28.2739V28.2751V28.2763V28.2775V28.2788V28.28V28.2812V28.2824V28.2837V28.2849V28.2861V28.2873V28.2886V28.2898V28.291V28.2922V28.2935V28.2947V28.2959V28.2971V28.2984V28.2996V28.3008V28.302V28.3033V28.3045V28.3057V28.3069V28.3081V28.3094V28.3106V28.3118V28.313V28.3143V28.3155V28.3167V28.3179V28.3191V28.3204V28.3216V28.3228V28.324V28.3252V28.3264V28.3277V28.3289V28.3301V28.3313V28.3325V28.3337V28.3349V28.3362V28.3374V28.3386V28.3398V28.341V28.3422V28.3434V28.3446V28.3458V28.347V28.3482V28.3494V28.3506V28.3518V28.353V28.3542V28.3554V28.3566V28.3578V28.359V28.3602V28.3614V28.3626V28.3637V28.3649V28.3661V28.3673V28.3685V28.3697V28.3708V28.372V28.3732V28.3744V28.3755V28.3767V28.3779V28.379V28.3802V28.3814V28.3825V28.3837V28.3849V28.386V28.3872V28.3883V28.3895V28.3906V28.3918V28.3929V28.3941V28.3952V28.3964V28.3975V28.3986V28.3998V28.4009V28.402V28.4032V28.4043V28.4054V28.4066V28.4077V28.4088V28.4099V28.411V28.4121V28.4133V28.4144V28.4155V28.4166V28.4177V28.4188V28.4199V28.421V28.4221V28.4231V28.4242V28.4253V28.4264V28.4275V28.4286V28.4296V28.4307V28.4318V28.4328V28.4339V28.435V28.436V28.4371V28.4381V28.4392V28.4402V28.4413V28.4423V28.4434V28.4444V28.4454V28.4465V28.4475V28.4485V28.4495V28.4506V28.4516V28.4526V28.4536V28.4546V28.4556V28.4566V28.4576V28.4586V28.4596V28.4606V28.4616V28.4625V28.4635V28.4645V28.4655V28.4664V28.4674V28.4684V28.4693V28.4703V28.4712V28.4722V28.4731V28.474V28.475V28.4759V28.4768V28.4778V28.4787V28.4796V28.4805V28.4814V28.4823V28.4832V28.4841V28.485V28.4859V28.4868V28.4877V28.4886V28.4895V28.4903V28.4912V28.4921V28.4929V28.4938V28.4946V28.4955V28.4963V28.4972V28.498V28.4988V28.4997V28.5005V28.5013V28.5021V28.5029V28.5037V28.5045V28.5053V28.5061V28.5069V28.5077V28.5085V28.5093V28.51V28.5108V28.5116V28.5123V28.5131V28.5138V28.5146V28.5153V28.516V28.5168V28.5175V28.5182V28.5189V28.5196V28.5203V28.521V28.5217V28.5224V28.5231V28.5238V28.5245V28.5251V28.5258V28.5265V28.5271V28.5278V28.5284V28.5291V28.5297V28.5303V28.531V28.5316V28.5322V28.5328V28.5334C5.26074 29.3156 5.61737 30.1607 6.33913 31.0089C7.05958 31.8557 8.1208 32.6765 9.46058 33.3952C12.1394 34.8322 15.8668 35.8258 20 35.8258C24.1332 35.8258 27.8606 34.8322 30.5394 33.3952C31.8792 32.6765 32.9404 31.8557 33.6608 31.009C34.3826 30.1607 34.7392 29.3157 34.7392 28.5334V28.5328V28.5322V28.5316V28.531V28.5303V28.5297V28.5291V28.5284V28.5278V28.5271V28.5265V28.5258V28.5251V28.5245V28.5238V28.5231V28.5224V28.5217V28.521V28.5203V28.5196V28.5189V28.5182V28.5175V28.5168V28.516V28.5153V28.5146V28.5138V28.5131V28.5123V28.5116V28.5108V28.51V28.5093V28.5085V28.5077V28.5069V28.5061V28.5053V28.5045V28.5037V28.5029V28.5021V28.5013V28.5005V28.4997V28.4988V28.498V28.4972V28.4963V28.4955V28.4946V28.4938V28.4929V28.4921V28.4912V28.4903V28.4895V28.4886V28.4877V28.4868V28.4859V28.485V28.4841V28.4832V28.4823V28.4814V28.4805V28.4796V28.4787V28.4778V28.4768V28.4759V28.475V28.474V28.4731V28.4722V28.4712V28.4703V28.4693V28.4684V28.4674V28.4664V28.4655V28.4645V28.4635V28.4625V28.4616V28.4606V28.4596V28.4586V28.4576V28.4566V28.4556V28.4546V28.4536V28.4526V28.4516V28.4506V28.4495V28.4485V28.4475V28.4465V28.4454V28.4444V28.4434V28.4423V28.4413V28.4402V28.4392V28.4381V28.4371V28.436V28.435V28.4339V28.4328V28.4318V28.4307V28.4296V28.4286V28.4275V28.4264V28.4253V28.4242V28.4231V28.4221V28.421V28.4199V28.4188V28.4177V28.4166V28.4155V28.4144V28.4133V28.4121V28.411V28.4099V28.4088V28.4077V28.4066V28.4054V28.4043V28.4032V28.402V28.4009V28.3998V28.3986V28.3975V28.3964V28.3952V28.3941V28.3929V28.3918V28.3906V28.3895V28.3883V28.3872V28.386V28.3849V28.3837V28.3825V28.3814V28.3802V28.379V28.3779V28.3767V28.3755V28.3744V28.3732V28.372V28.3708V28.3697V28.3685V28.3673V28.3661V28.3649V28.3637V28.3626V28.3614V28.3602V28.359V28.3578V28.3566V28.3554V28.3542V28.353V28.3518V28.3506V28.3494V28.3482V28.347V28.3458V28.3446V28.3434V28.3422V28.341V28.3398V28.3386V28.3374V28.3362V28.3349V28.3337V28.3325V28.3313V28.3301V28.3289V28.3277V28.3264V28.3252V28.324V28.3228V28.3216V28.3204V28.3191V28.3179V28.3167V28.3155V28.3143V28.313V28.3118V28.3106V28.3094V28.3081V28.3069V28.3057V28.3045V28.3033V28.302V28.3008V28.2996V28.2984V28.2971V28.2959V28.2947V28.2935V28.2922V28.291V28.2898V28.2886V28.2873V28.2861V28.2849V28.2837V28.2824V28.2812V28.28V28.2788V28.2775V28.2763V28.2751V28.2739V28.2726V28.2714V28.2702V28.269V28.2678V28.2665V28.2653V28.2641V28.2629V28.2617V28.2604V28.2592V28.258V28.2568V28.2556V28.2544V28.2532V28.2519V28.2507V28.2495V28.2483V28.2471V28.2459V28.2447V28.2435V28.2423V28.2411V28.2399V28.2387V28.2374V28.2362V28.235V28.2338V28.2326V28.2314V28.2303V28.2291V28.2279V28.2267V28.2255V28.2243V28.2231V28.2219V28.2207V28.2195V28.2184V28.2172V28.216V28.2148V28.2136V28.2125V28.2113V28.2101V28.2089V28.2078V28.2066V28.2054V28.2043V28.2031V28.2019V28.2008V28.1996V28.1984V28.1973V28.1961V28.195V28.1938V28.1927V28.1915V28.1904V28.1892V28.1881V28.187V28.1858V28.1847V28.1835V28.1824V28.1813V28.1802V28.179V28.1779V28.1768V28.1757V28.1746V28.1734V28.1723V28.1712V28.1701V28.169V28.1679V28.1668V28.1657V28.1646V28.1635V28.1624V28.1613V28.1602V28.1591V28.1581V28.157V28.1559V28.1548V28.1538V28.1527V28.1516V28.1506V28.1495V28.1484V28.1474V28.1463V28.1453V28.1442V28.1432V28.1421V28.1411V28.1401V28.139V28.138V28.137V28.136V28.1349V28.1339V28.1329V28.1319V28.1309V28.1299V28.1289V28.1279V28.1269V28.1259V28.1249V28.1239V28.1229V28.1219V28.121V28.12V28.119V28.118V28.1171V28.1161V28.1152V28.1142V28.1133V28.1123V28.1114V28.1104V28.1095V28.1086V28.1076V28.1067V28.1058V28.1049V28.104V28.103V28.1021V28.1012V28.1003V28.0994V28.0985V28.0977V28.0968V28.0959V28.095V28.0941V28.0933V28.0924V28.0916V28.0907V28.0898V28.089V28.0882V28.0873V28.0865V28.0856V28.0848V28.084V28.0832V28.0824V28.0816V28.0807V28.0799V28.0791V28.0784V28.0776V28.0768V28.076V28.0752V28.0745V28.0737V28.0729V28.0722V28.0714V28.0707V28.0699V28.0692V28.0685V28.0677V28.067V28.0663V28.0656V28.0648V28.0641V28.0634V28.0627V28.0621V28.0614V28.0607V28.06V28.0593V28.0587V28.058V28.0574V28.0567V28.0561V28.0554V28.0548V28.0541V28.0535V28.0529V28.0523V28.0517V28.0511V28.0505V28.0499V28.0493V28.0487V28.0481V28.0475V28.047V28.0464V28.0459V28.0453V28.0448V28.0442V28.0437V28.0431V28.0426V28.0421V28.0416V28.0411V28.0406V28.0401V28.0396V28.0391V28.0386V28.0382V28.0377V28.0372V28.0368V28.0363V28.0359V28.0354V28.035V28.0346V28.0342V28.0337V28.0333V28.0329V28.0325V28.0321H35.2392L17.1715 28.1562ZM17.1715 28.1562C17.972 28.6472 18.9767 28.9071 20.0003 28.9071C21.0239 28.9071 22.0286 28.6471 22.829 28.1562M17.1715 28.1562L22.829 28.1562M22.829 28.1562L22.5676 27.73L22.829 28.1562ZM34.7392 21.0241V21.0138V21.0241ZM34.7392 21.0241V21.0345M34.7392 21.0241V21.0345M34.7392 21.0345V21.045M34.7392 21.0345V21.045M34.7392 21.045V21.0555M34.7392 21.045V21.0555M34.7392 21.0555V21.0662M34.7392 21.0555V21.0662M34.7392 21.0662V21.0769M34.7392 21.0662V21.0769M34.7392 21.0769V21.0877M34.7392 21.0769V21.0877M34.7392 21.0877V21.0985M34.7392 21.0877V21.0985M34.7392 21.0985V21.1095M34.7392 21.0985V21.1095M34.7392 21.1095V21.1205M34.7392 21.1095V21.1205M34.7392 21.1205V21.1316M34.7392 21.1205V21.1316M34.7392 21.1316V21.1428M34.7392 21.1316V21.1428M34.7392 21.1428V21.1541M34.7392 21.1428V21.1541M34.7392 21.1541V21.1654M34.7392 21.1541V21.1654M34.7392 21.1654V21.1768M34.7392 21.1654V21.1768M34.7392 21.1768V21.1883M34.7392 21.1768V21.1883M34.7392 21.1883V21.1998M34.7392 21.1883V21.1998M34.7392 21.1998V21.2115M34.7392 21.1998V21.2115M34.7392 21.2115V21.2232M34.7392 21.2115V21.2232M34.7392 21.2232V21.2349M34.7392 21.2232V21.2349M34.7392 21.2349V21.2468M34.7392 21.2349V21.2468M34.7392 21.2468V21.2587M34.7392 21.2468V21.2587M34.7392 21.2587V21.2707M34.7392 21.2587V21.2707M34.7392 21.2707V21.2827M34.7392 21.2707V21.2827M34.7392 21.2827V21.2949M34.7392 21.2827V21.2949M34.7392 21.2949V21.3071M34.7392 21.2949V21.3071M34.7392 21.3071V21.3193M34.7392 21.3071V21.3193M34.7392 21.3193V21.3317M34.7392 21.3193V21.3317M34.7392 21.3317V21.3441M34.7392 21.3317V21.3441M34.7392 21.3441V21.3566M34.7392 21.3441V21.3566M34.7392 21.3566V21.3691M34.7392 21.3566V21.3691M34.7392 21.3691V21.3817M34.7392 21.3691V21.3817M34.7392 21.3817V21.3944M34.7392 21.3817V21.3944M34.7392 21.3944V21.4072M34.7392 21.3944V21.4072M34.7392 21.4072V21.42M34.7392 21.4072V21.42M34.7392 21.42V21.4329M34.7392 21.42V21.4329M34.7392 21.4329V21.4458M34.7392 21.4329V21.4458M34.7392 21.4458V21.4588M34.7392 21.4458V21.4588M34.7392 21.4588V21.4719M34.7392 21.4588V21.4719M34.7392 21.4719V21.4851M34.7392 21.4719V21.4851M34.7392 21.4851V21.4983M34.7392 21.4851V21.4983M34.7392 21.4983V21.5116M34.7392 21.4983V21.5116M34.7392 21.5116V21.5249M34.7392 21.5116V21.5249M34.7392 21.5249V21.5383M34.7392 21.5249V21.5383M34.7392 21.5383V21.5518M34.7392 21.5383V21.5518M34.7392 21.5518V21.5653M34.7392 21.5518V21.5653M34.7392 21.5653V21.5789M34.7392 21.5653V21.5789M34.7392 21.5789V21.5925M34.7392 21.5789V21.5925M34.7392 21.5925V21.6063M34.7392 21.5925V21.6063M34.7392 21.6063V21.62M34.7392 21.6063V21.62M34.7392 21.62V21.6339M34.7392 21.62V21.6339M34.7392 21.6339V21.6478M34.7392 21.6339V21.6478M34.7392 21.6478V21.6617M34.7392 21.6478V21.6617M34.7392 21.6617V21.6757M34.7392 21.6617V21.6757M34.7392 21.6757V21.6898M34.7392 21.6757V21.6898M34.7392 21.6898V21.704M34.7392 21.6898V21.704M34.7392 21.704V21.7182M34.7392 21.704V21.7182M34.7392 21.7182V21.7324M34.7392 21.7182V21.7324M34.7392 21.7324V21.7467M34.7392 21.7324V21.7467M34.7392 21.7467V21.7611M34.7392 21.7467V21.7611M34.7392 21.7611V21.7755M34.7392 21.7611V21.7755M34.7392 21.7755V21.79M34.7392 21.7755V21.79M34.7392 21.79V21.8045M34.7392 21.79V21.8045M34.7392 21.8045V21.8191M34.7392 21.8045V21.8191M34.7392 21.8191V21.8337M34.7392 21.8191V21.8337M34.7392 21.8337V21.8484M34.7392 21.8337V21.8484M34.7392 21.8484V21.8632M34.7392 21.8484V21.8632M34.7392 21.8632V21.878M34.7392 21.8632V21.878M34.7392 21.878V21.8929M34.7392 21.878V21.8929M34.7392 21.8929V21.9078M34.7392 21.8929V21.9078M34.7392 21.9078V21.9228M34.7392 21.9078V21.9228M34.7392 21.9228V21.9378M34.7392 21.9228V21.9378M34.7392 21.9378V21.9529M34.7392 21.9378V21.9529M34.7392 21.9529V21.968M34.7392 21.9529V21.968M34.7392 21.968V21.9832M34.7392 21.968V21.9832M34.7392 21.9832V21.9984M34.7392 21.9832V21.9984M34.7392 21.9984V22.0137M34.7392 21.9984V22.0137M34.7392 22.0137V22.029M34.7392 22.0137V22.029M34.7392 22.029V22.0444M34.7392 22.029V22.0444M34.7392 22.0444V22.0598M34.7392 22.0444V22.0598M34.7392 22.0598V22.0753M34.7392 22.0598V22.0753M34.7392 22.0753V22.0908M34.7392 22.0753V22.0908M34.7392 22.0908V22.1064M34.7392 22.0908V22.1064M34.7392 22.1064V22.122M34.7392 22.1064V22.122M34.7392 22.122V22.1377M34.7392 22.122V22.1377M34.7392 22.1377V22.1534M34.7392 22.1377V22.1534M34.7392 22.1534V22.1691M34.7392 22.1534V22.1691M34.7392 22.1691V22.1849M34.7392 22.1691V22.1849M34.7392 22.1849V22.2008M34.7392 22.1849V22.2008M34.7392 22.2008V22.2167M34.7392 22.2008V22.2167M34.7392 22.2167V22.2326M34.7392 22.2167V22.2326M34.7392 22.2326V22.2486M34.7392 22.2326V22.2486M34.7392 22.2486V22.2647M34.7392 22.2486V22.2647M34.7392 22.2647V22.2807M34.7392 22.2647V22.2807M34.7392 22.2807V22.2968M34.7392 22.2807V22.2968M34.7392 22.2968V22.313M34.7392 22.2968V22.313M34.7392 22.313V22.3292M34.7392 22.313V22.3292M34.7392 22.3292V22.3455M34.7392 22.3292V22.3455M34.7392 22.3455V22.3618M34.7392 22.3455V22.3618M34.7392 22.3618V22.3781M34.7392 22.3618V22.3781M34.7392 22.3781V22.3945M34.7392 22.3781V22.3945M34.7392 22.3945V22.4109M34.7392 22.3945V22.4109M34.7392 22.4109V22.4273M34.7392 22.4109V22.4273M34.7392 22.4273V22.4438M34.7392 22.4273V22.4438M34.7392 22.4438V22.4604M34.7392 22.4438V22.4604M34.7392 22.4604V22.4769M34.7392 22.4604V22.4769M34.7392 22.4769V22.4935M34.7392 22.4769V22.4935M34.7392 22.4935V22.5102M34.7392 22.4935V22.5102M34.7392 22.5102V22.5269M34.7392 22.5102V22.5269M34.7392 22.5269V22.5436M34.7392 22.5269V22.5436M34.7392 22.5436V22.5604M34.7392 22.5436V22.5604M34.7392 22.5604V22.5772M34.7392 22.5604V22.5772M34.7392 22.5772V22.594M34.7392 22.5772V22.594M34.7392 22.594V22.6109M34.7392 22.594V22.6109M34.7392 22.6109V22.6278M34.7392 22.6109V22.6278M34.7392 22.6278V22.6447M34.7392 22.6278V22.6447M34.7392 22.6447V22.6617M34.7392 22.6447V22.6617M34.7392 22.6617V22.6787M34.7392 22.6617V22.6787M34.7392 22.6787V22.6957M34.7392 22.6787V22.6957M34.7392 22.6957V22.7128M34.7392 22.6957V22.7128M34.7392 22.7128V22.7299M34.7392 22.7128V22.7299M34.7392 22.7299V22.7471M34.7392 22.7299V22.7471M34.7392 22.7471V22.7643M34.7392 22.7471V22.7643M34.7392 22.7643V22.7815M34.7392 22.7643V22.7815M34.7392 22.7815V22.7987M34.7392 22.7815V22.7987M34.7392 22.7987V22.816M34.7392 22.7987V22.816M34.7392 22.816V22.8333M34.7392 22.816V22.8333M34.7392 22.8333V22.8506M34.7392 22.8333V22.8506M34.7392 22.8506V22.868M34.7392 22.8506V22.868M34.7392 22.868V22.8854M34.7392 22.868V22.8854M34.7392 22.8854V22.9028M34.7392 22.8854V22.9028M34.7392 22.9028V22.9202M34.7392 22.9028V22.9202M34.7392 22.9202V22.9377M34.7392 22.9202V22.9377M34.7392 22.9377V22.9552M34.7392 22.9377V22.9552M34.7392 22.9552V22.9728M34.7392 22.9552V22.9728M34.7392 22.9728V22.9903M34.7392 22.9728V22.9903M34.7392 22.9903V23.0079M34.7392 22.9903V23.0079M34.7392 23.0079V23.0255M34.7392 23.0079V23.0255M34.7392 23.0255V23.0432M34.7392 23.0255V23.0432M34.7392 23.0432V23.0609M34.7392 23.0432V23.0609M34.7392 23.0609V23.0786M34.7392 23.0609V23.0786M34.7392 23.0786V23.0963M34.7392 23.0786V23.0963M34.7392 23.0963V23.114M34.7392 23.0963V23.114M34.7392 23.114V23.1318M34.7392 23.114V23.1318M34.7392 23.1318V23.1496M34.7392 23.1318V23.1496M34.7392 23.1496V23.1674M34.7392 23.1496V23.1674M34.7392 23.1674V23.1852M34.7392 23.1674V23.1852M34.7392 23.1852V23.2031M34.7392 23.1852V23.2031M34.7392 23.2031V23.221M34.7392 23.2031V23.221M34.7392 23.221V23.2389M34.7392 23.221V23.2389M34.7392 23.2389V23.2568M34.7392 23.2389V23.2568M34.7392 23.2568V23.2748M34.7392 23.2568V23.2748M34.7392 23.2748V23.2927M34.7392 23.2748V23.2927M34.7392 23.2927V23.3107M34.7392 23.2927V23.3107M34.7392 23.3107V23.3287M34.7392 23.3107V23.3287M34.7392 23.3287V23.3468M34.7392 23.3287V23.3468M34.7392 23.3468V23.3648M34.7392 23.3468V23.3648M34.7392 23.3648V23.3829M34.7392 23.3648V23.3829M34.7392 23.3829V23.401M34.7392 23.3829V23.401M34.7392 23.401V23.4191M34.7392 23.401V23.4191M34.7392 23.4191V23.4372M34.7392 23.4191V23.4372M34.7392 23.4372V23.4553M34.7392 23.4372V23.4553M34.7392 23.4553V23.4735M34.7392 23.4553V23.4735M34.7392 23.4735V23.4916M34.7392 23.4735V23.4916M34.7392 23.4916V23.5098M34.7392 23.4916V23.5098M34.7392 23.5098V23.528M34.7392 23.5098V23.528M34.7392 23.528V23.5462M34.7392 23.528V23.5462M34.7392 23.5462V23.5645M34.7392 23.5462V23.5645M34.7392 23.5645V23.5827M34.7392 23.5645V23.5827M34.7392 23.5827V23.601M34.7392 23.5827V23.601M34.7392 23.601V23.6193M34.7392 23.601V23.6193M34.7392 23.6193V23.6376M34.7392 23.6193V23.6376M34.7392 23.6376V23.6559M34.7392 23.6376V23.6559M34.7392 23.6559V23.6742M34.7392 23.6559V23.6742M34.7392 23.6742V23.6925M34.7392 23.6742V23.6925M34.7392 23.6925V23.7108M34.7392 23.6925V23.7108M34.7392 23.7108V23.7292M34.7392 23.7108V23.7292M34.7392 23.7292V23.7475M34.7392 23.7292V23.7475M34.7392 23.7475V23.7659M34.7392 23.7475V23.7659M34.7392 23.7659V23.7843M34.7392 23.7659V23.7843M34.7392 23.7843V23.8027M34.7392 23.7843V23.8027M34.7392 23.8027V23.8211M34.7392 23.8027V23.8211M34.7392 23.8211V23.8395M34.7392 23.8211V23.8395M34.7392 23.8395V23.8579M34.7392 23.8395V23.8579M34.7392 23.8579V23.8763M34.7392 23.8579V23.8763M34.7392 23.8763V23.8948M34.7392 23.8763V23.8948M34.7392 23.8948V23.9132M34.7392 23.8948V23.9132M34.7392 23.9132V23.9316M34.7392 23.9132V23.9316M34.7392 23.9316V23.9501M34.7392 23.9316V23.9501M34.7392 23.9501V23.9686M34.7392 23.9501V23.9686M34.7392 23.9686V23.987M34.7392 23.9686V23.987M34.7392 23.987V24.0055M34.7392 23.987V24.0055M34.7392 24.0055V24.024M34.7392 24.0055V24.024M34.7392 24.024V24.0424M34.7392 24.024V24.0424M34.7392 24.0424V24.0609M34.7392 24.0424V24.0609M34.7392 24.0609V24.0794M34.7392 24.0609V24.0794M34.7392 24.0794V24.0979M34.7392 24.0794V24.0979M34.7392 24.0979V24.1164M34.7392 24.0979V24.1164M34.7392 24.1164V24.1349M34.7392 24.1164V24.1349M34.7392 24.1349V24.1534M34.7392 24.1349V24.1534M34.7392 24.1534V24.1719M34.7392 24.1534V24.1719M34.7392 24.1719V24.1904M34.7392 24.1719V24.1904M34.7392 24.1904V24.2089M34.7392 24.1904V24.2089M34.7392 24.2089V24.2274M34.7392 24.2089V24.2274M34.7392 24.2274V24.2459M34.7392 24.2274V24.2459M34.7392 24.2459V24.2644M34.7392 24.2459V24.2644M34.7392 24.2644V24.2829M34.7392 24.2644V24.2829M34.7392 24.2829V24.3014M34.7392 24.2829V24.3014M34.7392 24.3014V24.3199M34.7392 24.3014V24.3199M34.7392 24.3199V24.3384M34.7392 24.3199V24.3384M34.7392 24.3384V24.3569M34.7392 24.3384V24.3569M34.7392 24.3569V24.3754M34.7392 24.3569V24.3754M34.7392 24.3754V24.3939M34.7392 24.3754V24.3939M34.7392 24.3939V24.4124M34.7392 24.3939V24.4124M34.7392 24.4124V24.4309M34.7392 24.4124V24.4309M34.7392 24.4309V24.4494M34.7392 24.4309V24.4494M34.7392 24.4494V24.4679M34.7392 24.4494V24.4679M34.7392 24.4679V24.4863M34.7392 24.4679V24.4863M34.7392 24.4863V24.5048M34.7392 24.4863V24.5048M34.7392 24.5048V24.5233M34.7392 24.5048V24.5233M34.7392 24.5233V24.5417M34.7392 24.5233V24.5417M34.7392 24.5417V24.5602M34.7392 24.5417V24.5602M34.7392 24.5602V24.5786M34.7392 24.5602V24.5786M34.7392 24.5786V24.5971M34.7392 24.5786V24.5971M34.7392 24.5971V24.6155M34.7392 24.5971V24.6155M34.7392 24.6155V24.6339M34.7392 24.6155V24.6339M34.7392 24.6339V24.6523M34.7392 24.6339V24.6523M34.7392 24.6523V24.6707M34.7392 24.6523V24.6707M34.7392 24.6707V24.6891M34.7392 24.6707V24.6891M34.7392 24.6891V24.7075M34.7392 24.6891V24.7075M34.7392 24.7075V24.7259M34.7392 24.7075V24.7259M34.7392 24.7259V24.7443M34.7392 24.7259V24.7443M34.7392 24.7443V24.7626M34.7392 24.7443V24.7626M34.7392 24.7626V24.781M34.7392 24.7626V24.781M34.7392 24.781V24.7993M34.7392 24.781V24.7993M34.7392 24.7993V24.8176M34.7392 24.7993V24.8176M34.7392 24.8176V24.8359M34.7392 24.8176V24.8359M34.7392 24.8359V24.8542M34.7392 24.8359V24.8542M34.7392 24.8542V24.8725M34.7392 24.8542V24.8725M34.7392 24.8725V24.8908M34.7392 24.8725V24.8908M34.7392 24.8908V24.909M34.7392 24.8908V24.909M34.7392 24.909V24.9273M34.7392 24.909V24.9273M34.7392 24.9273V24.9455M34.7392 24.9273V24.9455M34.7392 24.9455V24.9637M34.7392 24.9455V24.9637M34.7392 24.9637V24.9819M34.7392 24.9637V24.9819M34.7392 24.9819V25.0001M34.7392 24.9819V25.0001M34.7392 25.0001V25.0182M34.7392 25.0001V25.0182M34.7392 25.0182V25.0364M34.7392 25.0182V25.0364M34.7392 25.0364V25.0545M34.7392 25.0364V25.0545M34.7392 25.0545V25.0726M34.7392 25.0545V25.0726M34.7392 25.0726V25.0907M34.7392 25.0726V25.0907M34.7392 25.0907V25.1088M34.7392 25.0907V25.1088M34.7392 25.1088V25.1269M34.7392 25.1088V25.1269M34.7392 25.1269V25.1449M34.7392 25.1269V25.1449M34.7392 25.1449V25.1629M34.7392 25.1449V25.1629M34.7392 25.1629V25.1809M34.7392 25.1629V25.1809M34.7392 25.1809V25.1989M34.7392 25.1809V25.1989M34.7392 25.1989V25.2169M34.7392 25.1989V25.2169M34.7392 25.2169V25.2348M34.7392 25.2169V25.2348M34.7392 25.2348V25.2527M34.7392 25.2348V25.2527M34.7392 25.2527V25.2706M34.7392 25.2527V25.2706M34.7392 25.2706V25.2885M34.7392 25.2706V25.2885M34.7392 25.2885V25.3064M34.7392 25.2885V25.3064M34.7392 25.3064V25.3242M34.7392 25.3064V25.3242M34.7392 25.3242V25.342M34.7392 25.3242V25.342M34.7392 25.342V25.3598M34.7392 25.342V25.3598M34.7392 25.3598V25.3775M34.7392 25.3598V25.3775M34.7392 25.3775V25.3953M34.7392 25.3775V25.3953M34.7392 25.3953V25.413M34.7392 25.3953V25.413M34.7392 25.413V25.4307M34.7392 25.413V25.4307M34.7392 25.4307V25.4483M34.7392 25.4307V25.4483M34.7392 25.4483V25.466M34.7392 25.4483V25.466M34.7392 25.466V25.4836M34.7392 25.466V25.4836M34.7392 25.4836V25.5011M34.7392 25.4836V25.5011M34.7392 25.5011V25.5187M34.7392 25.5011V25.5187M34.7392 25.5187V25.5362M34.7392 25.5187V25.5362M34.7392 25.5362V25.5537M34.7392 25.5362V25.5537M34.7392 25.5537V25.5712M34.7392 25.5537V25.5712M34.7392 25.5712V25.5886M34.7392 25.5712V25.5886M34.7392 25.5886V25.606M34.7392 25.5886V25.606M34.7392 25.606V25.6234M34.7392 25.606V25.6234M34.7392 25.6234V25.6408M34.7392 25.6234V25.6408M34.7392 25.6408V25.6581M34.7392 25.6408V25.6581M34.7392 25.6581V25.6754M34.7392 25.6581V25.6754M34.7392 25.6754V25.6926M34.7392 25.6754V25.6926M34.7392 25.6926V25.7099M34.7392 25.6926V25.7099M34.7392 25.7099V25.7271M34.7392 25.7099V25.7271M34.7392 25.7271V25.7442M34.7392 25.7271V25.7442M34.7392 25.7442V25.7614M34.7392 25.7442V25.7614M34.7392 25.7614V25.7785M34.7392 25.7614V25.7785M34.7392 25.7785V25.7955M34.7392 25.7785V25.7955M34.7392 25.7955V25.8126M34.7392 25.7955V25.8126M34.7392 25.8126V25.8296M34.7392 25.8126V25.8296M34.7392 25.8296V25.8465M34.7392 25.8296V25.8465M34.7392 25.8465V25.8634M34.7392 25.8465V25.8634M34.7392 25.8634V25.8803M34.7392 25.8634V25.8803M34.7392 25.8803V25.8972M34.7392 25.8803V25.8972M34.7392 25.8972V25.914M34.7392 25.8972V25.914M34.7392 25.914V25.9308M34.7392 25.914V25.9308M34.7392 25.9308V25.9475M34.7392 25.9308V25.9475M34.7392 25.9475V25.9643M34.7392 25.9475V25.9643M34.7392 25.9643V25.9809M34.7392 25.9643V25.9809M34.7392 25.9809V25.9976M34.7392 25.9809V25.9976M34.7392 25.9976V26.0142M34.7392 25.9976V26.0142M34.7392 26.0142V26.0307M34.7392 26.0142V26.0307M34.7392 26.0307V26.0472M34.7392 26.0307V26.0472M34.7392 26.0472V26.0637M34.7392 26.0472V26.0637M34.7392 26.0637V26.0801M34.7392 26.0637V26.0801M34.7392 26.0801V26.0965M34.7392 26.0801V26.0965M34.7392 26.0965V26.1129M34.7392 26.0965V26.1129M34.7392 26.1129V26.1292M34.7392 26.1129V26.1292M34.7392 26.1292V26.1455M34.7392 26.1292V26.1455M34.7392 26.1455V26.1617M34.7392 26.1455V26.1617M34.7392 26.1617V26.1779M34.7392 26.1617V26.1779M34.7392 26.1779V26.1941M34.7392 26.1779V26.1941M34.7392 26.1941V26.2102M34.7392 26.1941V26.2102M34.7392 26.2102V26.2262M34.7392 26.2102V26.2262M34.7392 26.2262V26.2422M34.7392 26.2262V26.2422M34.7392 26.2422V26.2582M34.7392 26.2422V26.2582M34.7392 26.2582V26.2741M34.7392 26.2582V26.2741M34.7392 26.2741V26.29M34.7392 26.2741V26.29M34.7392 26.29V26.3058M34.7392 26.29V26.3058M34.7392 26.3058V26.3216M34.7392 26.3058V26.3216M34.7392 26.3216V26.3374M34.7392 26.3216V26.3374M34.7392 26.3374V26.3531M34.7392 26.3374V26.3531M34.7392 26.3531V26.3687M34.7392 26.3531V26.3687M34.7392 26.3687V26.3843M34.7392 26.3687V26.3843M34.7392 26.3843V26.3999M34.7392 26.3843V26.3999M34.7392 26.3999V26.4154M34.7392 26.3999V26.4154M34.7392 26.4154V26.4308M34.7392 26.4154V26.4308M34.7392 26.4308V26.4462M34.7392 26.4308V26.4462M34.7392 26.4462V26.4616M34.7392 26.4462V26.4616M34.7392 26.4616V26.4769M34.7392 26.4616V26.4769M34.7392 26.4769V26.4922M34.7392 26.4769V26.4922M34.7392 26.4922V26.5074M34.7392 26.4922V26.5074M34.7392 26.5074V26.5225M34.7392 26.5074V26.5225M34.7392 26.5225V26.5376M34.7392 26.5225V26.5376M34.7392 26.5376V26.5527M34.7392 26.5376V26.5527M34.7392 26.5527V26.5677M34.7392 26.5527V26.5677M34.7392 26.5677V26.5826M34.7392 26.5677V26.5826M34.7392 26.5826V26.5975M34.7392 26.5826V26.5975M34.7392 26.5975V26.6124M34.7392 26.5975V26.6124M34.7392 26.6124V26.6271M34.7392 26.6124V26.6271M34.7392 26.6271V26.6419M34.7392 26.6271V26.6419M34.7392 26.6419V26.6566M34.7392 26.6419V26.6566M34.7392 26.6566V26.6712M34.7392 26.6566V26.6712M34.7392 26.6712V26.6858M34.7392 26.6712V26.6858M34.7392 26.6858V26.7003M34.7392 26.6858V26.7003M34.7392 26.7003V26.7147M34.7392 26.7003V26.7147M34.7392 26.7147V26.7291M34.7392 26.7147V26.7291M34.7392 26.7291V26.7435M34.7392 26.7291V26.7435M34.7392 26.7435V26.7577M34.7392 26.7435V26.7577M34.7392 26.7577V26.772M34.7392 26.7577V26.772M34.7392 26.772V26.7861M34.7392 26.772V26.7861M34.7392 26.7861V26.8003M34.7392 26.7861V26.8003M34.7392 26.8003V26.8143M34.7392 26.8003V26.8143M34.7392 26.8143V26.8283M34.7392 26.8143V26.8283M34.7392 26.8283V26.8422M34.7392 26.8283V26.8422M34.7392 26.8422V26.8561M34.7392 26.8422V26.8561M34.7392 26.8561V26.8699M34.7392 26.8561V26.8699M34.7392 26.8699V26.8837M34.7392 26.8699V26.8837M34.7392 26.8837V26.8974M34.7392 26.8837V26.8974M34.7392 26.8974V26.911M34.7392 26.8974V26.911M34.7392 26.911V26.9246M34.7392 26.911V26.9246M34.7392 26.9246V26.9381M34.7392 26.9246V26.9381M34.7392 26.9381V26.9515M34.7392 26.9381V26.9515M34.7392 26.9515V26.9649M34.7392 26.9515V26.9649M34.7392 26.9649V26.9782M34.7392 26.9649V26.9782M34.7392 26.9782V26.9914M34.7392 26.9782V26.9914M34.7392 26.9914V27.0046M34.7392 26.9914V27.0046M34.7392 27.0046V27.0178M34.7392 27.0046V27.0178M34.7392 27.0178V27.0308M34.7392 27.0178V27.0308M34.7392 27.0308V27.0438M34.7392 27.0308V27.0438M34.7392 27.0438V27.0567M34.7392 27.0438V27.0567M34.7392 27.0567V27.0696M34.7392 27.0567V27.0696M34.7392 27.0696V27.0824M34.7392 27.0696V27.0824M34.7392 27.0824V27.0951M34.7392 27.0824V27.0951M34.7392 27.0951V27.1078M34.7392 27.0951V27.1078M34.7392 27.1078V27.1203M34.7392 27.1078V27.1203M34.7392 27.1203V27.1329M34.7392 27.1203V27.1329M34.7392 27.1329V27.1453M34.7392 27.1329V27.1453M34.7392 27.1453V27.1577M34.7392 27.1453V27.1577M34.7392 27.1577V27.17M34.7392 27.1577V27.17M34.7392 27.17V27.1823M34.7392 27.17V27.1823M34.7392 27.1823V27.1944M34.7392 27.1823V27.1944M34.7392 27.1944V27.2065M34.7392 27.1944V27.2065M34.7392 27.2065V27.2186M34.7392 27.2065V27.2186M34.7392 27.2186V27.2305M34.7392 27.2186V27.2305M34.7392 27.2305V27.2424M34.7392 27.2305V27.2424M34.7392 27.2424V27.2542M34.7392 27.2424V27.2542M34.7392 27.2542V27.266M34.7392 27.2542V27.266M34.7392 27.266V27.2776M34.7392 27.266V27.2776M34.7392 27.2776V27.2892M34.7392 27.2776V27.2892M34.7392 27.2892V27.3008M34.7392 27.2892V27.3008M34.7392 27.3008V27.3122M34.7392 27.3008V27.3122M34.7392 27.3122V27.3236M34.7392 27.3122V27.3236M34.7392 27.3236V27.3349M34.7392 27.3236V27.3349M34.7392 27.3349V27.3461M34.7392 27.3349V27.3461M34.7392 27.3461V27.3573M34.7392 27.3461V27.3573M34.7392 27.3573V27.3683M34.7392 27.3573V27.3683M34.7392 27.3683V27.3793M34.7392 27.3683V27.3793M34.7392 27.3793V27.3902M34.7392 27.3793V27.3902M34.7392 27.3902V27.4011M34.7392 27.3902V27.4011M34.7392 27.4011V27.4118M34.7392 27.4011V27.4118M34.7392 27.4118V27.4225M34.7392 27.4118V27.4225M34.7392 27.4225V27.4331M34.7392 27.4225V27.4331M34.7392 27.4331V27.4437M34.7392 27.4331V27.4437M34.7392 27.4437V27.4541M34.7392 27.4437V27.4541M34.7392 27.4541V27.4645M34.7392 27.4541V27.4645M34.7392 27.4645V27.4748M34.7392 27.4645V27.4748M34.7392 27.4748V27.485M34.7392 27.4748V27.485M34.7392 27.485V27.4951M34.7392 27.485V27.4951M34.7392 27.4951V27.5052M34.7392 27.4951V27.5052M34.7392 27.5052V27.5151M34.7392 27.5052V27.5151M34.7392 27.5151V27.525M34.7392 27.5151V27.525M34.7392 27.525V27.5348M34.7392 27.525V27.5348M34.7392 27.5348V27.5445M34.7392 27.5348V27.5445M34.7392 27.5445V27.5542M34.7392 27.5445V27.5542M34.7392 27.5542V27.5637M34.7392 27.5542V27.5637M34.7392 27.5637V27.5732M34.7392 27.5637V27.5732M34.7392 27.5732V27.5826M34.7392 27.5732V27.5826M34.7392 27.5826V27.5919M34.7392 27.5826V27.5919M34.7392 27.5919V27.6011M34.7392 27.5919V27.6011M34.7392 27.6011V27.6102M34.7392 27.6011V27.6102M34.7392 27.6102V27.6192M34.7392 27.6102V27.6192M34.7392 27.6192V27.6282M34.7392 27.6192V27.6282M34.7392 27.6282V27.6371M34.7392 27.6282V27.6371M34.7392 27.6371V27.6458M34.7392 27.6371V27.6458M34.7392 27.6458V27.6545M34.7392 27.6458V27.6545M34.7392 27.6545V27.6631M34.7392 27.6545V27.6631M34.7392 27.6631V27.6716M34.7392 27.6631V27.6716M34.7392 27.6716V27.6801M34.7392 27.6716V27.6801M34.7392 27.6801V27.6884M34.7392 27.6801V27.6884M34.7392 27.6884V27.6967M34.7392 27.6884V27.6967M34.7392 27.6967V27.7048M34.7392 27.6967V27.7048M34.7392 27.7048V27.7129M34.7392 27.7048V27.7129M34.7392 27.7129V27.7209M34.7392 27.7129V27.7209M34.7392 27.7209V27.7288M34.7392 27.7209V27.7288M34.7392 27.7288V27.7366M34.7392 27.7288V27.7366M34.7392 27.7366V27.7443M34.7392 27.7366V27.7443M34.7392 27.7443V27.7519M34.7392 27.7443V27.7519M34.7392 27.7519V27.7594M34.7392 27.7519V27.7594M34.7392 27.7594V27.7668V27.7594Z" fill="#CBD5EA" stroke="#CBD5EA"/>
<mask id="path-2-inside-1_856_10758" fill="white">
<path d="M39.3302 14.9311C40.2233 14.3834 40.2233 13.4871 39.3302 12.9393L21.6238 4.08498C20.7307 3.53727 19.2692 3.53727 18.3761 4.08498L0.669825 12.9393C-0.223275 13.487 -0.223275 14.3833 0.669825 14.9311L18.3761 25.7906C19.2692 26.3383 20.7307 26.3383 21.6238 25.7906"/>
</mask>
<path d="M39.3302 14.9311C40.2233 14.3834 40.2233 13.4871 39.3302 12.9393L21.6238 4.08498C20.7307 3.53727 19.2692 3.53727 18.3761 4.08498L0.669825 12.9393C-0.223275 13.487 -0.223275 14.3833 0.669825 14.9311L18.3761 25.7906C19.2692 26.3383 20.7307 26.3383 21.6238 25.7906" fill="#CBD5EA"/>
<path d="M39.3302 12.9393L39.853 12.0869L39.8161 12.0642L39.7774 12.0449L39.3302 12.9393ZM21.6238 4.08498L21.101 4.93744L21.1379 4.96004L21.1765 4.97938L21.6238 4.08498ZM18.3761 4.08498L18.8234 4.97938L18.862 4.96004L18.8989 4.93744L18.3761 4.08498ZM0.669825 12.9393L0.222565 12.0449L0.183894 12.0642L0.147036 12.0868L0.669825 12.9393ZM0.669825 14.9311L0.146967 15.7835L0.14701 15.7836L0.669825 14.9311ZM18.3761 25.7906L17.8533 26.643L17.8533 26.643L18.3761 25.7906ZM39.853 15.7836C40.4966 15.3888 41 14.7466 41 13.9352C41 13.1239 40.4966 12.4816 39.853 12.0869L38.8073 13.7917C38.9291 13.8664 38.9802 13.9285 38.9972 13.9544C39.0117 13.9764 39 13.9681 39 13.9352C39 13.9024 39.0117 13.894 38.9972 13.9161C38.9803 13.9419 38.9292 14.004 38.8074 14.0786L39.853 15.7836ZM39.7774 12.0449L22.071 3.19057L21.1765 4.97938L38.8829 13.8337L39.7774 12.0449ZM22.1466 3.23251C21.5067 2.84008 20.7257 2.67419 19.9999 2.67419C19.2742 2.67419 18.4932 2.84008 17.8533 3.23251L18.8989 4.93744C19.1521 4.78216 19.5484 4.67419 19.9999 4.67419C20.4515 4.67419 20.8478 4.78216 21.101 4.93744L22.1466 3.23251ZM17.9289 3.19057L0.222565 12.0449L1.11708 13.8337L18.8234 4.97938L17.9289 3.19057ZM0.147036 12.0868C-0.496595 12.4815 -1 13.1238 -1 13.9352C-1 14.7465 -0.496622 15.3888 0.146967 15.7835L1.19268 14.0787C1.0709 14.004 1.01978 13.9419 1.00277 13.916C0.988265 13.894 1 13.9023 1 13.9352C1 13.968 0.988263 13.9763 1.00276 13.9543C1.01974 13.9285 1.07085 13.8664 1.19261 13.7917L0.147036 12.0868ZM0.14701 15.7836L17.8533 26.643L18.8989 24.9381L1.19264 14.0787L0.14701 15.7836ZM17.8533 26.643C18.4932 27.0355 19.2742 27.2014 19.9999 27.2014C20.7257 27.2014 21.5067 27.0355 22.1466 26.643L21.101 24.9381C20.8478 25.0934 20.4515 25.2014 19.9999 25.2014C19.5484 25.2014 19.1521 25.0934 18.8989 24.9381L17.8533 26.643Z" fill="#CBD5EA" mask="url(#path-2-inside-1_856_10758)"/>
<path d="M38.1653 19.034C38.1653 19.034 38.1653 19.034 38.1653 19.0339H38.481C38.3125 19.034 38.2182 19.034 38.1653 19.034ZM37.9284 19.4245C37.9851 19.3907 38.0421 19.3572 38.098 19.3248V19.3268V19.3372V19.3477V19.3584V19.3693V19.3804V19.3916V19.403V19.4146V19.4263V19.4382V19.4502V19.4625V19.4748V19.4874V19.5V19.5129V19.5259V19.5391V19.5524V19.5659V19.5795V19.5933V19.6072V19.6213V19.6356V19.65V19.6645V19.6792V19.6941V19.7091V19.7243V19.7396V19.755V19.7706V19.7863V19.8022V19.8183V19.8344V19.8508V19.8672V19.8838V19.9006V19.9175V19.9345V19.9517V19.969V19.9864V20.004V20.0217V20.0396V20.0576V20.0757V20.0939V20.1123V20.1309V20.1495V20.1683V20.1872V20.2063V20.2255V20.2448V20.2642V20.2838V20.3035V20.3233V20.3432V20.3633V20.3835V20.4038V20.4242V20.4448V20.4655V20.4863V20.5072V20.5282V20.5494V20.5707V20.5921V20.6136V20.6352V20.657V20.6788V20.7008V20.7229V20.7451V20.7674V20.7898V20.8123V20.835V20.8577V20.8806V20.9036V20.9267V20.9498V20.9731V20.9965V21.02V21.0436V21.0673V21.0911V21.1151V21.1391V21.1632V21.1874V21.2117V21.2361V21.2606V21.2852V21.3099V21.3347V21.3596V21.3846V21.4097V21.4349V21.4602V21.4855V21.511V21.5365V21.5621V21.5879V21.6137V21.6396V21.6656V21.6916V21.7178V21.744V21.7704V21.7968V21.8233V21.8499V21.8765V21.9033V21.9301V21.957V21.984V22.011V22.0382V22.0654V22.0927V22.12V22.1475V22.175V22.2026V22.2302V22.258V22.2858V22.3137V22.3416V22.3696V22.3977V22.4259V22.4541V22.4824V22.5108V22.5392V22.5677V22.5962V22.6248V22.6535V22.6823V22.7111V22.7399V22.7689V22.7979V22.8269V22.856V22.8852V22.9144V22.9437V22.973V23.0024V23.0318V23.0613V23.0909V23.1205V23.1501V23.1798V23.2096V23.2394V23.2692V23.2991V23.3291V23.3591V23.3891V23.4192V23.4493V23.4795V23.5097V23.54V23.5703V23.6007V23.631V23.6615V23.6919V23.7224V23.753V23.7836V23.8142V23.8449V23.8755V23.9063V23.937V23.9678V23.9987V24.0295V24.0604V24.0913V24.1223V24.1533V24.1843V24.2153V24.2464V24.2775V24.3086V24.3398V24.3709V24.4021V24.4333V24.4646V24.4958V24.5271V24.5584V24.5898V24.6211V24.6525V24.6839V24.7153V24.7467V24.7781V24.8096V24.841V24.8725V24.904V24.9355V24.967V24.9986V25.0301V25.0617V25.0932V25.1248V25.1564V25.1879V25.2195V25.2511V25.2827V25.3144V25.346V25.3776V25.4092V25.4408V25.4724V25.5041V25.5357V25.5673V25.5989V25.6305V25.6622V25.6938V25.7254V25.757V25.7886V25.8202V25.8518V25.8834V25.9149V25.9465V25.978V26.0096V26.0411V26.0726V26.1042V26.1357V26.1671V26.1986V26.2301V26.2615V26.2929V26.3243V26.3557V26.3871V26.4185V26.4498V26.4811V26.5124V26.5437V26.5749V26.6062V26.6374V26.6686V26.6997V26.7308V26.7619V26.793V26.8241V26.8551V26.8861V26.9171V26.948V26.9789V27.0098V27.0406V27.0714V27.1022V27.1329V27.1636V27.1943V27.225V27.2556V27.2861V27.3166V27.3471V27.3776V27.408V27.4383V27.4687V27.4989V27.5292V27.5594V27.5895V27.6196V27.6497V27.6797V27.7097V27.7396V27.7695V27.7993V27.8291V27.8588V27.8884V27.9181V27.9476V27.9772V28.0066V28.036V28.0654V28.0947V28.1239V28.1531V28.1822V28.2113V28.2403V28.2693V28.2982V28.327V28.3558V28.3845V28.4131V28.4417V28.4702V28.4986V28.527V28.5554V28.5836V28.6118V28.6399V28.668V28.6959V28.7238V28.7517V28.7794V28.8071V28.8348V28.8623V28.8898V28.9172V28.9445V28.9717V28.9989V29.026V29.053V29.0799V29.1068V29.1336V29.1603V29.1869V29.2134V29.2398V29.2662V29.2925V29.3187V29.3448V29.3708V29.3967V29.4226V29.4483V29.474V29.4996V29.5251V29.5505V29.5758V29.601V29.6261V29.6511V29.6761V29.7009V29.7257V29.7503V29.7749V29.7993V29.8237V29.8479V29.8721V29.8961V29.9201V29.9439V29.9677V29.9913V30.0149V30.0383V30.0616V30.0848V30.108V30.131V30.1539V30.1767V30.1994V30.2219V30.2444V30.2668V30.289V30.3111V30.3332V30.3551V30.3769V30.3985V30.4201V30.4415V30.4629V30.4841V30.5052V30.5261V30.547V30.5677V30.5883V30.6088V30.6292V30.6494V30.6695V30.6895V30.7094V30.7291V30.7487V30.7682V30.7876V30.8068V30.8259V30.8449V30.8637V30.8825V30.901V30.9195V30.9378V30.956V30.974V30.9919V31.0097V31.0273C38.098 31.4835 38.4764 31.6888 38.5303 31.718C38.5327 31.7194 38.5345 31.7203 38.5355 31.7209C39.0047 31.9943 39.3178 32.4999 39.3178 33.0785C39.3178 33.9467 38.614 34.6506 37.7459 34.6506C36.8776 34.6506 36.1738 33.9467 36.1738 33.0785C36.1738 32.5021 36.4847 31.9981 36.9509 31.7241L36.9511 31.7239C36.9517 31.7235 36.9531 31.7228 36.9551 31.7218C37.0013 31.6971 37.3937 31.4878 37.3937 31.0273V31.0113V30.9952V30.9789V30.9625V30.946V30.9294V30.9126V30.8958V30.8788V30.8617V30.8444V30.8271V30.8096V30.7921V30.7744V30.7565V30.7386V30.7206V30.7024V30.6842V30.6658V30.6473V30.6287V30.61V30.5911V30.5722V30.5532V30.534V30.5148V30.4954V30.4759V30.4564V30.4367V30.4169V30.397V30.377V30.3569V30.3367V30.3164V30.296V30.2755V30.2549V30.2342V30.2134V30.1925V30.1715V30.1504V30.1292V30.108V30.0866V30.0651V30.0435V30.0219V30.0001V29.9783V29.9564V29.9343V29.9122V29.89V29.8677V29.8454V29.8229V29.8003V29.7777V29.755V29.7322V29.7093V29.6863V29.6632V29.6401V29.6168V29.5935V29.5701V29.5467V29.5231V29.4995V29.4758V29.452V29.4282V29.4042V29.3802V29.3561V29.3319V29.3077V29.2834V29.259V29.2346V29.21V29.1854V29.1608V29.136V29.1112V29.0863V29.0614V29.0364V29.0113V28.9861V28.9609V28.9357V28.9103V28.8849V28.8594V28.8339V28.8083V28.7827V28.7569V28.7312V28.7053V28.6794V28.6535V28.6275V28.6014V28.5753V28.5491V28.5229V28.4966V28.4702V28.4439V28.4174V28.3909V28.3643V28.3377V28.3111V28.2844V28.2576V28.2308V28.204V28.1771V28.1501V28.1231V28.0961V28.069V28.0419V28.0147V27.9875V27.9603V27.933V27.9056V27.8783V27.8508V27.8234V27.7959V27.7684V27.7408V27.7132V27.6855V27.6579V27.6301V27.6024V27.5746V27.5468V27.5189V27.491V27.4631V27.4352V27.4072V27.3792V27.3512V27.3231V27.295V27.2669V27.2388V27.2106V27.1824V27.1542V27.1259V27.0977V27.0694V27.041V27.0127V26.9844V26.956V26.9276V26.8992V26.8707V26.8423V26.8138V26.7853V26.7568V26.7283V26.6998V26.6712V26.6426V26.6141V26.5855V26.5569V26.5283V26.4996V26.471V26.4424V26.4137V26.385V26.3564V26.3277V26.299V26.2703V26.2416V26.2129V26.1842V26.1555V26.1268V26.0981V26.0694V26.0407V26.012V25.9832V25.9545V25.9258V25.8971V25.8684V25.8397V25.811V25.7823V25.7536V25.7249V25.6962V25.6676V25.6389V25.6102V25.5816V25.5529V25.5243V25.4957V25.4671V25.4385V25.4099V25.3813V25.3528V25.3242V25.2957V25.2672V25.2387V25.2102V25.1817V25.1533V25.1249V25.0964V25.0681V25.0397V25.0113V24.983V24.9547V24.9264V24.8982V24.8699V24.8417V24.8135V24.7854V24.7572V24.7291V24.701V24.673V24.645V24.617V24.589V24.5611V24.5332V24.5053V24.4775V24.4497V24.4219V24.3942V24.3665V24.3388V24.3112V24.2836V24.256V24.2285V24.201V24.1736V24.1462V24.1188V24.0915V24.0642V24.037V24.0098V23.9826V23.9555V23.9285V23.9014V23.8745V23.8475V23.8207V23.7938V23.767V23.7403V23.7136V23.687V23.6604V23.6339V23.6074V23.581V23.5546V23.5283V23.502V23.4758V23.4496V23.4235V23.3975V23.3715V23.3456V23.3197V23.2939V23.2681V23.2425V23.2168V23.1913V23.1657V23.1403V23.1149V23.0896V23.0644V23.0392V23.0141V22.989V22.964V22.9391V22.9142V22.8895V22.8647V22.8401V22.8155V22.791V22.7666V22.7423V22.718V22.6938V22.6696V22.6456V22.6216V22.5977V22.5738V22.5501V22.5264V22.5028V22.4793V22.4559V22.4325V22.4092V22.386V22.3629V22.3399V22.3169V22.2941V22.2713V22.2486V22.226V22.2035V22.1811V22.1587V22.1365V22.1143V22.0922V22.0702V22.0483V22.0265V22.0048V21.9832V21.9617V21.9402V21.9189V21.8977V21.8765V21.8555V21.8345V21.8136V21.7929V21.7722V21.7517V21.7312V21.7108V21.6906V21.6704V21.6504V21.6304V21.6106V21.5908V21.5712V21.5516V21.5322V21.5129V21.4937V21.4746V21.4556V21.4367V21.4179V21.3992V21.3807V21.3622V21.3439V21.3257V21.3076V21.2896V21.2717V21.2539V21.2363V21.2187V21.2013V21.184V21.1668V21.1498V21.1328V21.116V21.0993V21.0827V21.0663V21.0499V21.0337V21.0176V21.0017V20.9858V20.9701V20.9545V20.9391V20.9237V20.9085V20.8934V20.8785V20.8637V20.849V20.8344V20.82V20.8057V20.7915V20.7775V20.7636V20.7499V20.7362V20.7227V20.7094V20.6962V20.6831V20.6702V20.6574V20.6447V20.6322V20.6198V20.6076V20.5955V20.5835V20.5717V20.56V20.5485V20.5371V20.5259V20.5148V20.5039V20.4931V20.4824V20.4719V20.4616V20.4514V20.4413V20.4314V20.4217V20.4121V20.4027V20.3934V20.3843V20.3753V20.3665V20.3578V20.3493V20.3409V20.3327V20.3247V20.3168V20.3091V20.3016V20.2942V20.2869V20.2799V20.2729V20.2662V20.2596V20.2532V20.2469V20.2409V20.2349V20.2292V20.2236V20.2182V20.2129V20.2078V20.2029V20.1982V20.1936V20.1892V20.185V20.181V20.1771V20.1734V20.1698V20.1665V20.1633V20.1603V20.1575V20.1548V20.1524V20.1501V20.148V20.146V20.1443V20.1427V20.1413V20.1401V20.1391V20.1383V20.1376V20.1372V20.1369L36.8937 20.1368H37.3937V20.108L37.3907 20.0822L37.3901 20.0756C37.3895 20.0678 37.3887 20.0545 37.3882 20.037C37.3872 20.0009 37.3879 19.9525 37.3937 19.9017C37.4046 19.807 37.4257 19.7661 37.4313 19.7553C37.4332 19.7516 37.4333 19.7515 37.4305 19.7539L37.4307 19.7538C37.5086 19.686 37.6943 19.5643 37.9284 19.4245Z" fill="#CBD5EA" stroke="#CBD5EA"/>
</g>
<defs>
<clipPath id="clip0_856_10758">
<rect width="40" height="40" fill="white"/>
</clipPath>
</defs>
</svg>
