<svg id="Layer_1" enable-background="new 0 0 512 512" height="512" viewBox="0 0 512 512" width="512" xmlns="http://www.w3.org/2000/svg"><path d="m500 330.136h-140.104v-25.696c0-26.567 21.613-48.181 48.18-48.181 26.566 0 48.18 21.613 48.18 48.181 0 6.627 5.373 12 12 12s12-5.373 12-12c0-39.801-32.38-72.181-72.18-72.181-23.448 0-44.313 11.245-57.506 28.619-19.406-15.921-42.407-31.936-70.793-42.379 16.196-19.221 27.587-41.765 33.188-65.969 6.417-27.731 4.616-56.226-5.071-80.233-16.908-41.905-54.961-66.343-104.4-67.046l-.17-.002-.17.002c-49.44.703-87.492 25.141-104.4 67.046-9.687 24.008-11.488 52.502-5.071 80.233 5.592 24.168 16.958 46.681 33.115 65.884-41.258 14.729-74.467 41.594-96.77 78.536-23.463 38.862-33.697 88.004-28.819 138.376.355 3.669 2.377 6.972 5.483 8.956 56.117 35.853 113.243 56.487 169.792 61.33 8.76.75 17.529 1.124 26.32 1.124 47.196 0 94.761-10.811 141.764-32.239h155.432c6.627 0 12-5.373 12-12v-120.361c0-6.627-5.373-12-12-12zm-378.99-248.859c13.29-32.938 42.518-51.41 82.314-52.026 39.797.616 69.024 19.089 82.314 52.026 16.723 41.446 3.299 95.288-32.645 130.934-16.753 16.614-33.464 25.038-49.669 25.038s-32.917-8.424-49.669-25.038c-35.944-35.646-49.368-89.487-32.645-130.934zm-96.408 345.923c-6.822-92.84 40.134-166.281 121.163-189.688 18.651 15.756 37.969 23.737 57.56 23.737 19.587 0 38.903-7.979 57.552-23.731 32.014 9.375 56.664 26.889 78.381 45.156-2.178 6.872-3.361 14.182-3.361 21.766v25.695h-19.745c-6.627 0-12 5.373-12 12v120.361c0 .8.082 1.58.231 2.335-93.117 32.567-187.054 19.971-279.781-37.631zm463.398 23.297h-159.849v-96.361h159.849z"/></svg>