<svg width="18" height="18" viewBox="0 0 18 18" fill="none" xmlns="http://www.w3.org/2000/svg">
<g clip-path="url(#clip0_1420_2808)">
<path d="M1.12478 1.22472C-0.289717 2.69398 -0.000216778 4.25473 -0.000216778 8.99623C-0.000216778 12.9337 -0.687217 16.881 2.90828 17.8102C4.03103 18.099 13.979 18.099 15.1003 17.8087C16.5973 17.4225 17.8153 16.2082 17.9818 14.091C18.005 13.7955 18.005 4.20223 17.981 3.90073C17.804 1.64548 16.4158 0.345724 14.5865 0.0824739C14.1673 0.0217238 14.0833 0.00372379 11.9323 -2.6213e-05C4.30253 0.00372379 2.63003 -0.336027 1.12478 1.22472Z" fill="url(#paint0_linear_1420_2808)"/>
<path d="M8.99836 2.35419C6.27511 2.35419 3.68911 2.11194 2.70136 4.64694C2.29336 5.69394 2.35261 7.05369 2.35261 9.00069C2.35261 10.7092 2.29786 12.3149 2.70136 13.3537C3.68686 15.8902 6.29386 15.6472 8.99686 15.6472C11.6046 15.6472 14.2934 15.9187 15.2931 13.3537C15.7019 12.2962 15.6419 10.9567 15.6419 9.00069C15.6419 6.40419 15.7851 4.72794 14.5259 3.46944C13.2509 2.19444 11.5266 2.35419 8.99536 2.35419H8.99836ZM8.40286 3.55194C14.0834 3.54294 14.8064 2.91144 14.4074 11.6842C14.2656 14.7869 11.9031 14.4464 8.99911 14.4464C3.70411 14.4464 3.55186 14.2949 3.55186 8.99769C3.55186 3.63894 3.97186 3.55494 8.40286 3.55044V3.55194ZM12.5459 4.65519C12.1056 4.65519 11.7486 5.01219 11.7486 5.45244C11.7486 5.89269 12.1056 6.24969 12.5459 6.24969C12.9861 6.24969 13.3431 5.89269 13.3431 5.45244C13.3431 5.01219 12.9861 4.65519 12.5459 4.65519ZM8.99836 5.58744C7.11361 5.58744 5.58586 7.11594 5.58586 9.00069C5.58586 10.8854 7.11361 12.4132 8.99836 12.4132C10.8831 12.4132 12.4101 10.8854 12.4101 9.00069C12.4101 7.11594 10.8831 5.58744 8.99836 5.58744ZM8.99836 6.78519C11.9271 6.78519 11.9309 11.2162 8.99836 11.2162C6.07036 11.2162 6.06586 6.78519 8.99836 6.78519Z" fill="white"/>
</g>
<defs>
<linearGradient id="paint0_linear_1420_2808" x1="1.1593" y1="16.8503" x2="17.8884" y2="2.37148" gradientUnits="userSpaceOnUse">
<stop stop-color="#FFDD55"/>
<stop offset="0.5" stop-color="#FF543E"/>
<stop offset="1" stop-color="#C837AB"/>
</linearGradient>
<clipPath id="clip0_1420_2808">
<rect width="18" height="18" fill="white"/>
</clipPath>
</defs>
</svg>
