<svg width="100" height="100" viewBox="0 0 100 100" fill="none" xmlns="http://www.w3.org/2000/svg">
<g clip-path="url(#clip0_1458_12522)">
<path d="M76.0577 33.6524C73.7867 33.6524 71.9458 31.8114 71.9458 29.5404V20.9318C71.9458 13.9135 66.2564 8.22392 59.2379 8.22392H40.7628C33.7444 8.22392 28.055 13.9135 28.055 20.9318V29.5404C28.055 31.8114 26.214 33.6524 23.943 33.6524C21.672 33.6524 19.8311 31.8114 19.8311 29.5404V20.9318C19.8309 9.37157 29.2024 0 40.7626 0H59.2377C70.7981 0 80.1697 9.37157 80.1697 20.932V29.5406C80.1697 31.8114 78.3287 33.6524 76.0577 33.6524Z" fill="url(#paint0_linear_1458_12522)"/>
<path d="M58.6866 2.00803H41.3138C30.4432 2.00803 21.6309 10.8204 21.6309 21.691V31.3408C21.6309 32.6176 22.666 33.6525 23.9426 33.6525C26.2136 33.6525 28.0546 31.8116 28.0546 29.5406V20.9319C28.0546 13.9137 33.744 8.2241 40.7624 8.2241H59.2375C66.256 8.2241 71.9454 13.9137 71.9454 20.9319V29.5406C71.9454 31.8116 73.7864 33.6525 76.0573 33.6525C77.334 33.6525 78.3691 32.6174 78.3691 31.3408V21.691C78.3693 10.8204 69.5569 2.00803 58.6866 2.00803Z" fill="url(#paint1_linear_1458_12522)"/>
<path d="M50 100C48.4222 100 46.8416 99.6265 45.4294 98.9196C41.1618 96.7839 32.8279 92.2039 24.9663 85.5275C14.7394 76.8422 8.67766 67.5196 6.94942 57.8188C5.60687 50.2829 7.52374 42.59 12.2079 36.7123C16.5463 31.269 22.6935 28.088 29.5179 27.7555C29.919 27.7359 30.3257 27.7261 30.7261 27.7261C37.1198 27.7261 43.1557 30.1902 47.7218 34.6645C48.5465 35.4727 49.3069 36.3302 49.9996 37.2304C50.6926 36.3302 51.453 35.4725 52.2777 34.6643C56.8435 30.1902 62.8796 27.7263 69.2735 27.7263C69.6737 27.7263 70.0804 27.7363 70.4818 27.7557C77.3061 28.0882 83.4537 31.2692 87.7922 36.7129C92.4765 42.5904 94.393 50.2833 93.0502 57.819C91.3222 67.5196 85.2604 76.8422 75.0335 85.5275C67.1724 92.2037 58.8386 96.7835 54.5704 98.9196C53.1584 99.6265 51.5779 100 50 100Z" fill="url(#paint2_linear_1458_12522)"/>
<path d="M49.9996 97.4948C48.809 97.4948 47.6163 97.2128 46.5504 96.6793C42.3831 94.5938 34.248 90.1236 26.5878 83.6181C16.8165 75.3199 11.039 66.4918 9.41548 57.3797C8.1992 50.5526 9.93116 43.5889 14.1668 38.2742C18.0498 33.402 23.5451 30.5553 29.6398 30.2583C30.0004 30.2406 30.3659 30.2318 30.7259 30.2318C36.46 30.2318 41.8731 32.4418 45.968 36.4544C46.7035 37.1749 47.3918 37.9504 48.0139 38.7587L49.999 41.3385L51.9845 38.7589C52.6076 37.9495 53.2961 37.174 54.0308 36.454C58.1255 32.4416 63.5386 30.2318 69.2733 30.2318C69.6331 30.2318 69.9988 30.2408 70.3594 30.2583C76.4545 30.5553 81.9496 33.4022 85.8325 38.2746C90.0682 43.5891 91.7998 50.5526 90.5833 57.3797C88.96 66.492 83.1825 75.3199 73.4112 83.6181C65.7504 90.1242 57.6159 94.594 53.4486 96.6793C52.3831 97.2128 51.1904 97.4948 49.9996 97.4948Z" fill="url(#paint3_linear_1458_12522)"/>
<path d="M70.2383 32.7606C59.2985 32.2276 50.2372 40.82 50.005 51.5871C50.0046 51.6106 49.9964 51.6106 49.996 51.5871C49.7638 40.82 40.7023 32.2276 29.7627 32.7606C17.7478 33.3461 9.77344 45.0976 11.8832 56.9404C15.4317 76.858 39.9448 90.5718 47.6727 94.439C49.1393 95.1729 50.8621 95.1729 52.3287 94.439C60.0566 90.5718 84.5697 76.858 88.1181 56.9404C90.2276 45.0976 82.2533 33.3461 70.2383 32.7606Z" fill="url(#paint4_linear_1458_12522)"/>
<path d="M50.0037 88.3129C47.1512 88.3127 44.8308 85.9469 44.8308 83.039V75.0584C44.8308 74.1329 44.3943 73.25 43.6633 72.6969C43.2845 72.41 42.917 72.1155 42.5714 71.8218C39.6337 69.327 37.8857 66.612 37.3759 63.752C36.9592 61.4121 37.5565 59.0208 39.0147 57.1914C40.3837 55.4735 42.3272 54.4696 44.4874 54.3641C44.6133 54.358 44.7408 54.3549 44.8663 54.3549C46.7798 54.3549 48.5912 55.0559 50.0002 56.3355C51.4096 55.0559 53.221 54.3549 55.1343 54.3549C55.2598 54.3549 55.3872 54.358 55.5129 54.3641C57.6733 54.4696 59.6169 55.4735 60.9861 57.1912C62.4441 59.0208 63.0414 61.4118 62.6247 63.7516C62.1151 66.6116 60.3671 69.3269 57.429 71.8219C57.0835 72.1155 56.7161 72.41 56.3372 72.6969C55.6063 73.2502 55.1698 74.1329 55.1698 75.0584V83.1437C55.1698 85.9412 52.8949 88.2598 50.0988 88.312L50.0037 88.3129Z" fill="url(#paint5_linear_1458_12522)"/>
<path d="M60.0669 57.9233C58.9112 56.4733 57.2737 55.6259 55.4559 55.5374C55.349 55.5322 55.2406 55.5296 55.1341 55.5296C53.431 55.5296 51.8232 56.1859 50.6069 57.3778C50.3871 57.5931 50.1847 57.8216 50 58.0614C49.8155 57.8216 49.613 57.5931 49.3933 57.3778C48.1771 56.1861 46.5692 55.5296 44.8661 55.5296C44.7594 55.5296 44.6512 55.5322 44.5443 55.5374C42.7265 55.6261 41.089 56.4733 39.9333 57.9233C38.6855 59.489 38.1749 61.5382 38.5326 63.5455C38.993 66.1296 40.6077 68.6127 43.3318 70.9263C43.6771 71.2194 44.0257 71.4974 44.3724 71.7598C45.4045 72.541 46.0057 73.7637 46.0057 75.0582V83.0388C46.0057 85.2778 47.8379 87.1792 50.0765 87.1373C52.2475 87.0965 53.9947 85.3241 53.9947 83.1435V75.0582C53.9947 73.7637 54.5957 72.541 55.6281 71.7598C55.9747 71.4974 56.3233 71.2196 56.6686 70.9263C59.3928 68.6127 61.0077 66.1294 61.4679 63.5455C61.8251 61.5382 61.3147 59.489 60.0669 57.9233Z" fill="url(#paint6_linear_1458_12522)"/>
</g>
<defs>
<linearGradient id="paint0_linear_1458_12522" x1="50.0003" y1="11.7594" x2="50.0003" y2="29.9069" gradientUnits="userSpaceOnUse">
<stop stop-color="#FFD945"/>
<stop offset="0.3043" stop-color="#FFCD3E"/>
<stop offset="0.8558" stop-color="#FFAD2B"/>
<stop offset="1" stop-color="#FFA325"/>
</linearGradient>
<linearGradient id="paint1_linear_1458_12522" x1="47.845" y1="18.8786" x2="39.8566" y2="-3.92903" gradientUnits="userSpaceOnUse">
<stop stop-color="#FFD945" stop-opacity="0"/>
<stop offset="1" stop-color="#FBED21"/>
</linearGradient>
<linearGradient id="paint2_linear_1458_12522" x1="42.8286" y1="45.2735" x2="73.2184" y2="83.2176" gradientUnits="userSpaceOnUse">
<stop stop-color="#FFD945"/>
<stop offset="0.3043" stop-color="#FFCD3E"/>
<stop offset="0.8558" stop-color="#FFAD2B"/>
<stop offset="1" stop-color="#FFA325"/>
</linearGradient>
<linearGradient id="paint3_linear_1458_12522" x1="85.0104" y1="89.8249" x2="20.6508" y2="25.4653" gradientUnits="userSpaceOnUse">
<stop stop-color="#FFD945"/>
<stop offset="0.3043" stop-color="#FFCD3E"/>
<stop offset="0.8558" stop-color="#FFAD2B"/>
<stop offset="1" stop-color="#FFA325"/>
</linearGradient>
<linearGradient id="paint4_linear_1458_12522" x1="43.8436" y1="46.5351" x2="70.3278" y2="79.6029" gradientUnits="userSpaceOnUse">
<stop stop-color="#FF7044"/>
<stop offset="1" stop-color="#F82814"/>
</linearGradient>
<linearGradient id="paint5_linear_1458_12522" x1="61.7761" y1="71.3337" x2="39.7525" y2="71.3337" gradientUnits="userSpaceOnUse">
<stop stop-color="#FF7044"/>
<stop offset="1" stop-color="#F82814"/>
</linearGradient>
<linearGradient id="paint6_linear_1458_12522" x1="60.6912" y1="71.3337" x2="40.6965" y2="71.3337" gradientUnits="userSpaceOnUse">
<stop stop-color="#8A7889"/>
<stop offset="1" stop-color="#6E566E"/>
</linearGradient>
<clipPath id="clip0_1458_12522">
<rect width="100" height="100" fill="white"/>
</clipPath>
</defs>
</svg>
