<svg width="524" height="122" viewBox="0 0 524 122" fill="none" xmlns="http://www.w3.org/2000/svg">
<path d="M42.0135 38.3989C41.9786 38.3421 41.9473 38.2942 41.9083 38.2401C40.5989 36.4197 36.903 31.9708 35.4083 30.7166C30.4802 26.5806 22.2494 22.8526 16.5863 23.7854C14.2802 24.165 10.3598 24.9437 8.51661 26.3854C1.62182 31.7781 0.78171 36.6396 0.16296 41.403C-0.229228 44.4234 0.152543 47.4573 0.610357 50.4677C2.44473 62.5374 6.42025 69.953 9.19317 75.5197C10.7999 78.7453 20.4087 93.4682 25.8207 101.426C26.0718 101.795 54.8718 88.9926 59.9573 86.1401C72.1718 79.289 78.4874 70.4073 80.4639 62.6989C82.4213 55.065 81.1817 51.5724 79.5635 48.2333C76.6645 42.2546 73.3302 40.4484 72.089 39.736C65.5896 36.0057 62.2483 36.0213 54.8057 37.3406C51.7687 37.8792 48.8417 38.9249 46.1447 40.4218C46.1171 40.4369 46.0879 40.451 46.0603 40.4688C43.001 42.4374 45.0983 42.6125 42.7603 39.6136L42.0135 38.3989Z" fill="#F05255"/>
<path d="M20.9193 23.5322C22.126 14.6885 31.5885 4.54475 40.7093 3.34476C46.4828 2.58543 54.0598 4.32289 60.2084 11.5078C63.386 15.2208 65.639 19.5275 67.3802 24.188C68.0036 25.8552 67.9286 26.4598 67.0494 28.1073C64.901 32.1338 61.0541 36.7172 60.3994 41.3578C60.3265 41.8745 60.3005 42.6802 60.2322 43.1973C59.9817 45.0926 60.4708 47.8636 62.3229 48.9672C64.2213 50.0984 67.625 49.627 69.1374 48.3817C70.7661 47.0415 72.5901 44.2333 72.9844 42.1104C73.8625 37.3854 72.9806 32.7901 72.025 29.1781C71.2645 26.3057 71.0978 25.5286 72.9026 23.465C74.1828 22.001 78.0838 18.3245 79.5197 17.0317C85.5073 11.6406 96.1516 10.2224 105.805 17.1916C112.814 22.2526 118.114 27.9416 118.038 37.0645C118.016 39.6636 117.631 43.1114 116.756 46.8536C115.352 54.3276 112.152 59.5693 107.599 65.4328C104.9 68.9088 101.99 72.2749 98.8046 75.2406C89.6292 83.786 80.4125 89.464 69.7432 95.8005C67.3292 97.2344 62.175 99.2245 59.712 100.564C58.3562 101.302 58.6473 98.6759 57.5688 97.4749C37.5088 77.853 29.7661 64.7067 23.9906 50.4661C20.115 40.9125 19.4614 34.2177 20.9193 23.5322ZM68.6917 31.1062C70.1584 35.2136 70.0156 39.2458 68.7281 43.2697C68.5453 43.8416 68.2005 44.4068 67.8046 44.8464C66.986 45.7541 66.0208 46.8041 64.7812 46.186C63.612 45.6016 63.9516 44.215 64.1317 43.1234C64.8437 38.8177 66.336 34.814 68.6917 31.1062ZM35.1776 111.327C38.3036 110.399 55.7426 106.711 58.7672 105.452C58.7672 105.452 59.8297 106.123 61.7557 107.052C96.6068 123.88 79.0338 112.847 86.0254 116.265C88.7578 117.601 85.2854 116.044 88.0729 117.171L91.136 117.128L82.8286 113.587C76.413 111.643 86.5869 117.171 82.0838 115.599C75.8754 113.433 70.5849 109.978 64.9125 106.598C64.0625 106.092 63.3822 105.271 62.5849 104.56C63.086 104.003 63.2568 103.723 63.4964 103.562C63.9973 103.228 64.5254 102.935 65.0578 102.66C78.788 95.551 90.7963 85.751 102.075 74.936C111.818 65.5942 119.454 54.3786 120.136 40.0942C120.581 30.788 117.652 21.9306 111.073 15.7702C102.217 7.47755 89.564 7.09943 80.1145 13.7344C77.186 15.7906 74.7521 18.6672 72.1281 21.2098C71.363 21.9516 70.7218 22.8385 69.7516 23.9797C69.1229 22.6464 68.6734 21.7645 68.2822 20.8536C66.5729 16.8749 64.2864 11.6145 61.5702 8.32809C49.7578 -5.96311 30.4806 0.0119553 21.8453 12.2437C17.6593 18.1734 16.438 24.9838 16.1797 32.0666C15.7573 43.664 18.964 54.2421 24.0016 64.2193C31.1885 78.4546 38.9917 89.5344 50.7625 99.5989C52.0202 100.675 54.1921 102.422 55.8421 103.864C56.6802 102.968 57.1973 102.16 56.2136 102.53C53.7932 103.437 56.2136 102.53 53.263 103.731" fill="#313030"/>
<path d="M50.0443 90.8374C42.2645 83.112 36.6292 76.7182 44.5016 89.114C44.7511 89.5073 56.1807 101.685 54.7131 100.593C56.1807 101.685 53.6271 101.692 54.7281 102.53C65.024 110.366 76.576 115.075 89.2573 118.134C98.1453 120.278 108.799 120.656 117.882 117.822C123.429 116.092 129.512 112.342 133.367 107.525C141.317 97.5896 141.264 81.2224 127.619 74.2521L125.377 76.086C132.279 79.7682 135.935 83.6989 135.844 91.8541C135.755 99.9005 133.042 105.482 126.933 109.502C119.597 114.329 110.139 116.383 101.759 115.703C83.7177 114.24 70.4745 106.867 61.7495 100.346" fill="#313030"/>
<path d="M135.897 101.803C137.613 100.135 139.293 98.4052 140.939 96.6136C142.581 94.8234 144.239 93.1682 145.905 91.6464C148.456 89.3406 150.764 87.624 152.824 86.4942C154.885 85.3661 156.676 84.8026 158.197 84.8026C162.66 84.8026 164.893 86.5202 164.893 89.9536C164.893 91.3776 164.513 93.1802 163.752 95.363C162.992 97.5458 161.704 100.208 159.889 103.348C158.124 106.489 156.688 109.162 155.583 111.37C154.48 113.577 153.928 115.148 153.928 116.08C153.928 117.552 154.787 118.287 156.503 118.287C156.993 118.287 157.608 118.214 158.343 118.067C159.08 117.92 159.767 117.65 160.405 117.257C161.091 116.865 163.696 114.419 164.015 114.124C164.335 113.83 164.567 113.683 164.715 113.683C164.959 113.683 165.083 113.806 165.083 114.05C165.083 114.541 164.909 115.044 164.567 115.56C164.224 116.074 161.532 118.632 160.699 119.024C159.816 119.366 159.007 119.649 158.269 119.87C157.535 120.091 156.821 120.202 156.136 120.202C154.025 120.202 152.493 119.784 151.536 118.95C150.579 118.116 150.1 117.012 150.1 115.638C150.1 114.707 150.285 113.714 150.653 112.657C151.02 111.603 151.524 110.511 152.163 109.383C152.259 109.284 152.505 108.868 152.897 108.131C153.289 107.395 153.731 106.561 154.221 105.629C154.712 104.698 155.155 103.851 155.547 103.09C155.939 102.331 156.185 101.875 156.284 101.729C156.92 100.551 157.571 99.2885 158.232 97.938C158.896 96.5901 159.399 95.4249 159.741 94.4432C160.183 93.1682 160.479 92.1864 160.624 91.4984C160.772 90.813 160.847 90.2234 160.847 89.7328C160.847 88.7521 160.612 88.0901 160.147 87.7458C159.68 87.403 159.103 87.2306 158.417 87.2306C157.877 87.2306 157.337 87.3046 156.799 87.4516C156.257 87.5978 155.741 87.7953 155.253 88.0396C153.141 89.0702 150.837 90.6412 148.335 92.75C145.832 94.8598 142.913 97.5828 139.577 100.919C137.221 103.274 134.94 105.765 132.733 108.389C130.525 111.015 128.439 113.677 126.476 116.374C126.034 116.964 125.556 117.662 125.043 118.471C124.527 119.282 124.012 119.981 123.496 120.569C122.981 121.157 122.453 121.5 121.913 121.6C121.276 121.6 120.625 121.403 119.964 121.01C119.301 120.617 118.97 120.151 118.97 119.612C118.97 119.219 119.067 118.924 119.264 118.729C120.981 117.062 122.687 115.099 124.379 112.842C126.071 110.585 129.446 110.417 131.557 106.639C134.303 101.733 137.409 97.026 138.637 93.615" fill="#313030"/>
<path d="M169.152 109.604C169.641 109.505 170.341 109.198 171.249 108.684C172.156 108.168 173.052 107.568 173.935 106.881C174.327 106.538 174.867 106.022 175.555 105.335C176.241 104.649 176.707 104.059 176.953 103.569C177.296 102.931 177.469 102.417 177.469 102.023C177.469 101.434 177.148 101.14 176.512 101.14C176.167 101.14 175.8 101.214 175.407 101.361C174.916 101.557 174.327 102.048 173.641 102.832C172.953 103.618 172.413 104.231 172.021 104.672C171.433 105.409 170.881 106.206 170.365 107.064C169.851 107.923 169.447 108.77 169.152 109.604ZM172.317 119.245C170.156 119.245 168.269 118.729 166.649 117.698C165.031 116.669 164.22 114.952 164.22 112.547C164.22 111.075 164.624 109.542 165.436 107.948C166.245 106.354 167.312 104.87 168.637 103.495C169.961 102.122 171.397 101.005 172.941 100.147C174.487 99.2885 176.019 98.8582 177.54 98.8582C178.325 98.8582 178.988 99.0677 179.528 99.4844C180.068 99.9016 180.337 100.528 180.337 101.361C180.337 102.343 179.908 103.348 179.049 104.378C178.192 105.409 177.136 106.378 175.885 107.285C174.635 108.194 173.371 108.978 172.095 109.641C170.82 110.303 169.764 110.781 168.931 111.075C168.783 111.665 168.711 112.279 168.711 112.915C168.711 114.044 169.017 115.049 169.631 115.932C170.243 116.816 171.311 117.257 172.832 117.257C174.352 117.257 175.737 116.951 176.991 116.337C178.241 115.724 179.38 114.964 180.412 114.056C181.443 113.149 182.372 112.279 183.208 111.444C183.893 110.757 184.459 110.181 184.9 109.714C185.341 109.248 185.733 108.843 186.079 108.499C186.224 108.352 186.447 108.278 186.74 108.278C186.987 108.278 187.129 108.642 187.329 108.536C189.005 107.654 187.428 108.917 187.181 109.162C186.987 109.408 186.653 109.763 186.189 110.229C185.721 110.696 185.28 111.161 184.863 111.628C184.447 112.095 184.14 112.425 183.943 112.621C181.785 114.927 179.724 116.608 177.763 117.662C175.8 118.718 173.984 119.245 172.317 119.245Z" fill="#313030"/>
<path d="M189.539 118.582C188.212 118.582 187.256 118.177 186.668 117.368C186.079 116.558 185.785 115.54 185.785 114.314C185.785 113.872 185.931 113.063 186.227 111.885C186.52 110.707 186.987 109.579 187.625 108.499C187.477 108.647 187.097 109.089 186.484 109.824C185.869 110.56 185.257 111.272 184.644 111.958C184.029 112.646 183.576 112.989 183.283 112.989C183.085 112.989 182.939 112.854 182.84 112.584C182.743 112.315 182.791 112.081 182.988 111.885C183.429 111.395 184.005 110.744 184.717 109.934C185.428 109.126 186.163 108.278 186.925 107.395C187.684 106.513 188.385 105.728 189.024 105.041C189.66 104.354 190.101 103.888 190.348 103.643C191.231 102.809 192.359 100.289 193.732 100.289C194.028 100.289 194.432 100.375 194.948 100.546C195.463 100.719 195.72 101 195.72 101.392C195.72 101.687 194.128 104.514 193.44 105.371C192.752 106.23 192.429 106.709 191.313 108.212C190.447 109.378 190.009 110.826 189.745 111.731C189.479 112.524 189.313 113.29 189.252 113.804C189.187 114.363 189.22 114.596 189.22 114.989C189.22 116.266 189.929 116.89 191.009 116.89C192.089 116.89 193.315 116.301 194.689 115.123C195.523 114.436 196.455 113.48 197.485 112.253C198.516 111.027 199.473 109.813 200.356 108.61C201.24 107.409 201.853 106.513 202.196 105.924C202.147 105.335 202.097 104.746 202.048 104.157C201.999 103.569 201.975 102.98 201.975 102.391C201.975 100.919 202.527 99.6078 203.632 98.4536C204.735 97.3016 206.047 96.7245 207.568 96.7245C208.697 96.7245 209.263 97.313 209.263 98.4906C209.263 99.3734 208.967 100.392 208.379 101.545C207.789 102.698 207.115 103.79 206.355 104.819C205.592 105.85 204.919 106.709 204.329 107.395V107.69C204.329 109.261 204.709 110.499 205.472 111.407C206.231 112.315 207.176 112.818 208.305 112.915C210.168 113.063 211.628 112.757 212.683 111.995C213.739 111.235 214.952 110.094 216.325 108.573C216.473 108.426 216.595 108.352 216.693 108.352C216.989 108.352 217.137 108.598 217.137 109.089C217.137 109.284 217.085 109.482 216.989 109.677C215.712 111.493 214.217 112.78 212.5 113.541C210.781 114.302 209.285 114.583 208.009 114.387C206.488 114.142 205.263 113.566 204.329 112.657C203.397 111.751 202.86 110.389 202.712 108.573C201.731 110.045 200.477 111.554 198.957 113.098C197.436 114.645 195.841 115.945 194.173 117C192.507 118.056 190.96 118.582 189.539 118.582Z" fill="#313030"/>
<path d="M218.977 109.604C219.465 109.505 220.165 109.198 221.073 108.684C221.981 108.168 222.876 107.568 223.76 106.881C224.152 106.538 224.692 106.022 225.38 105.335C226.065 104.649 226.532 104.059 226.777 103.569C227.121 102.931 227.293 102.417 227.293 102.023C227.293 101.434 226.973 101.14 226.336 101.14C225.992 101.14 225.624 101.214 225.232 101.361C224.741 101.557 224.152 102.048 223.465 102.832C222.777 103.618 222.237 104.231 221.845 104.672C221.259 105.409 220.705 106.206 220.191 107.064C219.675 107.923 219.271 108.77 218.977 109.604ZM222.141 119.245C219.981 119.245 218.093 118.729 216.473 117.698C214.856 116.669 214.044 114.952 214.044 112.547C214.044 111.075 214.449 109.542 215.26 107.948C216.069 106.354 217.137 104.87 218.461 103.495C219.785 102.122 221.221 101.005 222.765 100.147C224.312 99.2885 225.844 98.8582 227.365 98.8582C228.149 98.8582 228.813 99.0677 229.353 99.4844C229.893 99.9016 230.161 100.528 230.161 101.361C230.161 102.343 229.733 103.348 228.875 104.378C228.016 105.409 226.961 106.378 225.711 107.285C224.46 108.194 223.195 108.978 221.92 109.641C220.644 110.303 219.589 110.781 218.755 111.075C218.607 111.665 218.536 112.279 218.536 112.915C218.536 114.044 218.841 115.049 219.456 115.932C220.067 116.816 221.135 117.257 222.657 117.257C224.176 117.257 225.563 116.951 226.815 116.337C228.065 115.724 229.205 114.964 230.236 114.056C231.267 113.149 232.197 112.279 233.033 111.444C233.719 110.757 234.283 110.181 234.725 109.714C235.167 109.248 235.559 108.843 235.904 108.499C236.049 108.352 236.271 108.278 236.564 108.278C236.811 108.278 237.007 108.365 237.153 108.536C237.301 108.708 237.252 108.917 237.007 109.162C236.811 109.408 236.479 109.763 236.015 110.229C235.547 110.696 235.104 111.161 234.688 111.628C234.271 112.095 233.965 112.425 233.768 112.621C231.609 114.927 229.548 116.608 227.587 117.662C225.624 118.718 223.808 119.245 222.141 119.245Z" fill="#313030"/>
<path d="M249.075 119.981C247.357 119.981 245.909 119.587 244.733 118.803C243.555 118.019 242.967 116.694 242.967 114.829C242.967 113.651 243.431 112.081 244.365 110.118C245.296 108.157 246.449 106.341 247.824 104.672C247.577 104.722 247.271 104.759 246.904 104.783C246.536 104.808 246.132 104.819 245.691 104.819C244.953 104.819 244.217 104.709 243.483 104.489C242.745 104.268 242.255 103.839 242.011 103.201C241.813 103.446 241.323 104.059 240.537 105.041C239.752 106.022 238.856 107.09 237.852 108.242C236.845 109.395 235.925 110.389 235.092 111.223C234.256 112.058 233.693 112.473 233.399 112.473C233.3 112.473 233.179 112.425 233.031 112.327C232.885 112.229 232.811 112.106 232.811 111.958C232.811 111.714 233.068 111.345 233.583 110.854C234.099 110.365 234.479 109.997 234.725 109.75C236.587 107.74 237.973 106.083 238.883 104.783C239.788 103.483 240.415 102.514 240.757 101.875C240.464 101.434 240.316 100.748 240.316 99.815C240.316 98.7854 240.476 97.6937 240.795 96.5401C241.115 95.388 241.556 94.3953 242.121 93.5593C242.684 92.7254 243.335 92.3088 244.069 92.3088C244.904 92.3088 245.592 92.75 246.132 93.6333C246.669 94.5161 246.94 95.326 246.94 96.0625C246.94 96.6505 246.721 97.2896 246.277 97.9749C245.836 98.663 245.333 99.3254 244.771 99.963C244.205 100.601 243.727 101.116 243.335 101.508C243.776 102.686 244.635 103.274 245.909 103.274C246.793 103.274 247.529 103.03 248.117 102.538C248.707 102.048 249.247 101.57 249.737 101.104C250.228 100.637 250.741 100.404 251.284 100.404C251.969 100.404 252.581 100.637 253.124 101.104C253.661 101.57 253.908 102.146 253.859 102.832C253.023 103.716 252.103 104.906 251.099 106.403C250.092 107.899 249.247 109.445 248.561 111.038C247.873 112.634 247.529 114.069 247.529 115.344C247.529 116.277 247.811 116.915 248.376 117.257C248.939 117.601 249.688 117.772 250.62 117.772C251.503 117.772 252.436 117.528 253.417 117.036C254.399 116.546 255.379 115.958 256.361 115.27C256.999 114.829 257.943 114.019 259.193 112.842C260.447 111.665 261.904 110.169 263.573 108.352C263.669 108.255 263.768 108.205 263.867 108.205C264.259 108.205 264.456 108.476 264.456 109.015C264.456 109.162 264.163 109.567 263.573 110.229C262.984 110.891 262.285 111.64 261.475 112.473C260.665 113.308 259.893 114.081 259.156 114.792C258.421 115.503 257.881 115.982 257.539 116.227C256.311 117.159 255 118.019 253.601 118.803C252.204 119.587 250.695 119.981 249.075 119.981Z" fill="#313030"/>
<path d="M275.717 121.084C273.804 121.084 272.847 120.102 272.847 118.141C272.847 116.816 273.189 115.247 273.877 113.43C274.564 111.616 275.483 109.837 276.637 108.094C277.789 106.354 279.089 104.906 280.537 103.753C281.984 102.601 283.444 102.023 284.917 102.023C285.257 102.023 285.603 102.085 285.945 102.207C286.288 102.331 286.461 102.588 286.461 102.98C286.412 103.079 286.351 103.189 286.279 103.311C286.204 103.434 286.119 103.544 286.02 103.643C285.332 104.28 284.475 105.114 283.444 106.145C282.413 107.175 281.371 108.341 280.317 109.641C279.261 110.941 278.391 112.279 277.703 113.651C277.557 113.946 277.287 114.51 276.895 115.344C276.501 116.179 276.305 116.939 276.305 117.625C276.305 118.263 276.623 118.582 277.261 118.582C277.557 118.582 277.949 118.508 278.44 118.362C280.796 117.478 282.819 116.203 284.511 114.534C286.204 112.867 287.663 111.124 288.891 109.309C290.116 107.495 291.172 105.997 292.055 104.819C292.496 104.625 293.012 104.525 293.601 104.525C294.089 104.525 294.543 104.635 294.963 104.856C295.377 105.077 295.587 105.482 295.587 106.071C294.704 107.151 293.895 108.487 293.159 110.082C292.423 111.677 292.055 113.283 292.055 114.903C292.055 116.423 292.789 117.184 294.261 117.184C295.244 117.184 296.176 116.718 297.059 115.785C297.941 114.854 298.727 113.786 299.415 112.584C300.1 111.382 300.593 110.413 300.887 109.677C300.739 109.284 300.507 108.61 300.187 107.653C299.868 106.696 299.561 105.739 299.267 104.783C298.972 103.827 298.825 103.201 298.825 102.907C298.825 102.368 298.985 101.975 299.303 101.729C299.621 101.483 300.028 101.361 300.519 101.361C301.647 101.361 302.553 101.828 303.241 102.759C303.928 103.692 304.272 104.672 304.272 105.703C304.272 106.194 304.209 106.685 304.088 107.175C303.964 107.665 303.78 108.131 303.535 108.573C303.78 109.456 304.112 110.365 304.529 111.296C304.947 112.229 305.669 112.694 306.7 112.694C308.123 112.694 309.277 112.376 310.16 111.737C311.043 111.101 312.096 110.144 313.324 108.868C313.371 108.819 313.472 108.794 313.617 108.794C314.059 108.794 314.281 108.991 314.281 109.383C314.281 109.579 314.183 109.8 313.985 110.045C313.103 111.027 312.059 112.032 310.857 113.063C309.655 114.093 308.293 114.608 306.773 114.608C304.613 114.608 302.945 113.677 301.769 111.811C301.328 112.891 300.701 113.97 299.892 115.049C299.084 116.13 298.151 117.025 297.096 117.735C296.04 118.448 294.876 118.803 293.601 118.803C292.029 118.803 290.777 118.374 289.847 117.515C288.915 116.657 288.449 114.975 288.449 112.473C287.811 113.112 286.964 113.909 285.908 114.866C284.853 115.823 283.713 116.779 282.488 117.735C281.26 118.692 280.059 119.489 278.881 120.128C277.703 120.764 276.648 121.084 275.717 121.084Z" fill="#313030"/>
<path d="M317.739 115.417C318.868 114.781 320.008 113.774 321.161 112.4C322.313 111.027 323.419 109.456 324.475 107.69C325.528 105.924 326.423 104.157 327.16 102.391C325.981 102.391 324.657 102.821 323.184 103.679C321.715 104.538 320.316 105.618 318.992 106.917C317.665 108.218 316.572 109.567 315.716 110.965C314.856 112.363 314.427 113.628 314.427 114.755C314.427 115.688 314.796 116.153 315.532 116.153C316.072 116.153 316.807 115.909 317.739 115.417ZM329.22 118.95C327.649 118.95 326.472 118.57 325.688 117.809C324.901 117.049 324.4 116.08 324.179 114.903C323.959 113.725 323.872 112.547 323.921 111.37C323.184 112.352 322.277 113.419 321.199 114.571C320.119 115.724 318.94 116.718 317.665 117.552C316.389 118.386 315.089 118.803 313.765 118.803C312.784 118.803 311.973 118.57 311.336 118.104C310.697 117.638 310.38 116.89 310.38 115.858C310.38 114.142 310.932 112.327 312.036 110.413C313.139 108.499 314.549 106.672 316.267 104.93C317.985 103.188 319.825 101.778 321.787 100.698C323.749 99.6197 325.589 99.0792 327.305 99.0792C327.796 99.0792 328.484 99.1786 329.368 99.3734C330.251 99.5708 331.047 99.8645 331.76 100.257C332.471 100.649 332.825 101.19 332.825 101.875C332.825 102.22 332.605 102.417 332.164 102.465C331.723 102.514 331.403 102.661 331.208 102.907C329.784 104.624 329.073 107.395 329.073 111.223C329.073 111.713 329.096 112.376 329.145 113.209C329.195 114.044 329.38 114.781 329.699 115.417C330.016 116.056 330.52 116.374 331.208 116.374C332.239 116.374 333.341 115.932 334.52 115.049C335.696 114.167 336.875 113.098 338.052 111.848C339.231 110.597 340.308 109.456 341.289 108.426C341.388 108.278 341.485 108.205 341.584 108.205C341.829 108.205 342.037 108.341 342.209 108.61C342.38 108.88 342.368 109.114 342.173 109.309C340.996 110.683 339.855 111.91 338.752 112.989C337.647 114.069 336.505 115.099 335.328 116.08C333.072 117.993 331.035 118.95 329.22 118.95Z" fill="#313030"/>
<path d="M343.571 108.426C345.191 107.347 347.067 105.813 349.201 103.827C351.335 101.839 353.517 99.6312 355.752 97.2031C357.984 94.774 360.044 92.3208 361.933 89.8437C363.823 87.3661 365.356 85.0355 366.532 82.8516C367.711 80.6688 368.299 78.8907 368.299 77.5156C368.299 77.2713 368.261 77.0375 368.189 76.8167C368.116 76.5959 367.907 76.486 367.564 76.486C366.581 76.486 365.429 76.9891 364.104 77.9943C362.779 79.0005 361.405 80.3016 359.983 81.8948C358.559 83.4901 357.173 85.1697 355.824 86.936C354.475 88.7031 353.285 90.3469 352.255 91.8672C351.224 93.3885 350.44 94.5656 349.9 95.3989C348.624 97.4599 347.424 99.5943 346.293 101.803C345.164 104.01 344.257 106.218 343.571 108.426ZM345.779 119.76C343.423 119.76 341.707 118.987 340.627 117.442C339.548 115.895 339.008 114.044 339.008 111.885C339.008 110.218 339.499 108.157 340.481 105.703C341.46 103.251 342.772 100.614 344.417 97.7916C346.06 94.9708 347.924 92.1979 350.011 89.4749C352.095 86.7521 354.253 84.2625 356.487 82.0057C358.719 79.7489 360.903 77.9459 363.037 76.5959C365.171 75.2469 367.097 74.5719 368.813 74.5719C369.648 74.5719 370.457 74.9161 371.243 75.6031C372.028 76.2901 372.42 77.0745 372.42 77.9573C372.42 79.3317 371.88 80.9511 370.801 82.8145C369.721 84.6803 368.299 86.6667 366.532 88.776C364.767 90.886 362.816 93.0203 360.683 95.1787C358.549 97.3385 356.388 99.3989 354.205 101.361C352.023 103.323 349.987 105.103 348.097 106.696C346.208 108.292 344.649 109.555 343.423 110.487C343.373 110.88 343.337 111.259 343.315 111.628C343.288 111.995 343.277 112.376 343.277 112.768C343.277 114.142 343.547 115.247 344.087 116.08C344.627 116.915 345.633 117.331 347.103 117.331C348.673 117.331 350.205 116.964 351.703 116.227C353.2 115.491 354.611 114.583 355.935 113.504C357.259 112.425 358.425 111.382 359.432 110.376C360.436 109.371 361.235 108.573 361.823 107.985C361.872 107.936 361.945 107.911 362.044 107.911C362.239 107.911 362.399 108.046 362.523 108.315C362.644 108.585 362.656 108.794 362.559 108.942C362.019 109.629 361.368 110.365 360.608 111.149C359.847 111.934 359.247 112.573 358.805 113.063C357.136 114.731 355.173 116.264 352.919 117.662C350.66 119.061 348.281 119.76 345.779 119.76Z" fill="#313030"/>
<path d="M371.683 107.764C372.321 107.764 373.155 107.642 374.185 107.395C375.216 107.151 376.248 106.782 377.276 106.292C378.307 105.802 379.177 105.214 379.891 104.525C380.601 103.839 380.956 103.03 380.956 102.096C380.956 101.508 380.613 101.214 379.927 101.214C379.533 101.214 378.921 101.46 378.087 101.949C377.252 102.441 376.356 103.03 375.399 103.716C374.443 104.404 373.572 105.066 372.788 105.703C372.003 106.341 371.413 106.832 371.021 107.175C370.972 107.224 370.948 107.298 370.948 107.395C370.948 107.543 371.047 107.642 371.241 107.69C371.439 107.74 371.584 107.764 371.683 107.764ZM368.299 101.434C369.425 100.649 370.948 99.6312 372.861 98.3797C374.775 97.1292 376.823 95.7306 379.007 94.1854C381.188 92.6396 383.287 91.0202 385.299 89.3281C387.309 87.6349 389.04 85.9432 390.488 84.25C391.933 82.5568 392.829 80.9749 393.173 79.5036C393.173 79.4046 393.184 79.3073 393.211 79.2088C393.233 79.1114 393.248 79.0374 393.248 78.988C393.248 78.2521 392.853 77.8104 392.069 77.6636C391.921 77.615 391.776 77.5896 391.628 77.5896C391.48 77.5896 391.333 77.5896 391.187 77.5896C389.664 77.5896 388.009 78.2521 386.219 79.5765C384.427 80.901 382.601 82.5828 380.736 84.6177C378.869 86.6546 377.104 88.789 375.436 91.0202C373.769 93.2541 372.309 95.3016 371.059 97.1661C369.808 99.0306 368.888 100.454 368.299 101.434ZM358.804 118.803C358.46 118.803 357.957 118.729 357.296 118.582C356.633 118.434 356.303 118.116 356.303 117.626C356.303 116.988 356.559 116.08 357.075 114.903C357.589 113.725 358.155 112.547 358.768 111.37C359.38 110.192 359.859 109.284 360.201 108.647C361.036 107.126 362.116 105.249 363.44 103.016C364.767 100.784 366.299 98.3797 368.04 95.8046C369.781 93.2286 371.633 90.6781 373.596 88.1505C375.56 85.624 377.583 83.3188 379.668 81.2322C381.753 79.1473 383.815 77.4786 385.851 76.2281C387.887 74.9765 389.812 74.3516 391.628 74.3516C392.755 74.3516 393.799 74.5844 394.755 75.0505C395.712 75.5177 396.191 76.4374 396.191 77.8104C396.191 79.2828 395.651 80.8526 394.572 82.5197C393.492 84.1896 392.069 85.8812 390.303 87.5978C388.537 89.3166 386.587 90.9844 384.453 92.6036C382.317 94.2224 380.172 95.7562 378.013 97.203C375.853 98.651 373.843 99.9505 371.979 101.104C370.113 102.257 368.592 103.201 367.416 103.936C367.021 104.575 366.532 105.47 365.943 106.623C365.353 107.776 364.888 108.696 364.545 109.383C365.379 108.745 366.532 107.801 368.003 106.549C369.475 105.298 371.105 104.01 372.899 102.686C374.689 101.361 376.443 100.233 378.159 99.2994C379.876 98.3682 381.373 97.9021 382.651 97.9021C383.679 97.9021 384.416 98.1958 384.857 98.7854C385.299 99.3734 385.519 100.159 385.519 101.14C385.519 102.317 385.065 103.385 384.157 104.342C383.249 105.298 382.085 106.145 380.663 106.881C379.239 107.616 377.779 108.181 376.283 108.573C374.785 108.966 373.451 109.162 372.272 109.162C372.075 109.162 371.88 109.162 371.683 109.162C371.488 109.162 371.291 109.137 371.096 109.089C371.683 110.806 372.713 112.352 374.185 113.725C375.659 115.099 377.325 115.785 379.189 115.785C381.348 115.785 383.225 115.406 384.82 114.645C386.413 113.884 387.812 112.964 389.016 111.885C390.217 110.806 391.285 109.8 392.217 108.868C392.461 108.622 392.659 108.499 392.807 108.499C393.051 108.499 393.173 108.696 393.173 109.089C393.173 109.53 393.001 109.923 392.659 110.266C391.823 111.101 391.26 111.689 390.967 112.032C390.671 112.376 390.401 112.657 390.155 112.878C389.909 113.098 389.396 113.504 388.611 114.093C387.531 114.878 386.587 115.554 385.777 116.116C384.968 116.681 383.999 117.184 382.869 117.626C382.036 117.969 381.128 118.251 380.147 118.471C379.165 118.692 378.184 118.803 377.203 118.803C376.319 118.803 375.448 118.692 374.591 118.471C373.732 118.251 372.908 117.846 372.127 117.257C370.948 116.423 369.941 115.319 369.108 113.946C368.273 112.573 367.733 111.223 367.489 109.897C366.9 110.192 366.151 110.733 365.243 111.517C364.336 112.302 363.501 113.271 362.741 114.424C361.98 115.577 361.528 116.865 361.38 118.287C360.987 118.434 360.572 118.558 360.131 118.655C359.688 118.754 359.247 118.803 358.804 118.803Z" fill="#313030"/>
<path d="M410.027 115.417C411.156 114.781 412.296 113.774 413.449 112.4C414.601 111.027 415.707 109.456 416.761 107.69C417.815 105.924 418.711 104.157 419.448 102.391C418.269 102.391 416.944 102.821 415.472 103.679C414.001 104.538 412.604 105.618 411.279 106.917C409.952 108.218 408.86 109.567 408.004 110.965C407.144 112.363 406.715 113.628 406.715 114.755C406.715 115.688 407.084 116.153 407.819 116.153C408.359 116.153 409.095 115.909 410.027 115.417ZM421.507 118.95C419.936 118.95 418.76 118.57 417.975 117.809C417.189 117.049 416.688 116.08 416.465 114.903C416.247 113.725 416.16 112.547 416.209 111.37C415.472 112.352 414.564 113.419 413.487 114.571C412.407 115.724 411.228 116.718 409.952 117.552C408.677 118.386 407.377 118.803 406.053 118.803C405.072 118.803 404.26 118.57 403.624 118.104C402.985 117.638 402.667 116.89 402.667 115.858C402.667 114.142 403.219 112.327 404.324 110.413C405.427 108.499 406.837 106.672 408.555 104.93C410.273 103.188 412.113 101.778 414.073 100.698C416.037 99.6197 417.877 99.0792 419.593 99.0792C420.084 99.0792 420.772 99.1786 421.655 99.3734C422.539 99.5708 423.335 99.8645 424.047 100.257C424.757 100.649 425.113 101.19 425.113 101.875C425.113 102.22 424.893 102.417 424.452 102.465C424.011 102.514 423.689 102.661 423.495 102.907C422.072 104.624 421.361 107.395 421.361 111.223C421.361 111.713 421.384 112.376 421.433 113.209C421.483 114.044 421.667 114.781 421.985 115.417C422.304 116.056 422.807 116.374 423.495 116.374C424.525 116.374 425.628 115.932 426.807 115.049C427.984 114.167 429.163 113.098 430.339 111.848C431.517 110.597 432.596 109.456 433.577 108.426C433.676 108.278 433.772 108.205 433.871 108.205C434.117 108.205 434.325 108.341 434.497 108.61C434.668 108.88 434.655 109.114 434.46 109.309C433.284 110.683 432.141 111.91 431.039 112.989C429.935 114.069 428.793 115.099 427.616 116.08C425.36 117.993 423.323 118.95 421.507 118.95Z" fill="#313030"/>
<path d="M435.859 108.426C437.479 107.347 439.353 105.813 441.489 103.827C443.623 101.839 445.805 99.6312 448.04 97.2031C450.272 94.774 452.331 92.3208 454.22 89.8437C456.109 87.3661 457.644 85.0355 458.82 82.8516C459.999 80.6688 460.587 78.8907 460.587 77.5156C460.587 77.2713 460.549 77.0375 460.477 76.8167C460.403 76.5959 460.193 76.486 459.851 76.486C458.869 76.486 457.717 76.9891 456.391 77.9943C455.067 79.0005 453.693 80.3016 452.269 81.8948C450.847 83.4901 449.46 85.1697 448.112 86.936C446.763 88.7031 445.573 90.3469 444.543 91.8672C443.512 93.3885 442.728 94.5656 442.187 95.3989C440.912 97.4599 439.711 99.5943 438.581 101.803C437.452 104.01 436.544 106.218 435.859 108.426ZM438.067 119.76C435.711 119.76 433.995 118.987 432.913 117.442C431.836 115.895 431.296 114.044 431.296 111.885C431.296 110.218 431.787 108.157 432.768 105.703C433.748 103.251 435.06 100.614 436.704 97.7916C438.348 94.9708 440.212 92.1979 442.299 89.4749C444.383 86.7521 446.54 84.2625 448.775 82.0057C451.007 79.7489 453.189 77.9459 455.325 76.5959C457.459 75.2469 459.385 74.5719 461.101 74.5719C461.935 74.5719 462.744 74.9161 463.531 75.6031C464.315 76.2901 464.707 77.0745 464.707 77.9573C464.707 79.3317 464.167 80.9511 463.089 82.8145C462.009 84.6803 460.587 86.6667 458.82 88.776C457.055 90.886 455.104 93.0203 452.969 95.1787C450.836 97.3385 448.676 99.3989 446.493 101.361C444.311 103.323 442.273 105.103 440.384 106.696C438.495 108.292 436.937 109.555 435.711 110.487C435.661 110.88 435.624 111.259 435.601 111.628C435.575 111.995 435.565 112.376 435.565 112.768C435.565 114.142 435.833 115.247 436.375 116.08C436.915 116.915 437.92 117.331 439.391 117.331C440.961 117.331 442.493 116.964 443.991 116.227C445.487 115.491 446.897 114.583 448.223 113.504C449.547 112.425 450.713 111.382 451.72 110.376C452.724 109.371 453.523 108.573 454.109 107.985C454.159 107.936 454.233 107.911 454.331 107.911C454.527 107.911 454.687 108.046 454.809 108.315C454.931 108.585 454.943 108.794 454.847 108.942C454.307 109.629 453.656 110.365 452.896 111.149C452.135 111.934 451.535 112.573 451.093 113.063C449.424 114.731 447.46 116.264 445.205 117.662C442.947 119.061 440.569 119.76 438.067 119.76Z" fill="#313030"/>
<path d="M461.765 111.811C462.355 110.634 462.869 109.284 463.311 107.764C463.752 106.243 464.021 104.698 464.12 103.127C464.219 102.294 464.033 101.434 463.568 100.551C463.101 99.6682 462.305 99.2265 461.177 99.2265C460.097 99.2265 459.2 99.6197 458.489 100.404C457.779 101.19 457.349 102.22 457.203 103.495C457.545 103.251 457.999 103.03 458.564 102.832C459.128 102.637 459.607 102.538 459.999 102.538C460.636 102.538 461.151 102.698 461.545 103.016C461.937 103.336 462.132 103.692 462.132 104.084C462.132 104.575 461.815 104.919 461.177 105.114C460.588 105.311 459.961 105.679 459.3 106.218C458.637 106.759 458.159 107.248 457.865 107.69C458.257 108.475 458.823 109.235 459.557 109.971C460.292 110.707 461.029 111.321 461.765 111.811ZM455.584 117.552C456.072 117.552 456.687 117.294 457.424 116.779C458.159 116.264 458.859 115.688 459.52 115.049C460.184 114.413 460.663 113.897 460.956 113.504C460.268 113.112 459.447 112.473 458.489 111.591C457.532 110.707 456.785 109.948 456.245 109.309C455.952 109.653 455.631 110.229 455.288 111.038C454.945 111.848 454.652 112.694 454.405 113.577C454.159 114.461 454.037 115.196 454.037 115.785C454.037 116.964 454.553 117.552 455.584 117.552ZM453.817 119.686C452.688 119.686 451.793 119.403 451.131 118.84C450.469 118.277 450.139 117.405 450.139 116.227C450.139 114.362 450.616 112.584 451.572 110.891C452.528 109.198 453.547 107.665 454.627 106.292C454.577 106.047 454.541 105.79 454.516 105.519C454.492 105.249 454.479 104.992 454.479 104.746C454.479 103.323 454.859 101.999 455.621 100.772C456.38 99.5464 457.387 98.5521 458.637 97.7916C459.888 97.0317 461.2 96.6505 462.576 96.6505C464.292 96.6505 465.58 97.1292 466.439 98.086C467.297 99.0426 467.725 100.38 467.725 102.096C467.725 103.913 467.297 105.765 466.439 107.653C465.58 109.542 464.685 111.247 463.752 112.768C463.997 112.915 464.379 113.063 464.892 113.209C465.408 113.356 465.861 113.43 466.256 113.43C467.972 113.43 469.457 113.124 470.708 112.51C471.959 111.897 473.443 110.806 475.159 109.235C475.404 108.991 475.601 108.868 475.748 108.868C475.944 108.868 476.043 109.04 476.043 109.383C476.043 109.776 475.869 110.169 475.527 110.56C474.449 111.885 473.025 112.964 471.26 113.798C469.492 114.634 467.775 115.049 466.108 115.049C465.519 115.049 464.929 115.001 464.341 114.903C463.752 114.804 463.188 114.657 462.648 114.461C461.569 115.835 460.292 117.049 458.823 118.104C457.349 119.158 455.68 119.686 453.817 119.686Z" fill="#313030"/>
<path d="M488.477 119.245C484.652 119.245 482.739 117.331 482.739 113.504C482.739 112.327 483.02 110.941 483.584 109.346C484.147 107.752 484.749 106.39 485.388 105.262C482.64 107.372 480.431 109.371 478.763 111.259C477.096 113.149 475.895 114.534 475.157 115.417C474.963 115.614 474.716 116.019 474.423 116.632C474.128 117.246 473.784 117.809 473.391 118.324C472.999 118.84 472.557 119.097 472.067 119.097C471.576 119.097 471.231 118.9 471.036 118.508C470.841 118.116 470.743 117.724 470.743 117.331C470.743 117.086 470.816 116.816 470.963 116.522C471.601 115.393 472.348 113.664 473.208 111.333C474.065 109.003 474.765 106.635 475.305 104.231C475.404 103.838 475.489 103.52 475.561 103.274C475.636 103.03 475.747 102.759 475.895 102.465C476.139 101.925 476.667 101.483 477.476 101.14C478.287 100.797 478.936 100.625 479.427 100.625C479.671 100.625 479.929 100.687 480.199 100.809C480.468 100.932 480.603 101.165 480.603 101.508C480.603 101.755 480.457 102.294 480.161 103.127C479.868 103.962 479.511 104.893 479.096 105.924C478.677 106.954 478.287 107.923 477.917 108.831C477.549 109.74 477.293 110.365 477.145 110.707C477.537 110.365 478.149 109.787 478.985 108.978C479.819 108.168 480.763 107.285 481.819 106.329C482.872 105.371 483.94 104.452 485.02 103.569C486.097 102.686 487.055 101.949 487.891 101.361C488.724 100.772 489.336 100.477 489.731 100.477C490.416 100.477 491.017 100.637 491.533 100.956C492.049 101.276 492.305 101.828 492.305 102.612C492.305 102.956 492.035 103.52 491.496 104.305C490.956 105.091 490.317 106.022 489.583 107.102C488.848 108.181 488.209 109.335 487.669 110.56C487.129 111.787 486.86 113.015 486.86 114.241C486.86 115.123 487.092 115.872 487.557 116.485C488.024 117.099 488.675 117.405 489.509 117.405C490.833 117.405 492.108 117.099 493.336 116.485C494.563 115.872 495.692 115.123 496.72 114.241C497.751 113.356 498.659 112.487 499.445 111.628C500.228 110.769 500.841 110.094 501.285 109.604C501.332 109.555 501.381 109.53 501.431 109.53C501.529 109.53 501.653 109.592 501.799 109.714C501.947 109.837 502.02 110.021 502.02 110.266C502.02 110.511 501.921 110.733 501.727 110.928C500.597 112.253 499.359 113.554 498.009 114.829C496.659 116.105 495.201 117.159 493.629 117.993C492.059 118.827 490.343 119.245 488.477 119.245Z" fill="#313030"/>
<path d="M504.891 109.604C505.38 109.505 506.08 109.198 506.988 108.684C507.895 108.168 508.791 107.568 509.673 106.881C510.065 106.538 510.605 106.022 511.293 105.335C511.98 104.649 512.445 104.059 512.692 103.569C513.035 102.931 513.208 102.417 513.208 102.023C513.208 101.434 512.887 101.14 512.251 101.14C511.905 101.14 511.537 101.214 511.145 101.361C510.655 101.557 510.065 102.048 509.38 102.832C508.692 103.618 508.152 104.231 507.76 104.672C507.172 105.409 506.62 106.206 506.104 107.064C505.589 107.923 505.184 108.77 504.891 109.604ZM508.056 119.245C505.895 119.245 504.008 118.729 502.388 117.698C500.769 116.669 499.959 114.952 499.959 112.547C499.959 111.075 500.363 109.542 501.175 107.948C501.983 106.354 503.051 104.87 504.376 103.495C505.7 102.122 507.136 101.005 508.68 100.147C510.225 99.2885 511.757 98.8582 513.279 98.8582C514.064 98.8582 514.727 99.0677 515.267 99.4844C515.807 99.9016 516.076 100.528 516.076 101.361C516.076 102.343 515.647 103.348 514.788 104.378C513.931 105.409 512.875 106.378 511.624 107.285C510.373 108.194 509.109 108.978 507.833 109.641C506.559 110.303 505.503 110.781 504.669 111.075C504.521 111.665 504.449 112.279 504.449 112.915C504.449 114.044 504.756 115.049 505.369 115.932C505.981 116.816 507.049 117.257 508.571 117.257C510.091 117.257 511.476 116.951 512.729 116.337C513.98 115.724 515.119 114.964 516.149 114.056C517.181 113.149 518.111 112.279 518.947 111.444C519.632 110.757 520.197 110.181 520.639 109.714C521.08 109.248 521.472 108.843 521.817 108.499C521.963 108.352 522.185 108.278 522.479 108.278C522.725 108.278 522.92 108.365 523.068 108.536C523.216 108.708 523.167 108.917 522.92 109.162C522.725 109.408 522.392 109.763 521.928 110.229C521.46 110.696 521.019 111.161 520.601 111.628C520.185 112.095 519.879 112.425 519.681 112.621C517.524 114.927 515.463 116.608 513.501 117.662C511.537 118.718 509.723 119.245 508.056 119.245Z" fill="#313030"/>
</svg>
