<svg width="237" height="55" viewBox="0 0 237 55" fill="none" xmlns="http://www.w3.org/2000/svg">
<g clip-path="url(#clip0_2001_2010)">
<path d="M19.0028 17.3679C18.987 17.3423 18.9729 17.3206 18.9553 17.2961C18.363 16.4727 16.6913 14.4605 16.0153 13.8932C13.7863 12.0225 10.0635 10.3363 7.50205 10.7582C6.45897 10.9299 4.68578 11.2821 3.85208 11.9342C0.733553 14.3733 0.353569 16.5722 0.0737074 18.7267C-0.10368 20.0929 0.0689957 21.4651 0.276066 22.8267C1.10576 28.2859 2.90389 31.64 4.15809 34.1578C4.88484 35.6167 9.23093 42.2759 11.6788 45.8753C11.7923 46.0421 24.8187 40.2516 27.1188 38.9614C32.6435 35.8627 35.5001 31.8454 36.3941 28.3589C37.2794 24.9061 36.7187 23.3263 35.9868 21.8161C34.6755 19.1119 33.1674 18.2949 32.6061 17.9727C29.6663 16.2855 28.1551 16.2925 24.7887 16.8893C23.4151 17.1329 22.0912 17.6059 20.8714 18.2829C20.8589 18.2897 20.8457 18.2961 20.8332 18.3042C19.4495 19.1946 20.3981 19.2738 19.3406 17.9173L19.0028 17.3679Z" fill="#F05255"/>
<path d="M9.46233 10.6437C10.0081 6.64366 14.288 2.05563 18.4134 1.51286C21.0248 1.16941 24.4519 1.95528 27.2329 5.20504C28.6701 6.88441 29.6892 8.83238 30.4767 10.9403C30.7587 11.6944 30.7248 11.9679 30.3271 12.713C29.3554 14.5342 27.6154 16.6073 27.3193 18.7063C27.2863 18.94 27.2746 19.3044 27.2437 19.5383C27.1304 20.3955 27.3516 21.6488 28.1893 22.148C29.0479 22.6596 30.5875 22.4465 31.2715 21.8832C32.0082 21.277 32.8332 20.0069 33.0115 19.0466C33.4087 16.9095 33.0098 14.8311 32.5776 13.1973C32.2336 11.8982 32.1582 11.5467 32.9745 10.6133C33.5535 9.95114 35.318 8.28823 35.9674 7.7035C38.6757 5.2651 43.4901 4.62362 47.8564 7.77581C51.0268 10.0649 53.424 12.6381 53.3894 16.7644C53.3795 17.94 53.2054 19.4994 52.8096 21.192C52.1743 24.5725 50.7269 26.9434 48.668 29.5954C47.4473 31.1676 46.1306 32.6901 44.6901 34.0316C40.54 37.8966 36.3713 40.4648 31.5455 43.3308C30.4536 43.9794 28.1224 44.8795 27.0084 45.4854C26.3952 45.8192 26.5268 44.6314 26.039 44.0882C16.9658 35.2131 13.4638 29.2671 10.8515 22.826C9.09856 18.5048 8.80294 15.4768 9.46233 10.6437ZM31.0699 14.0694C31.7333 15.9272 31.6687 17.751 31.0864 19.571C31.0037 19.8297 30.8477 20.0853 30.6687 20.2841C30.2984 20.6947 29.8618 21.1696 29.3012 20.8901C28.7723 20.6257 28.9259 19.9986 29.0074 19.5049C29.3295 17.5574 30.0044 15.7465 31.0699 14.0694ZM15.9114 50.3533C17.3253 49.9337 25.213 48.2656 26.581 47.6963C26.581 47.6963 27.0616 47.9997 27.9327 48.42C43.696 56.0311 35.7477 51.0409 38.91 52.587C40.1459 53.1913 38.5753 52.4871 39.8361 52.9967L41.2215 52.9774L37.4641 51.3759C34.5623 50.4963 39.164 52.9967 37.1272 52.2859C34.3191 51.306 31.9262 49.7432 29.3606 48.2145C28.9761 47.9855 28.6684 47.6143 28.3078 47.2929C28.5344 47.0407 28.6117 46.9144 28.7201 46.8416C28.9466 46.6901 29.1855 46.558 29.4263 46.4333C35.6365 43.218 41.0679 38.7854 46.1695 33.8937C50.5759 29.6685 54.0296 24.5956 54.3383 18.1347C54.5394 13.9255 53.2148 9.9193 50.239 7.13293C46.2336 3.38214 40.5105 3.21111 36.2365 6.2121C34.9119 7.14216 33.8111 8.44322 32.6242 9.59328C32.2782 9.92876 31.9882 10.3299 31.5493 10.8461C31.2649 10.243 31.0617 9.84415 30.8847 9.43214C30.1116 7.63258 29.0774 5.25328 27.8489 3.76684C22.5061 -2.69711 13.7869 0.00542831 9.88117 5.53787C7.98783 8.21991 7.43541 11.3003 7.3186 14.5038C7.12755 19.7493 8.57793 24.5339 10.8565 29.0466C14.1071 35.4853 17.6365 40.4966 22.9605 45.0489C23.5294 45.5355 24.5117 46.3257 25.258 46.9778C25.6371 46.5726 25.871 46.2074 25.426 46.3745C24.3313 46.785 25.426 46.3745 24.0915 46.9179" fill="white"/>
<path d="M22.6352 41.086C19.1164 37.5918 16.5675 34.6999 20.1282 40.3065C20.241 40.4844 25.4107 45.9924 24.7469 45.4983C25.4107 45.9924 24.2557 45.9954 24.7537 46.3745C29.4105 49.9189 34.6355 52.049 40.3713 53.4325C44.3914 54.4021 49.2103 54.5731 53.3185 53.2914C55.8274 52.5086 58.5786 50.8124 60.3221 48.6338C63.9182 44.14 63.8941 36.7371 57.7226 33.5844L56.7082 34.4139C59.83 36.0794 61.4836 37.8572 61.4426 41.5459C61.4022 45.1853 60.1751 47.7097 57.4121 49.5278C54.0942 51.7114 49.8162 52.6403 46.026 52.3328C37.8658 51.6709 31.8758 48.3363 27.9295 45.3867" fill="white"/>
<path d="M61.4667 46.0456C62.2429 45.2915 63.0027 44.5089 63.7469 43.6986C64.4899 42.8889 65.2395 42.1403 65.9934 41.4519C67.147 40.409 68.1909 39.6326 69.1227 39.1216C70.055 38.6113 70.8649 38.3565 71.5531 38.3565C73.5715 38.3565 74.5817 39.1333 74.5817 40.6863C74.5817 41.3303 74.4098 42.1457 74.0654 43.133C73.7217 44.1203 73.1391 45.3245 72.3184 46.7445C71.5199 48.165 70.8704 49.3745 70.3704 50.3728C69.8717 51.3712 69.622 52.0817 69.622 52.5034C69.622 53.1689 70.0104 53.5017 70.7866 53.5017C71.0085 53.5017 71.2865 53.4685 71.6188 53.4021C71.9523 53.3357 72.2629 53.2134 72.5517 53.0355C72.8617 52.8582 74.0401 51.7521 74.1842 51.6188C74.329 51.4855 74.4339 51.419 74.5009 51.419C74.6112 51.419 74.6673 51.4749 74.6673 51.5854C74.6673 51.8073 74.5889 52.0348 74.4339 52.268C74.2789 52.5006 73.0613 53.6575 72.6844 53.8349C72.2852 53.9894 71.9191 54.1175 71.5856 54.2174C71.2533 54.3173 70.9307 54.3675 70.6207 54.3675C69.666 54.3675 68.9731 54.1786 68.5401 53.8014C68.1071 53.4242 67.8906 52.9251 67.8906 52.3034C67.8906 51.8822 67.9744 51.4329 68.1409 50.9552C68.3067 50.4782 68.5347 49.9846 68.8236 49.4741C68.867 49.4296 68.9785 49.2412 69.1558 48.908C69.3332 48.5752 69.5328 48.198 69.7547 47.7764C69.9766 47.3551 70.1768 46.9721 70.3541 46.6279C70.5315 46.2844 70.643 46.0785 70.6876 46.0124C70.9753 45.4795 71.2696 44.9085 71.5687 44.2976C71.8691 43.688 72.0964 43.1609 72.2514 42.7169C72.451 42.1403 72.5849 41.6962 72.6506 41.385C72.7176 41.075 72.7514 40.8083 72.7514 40.5864C72.7514 40.1428 72.6452 39.8434 72.4347 39.6877C72.2237 39.5326 71.9625 39.4547 71.6526 39.4547C71.4083 39.4547 71.1641 39.4881 70.9204 39.5546C70.6756 39.6207 70.4422 39.7101 70.2215 39.8205C69.2662 40.2867 68.2241 40.9973 67.0921 41.9511C65.9602 42.9054 64.6401 44.137 63.1312 45.6458C62.0656 46.7111 61.0337 47.8378 60.0354 49.0247C59.0368 50.2122 58.0933 51.4162 57.2054 52.6362C57.0057 52.9029 56.7892 53.2191 56.5571 53.5849C56.3239 53.9515 56.0909 54.2676 55.8577 54.5338C55.6245 54.7998 55.3858 54.955 55.1416 55C54.8537 55 54.5592 54.9107 54.2603 54.7333C53.9602 54.5555 53.8105 54.3446 53.8105 54.101C53.8105 53.9232 53.8544 53.7899 53.9434 53.7015C54.7199 52.9474 55.4916 52.0596 56.257 51.0388C57.0224 50.0181 58.5487 49.942 59.5035 48.2329C60.7454 46.014 62.1506 43.8851 62.706 42.3423" fill="white"/>
<path d="M76.5081 49.574C76.7294 49.5295 77.046 49.3907 77.4567 49.158C77.8668 48.9248 78.2721 48.6532 78.6713 48.3424C78.8486 48.1874 79.0929 47.9542 79.404 47.6433C79.7146 47.333 79.9251 47.0663 80.0367 46.8444C80.1917 46.5561 80.2701 46.3233 80.2701 46.1455C80.2701 45.879 80.1247 45.7457 79.837 45.7457C79.6808 45.7457 79.515 45.7792 79.3371 45.8461C79.1152 45.9346 78.8486 46.1565 78.5386 46.5113C78.2275 46.8668 77.9832 47.1438 77.8059 47.3436C77.54 47.6767 77.2903 48.0374 77.0569 48.4256C76.8241 48.8138 76.6414 49.1971 76.5081 49.574ZM77.9398 53.9347C76.9622 53.9347 76.1089 53.7015 75.3761 53.2353C74.644 52.7696 74.2773 51.9931 74.2773 50.9055C74.2773 50.2395 74.4601 49.5462 74.8273 48.8251C75.1934 48.1043 75.6759 47.4329 76.2753 46.811C76.8742 46.19 77.5237 45.6849 78.222 45.2967C78.921 44.9085 79.6139 44.7139 80.302 44.7139C80.6572 44.7139 80.9569 44.8086 81.2012 44.9971C81.4454 45.1858 81.5673 45.4689 81.5673 45.8461C81.5673 46.2899 81.3731 46.7445 80.9847 47.2103C80.5969 47.6767 80.1193 48.1149 79.5536 48.5255C78.9879 48.9366 78.4162 49.2909 77.8391 49.5907C77.2625 49.8904 76.7849 50.1067 76.408 50.2395C76.341 50.5062 76.3085 50.7839 76.3085 51.0718C76.3085 51.5825 76.4472 52.0372 76.7246 52.4365C77.0014 52.836 77.4845 53.0355 78.1726 53.0355C78.8601 53.0355 79.4867 52.8973 80.0536 52.6195C80.6192 52.3423 81.1342 51.9985 81.601 51.5877C82.0672 51.1776 82.4875 50.7839 82.8657 50.4063C83.1756 50.0956 83.4313 49.835 83.631 49.6237C83.8306 49.4134 84.0079 49.2298 84.1641 49.0744C84.2298 49.0079 84.3305 48.9745 84.4632 48.9745C84.5748 48.9745 84.6393 49.1389 84.7298 49.0911C85.4878 48.692 84.7744 49.2633 84.6628 49.3745C84.5748 49.4854 84.424 49.6461 84.2141 49.8569C84.0025 50.0683 83.8028 50.2786 83.6141 50.4895C83.4259 50.7008 83.2872 50.8501 83.198 50.9389C82.2222 51.9818 81.2898 52.742 80.4027 53.2191C79.515 53.6966 78.6936 53.9347 77.9398 53.9347Z" fill="white"/>
<path d="M85.7286 53.6351C85.1286 53.6351 84.6962 53.4518 84.4302 53.0857C84.1637 52.7194 84.031 52.2591 84.031 51.7043C84.031 51.5046 84.0967 51.1387 84.2306 50.6061C84.3633 50.0732 84.5743 49.5629 84.8632 49.0744C84.7963 49.1413 84.6244 49.341 84.347 49.6739C84.069 50.0068 83.7922 50.3288 83.5148 50.6388C83.2367 50.95 83.0317 51.1053 82.899 51.1053C82.8098 51.1053 82.7434 51.0442 82.6988 50.9222C82.6548 50.8004 82.6765 50.6946 82.7657 50.6061C82.9654 50.3844 83.2259 50.0899 83.5479 49.7236C83.8694 49.3578 84.2016 48.9745 84.5466 48.5752C84.8898 48.1759 85.207 47.8209 85.4958 47.5104C85.7835 47.1997 85.9831 46.9888 86.0947 46.8779C86.4939 46.5007 87.0041 45.3608 87.6253 45.3608C87.7592 45.3608 87.9419 45.3997 88.1753 45.4774C88.4081 45.5554 88.5245 45.6826 88.5245 45.8599C88.5245 45.9933 87.8044 47.2718 87.4932 47.6597C87.182 48.0482 87.0361 48.2649 86.5313 48.9446C86.1393 49.4718 85.9415 50.1269 85.8221 50.5361C85.7015 50.8949 85.6267 51.2412 85.599 51.4737C85.5694 51.7267 85.5845 51.8322 85.5845 52.0096C85.5845 52.5873 85.9053 52.8695 86.3938 52.8695C86.8823 52.8695 87.4365 52.6033 88.0583 52.0706C88.4352 51.7599 88.8568 51.3272 89.3229 50.7721C89.7891 50.2176 90.2221 49.6687 90.6213 49.1245C91.0212 48.5813 91.2986 48.1759 91.4536 47.9097C91.4313 47.6433 91.4089 47.3771 91.3866 47.1106C91.3643 46.8444 91.3535 46.578 91.3535 46.3118C91.3535 45.6458 91.6031 45.0529 92.1031 44.5308C92.6018 44.0098 93.1952 43.7488 93.8833 43.7488C94.3941 43.7488 94.6498 44.015 94.6498 44.5476C94.6498 44.9469 94.516 45.4076 94.25 45.9292C93.9834 46.4505 93.6783 46.9443 93.3345 47.4101C92.9896 47.8762 92.685 48.2649 92.4185 48.5752V48.7085C92.4185 49.419 92.5904 49.979 92.9353 50.3896C93.2785 50.8004 93.706 51.0277 94.2168 51.0718C95.0593 51.1387 95.7197 51.0002 96.1967 50.6558C96.6743 50.3121 97.2231 49.7959 97.8443 49.1078C97.9112 49.0414 97.9661 49.0079 98.0107 49.0079C98.1446 49.0079 98.2116 49.1194 98.2116 49.341C98.2116 49.4296 98.1881 49.5189 98.1446 49.607C97.5669 50.4284 96.8909 51.0108 96.1141 51.355C95.3367 51.6991 94.6601 51.8263 94.083 51.7375C93.3948 51.6266 92.8406 51.366 92.4185 50.9552C91.9969 50.5451 91.7539 49.9293 91.687 49.1078C91.2431 49.7738 90.6762 50.456 89.9887 51.1547C89.3006 51.8541 88.5793 52.4421 87.8249 52.9194C87.0711 53.3969 86.3715 53.6351 85.7286 53.6351Z" fill="white"/>
<path d="M99.0439 49.574C99.2646 49.5295 99.5812 49.3907 99.9919 49.158C100.403 48.9248 100.807 48.6532 101.207 48.3424C101.384 48.1874 101.629 47.9542 101.94 47.6433C102.25 47.333 102.461 47.0663 102.572 46.8444C102.727 46.5561 102.805 46.3233 102.805 46.1455C102.805 45.879 102.66 45.7457 102.372 45.7457C102.217 45.7457 102.05 45.7792 101.873 45.8461C101.651 45.9346 101.384 46.1565 101.074 46.5113C100.763 46.8668 100.518 47.1438 100.341 47.3436C100.076 47.6767 99.8254 48.0374 99.5927 48.4256C99.3593 48.8138 99.1765 49.1971 99.0439 49.574ZM100.475 53.9347C99.498 53.9347 98.644 53.7015 97.9113 53.2353C97.1798 52.7696 96.8125 51.9931 96.8125 50.9055C96.8125 50.2395 96.9958 49.5462 97.3625 48.8251C97.7286 48.1043 98.2116 47.4329 98.8105 46.811C99.4093 46.19 100.059 45.6849 100.757 45.2967C101.457 44.9085 102.15 44.7139 102.838 44.7139C103.192 44.7139 103.493 44.8086 103.737 44.9971C103.981 45.1858 104.102 45.4689 104.102 45.8461C104.102 46.2899 103.909 46.7445 103.52 47.2103C103.132 47.6767 102.655 48.1149 102.089 48.5255C101.524 48.9366 100.951 49.2909 100.375 49.5907C99.7977 49.8904 99.3207 50.1067 98.9432 50.2395C98.8762 50.5062 98.8442 50.7839 98.8442 51.0718C98.8442 51.5825 98.9824 52.0372 99.2604 52.4365C99.5366 52.836 100.02 53.0355 100.708 53.0355C101.395 53.0355 102.022 52.8973 102.589 52.6195C103.154 52.3423 103.67 51.9985 104.136 51.5877C104.602 51.1776 105.023 50.7839 105.401 50.4063C105.711 50.0956 105.967 49.835 106.167 49.6237C106.366 49.4134 106.544 49.2298 106.7 49.0744C106.766 49.0079 106.866 48.9745 106.998 48.9745C107.11 48.9745 107.199 49.0136 107.265 49.0911C107.332 49.1691 107.31 49.2633 107.199 49.3745C107.11 49.4854 106.96 49.6461 106.75 49.8569C106.538 50.0683 106.338 50.2786 106.15 50.4895C105.961 50.7008 105.823 50.8501 105.734 50.9389C104.757 51.9818 103.825 52.742 102.938 53.2191C102.05 53.6966 101.229 53.9347 100.475 53.9347Z" fill="white"/>
<path d="M112.657 54.2676C111.88 54.2676 111.225 54.0897 110.693 53.735C110.16 53.3802 109.894 52.7811 109.894 51.9373C109.894 51.4047 110.104 50.6946 110.527 49.8068C110.948 48.9198 111.47 48.0984 112.091 47.3436C111.98 47.366 111.841 47.3827 111.675 47.3938C111.509 47.4049 111.326 47.4101 111.126 47.4101C110.793 47.4101 110.46 47.3603 110.128 47.2604C109.794 47.1608 109.572 46.9664 109.462 46.6781C109.373 46.7891 109.151 47.0663 108.796 47.5104C108.44 47.9542 108.035 48.4369 107.581 48.9582C107.126 49.4798 106.71 49.9293 106.333 50.3064C105.955 50.684 105.7 50.872 105.567 50.872C105.522 50.872 105.467 50.8501 105.4 50.8056C105.335 50.7615 105.301 50.7057 105.301 50.6388C105.301 50.5283 105.417 50.3618 105.65 50.1396C105.883 49.9182 106.055 49.7519 106.167 49.6404C107.009 48.7309 107.636 47.9818 108.047 47.3938C108.457 46.8058 108.74 46.3674 108.895 46.0785C108.762 45.879 108.695 45.5688 108.695 45.1466C108.695 44.6809 108.768 44.1871 108.912 43.6654C109.057 43.1442 109.256 42.6953 109.512 42.3171C109.767 41.94 110.061 41.7515 110.393 41.7515C110.771 41.7515 111.082 41.9511 111.326 42.3506C111.569 42.7499 111.692 43.1162 111.692 43.4493C111.692 43.7153 111.593 44.0043 111.392 44.3143C111.192 44.6256 110.965 44.9252 110.71 45.2136C110.455 45.5019 110.238 45.7349 110.061 45.9125C110.26 46.4451 110.649 46.7111 111.225 46.7111C111.625 46.7111 111.958 46.6006 112.224 46.3782C112.491 46.1565 112.735 45.9403 112.957 45.7294C113.179 45.5186 113.411 45.4131 113.656 45.4131C113.966 45.4131 114.243 45.5186 114.489 45.7294C114.732 45.9403 114.843 46.2008 114.821 46.5113C114.443 46.9108 114.027 47.4491 113.572 48.1262C113.117 48.8032 112.735 49.5022 112.425 50.2228C112.114 50.9446 111.958 51.5936 111.958 52.1705C111.958 52.5922 112.085 52.881 112.341 53.0355C112.596 53.1913 112.934 53.2688 113.356 53.2688C113.755 53.2688 114.177 53.1583 114.621 52.9357C115.065 52.7142 115.508 52.4483 115.953 52.1371C116.241 51.9373 116.668 51.571 117.234 51.0388C117.801 50.5062 118.46 49.8296 119.215 49.0079C119.258 48.9639 119.303 48.9415 119.347 48.9415C119.525 48.9415 119.614 49.0638 119.614 49.3076C119.614 49.3745 119.481 49.5573 119.215 49.8569C118.948 50.1564 118.632 50.4949 118.266 50.872C117.9 51.2497 117.55 51.5993 117.217 51.9206C116.885 52.2424 116.64 52.4589 116.485 52.5698C115.93 52.9915 115.337 53.3802 114.704 53.735C114.072 54.0897 113.39 54.2676 112.657 54.2676Z" fill="white"/>
<path d="M124.708 54.7668C123.842 54.7668 123.409 54.3225 123.409 53.4356C123.409 52.836 123.564 52.1265 123.875 51.3048C124.186 50.4843 124.601 49.6796 125.124 48.8913C125.645 48.1043 126.233 47.4491 126.888 46.9276C127.542 46.4065 128.202 46.1455 128.869 46.1455C129.023 46.1455 129.179 46.1735 129.334 46.2286C129.489 46.2844 129.567 46.4008 129.567 46.578C129.545 46.623 129.517 46.6724 129.485 46.7278C129.451 46.7837 129.412 46.8333 129.368 46.8779C129.056 47.1662 128.669 47.5433 128.202 48.0096C127.736 48.4753 127.265 49.003 126.788 49.5907C126.311 50.1787 125.917 50.7839 125.606 51.4047C125.54 51.538 125.417 51.7934 125.24 52.1705C125.062 52.5481 124.974 52.8916 124.974 53.2023C124.974 53.4907 125.117 53.6351 125.406 53.6351C125.54 53.6351 125.717 53.6016 125.939 53.5354C127.005 53.1354 127.92 52.5587 128.685 51.8042C129.451 51.0499 130.11 50.2619 130.666 49.4407C131.22 48.6202 131.698 47.9427 132.097 47.4101C132.297 47.322 132.53 47.2771 132.797 47.2771C133.017 47.2771 133.222 47.3269 133.412 47.4268C133.6 47.5266 133.695 47.7099 133.695 47.9761C133.295 48.4647 132.929 49.0692 132.596 49.7905C132.263 50.5116 132.097 51.2384 132.097 51.9708C132.097 52.6586 132.429 53.0026 133.095 53.0026C133.54 53.0026 133.961 52.7917 134.36 52.3701C134.76 51.9488 135.115 51.4659 135.426 50.9222C135.736 50.3785 135.959 49.9401 136.092 49.607C136.025 49.4296 135.92 49.1245 135.775 48.6918C135.631 48.2591 135.492 47.8261 135.359 47.3938C135.226 46.961 135.159 46.6781 135.159 46.545C135.159 46.3012 135.232 46.1238 135.375 46.0124C135.519 45.9012 135.703 45.8461 135.925 45.8461C136.435 45.8461 136.846 46.0569 137.157 46.4781C137.467 46.9002 137.623 47.3436 137.623 47.8098C137.623 48.0317 137.595 48.2539 137.54 48.4753C137.484 48.6972 137.4 48.908 137.289 49.1078C137.4 49.5074 137.551 49.9182 137.739 50.3394C137.928 50.7615 138.255 50.9719 138.721 50.9719C139.365 50.9719 139.887 50.828 140.286 50.5392C140.685 50.2513 141.162 49.8183 141.717 49.2412C141.738 49.2192 141.784 49.2077 141.85 49.2077C142.049 49.2077 142.15 49.2968 142.15 49.4741C142.15 49.5629 142.106 49.6628 142.016 49.7738C141.617 50.2176 141.145 50.6723 140.602 51.1387C140.058 51.6044 139.442 51.8374 138.754 51.8374C137.777 51.8374 137.023 51.4162 136.491 50.5724C136.291 51.061 136.008 51.5491 135.642 52.0372C135.276 52.5258 134.854 52.9307 134.377 53.252C133.9 53.5743 133.373 53.735 132.797 53.735C132.086 53.735 131.519 53.5409 131.098 53.1522C130.677 52.7644 130.466 52.0037 130.466 50.872C130.177 51.1608 129.794 51.5213 129.317 51.954C128.84 52.387 128.324 52.8193 127.77 53.252C127.215 53.6848 126.671 54.0452 126.139 54.334C125.606 54.6219 125.129 54.7668 124.708 54.7668Z" fill="white"/>
<path d="M143.714 52.2035C144.225 51.9156 144.741 51.4605 145.262 50.8391C145.783 50.2176 146.283 49.5074 146.761 48.7085C147.237 47.9097 147.642 47.1106 147.975 46.3118C147.442 46.3118 146.843 46.5064 146.177 46.8941C145.512 47.2828 144.88 47.7714 144.281 48.3587C143.681 48.9472 143.186 49.5573 142.799 50.1898C142.41 50.8223 142.216 51.3941 142.216 51.9039C142.216 52.326 142.383 52.5364 142.716 52.5364C142.96 52.5364 143.293 52.4259 143.714 52.2035ZM148.907 53.8014C148.197 53.8014 147.664 53.6297 147.31 53.2855C146.954 52.9418 146.727 52.5034 146.627 51.9707C146.527 51.4381 146.488 50.9055 146.511 50.3728C146.177 50.8169 145.767 51.2998 145.279 51.8207C144.791 52.3423 144.257 52.7917 143.681 53.1689C143.104 53.5465 142.516 53.735 141.917 53.735C141.473 53.735 141.106 53.6297 140.818 53.4188C140.529 53.208 140.386 52.8695 140.386 52.403C140.386 51.6266 140.635 50.8056 141.135 49.9401C141.633 49.0744 142.272 48.2482 143.048 47.4602C143.826 46.6724 144.658 46.0345 145.545 45.5459C146.433 45.0583 147.265 44.8138 148.041 44.8138C148.263 44.8138 148.574 44.8588 148.974 44.9469C149.373 45.0361 149.733 45.169 150.056 45.3464C150.377 45.524 150.538 45.7686 150.538 46.0785C150.538 46.2343 150.438 46.3233 150.239 46.3452C150.039 46.3674 149.894 46.4338 149.806 46.545C149.162 47.322 148.841 48.5752 148.841 50.3064C148.841 50.5283 148.851 50.828 148.873 51.2049C148.896 51.5825 148.979 51.9156 149.124 52.2035C149.267 52.4923 149.495 52.6362 149.806 52.6362C150.272 52.6362 150.771 52.4365 151.304 52.0372C151.836 51.6379 152.369 51.1547 152.902 50.5891C153.435 50.0233 153.922 49.5074 154.366 49.0414C154.411 48.9745 154.455 48.9415 154.499 48.9415C154.61 48.9415 154.704 49.003 154.782 49.1245C154.859 49.2468 154.854 49.3526 154.766 49.4407C154.233 50.0621 153.717 50.6171 153.218 51.1053C152.719 51.5936 152.202 52.0596 151.67 52.5034C150.649 53.3686 149.728 53.8014 148.907 53.8014Z" fill="white"/>
<path d="M155.398 49.0414C156.13 48.5533 156.979 47.8595 157.944 46.961C158.909 46.0618 159.897 45.0635 160.907 43.9652C161.917 42.8665 162.849 41.7569 163.703 40.6366C164.558 39.5159 165.251 38.4618 165.783 37.474C166.316 36.4867 166.582 35.6825 166.582 35.0605C166.582 34.95 166.565 34.8443 166.533 34.7444C166.5 34.6445 166.405 34.5948 166.25 34.5948C165.805 34.5948 165.284 34.8224 164.685 35.277C164.086 35.7322 163.464 36.3206 162.821 37.0412C162.177 37.7628 161.55 38.5225 160.94 39.3214C160.33 40.1206 159.792 40.8642 159.325 41.5518C158.859 42.2399 158.505 42.7723 158.26 43.1492C157.683 44.0814 157.141 45.0468 156.629 46.0456C156.118 47.0442 155.708 48.0426 155.398 49.0414ZM156.396 54.1677C155.331 54.1677 154.555 53.8181 154.066 53.1192C153.578 52.4198 153.334 51.5825 153.334 50.6061C153.334 49.8518 153.556 48.9198 154 47.8098C154.443 46.7005 155.036 45.508 155.781 44.2314C156.524 42.9555 157.367 41.7013 158.311 40.4698C159.253 39.2382 160.229 38.1122 161.24 37.0914C162.249 36.0707 163.237 35.2551 164.203 34.6445C165.167 34.0344 166.039 33.7291 166.815 33.7291C167.193 33.7291 167.559 33.8848 167.914 34.1955C168.269 34.5062 168.446 34.861 168.446 35.2603C168.446 35.882 168.202 36.6144 167.714 37.4572C167.226 38.3011 166.582 39.1996 165.783 40.1536C164.985 41.108 164.102 42.0733 163.137 43.0496C162.173 44.0265 161.195 44.9584 160.208 45.8461C159.221 46.7335 158.3 47.5382 157.445 48.2591C156.591 48.9806 155.886 49.5521 155.331 49.9736C155.308 50.1514 155.292 50.3227 155.282 50.4895C155.27 50.6558 155.265 50.828 155.265 51.0054C155.265 51.6266 155.387 52.1265 155.631 52.5034C155.875 52.881 156.331 53.069 156.995 53.069C157.706 53.069 158.399 52.9029 159.076 52.5698C159.753 52.237 160.391 51.8263 160.99 51.3382C161.589 50.8501 162.116 50.3785 162.572 49.9234C163.026 49.4687 163.387 49.1078 163.653 48.8419C163.675 48.8199 163.709 48.8084 163.753 48.8084C163.841 48.8084 163.914 48.8697 163.97 48.9912C164.025 49.1135 164.03 49.2077 163.986 49.2746C163.742 49.5853 163.447 49.9182 163.104 50.273C162.759 50.6282 162.488 50.917 162.288 51.1387C161.533 51.8932 160.646 52.5865 159.626 53.2191C158.604 53.8516 157.528 54.1677 156.396 54.1677Z" fill="white"/>
<path d="M168.113 48.7419C168.402 48.7419 168.778 48.6866 169.245 48.5752C169.711 48.4647 170.178 48.2979 170.643 48.076C171.109 47.8546 171.503 47.5884 171.825 47.2771C172.147 46.9664 172.307 46.6006 172.307 46.1785C172.307 45.9125 172.152 45.7792 171.841 45.7792C171.664 45.7792 171.387 45.8906 171.009 46.112C170.632 46.3342 170.226 46.6006 169.793 46.9108C169.361 47.222 168.967 47.5214 168.613 47.8098C168.257 48.0984 167.991 48.3203 167.814 48.4753C167.791 48.4977 167.78 48.5311 167.78 48.5752C167.78 48.6421 167.825 48.6866 167.913 48.7085C168.002 48.7309 168.068 48.7419 168.113 48.7419ZM166.582 45.879C167.092 45.524 167.78 45.0635 168.646 44.4974C169.511 43.9318 170.438 43.2992 171.425 42.6003C172.412 41.9011 173.361 41.1687 174.271 40.4033C175.181 39.6375 175.963 38.8723 176.618 38.1065C177.272 37.3407 177.677 36.6252 177.833 35.9597C177.833 35.9149 177.838 35.8709 177.85 35.8263C177.86 35.7823 177.867 35.7489 177.867 35.7265C177.867 35.3936 177.688 35.1938 177.334 35.1274C177.267 35.1055 177.201 35.094 177.134 35.094C177.067 35.094 177.001 35.094 176.934 35.094C176.246 35.094 175.497 35.3936 174.687 35.9927C173.877 36.5918 173.051 37.3524 172.208 38.2728C171.363 39.1941 170.565 40.1595 169.81 41.1687C169.056 42.1791 168.396 43.1052 167.83 43.9485C167.265 44.7918 166.849 45.4354 166.582 45.879ZM162.288 53.735C162.132 53.735 161.905 53.7015 161.606 53.6351C161.306 53.5682 161.156 53.4242 161.156 53.2023C161.156 52.914 161.272 52.5034 161.505 51.9707C161.738 51.4381 161.994 50.9055 162.271 50.3728C162.548 49.8402 162.765 49.4296 162.92 49.1413C163.297 48.4534 163.786 47.6046 164.384 46.5945C164.985 45.585 165.677 44.4974 166.465 43.3327C167.253 42.1676 168.09 41.014 168.978 39.8707C169.866 38.728 170.781 37.6853 171.724 36.7416C172.668 35.7985 173.6 35.0438 174.521 34.4782C175.442 33.9121 176.313 33.6294 177.134 33.6294C177.644 33.6294 178.116 33.7347 178.548 33.9456C178.981 34.1569 179.198 34.5729 179.198 35.1938C179.198 35.8598 178.953 36.5699 178.466 37.3239C177.977 38.0792 177.334 38.8443 176.535 39.6207C175.736 40.3982 174.854 41.1525 173.889 41.8848C172.923 42.617 171.952 43.3108 170.976 43.9652C169.999 44.6201 169.09 45.2079 168.247 45.7294C167.403 46.251 166.715 46.6781 166.183 47.0107C166.004 47.2995 165.783 47.7045 165.516 48.2261C165.25 48.7474 165.039 49.1636 164.884 49.4741C165.261 49.1858 165.783 48.7587 166.448 48.1926C167.114 47.6265 167.852 47.0442 168.663 46.4451C169.473 45.8461 170.266 45.3356 171.042 44.9134C171.819 44.4922 172.496 44.2814 173.074 44.2814C173.538 44.2814 173.872 44.4142 174.072 44.6809C174.271 44.9469 174.371 45.3021 174.371 45.7457C174.371 46.2783 174.166 46.7613 173.755 47.194C173.344 47.6265 172.818 48.0096 172.174 48.3424C171.53 48.6751 170.87 48.9304 170.193 49.1078C169.516 49.2857 168.912 49.3745 168.379 49.3745C168.29 49.3745 168.202 49.3745 168.113 49.3745C168.025 49.3745 167.935 49.3632 167.847 49.341C168.113 50.118 168.579 50.8169 169.245 51.4381C169.911 52.0596 170.665 52.37 171.508 52.37C172.484 52.37 173.333 52.1983 174.055 51.8541C174.775 51.5102 175.408 51.0939 175.953 50.6061C176.496 50.118 176.979 49.6628 177.401 49.2411C177.511 49.1302 177.6 49.0744 177.667 49.0744C177.777 49.0744 177.833 49.1636 177.833 49.341C177.833 49.5406 177.755 49.7184 177.6 49.8737C177.222 50.2513 176.968 50.5173 176.835 50.6723C176.701 50.828 176.579 50.9552 176.468 51.0551C176.357 51.1547 176.124 51.3382 175.769 51.6044C175.281 51.9597 174.854 52.2652 174.488 52.5196C174.122 52.775 173.683 53.0026 173.172 53.2023C172.796 53.3578 172.385 53.4853 171.941 53.5849C171.497 53.6848 171.053 53.735 170.609 53.735C170.21 53.735 169.816 53.6848 169.428 53.5849C169.04 53.4853 168.667 53.3022 168.313 53.0355C167.78 52.6586 167.325 52.1592 166.948 51.538C166.571 50.917 166.326 50.3064 166.216 49.7069C165.949 49.8402 165.611 50.085 165.2 50.4393C164.79 50.7945 164.412 51.2329 164.068 51.7545C163.724 52.2758 163.52 52.8582 163.453 53.5017C163.275 53.5682 163.087 53.624 162.888 53.6681C162.687 53.7126 162.488 53.735 162.288 53.735Z" fill="white"/>
<path d="M185.456 52.2035C185.967 51.9156 186.482 51.4605 187.004 50.8391C187.525 50.2176 188.025 49.5074 188.502 48.7085C188.978 47.9097 189.384 47.1106 189.717 46.3118C189.184 46.3118 188.585 46.5064 187.919 46.8941C187.254 47.2828 186.622 47.7714 186.022 48.3587C185.422 48.9472 184.928 49.5573 184.541 50.1898C184.152 50.8223 183.958 51.3941 183.958 51.9039C183.958 52.326 184.125 52.5364 184.457 52.5364C184.701 52.5364 185.034 52.4259 185.456 52.2035ZM190.648 53.8014C189.938 53.8014 189.406 53.6297 189.051 53.2855C188.696 52.9418 188.469 52.5034 188.368 51.9707C188.269 51.4381 188.23 50.9055 188.252 50.3728C187.919 50.8169 187.508 51.2998 187.021 51.8207C186.532 52.3423 185.999 52.7917 185.422 53.1689C184.846 53.5465 184.258 53.735 183.659 53.735C183.215 53.735 182.848 53.6297 182.56 53.4188C182.271 53.208 182.127 52.8695 182.127 52.403C182.127 51.6266 182.377 50.8056 182.877 49.9401C183.375 49.0744 184.013 48.2482 184.79 47.4602C185.567 46.6724 186.4 46.0345 187.286 45.5459C188.175 45.0583 189.007 44.8138 189.783 44.8138C190.005 44.8138 190.316 44.8588 190.715 44.9469C191.115 45.0361 191.475 45.169 191.797 45.3464C192.119 45.524 192.28 45.7686 192.28 46.0785C192.28 46.2343 192.18 46.3233 191.981 46.3452C191.781 46.3674 191.636 46.4338 191.548 46.545C190.904 47.322 190.583 48.5752 190.583 50.3064C190.583 50.5283 190.593 50.828 190.615 51.2049C190.637 51.5825 190.721 51.9156 190.865 52.2035C191.009 52.4923 191.236 52.6362 191.548 52.6362C192.014 52.6362 192.512 52.4365 193.046 52.0372C193.578 51.6379 194.111 51.1547 194.643 50.5891C195.176 50.0233 195.664 49.5074 196.108 49.0414C196.153 48.9745 196.196 48.9415 196.241 48.9415C196.352 48.9415 196.446 49.003 196.524 49.1245C196.601 49.2468 196.595 49.3526 196.507 49.4407C195.975 50.0621 195.458 50.6171 194.96 51.1053C194.46 51.5936 193.944 52.0596 193.412 52.5034C192.391 53.3686 191.47 53.8014 190.648 53.8014Z" fill="white"/>
<path d="M197.14 49.0414C197.873 48.5533 198.721 47.8595 199.687 46.961C200.652 46.0618 201.639 45.0635 202.65 43.9652C203.659 42.8665 204.59 41.7569 205.445 40.6366C206.299 39.5159 206.993 38.4618 207.525 37.474C208.058 36.4867 208.324 35.6825 208.324 35.0605C208.324 34.95 208.308 34.8443 208.275 34.7444C208.241 34.6445 208.147 34.5948 207.992 34.5948C207.548 34.5948 207.027 34.8224 206.427 35.277C205.828 35.7322 205.207 36.3206 204.562 37.0412C203.919 37.7628 203.292 38.5225 202.682 39.3214C202.072 40.1206 201.534 40.8642 201.068 41.5518C200.602 42.2399 200.247 42.7723 200.002 43.1492C199.426 44.0814 198.882 45.0468 198.371 46.0456C197.861 47.0442 197.45 48.0426 197.14 49.0414ZM198.139 54.1677C197.073 54.1677 196.297 53.8181 195.808 53.1192C195.32 52.4198 195.076 51.5825 195.076 50.6061C195.076 49.8518 195.298 48.9198 195.742 47.8098C196.185 46.7005 196.779 45.508 197.522 44.2314C198.266 42.9555 199.109 41.7013 200.053 40.4698C200.995 39.2382 201.971 38.1122 202.982 37.0914C203.991 36.0707 204.979 35.2551 205.945 34.6445C206.91 34.0344 207.781 33.7291 208.557 33.7291C208.934 33.7291 209.3 33.8848 209.656 34.1955C210.011 34.5062 210.188 34.861 210.188 35.2603C210.188 35.882 209.944 36.6144 209.456 37.4572C208.968 38.3011 208.324 39.1996 207.525 40.1536C206.727 41.108 205.845 42.0733 204.879 43.0496C203.914 44.0265 202.937 44.9584 201.95 45.8461C200.963 46.7335 200.041 47.5382 199.187 48.2591C198.332 48.9806 197.628 49.5521 197.073 49.9736C197.051 50.1514 197.034 50.3227 197.023 50.4895C197.011 50.6558 197.007 50.828 197.007 51.0054C197.007 51.6266 197.128 52.1265 197.373 52.5034C197.618 52.881 198.072 53.069 198.737 53.069C199.448 53.069 200.141 52.9029 200.818 52.5698C201.495 52.237 202.133 51.8263 202.732 51.3382C203.331 50.8501 203.859 50.3785 204.314 49.9234C204.768 49.4687 205.129 49.1078 205.395 48.8419C205.417 48.8199 205.451 48.8084 205.495 48.8084C205.583 48.8084 205.656 48.8697 205.711 48.9912C205.766 49.1135 205.772 49.2077 205.728 49.2746C205.484 49.5853 205.19 49.9182 204.846 50.273C204.502 50.6282 204.23 50.917 204.031 51.1387C203.276 51.8932 202.387 52.5865 201.367 53.2191C200.346 53.8516 199.271 54.1677 198.139 54.1677Z" fill="white"/>
<path d="M208.857 50.5724C209.124 50.04 209.357 49.4296 209.556 48.7419C209.756 48.0541 209.878 47.3551 209.922 46.6446C209.967 46.2677 209.883 45.879 209.673 45.4795C209.462 45.0802 209.102 44.8804 208.591 44.8804C208.103 44.8804 207.697 45.0583 207.376 45.4131C207.054 45.7686 206.86 46.2343 206.794 46.811C206.949 46.7005 207.154 46.6006 207.409 46.5113C207.665 46.4232 207.881 46.3782 208.058 46.3782C208.347 46.3782 208.579 46.4505 208.758 46.5945C208.935 46.7393 209.023 46.9002 209.023 47.0776C209.023 47.2995 208.88 47.455 208.591 47.5433C208.325 47.6324 208.041 47.7987 207.742 48.0426C207.443 48.2873 207.226 48.5087 207.093 48.7085C207.271 49.0638 207.526 49.4075 207.859 49.7403C208.191 50.0732 208.525 50.3509 208.857 50.5724ZM206.062 53.1689C206.282 53.1689 206.56 53.0523 206.894 52.8193C207.226 52.5865 207.543 52.326 207.842 52.0372C208.142 51.7493 208.359 51.5161 208.491 51.3382C208.18 51.1608 207.809 50.872 207.376 50.4727C206.943 50.0732 206.605 49.7297 206.361 49.4407C206.228 49.5964 206.083 49.8569 205.928 50.2228C205.773 50.5891 205.64 50.9719 205.528 51.3712C205.417 51.771 205.362 52.1036 205.362 52.37C205.362 52.9029 205.595 53.1689 206.062 53.1689ZM205.262 54.1343C204.752 54.1343 204.347 54.0061 204.047 53.7517C203.748 53.4968 203.599 53.1025 203.599 52.5698C203.599 51.7265 203.815 50.9222 204.247 50.1564C204.679 49.3907 205.14 48.6972 205.629 48.076C205.606 47.9655 205.59 47.8489 205.579 47.7264C205.568 47.6046 205.562 47.488 205.562 47.3771C205.562 46.7335 205.733 46.1344 206.078 45.5794C206.422 45.0251 206.877 44.5754 207.443 44.2314C208.008 43.8877 208.602 43.7153 209.224 43.7153C210 43.7153 210.583 43.9318 210.971 44.3646C211.36 44.7973 211.553 45.402 211.553 46.1785C211.553 46.9999 211.36 47.8378 210.971 48.6918C210.583 49.5462 210.178 50.3175 209.756 51.0054C209.867 51.0718 210.039 51.1387 210.272 51.2049C210.505 51.2713 210.71 51.3048 210.889 51.3048C211.665 51.3048 212.337 51.1665 212.902 50.8888C213.468 50.6115 214.139 50.118 214.915 49.4075C215.026 49.2967 215.115 49.2411 215.182 49.2411C215.27 49.2411 215.315 49.3191 215.315 49.4741C215.315 49.652 215.237 49.8296 215.082 50.0068C214.594 50.6061 213.95 51.0939 213.152 51.4711C212.352 51.8492 211.575 52.0372 210.822 52.0372C210.555 52.0372 210.288 52.0153 210.023 51.9707C209.756 51.9262 209.501 51.8598 209.257 51.771C208.769 52.3924 208.191 52.9418 207.526 53.4188C206.86 53.8956 206.105 54.1343 205.262 54.1343Z" fill="white"/>
<path d="M220.939 53.9347C219.209 53.9347 218.344 53.069 218.344 51.3382C218.344 50.8056 218.471 50.1787 218.726 49.4576C218.981 48.7363 219.253 48.1205 219.542 47.6103C218.299 48.5646 217.3 49.4687 216.545 50.3227C215.792 51.1776 215.248 51.8042 214.915 52.2035C214.827 52.2925 214.715 52.4756 214.582 52.7529C214.449 53.0306 214.294 53.2855 214.116 53.5185C213.938 53.7517 213.739 53.8678 213.517 53.8678C213.295 53.8678 213.139 53.779 213.051 53.6016C212.963 53.4242 212.918 53.2469 212.918 53.069C212.918 52.9585 212.951 52.836 213.017 52.7032C213.306 52.1927 213.644 51.4103 214.033 50.3561C214.421 49.3024 214.737 48.2315 214.982 47.1438C215.026 46.9664 215.065 46.8225 215.097 46.7111C215.131 46.6006 215.181 46.4781 215.248 46.3452C215.359 46.1009 215.597 45.9012 215.963 45.7457C216.33 45.5909 216.624 45.5129 216.846 45.5129C216.956 45.5129 217.073 45.541 217.195 45.5961C217.317 45.6519 217.378 45.7572 217.378 45.9125C217.378 46.0239 217.312 46.2677 217.178 46.6446C217.045 47.0223 216.884 47.4435 216.696 47.9097C216.507 48.3754 216.33 48.8138 216.163 49.2244C215.997 49.6355 215.881 49.9182 215.814 50.0732C215.991 49.9182 216.268 49.6572 216.646 49.2909C217.023 48.9248 217.45 48.5255 217.928 48.0927C218.404 47.6597 218.887 47.2437 219.376 46.8444C219.863 46.4451 220.296 46.112 220.674 45.8461C221.051 45.5794 221.328 45.446 221.506 45.446C221.816 45.446 222.088 45.5186 222.322 45.6625C222.555 45.8074 222.671 46.0569 222.671 46.4117C222.671 46.5671 222.548 46.8225 222.305 47.1773C222.061 47.5328 221.772 47.9542 221.439 48.4423C221.107 48.9304 220.818 49.4525 220.574 50.0068C220.33 50.5618 220.208 51.1168 220.208 51.6713C220.208 52.0706 220.313 52.4092 220.523 52.6864C220.734 52.9642 221.029 53.1025 221.406 53.1025C222.005 53.1025 222.582 52.9642 223.137 52.6864C223.692 52.4092 224.203 52.0706 224.668 51.6713C225.134 51.2713 225.544 50.8782 225.9 50.4895C226.254 50.1012 226.532 49.7959 226.732 49.574C226.754 49.5521 226.776 49.5406 226.798 49.5406C226.843 49.5406 226.899 49.5686 226.965 49.6237C227.032 49.6796 227.065 49.7627 227.065 49.8737C227.065 49.9846 227.02 50.085 226.932 50.1731C226.421 50.7721 225.861 51.3606 225.251 51.9373C224.64 52.5145 223.981 52.9915 223.27 53.3686C222.559 53.7456 221.783 53.9347 220.939 53.9347Z" fill="white"/>
<path d="M228.364 49.574C228.585 49.5295 228.902 49.3907 229.312 49.158C229.722 48.9248 230.128 48.6532 230.527 48.3424C230.704 48.1874 230.948 47.9542 231.26 47.6433C231.57 47.333 231.781 47.0663 231.892 46.8444C232.047 46.5561 232.126 46.3233 232.126 46.1455C232.126 45.879 231.98 45.7457 231.693 45.7457C231.536 45.7457 231.37 45.7792 231.193 45.8461C230.971 45.9346 230.704 46.1565 230.394 46.5113C230.083 46.8668 229.839 47.1438 229.661 47.3436C229.395 47.6767 229.146 48.0374 228.912 48.4256C228.68 48.8138 228.496 49.1971 228.364 49.574ZM229.795 53.9347C228.818 53.9347 227.964 53.7015 227.232 53.2353C226.499 52.7696 226.133 51.9931 226.133 50.9055C226.133 50.2395 226.316 49.5462 226.683 48.8251C227.048 48.1043 227.531 47.4329 228.131 46.811C228.73 46.19 229.379 45.6849 230.078 45.2967C230.776 44.9085 231.469 44.7139 232.157 44.7139C232.513 44.7139 232.812 44.8086 233.057 44.9971C233.301 45.1858 233.423 45.4689 233.423 45.8461C233.423 46.2899 233.229 46.7445 232.84 47.2103C232.452 47.6767 231.975 48.1149 231.409 48.5255C230.843 48.9366 230.272 49.2909 229.695 49.5907C229.118 49.8904 228.64 50.1067 228.263 50.2395C228.197 50.5062 228.164 50.7839 228.164 51.0718C228.164 51.5825 228.303 52.0372 228.58 52.4365C228.857 52.836 229.34 53.0355 230.028 53.0355C230.716 53.0355 231.342 52.8973 231.909 52.6195C232.475 52.3423 232.99 51.9985 233.456 51.5877C233.923 51.1776 234.343 50.7839 234.721 50.4063C235.031 50.0956 235.287 49.835 235.486 49.6237C235.686 49.4134 235.863 49.2298 236.02 49.0744C236.085 49.0079 236.186 48.9745 236.319 48.9745C236.43 48.9745 236.518 49.0136 236.585 49.0911C236.652 49.1691 236.63 49.2633 236.518 49.3745C236.43 49.4854 236.279 49.6461 236.07 49.8569C235.858 50.0683 235.658 50.2786 235.47 50.4895C235.281 50.7008 235.143 50.8501 235.053 50.9389C234.078 51.9818 233.145 52.742 232.258 53.2191C231.37 53.6966 230.549 53.9347 229.795 53.9347Z" fill="white"/>
</g>
<defs>
<clipPath id="clip0_2001_2010">
<rect width="236.621" height="55" fill="white"/>
</clipPath>
</defs>
</svg>
