<svg width="110" height="110" viewBox="0 0 110 110" fill="none" xmlns="http://www.w3.org/2000/svg">
<circle cx="55" cy="55" r="53.5" fill="#C7E9FF" stroke="white" stroke-width="3"/>
<g clip-path="url(#clip0_2181_15744)">
<path d="M55.0054 56.1308C63.3864 56.1308 70.2375 49.2797 70.2375 40.8987C70.2375 32.5177 63.3864 25.6667 55.0054 25.6667C46.6244 25.6667 39.7734 32.5177 39.7734 40.8987C39.7734 49.2797 46.6245 56.1308 55.0054 56.1308Z" fill="white"/>
<path d="M81.1476 68.3031C80.7485 67.3054 80.2165 66.3742 79.6178 65.5094C76.5581 60.9863 71.8356 57.9932 66.5143 57.2615C65.8492 57.195 65.1176 57.3279 64.5854 57.7271C61.7917 59.7891 58.466 60.8533 55.0071 60.8533C51.5482 60.8533 48.2225 59.7891 45.4288 57.7271C44.8967 57.3279 44.165 57.1284 43.4999 57.2615C38.1786 57.9932 33.3896 60.9863 30.3964 65.5094C29.7977 66.3742 29.2656 67.3719 28.8666 68.3031C28.6671 68.7023 28.7335 69.1678 28.933 69.567C29.4652 70.4982 30.1303 71.4295 30.7289 72.2276C31.6601 73.4915 32.6579 74.6221 33.7887 75.6864C34.7199 76.6175 35.7841 77.4823 36.8484 78.347C42.1031 82.2715 48.4221 84.3333 54.9406 84.3333C61.4592 84.3333 67.7782 82.2713 73.0328 78.347C74.0971 77.5488 75.1613 76.6175 76.0926 75.6864C77.1568 74.6221 78.221 73.4913 79.1524 72.2276C79.8175 71.3629 80.4162 70.4982 80.9483 69.567C81.2807 69.1678 81.3471 68.7021 81.1476 68.3031Z" fill="white"/>
</g>
<defs>
<clipPath id="clip0_2181_15744">
<rect width="58.6667" height="58.6667" fill="white" transform="translate(25.668 25.6667)"/>
</clipPath>
</defs>
</svg>
