<svg width="267" height="53" viewBox="0 0 267 53" fill="none" xmlns="http://www.w3.org/2000/svg">
<mask id="path-1-inside-1_2408_15408" fill="white">
<path fill-rule="evenodd" clip-rule="evenodd" d="M5 0C2.23858 0 0 2.23858 0 5V39C0 41.7614 2.23858 44 5 44H20.8038L26 53L31.1962 44H262C264.761 44 267 41.7614 267 39V5C267 2.23858 264.761 0 262 0H5Z"/>
</mask>
<path fill-rule="evenodd" clip-rule="evenodd" d="M5 0C2.23858 0 0 2.23858 0 5V39C0 41.7614 2.23858 44 5 44H20.8038L26 53L31.1962 44H262C264.761 44 267 41.7614 267 39V5C267 2.23858 264.761 0 262 0H5Z" fill="white"/>
<path d="M20.8038 44L21.6699 43.5L21.3812 43H20.8038V44ZM26 53L25.134 53.5L26 55L26.866 53.5L26 53ZM31.1962 44V43H30.6188L30.3301 43.5L31.1962 44ZM1 5C1 2.79086 2.79086 1 5 1V-1C1.68629 -1 -1 1.68629 -1 5H1ZM1 39V5H-1V39H1ZM5 43C2.79086 43 1 41.2091 1 39H-1C-1 42.3137 1.68629 45 5 45V43ZM20.8038 43H5V45H20.8038V43ZM19.9378 44.5L25.134 53.5L26.866 52.5L21.6699 43.5L19.9378 44.5ZM26.866 53.5L32.0622 44.5L30.3301 43.5L25.134 52.5L26.866 53.5ZM262 43H31.1962V45H262V43ZM266 39C266 41.2091 264.209 43 262 43V45C265.314 45 268 42.3137 268 39H266ZM266 5V39H268V5H266ZM262 1C264.209 1 266 2.79086 266 5H268C268 1.68629 265.314 -1 262 -1V1ZM5 1H262V-1H5V1Z" fill="#F5F6F8" mask="url(#path-1-inside-1_2408_15408)"/>
</svg>
