<svg width="138" height="114" viewBox="0 0 138 114" fill="none" xmlns="http://www.w3.org/2000/svg">
<path d="M69 113.215C66.5283 113.215 64.0525 112.629 61.8405 111.522C55.1554 108.177 42.1005 101.003 29.7858 90.544C13.7656 76.9388 4.27007 62.3354 1.56285 47.1394C-0.540166 35.3346 2.46215 23.2839 9.80007 14.0769C16.5958 5.55004 26.2256 0.567137 36.9159 0.0461176C37.5445 0.0153725 38.1814 0 38.8083 0C48.8241 0 58.2791 3.85988 65.4317 10.8687C66.7235 12.1347 67.9149 13.4782 68.9998 14.888C70.0852 13.4782 71.2763 12.1344 72.5684 10.8681C79.7205 3.85988 89.1759 0 99.192 0C99.819 0 100.456 0.0156471 101.084 0.0461176C111.775 0.567137 121.405 5.55004 128.201 14.0774C135.538 23.2845 138.541 35.3352 136.437 47.1397C133.73 62.3354 124.235 76.9391 108.215 90.5443C95.9001 101.002 82.8458 108.177 76.1598 111.523C73.9475 112.63 71.4717 113.215 69 113.215Z" fill="url(#paint0_linear_1685_12089)"/>
<path d="M128.201 14.0775C125.654 10.8811 122.708 8.18292 119.458 6.03076C125.392 14.8425 127.692 25.7647 125.782 36.4843C123.075 51.6801 113.58 66.2837 97.5597 79.889C85.2452 90.347 72.1909 97.5216 65.5049 100.867C63.2927 101.974 60.8169 102.56 58.3452 102.56C55.8735 102.56 53.3977 101.974 51.1857 100.867C44.5005 97.5216 31.4457 90.3475 19.1309 79.889C18.6033 79.441 18.0839 78.9916 17.5703 78.5414C21.0972 82.6187 25.169 86.6233 29.7863 90.5444C42.1011 101.003 55.1559 108.177 61.8411 111.523C64.0533 112.63 66.5291 113.215 69.0005 113.215C71.4722 113.215 73.948 112.63 76.16 111.523C82.846 108.177 95.9003 101.002 108.215 90.5444C124.235 76.9391 133.731 62.3355 136.437 47.1397C138.541 35.3352 135.539 23.2845 128.201 14.0775Z" fill="url(#paint1_linear_1685_12089)"/>
<path d="M101.084 0.0461176C100.456 0.0156471 99.8187 0 99.1917 0C89.1756 0 79.7204 3.85988 72.5681 10.8684C71.2762 12.1344 70.0851 13.4779 69 14.8878V113.215C71.4717 113.215 73.9475 112.63 76.1595 111.522C82.8455 108.177 95.8998 101.002 108.214 90.544C124.234 76.9388 133.73 62.3351 136.437 47.1394C138.54 35.3349 135.538 23.2842 128.2 14.0771C121.404 5.55004 111.774 0.567137 101.084 0.0461176Z" fill="url(#paint2_linear_1685_12089)"/>
<defs>
<linearGradient id="paint0_linear_1685_12089" x1="57.7663" y1="27.4872" x2="105.371" y2="86.9257" gradientUnits="userSpaceOnUse">
<stop stop-color="#FF7044"/>
<stop offset="1" stop-color="#F82814"/>
</linearGradient>
<linearGradient id="paint1_linear_1685_12089" x1="85.1069" y1="71.1165" x2="104.819" y2="113.247" gradientUnits="userSpaceOnUse">
<stop stop-color="#F82814" stop-opacity="0"/>
<stop offset="1" stop-color="#C0272D"/>
</linearGradient>
<linearGradient id="paint2_linear_1685_12089" x1="80.2601" y1="44.797" x2="17.6013" y2="-19.0905" gradientUnits="userSpaceOnUse">
<stop stop-color="#F82814" stop-opacity="0"/>
<stop offset="1" stop-color="#C0272D"/>
</linearGradient>
</defs>
</svg>
