<svg width="25" height="23" viewBox="0 0 25 23" fill="none" xmlns="http://www.w3.org/2000/svg">
<path d="M18.3594 0.464844C17.0028 0.464844 15.759 0.894727 14.6627 1.74258C13.6117 2.55542 12.912 3.59072 12.5 4.34355C12.088 3.59067 11.3883 2.55542 10.3373 1.74258C9.24097 0.894727 7.99722 0.464844 6.64062 0.464844C2.85488 0.464844 0 3.56138 0 7.66768C0 12.1039 3.56167 15.1391 8.95356 19.734C9.86919 20.5143 10.907 21.3988 11.9857 22.3421C12.1279 22.4666 12.3105 22.5352 12.5 22.5352C12.6895 22.5352 12.8721 22.4666 13.0143 22.3421C14.0931 21.3987 15.1309 20.5143 16.047 19.7335C21.4383 15.1391 25 12.1039 25 7.66768C25 3.56138 22.1451 0.464844 18.3594 0.464844Z" fill="#E89570"/>
</svg>
