<svg width="50" height="50" viewBox="0 0 50 50" fill="none" xmlns="http://www.w3.org/2000/svg">
<path d="M9.79134 36.875C7.70801 34.5834 6.45801 32.0834 6.45801 27.9167C6.45801 20.625 11.6663 14.1667 18.958 10.8334L20.833 13.5417C13.958 17.2917 12.4997 22.0834 12.083 25.2084C13.1247 24.5834 14.583 24.375 16.0413 24.5834C19.7913 25 22.708 27.9167 22.708 31.875C22.708 33.75 21.8747 35.625 20.6247 37.0834C19.1663 38.5417 17.4997 39.1667 15.4163 39.1667C13.1247 39.1667 11.0413 38.125 9.79134 36.875ZM30.6247 36.875C28.5413 34.5834 27.2913 32.0834 27.2913 27.9167C27.2913 20.625 32.4997 14.1667 39.7913 10.8334L41.6663 13.5417C34.7913 17.2917 33.333 22.0834 32.9163 25.2084C33.958 24.5834 35.4163 24.375 36.8747 24.5834C40.6247 25 43.5413 27.9167 43.5413 31.875C43.5413 33.75 42.708 35.625 41.458 37.0834C40.208 38.5417 38.333 39.1667 36.2497 39.1667C33.958 39.1667 31.8747 38.125 30.6247 36.875Z" fill="#CBD5EA"/>
</svg>
