<svg width="20" height="20" viewBox="0 0 20 20" fill="none" xmlns="http://www.w3.org/2000/svg">
<circle cx="10" cy="10" r="10" fill="#7BACDF"/>
<path d="M5.17398 10.3261C5.05799 10.2169 5 10.0804 5 9.91667C5 9.75292 5.05799 9.61648 5.17398 9.50728C5.28996 9.39132 5.42641 9.33333 5.58333 9.33333C5.7539 9.33333 5.89035 9.39132 5.99269 9.50728L9.43129 12.9459C9.46542 12.98 9.41426 13.0039 9.27776 13.0175C9.14814 13.0312 9.01511 13.0312 8.87865 13.0175C8.74903 13.0039 8.70127 12.98 8.73538 12.9459L14.5073 7.17398C14.6165 7.058 14.7529 7 14.9167 7C15.0804 7 15.2168 7.058 15.326 7.17398C15.442 7.28314 15.5 7.41959 15.5 7.58333C15.5 7.74707 15.442 7.88353 15.326 7.99269L9.55408 13.7646C9.43129 13.8874 9.27437 13.9488 9.08333 13.9488C8.89912 13.9488 8.7422 13.8874 8.61257 13.7646L5.17398 10.3261Z" fill="white"/>
</svg>
