<svg width="70" height="70" viewBox="0 0 70 70" fill="none" xmlns="http://www.w3.org/2000/svg">
<g clip-path="url(#clip0_1448_12039)">
<path d="M12.1769 66.815C11.7349 66.815 11.2922 66.7104 10.8966 66.5124C9.7011 65.9141 7.36653 64.6312 5.16441 62.7609C2.29963 60.3279 0.60165 57.7165 0.117415 54.999C-0.258664 52.888 0.278277 50.7331 1.59043 49.0866C2.80569 47.5619 4.52769 46.6708 6.43938 46.5776C6.55179 46.5721 6.66571 46.5694 6.77785 46.5694C8.56889 46.5694 10.2597 47.2596 11.5388 48.513C11.7698 48.7395 11.9828 48.9797 12.1769 49.2318C12.371 48.9797 12.584 48.7394 12.815 48.513C14.0941 47.2598 15.7849 46.5695 17.576 46.5695C17.6881 46.5695 17.802 46.5722 17.9144 46.5777C19.8261 46.6709 21.5483 47.562 22.7635 49.0869C24.0757 50.7333 24.6125 52.8883 24.2364 54.9993C23.7523 57.7167 22.0543 60.3282 19.1895 62.7611C16.9874 64.6313 14.653 65.9142 13.4574 66.5125C13.0617 66.7104 12.6189 66.815 12.1769 66.815Z" fill="url(#paint0_linear_1448_12039)"/>
<path d="M22.7634 49.0867C22.3078 48.5152 21.781 48.0326 21.1999 47.6478C22.261 49.2236 22.6724 51.1767 22.3309 53.0936C21.8468 55.811 20.1488 58.4224 17.284 60.8554C15.0819 62.7255 12.7475 64.0086 11.5518 64.6068C11.1563 64.8049 10.7135 64.9095 10.2715 64.9095C9.82955 64.9095 9.38677 64.8049 8.9912 64.6068C7.79571 64.0086 5.46114 62.7256 3.25902 60.8554C3.16473 60.7752 3.0718 60.6949 2.97998 60.6144C3.61067 61.3435 4.3388 62.0595 5.16453 62.7608C7.36678 64.631 9.70122 65.9139 10.8967 66.5122C11.2923 66.7101 11.7351 66.8149 12.177 66.8149C12.619 66.8149 13.0618 66.7103 13.4573 66.5122C14.653 65.9139 16.9874 64.631 19.1895 62.7608C22.0543 60.3278 23.7523 57.7164 24.2364 54.999C24.6125 52.8882 24.0756 50.7333 22.7634 49.0867Z" fill="url(#paint1_linear_1448_12039)"/>
<path d="M17.9143 46.5778C17.8019 46.5723 17.688 46.5695 17.5758 46.5695C15.7846 46.5695 14.0938 47.2598 12.8149 48.513C12.5839 48.7394 12.3708 48.9797 12.1768 49.2319V66.8152C12.6187 66.8152 13.0615 66.7106 13.4571 66.5125C14.6527 65.9142 16.9871 64.6313 19.1892 62.7611C22.054 60.3281 23.752 57.7167 24.2361 54.9993C24.6122 52.8883 24.0754 50.7334 22.7632 49.0869C21.548 47.562 19.826 46.671 17.9143 46.5778Z" fill="url(#paint2_linear_1448_12039)"/>
<path d="M34.3655 60.3219C33.1181 60.3219 31.8687 60.0265 30.7522 59.4679C27.3784 57.7794 20.7899 54.1587 14.575 48.8806C6.48982 42.0143 1.6977 34.6444 0.331331 26.9751C-0.729923 21.0176 0.785233 14.9358 4.48851 10.2892C7.91823 5.98597 12.7782 3.47119 18.1732 3.20821C18.4904 3.1927 18.8119 3.18488 19.1284 3.18488C24.1831 3.18488 28.9547 5.13293 32.5645 8.67013C33.2165 9.30905 33.8177 9.98709 34.3653 10.6986C34.9131 9.98709 35.5143 9.30891 36.1663 8.66999C39.7759 5.13293 44.5477 3.18501 49.6026 3.18501C49.9189 3.18501 50.2405 3.19284 50.5577 3.20835C55.9528 3.47133 60.8128 5.98611 64.2426 10.2896C67.9458 14.9361 69.4609 21.0179 68.3993 26.9753C67.0332 34.6442 62.241 42.0143 54.156 48.8806C47.9412 54.1586 41.3528 57.7792 37.9787 59.4679C36.8624 60.0267 35.6128 60.3219 34.3655 60.3219Z" fill="url(#paint3_linear_1448_12039)"/>
<path d="M64.2428 10.2896C62.9573 8.67644 61.4707 7.31474 59.8304 6.22864C62.825 10.6757 63.9862 16.1879 63.0222 21.5978C61.6561 29.2667 56.8639 36.6368 48.7789 43.5031C42.5641 48.7811 35.9757 52.4017 32.6016 54.0904C31.4852 54.6491 30.2357 54.9444 28.9882 54.9444C27.7409 54.9444 26.4914 54.649 25.375 54.0904C22.0011 52.4019 15.4126 48.7812 9.19773 43.5031C8.93145 43.277 8.66929 43.0503 8.41016 42.823C10.1901 44.8807 12.2451 46.9017 14.5752 48.8806C20.7903 54.1587 27.3788 57.7794 30.7525 59.4679C31.8689 60.0265 33.1184 60.3219 34.3657 60.3219C35.6131 60.3219 36.8627 60.0267 37.979 59.4679C41.3533 57.7794 47.9415 54.1586 54.1563 48.8806C62.2413 42.0143 67.0334 34.6442 68.3996 26.9753C69.4611 21.0179 67.9461 14.9361 64.2428 10.2896Z" fill="url(#paint4_linear_1448_12039)"/>
<path d="M50.5576 3.20833C50.2404 3.19282 49.919 3.185 49.6025 3.185C44.5476 3.185 39.7757 5.13292 36.166 8.66998C35.5141 9.3089 34.913 9.98694 34.3652 10.6985V60.3219C35.6126 60.3219 36.862 60.0266 37.9785 59.4679C41.3527 57.7794 47.941 54.1586 54.1557 48.8806C62.2407 42.0143 67.033 34.6442 68.3991 26.9753C69.4606 21.0178 67.9455 14.9361 64.2423 10.2894C60.8127 5.98596 55.9527 3.47131 50.5576 3.20833Z" fill="url(#paint5_linear_1448_12039)"/>
<path d="M51.5484 66.815C50.8786 66.815 50.2077 66.6565 49.6083 66.3564C47.7969 65.4499 44.2592 63.5058 40.9223 60.6717C36.5812 56.9851 34.0081 53.0279 33.2746 48.9101C32.7047 45.7114 33.5184 42.4458 35.5068 39.9509C37.3483 37.6404 39.9577 36.2902 42.8546 36.149C43.0249 36.1406 43.1974 36.1365 43.3674 36.1365C46.0813 36.1365 48.6434 37.1825 50.5816 39.0817C50.9318 39.4248 51.2544 39.7888 51.5484 40.1708C51.8426 39.7887 52.1653 39.4247 52.5154 39.0816C54.4536 37.1824 57.0157 36.1365 59.7298 36.1365C59.8997 36.1365 60.0723 36.1407 60.2426 36.149C63.1393 36.2902 65.7488 37.6404 67.5904 39.9511C69.5788 42.4459 70.3923 45.7114 69.8223 48.9101C69.0888 53.0278 66.5157 56.9851 62.1746 60.6717C58.8376 63.5057 55.3002 65.4497 53.4885 66.3564C52.8892 66.6565 52.2183 66.815 51.5484 66.815Z" fill="url(#paint6_linear_1448_12039)"/>
<path d="M67.5906 39.9511C66.9003 39.085 66.1022 38.3538 65.2214 37.7706C66.8293 40.1585 67.4528 43.1181 66.9352 46.0228C66.2017 50.1405 63.6286 54.0978 59.2875 57.7845C55.9505 60.6184 52.4131 62.5624 50.6014 63.4691C50.002 63.7692 49.3311 63.9277 48.6613 63.9277C47.9915 63.9277 47.3206 63.7692 46.7212 63.4691C44.9097 62.5626 41.3721 60.6185 38.0352 57.7845C37.8922 57.663 37.7515 57.5412 37.6123 57.4194C38.568 58.5243 39.6714 59.6093 40.9225 60.6719C44.2596 63.5059 47.797 65.4499 49.6085 66.3566C50.2079 66.6566 50.8788 66.8151 51.5486 66.8151C52.2184 66.8151 52.8893 66.6566 53.4887 66.3566C55.3005 65.4499 58.838 63.5058 62.1748 60.6719C66.5159 56.9852 69.089 53.028 69.8225 48.9102C70.3925 45.7115 69.579 42.4459 67.5906 39.9511Z" fill="url(#paint7_linear_1448_12039)"/>
<path d="M60.2425 36.149C60.0721 36.1406 59.8995 36.1365 59.7297 36.1365C57.0156 36.1365 54.4535 37.1824 52.5153 39.0816C52.1653 39.4246 51.8425 39.7887 51.5483 40.1707V66.815C52.2181 66.815 52.889 66.6565 53.4884 66.3564C55.3002 65.4497 58.8377 63.5057 62.1745 60.6717C66.5156 56.9851 69.0887 53.0279 69.8222 48.9101C70.3921 45.7114 69.5787 42.4459 67.5903 39.9511C65.7487 37.6404 63.1392 36.2902 60.2425 36.149Z" fill="url(#paint8_linear_1448_12039)"/>
</g>
<defs>
<linearGradient id="paint0_linear_1448_12039" x1="10.168" y1="51.4849" x2="18.681" y2="62.1139" gradientUnits="userSpaceOnUse">
<stop stop-color="#65E0DB"/>
<stop offset="0.199" stop-color="#60DCD6"/>
<stop offset="0.4277" stop-color="#53D0C8"/>
<stop offset="0.671" stop-color="#3CBCB1"/>
<stop offset="0.9229" stop-color="#1CA191"/>
<stop offset="1" stop-color="#119786"/>
</linearGradient>
<linearGradient id="paint1_linear_1448_12039" x1="15.352" y1="60.2951" x2="20.1164" y2="71.3752" gradientUnits="userSpaceOnUse">
<stop stop-color="#65E0DB" stop-opacity="0"/>
<stop offset="0.1625" stop-color="#49C8BF" stop-opacity="0.163"/>
<stop offset="0.3526" stop-color="#31B3A6" stop-opacity="0.353"/>
<stop offset="0.5508" stop-color="#1FA394" stop-opacity="0.551"/>
<stop offset="0.7603" stop-color="#149A89" stop-opacity="0.76"/>
<stop offset="1" stop-color="#119786"/>
</linearGradient>
<linearGradient id="paint2_linear_1448_12039" x1="14.1904" y1="54.5803" x2="2.98548" y2="43.1556" gradientUnits="userSpaceOnUse">
<stop stop-color="#65E0DB" stop-opacity="0"/>
<stop offset="0.1625" stop-color="#49C8BF" stop-opacity="0.163"/>
<stop offset="0.3526" stop-color="#31B3A6" stop-opacity="0.353"/>
<stop offset="0.5508" stop-color="#1FA394" stop-opacity="0.551"/>
<stop offset="0.7603" stop-color="#149A89" stop-opacity="0.76"/>
<stop offset="1" stop-color="#119786"/>
</linearGradient>
<linearGradient id="paint3_linear_1448_12039" x1="28.696" y1="17.0571" x2="52.7211" y2="47.0544" gradientUnits="userSpaceOnUse">
<stop stop-color="#FF819C"/>
<stop offset="0.2594" stop-color="#FF7E9A"/>
<stop offset="0.4757" stop-color="#FE7396"/>
<stop offset="0.6765" stop-color="#FC628E"/>
<stop offset="0.8668" stop-color="#FA4A83"/>
<stop offset="1" stop-color="#F83479"/>
</linearGradient>
<linearGradient id="paint4_linear_1448_12039" x1="41.2823" y1="39.2092" x2="54.3517" y2="77.4421" gradientUnits="userSpaceOnUse">
<stop stop-color="#F82814" stop-opacity="0"/>
<stop offset="1" stop-color="#C0272D"/>
</linearGradient>
<linearGradient id="paint5_linear_1448_12039" x1="40.0483" y1="25.7929" x2="8.4257" y2="-6.44961" gradientUnits="userSpaceOnUse">
<stop stop-color="#F82814" stop-opacity="0"/>
<stop offset="1" stop-color="#C0272D"/>
</linearGradient>
<linearGradient id="paint6_linear_1448_12039" x1="48.5044" y1="43.5849" x2="61.4042" y2="59.6913" gradientUnits="userSpaceOnUse">
<stop stop-color="#FFD945"/>
<stop offset="0.2567" stop-color="#FFD442"/>
<stop offset="0.5511" stop-color="#FFC63A"/>
<stop offset="0.8628" stop-color="#FFB02C"/>
<stop offset="1" stop-color="#FFA325"/>
</linearGradient>
<linearGradient id="paint7_linear_1448_12039" x1="56.3598" y1="56.9354" x2="63.5796" y2="73.7251" gradientUnits="userSpaceOnUse">
<stop stop-color="#F35227" stop-opacity="0"/>
<stop offset="1" stop-color="#F35227"/>
</linearGradient>
<linearGradient id="paint8_linear_1448_12039" x1="54.5997" y1="48.2754" x2="37.6207" y2="30.9633" gradientUnits="userSpaceOnUse">
<stop stop-color="#F35227" stop-opacity="0"/>
<stop offset="1" stop-color="#F35227"/>
</linearGradient>
<clipPath id="clip0_1448_12039">
<rect width="70" height="70" fill="white"/>
</clipPath>
</defs>
</svg>
